<?xml version="1.0" encoding="utf-8"?>
<!-- Generator: Adobe Illustrator 24.1.2, SVG Export Plug-In . SVG Version: 6.00 Build 0)  -->
<svg version="1.1" id="Icons" xmlns="http://www.w3.org/2000/svg" xmlns:xlink="http://www.w3.org/1999/xlink" x="0px" y="0px"
	 viewBox="0 0 512 512" style="enable-background:new 0 0 512 512;" xml:space="preserve">
<style type="text/css">
	.st0{fill:#3C3C3C;stroke:#3C3C3C;stroke-width:12;stroke-miterlimit:10;}
</style>
<path class="st0" d="M44.3,491.2c-3.8,0-6.9-3.1-6.9-6.9c0-0.7,0.1-1.4,0.3-2l34.5-113.1c-25.5-36.9-39-80.8-38.9-125.7
	c0-123,99.7-222.8,222.8-222.8s222.8,99.7,222.8,222.8S379,466.3,256,466.3l0,0c-25.5,0.1-50.9-4.3-74.9-12.9L46.2,491
	C45.5,491.2,44.9,491.2,44.3,491.2z M256,34.6c-115.3,0.1-208.8,93.6-209,209c-0.1,43.2,13.3,85.3,38.3,120.4c1.2,1.7,1.6,4,1,6
	L54.6,474.3l124.9-34.8c1.4-0.4,2.9-0.3,4.3,0.2c23.1,8.6,47.6,12.9,72.2,12.9c115.4,0,209-93.6,209-209S371.4,34.6,256,34.6z"/>
<path class="st0" d="M256,336c-4.3,0-7.8-3.5-7.8-7.8v-4.1c0.4-34.5,17.1-66.7,45-86.9c27.8-21.1,33.3-60.7,12.2-88.5
	c-11.4-15-28.8-24.2-47.7-25c-16.7-0.7-33,5.7-44.9,17.5c-12.3,11.9-19.2,28.3-19.1,45.5c0,4.3-3.5,7.8-7.8,7.8
	c-4.3,0-7.8-3.5-7.8-7.8c-0.1-21.3,8.5-41.7,23.8-56.6c15-14.6,35.2-22.6,56.1-21.9c43.4,1.7,77.2,38.3,75.5,81.8
	c-0.9,23.5-12.3,45.3-31,59.6c-24,17.3-38.4,44.9-38.9,74.5v4.1C263.8,332.5,260.3,336,256,336z"/>
<path class="st0" d="M256,400.6c-4.3,0-7.8-3.5-7.8-7.8v-18.5c0-4.3,3.5-7.8,7.8-7.8c4.3,0,7.8,3.5,7.8,7.8v18.5
	C263.8,397.1,260.3,400.6,256,400.6z"/>
</svg>
