<svg xmlns="http://www.w3.org/2000/svg" viewBox="0 0 858.41 799.82"><defs><style>.a{opacity:0.37;}.b{fill:#f58420;}</style></defs><path class="b" d="M419.68,267.78A824.3,824.3,0,0,1,415,133.85L158.93,315.06,94.69,360.51c-4.46,3.16-9.38,7.14-9.46,12.61s4.58,9.47,8.84,12.74c75.18,57.61,157.4,106.61,225.55,172.38,25.48,24.6,51.08,52.71,85.68,60.29l-8.74-120.1c-.28-3.92-.34-8.43,2.58-11.05,3.35-3,8.56-1.8,12.83-.42,118.45,38.29,244.26,81.62,320.25,180.22,44,57.12,66.65,127.32,96.57,192.94,6.35,13.94,13.36,28.11,24.92,38.17s28.83,15.05,42.53,8.2c17.78-8.89,21.91-32.07,22.84-51.92,6.64-141-40.53-284.36-131.64-392.21S561.85,283.78,421.13,272.41" transform="translate(-73.28 -121.68)"/><path d="M431.68,267.78A835.74,835.74,0,0,1,427,133.85c.4-8.63-10.67-15.59-18.05-10.36L120.75,327.42c-11.85,8.39-24.08,16.43-35.57,25.32-4.9,3.79-9.36,8.45-11.1,14.57-2.28,8,.53,16,5.93,22,3.93,4.4,9,7.71,13.73,11.26q8.61,6.51,17.31,12.9,16,11.73,32.14,23.16c42.64,30.3,86,59.77,126.36,93.11,22.22,18.35,42.51,38.5,63.49,58.19,19.82,18.6,42,36,69.07,42.15,7.08,1.62,15.78-3.43,15.19-11.57l-7.52-103.37-.86-11.81c-.15-2.08-.36-4.16-.44-6.25a9.05,9.05,0,0,0,0-2c-.53-1.39.42-.18-.3.12s-1.23,1.41-1.9,1.76l-1.19.29c-1.42.25-1.59.34-.52.28-.05-.06,1.17.19.22-.08.89.26,1.82.42,2.71.68,3.19.91,6.32,2,9.47,3.05,13.18,4.28,26.35,8.6,39.48,13.06,51.3,17.41,102.2,36.77,149.57,63.3,46.16,25.85,89.06,58.94,120.54,101.92,36,49.08,57.23,106.67,81.05,162.13,11.21,26.1,22.26,58.93,49,73.18,13.74,7.34,30,9.32,44.36,2.72,12.37-5.66,20.14-17.22,24.63-29.66s5.3-26,5.77-39.07q.79-21.57-.08-43.17A596.69,596.69,0,0,0,921,717.51a588,588,0,0,0-58.32-165.15A552.87,552.87,0,0,0,759.52,414.94a560.4,560.4,0,0,0-136.95-97.36C572.43,292.3,518.51,274.29,463,265.47q-20.85-3.3-41.89-5.06c-6.47-.53-12,5.9-12,12,0,6.94,5.52,11.47,12,12A515.68,515.68,0,0,1,578,323.23,535.57,535.57,0,0,1,716.6,408.39,528.4,528.4,0,0,1,824.66,534.25a561.53,561.53,0,0,1,65.82,156.4c13.81,54.58,20.51,112.43,16.31,168.71-.75,10.09-2.64,21.28-8.46,29.91a33.09,33.09,0,0,1-3.83,4.22,23.61,23.61,0,0,1-5.66,3.13c-5.29,1.84-10.47,1.17-15.92-.7-11.94-4.1-19.83-14.94-25.74-25.58-7.14-12.84-12.74-26.6-18.54-40.07-23.51-54.67-44.44-111.4-79.36-160.13-32-44.71-74.52-80.2-121.78-107.94s-98.29-48-149.78-66q-19.34-6.75-38.79-13.1-9.65-3.17-19.32-6.3c-6.9-2.23-14.2-4.64-21.45-2.35-18.31,5.77-13.28,28.25-12.24,42.65l3.73,51.19,3.65,50.21L408.49,607c-21.43-4.9-39-18.06-54.93-32.68-17.52-16.06-34-33.14-52-48.73-38.8-33.67-80.82-63.39-122.76-93-21.09-14.88-42.19-29.75-62.9-45.15-4.81-3.57-9.7-7.08-14.37-10.82-.45-.36-4.58-4.24-4.58-4.24.46-.19.24,2.37-.18,2.07-.15-.11,10.82-8.42,12-9.24l17.66-12.5L264.49,255,421.1,144.21,403,133.85a835.74,835.74,0,0,0,4.64,133.93c.75,6.44,5,12,12,12,5.91,0,12.75-5.52,12-12Z" transform="translate(-73.28 -121.68)"/></svg>