<?xml version="1.0" encoding="utf-8"?>
<!-- Generator: Adobe Illustrator 24.1.2, SVG Export Plug-In . SVG Version: 6.00 Build 0)  -->
<svg version="1.1" id="Layer_1" xmlns="http://www.w3.org/2000/svg" xmlns:xlink="http://www.w3.org/1999/xlink" x="0px" y="0px"
	 viewBox="0 0 386.2 386.2" style="enable-background:new 0 0 386.2 386.2;" xml:space="preserve">
<style type="text/css">
	.st0{fill:#3C3C3C;}
</style>
<path class="st0" d="M273.5,255.8l-38.4-9.6l-2.6-10.5c10.1-10.5,17.1-24.4,19.6-38.8c6.1-2.4,10.7-8,11.6-14.9l2.6-20.9
	c0.7-5.2-0.9-10.4-4.4-14.4c-1.6-1.8-3.4-3.2-5.5-4.3l0.8-16.7l3.2-3.2c5.4-5.7,12.6-18,0.9-36c-8.4-12.8-22.4-19.3-41.8-19.3
	c-7.4,0-24.4,0-40.4,10.5c-46.4,1.2-52.4,24.3-52.4,44.5c0,4.4,0.9,13.3,1.7,19.8c-2.3,1.1-4.4,2.6-6.1,4.5c-3.5,4-5.1,9.2-4.5,14.5
	l2.6,20.9c0.9,7.3,6.1,13.2,12.9,15.3c2.5,13.7,9.1,27.2,18.6,37.4L149,246l-38.4,9.6c-27.5,7-46.6,31.5-46.6,59.8
	c0,2.1,0.8,4.2,2.3,5.7s3.5,2.3,5.7,2.3h240c4.4,0,8-3.6,8-8C320,287.1,300.9,262.6,273.5,255.8z M80.7,307.4
	c3.1-17.4,16.1-31.7,33.7-36.1l43-10.8c2.9-0.7,5.1-3,5.8-5.8l5.1-20.5c0.7-2.8-0.2-5.8-2.3-7.8c-10-9.4-16.7-23.2-17.8-37
	c-0.3-4.2-3.8-7.4-8-7.4h-1.7c-1.2,0-2.3-0.9-2.4-2.1l-2.6-20.9c-0.1-0.9,0.3-1.6,0.6-1.9c0.3-0.3,0.9-0.8,2.9-0.8
	c2.3,0,4.5-1,6-2.7s2.2-4,1.9-6.3c-0.7-5.3-2.4-20.1-2.4-25.1c0-12.5,0-28.1,39-28.5c1.6,0,3.2-0.5,4.6-1.5
	c12.5-8.9,26.5-8.9,33.2-8.9c13.9,0,23.2,3.9,28.5,12c6.6,10.1,2.9,14.1,1,16l-5.2,5.2c-1.4,1.4-2.2,3.3-2.3,5.3l-1.3,26.1
	c-0.1,2.2,0.7,4.3,2.2,5.9s3.6,2.5,5.7,2.5c1,0,1.6,0.5,1.8,0.8c0.3,0.4,0.7,1,0.6,1.9l-2.6,20.9c-0.2,1.2-1.2,2.1-2.9,2.1
	c-4.2,0-7.6,3.2-8,7.4c-1.1,13.9-8.3,28.4-18.6,37.7c-2.2,2-3.1,5-2.4,7.9l4.9,19.6c0.7,2.8,3,5.1,5.8,5.8l43,10.8
	c17.6,4.4,30.6,18.7,33.7,36.1L80.7,307.4z"/>
</svg>
