<?xml version="1.0" encoding="utf-8"?>
<!-- Generator: Adobe Illustrator 24.1.2, SVG Export Plug-In . SVG Version: 6.00 Build 0)  -->
<svg version="1.1" id="Слой_1" xmlns="http://www.w3.org/2000/svg" xmlns:xlink="http://www.w3.org/1999/xlink" x="0px" y="0px"
	 viewBox="0 0 223.8 223.8" style="enable-background:new 0 0 223.8 223.8;" xml:space="preserve">
<style type="text/css">
	.st0{fill-rule:evenodd;clip-rule:evenodd;fill:#D6E5E5;}
	.st1{fill-rule:evenodd;clip-rule:evenodd;fill:#070808;}
	.st2{fill-rule:evenodd;clip-rule:evenodd;fill:#BBBBBB;}
	.st3{fill-rule:evenodd;clip-rule:evenodd;fill:#116E6F;}
	.st4{fill-rule:evenodd;clip-rule:evenodd;fill:#FEBF10;}
	.st5{fill-rule:evenodd;clip-rule:evenodd;fill:#B4371A;}
</style>
<path class="st0" d="M133.1,20.4c-8.3,5.2-38.5,4.7-49.9,5c1.5-3.8-8.7-5.5,21.3-7.1C114.5,17.7,126.6,15.3,133.1,20.4z M134.4,31
	c-7.5,4.3-44.7,8.3-52.7,3.5C85.5,31.7,124.3,24.6,134.4,31z M139.3,41.7c-4.8,2.6-55.4,7.7-63.6-0.2l55.8-3.2
	C143.1,39.8,135.2,38.4,139.3,41.7L139.3,41.7z M136.9,52.4c-10.7,4.1-40,6.4-48.6,2.7c7.5-7.7,12.9-4.9,24.3-5.6
	C148.8,47.6,132,47.4,136.9,52.4L136.9,52.4z M139.5,63.1c-9.6,4.4-49.4,7-57.6,2.7c7.8-4.2,33.1-5.8,44.2-6.2
	c2.6-0.1,5.2-0.1,7.8,0.1C141.5,61.1,135,59,139.5,63.1L139.5,63.1z M139.1,73.8c-10.8,5.6-44.2,7.9-53.5,2.7
	c7.5-5.7,16.7-3.9,28-4.8C146.3,69.2,134.4,69.2,139.1,73.8L139.1,73.8z M141.8,84.5c-9.3,3.6-21.5,2.3-31.9,3.2
	c-10.2,0.9-20.4,4.5-28.1-1.4c6.2-3.7,37.3-5.6,47-6C145.8,79.6,138,80.1,141.8,84.5L141.8,84.5z M145.1,89.6c-4.2,8.5,0.8,5-13.7,6
	c-14.9,1-33.7,5.3-45.8,3C96.6,88.8,131.3,89.7,145.1,89.6L145.1,89.6z M78.2,102.1c21.9-0.2,71.5,2.1,76.1-13.3
	c2.7-9.1-4.9-73.2-9.2-80c-10-3.3-65.1-0.9-77.3,1C70.1,32.1,67.7,86.9,78.2,102.1z"/>
<path class="st0" d="M154.6,212.2c3.6-13.6-0.3-29.7-3-43.6l-76.2,2.8c1,15.3,2.5,34.1,8.6,45.7C99.8,219.5,141.9,220.9,154.6,212.2
	z"/>
<path class="st0" d="M164.8,115.8c-7.3-8-34.6,0-46.1,2c-10.6,1.9-46,1.9-51.4,4.1c8.6,6.3,10.5,1.7,21.4,0.1
	C106.9,119.4,154.6,124.7,164.8,115.8z"/>
<path class="st1" d="M78.2,102.1c-10.5-15.2-8.1-70-10.4-92.3c12.2-1.9,67.4-4.3,77.3-1c4.2,6.8,11.9,70.9,9.2,80
	C149.7,104.2,100.1,101.9,78.2,102.1z M160.8,105.9c-27.1,3.4-64.9,12.7-92.5,8.7l-0.2-16.3l5.8,8.8c15.3,2.1,31.3-0.5,46.7-1.2
	c26-1,19.5,2.6,39.3-10.9L160.8,105.9z M164.8,115.8c-10.3,9-57.9,3.6-76.1,6.3c-10.9,1.6-12.8,6.1-21.4-0.1
	c5.4-2.2,40.7-2.3,51.4-4.1C130.3,115.8,157.6,107.8,164.8,115.8L164.8,115.8z M169.1,122.3c2.8-10.4-7.7-42.9-9.8-56.8
	c11.5-5.4,27.7-6.8,41.6-4.6c15.2,14,11.3,28.2,13.6,47.6c8,67.5-3.6,47.6-126,56.3c-55,3.9-71.5,27.6-78.9-30.3
	c-6.2-49,1.8-61,54.8-62.6c-5.9,9.6-5.3,49.9,0.3,57.6C72.8,130.9,160.6,125,169.1,122.3L169.1,122.3z M154.6,212.2
	c-12.7,8.7-54.8,7.3-70.6,4.9c-6-11.6-7.6-30.4-8.6-45.7l76.1-2.8C154.3,182.5,158.2,198.6,154.6,212.2L154.6,212.2z M158,167.3
	c48.9,0,72.4,0.9,63.5-55.5c-2.3-14.6-0.6-42.8-12-52.1c-16.8-13.6-33.1-2.4-51.4-2c0-11.5-1.4-12.7-2.5-21.6
	c-1-8.4,0.1-17-0.9-25.8c-15-15.7-20.2-9-39.3-8.6C71.2,2.6,55.9-9.2,63.5,32.1c1.8,10.2,1,22.6,1,33.7c-15.7,0-37.1,3.5-49.8,11.7
	C-4.7,89.8,0.7,106.2,2.8,124.8c5.3,47.9,5.6,62.7,67,47.9c0,15.4,2.1,38.3,11.4,50.1c13,1.5,60.1,1.7,69.4-1.5
	C172.8,213.6,158.4,185.6,158,167.3L158,167.3z"/>
<path class="st1" d="M141.8,84.5c-3.8-4.4,4-4.9-13-4.2c-9.7,0.4-40.8,2.3-47,6c7.7,5.9,17.9,2.3,28.1,1.4
	C120.3,86.8,132.5,88.1,141.8,84.5z"/>
<path class="st1" d="M145.1,89.6c-13.9,0.1-48.6-0.8-59.5,9c12,2.3,30.8-1.9,45.8-3C146,94.6,141,98.1,145.1,89.6z"/>
<path class="st1" d="M21.5,107c-3.8-8-4-4.8-0.1-12.2C33.2,97,35.5,103.8,21.5,107z M34,111.1c2.9-11.1,2.1-13.8-3.7-22.5l-16.8,2.8
	v20.3L34,111.1z"/>
<path class="st1" d="M139.1,73.8c-4.7-4.6,7.1-4.6-25.5-2.1c-11.2,0.8-20.4-0.9-28,4.8C95,81.7,128.3,79.3,139.1,73.8z"/>
<path class="st1" d="M139.5,63.1c-4.6-4.1,2-2-5.6-3.4c-2.6-0.2-5.2-0.2-7.8-0.1c-11.1,0.4-36.4,2-44.2,6.2
	C90.1,70.1,129.9,67.5,139.5,63.1z"/>
<path class="st1" d="M139.3,41.7c-4.1-3.3,3.8-2-7.8-3.4l-55.8,3.2C83.9,49.5,134.5,44.3,139.3,41.7z"/>
<path class="st1" d="M136.9,52.4c-4.8-5,11.9-4.8-24.3-2.9c-11.4,0.6-16.8-2.1-24.3,5.6C96.9,58.8,126.2,56.5,136.9,52.4z"/>
<path class="st1" d="M133.1,20.4c-6.5-5.1-18.6-2.7-28.6-2.1c-30,1.6-19.8,3.4-21.3,7.1C94.6,25.1,124.8,25.5,133.1,20.4z"/>
<path class="st1" d="M134.4,31c-10.1-6.5-49,0.7-52.7,3.5C89.8,39.3,126.9,35.3,134.4,31z"/>
<path class="st1" d="M33,162c0,0.3-2.7,7.1-4.7-0.5C26.7,155.4,33,157,33,162z M37,154.8l-13.4,0.1l-0.9,12.9
	C34.4,172.5,38.6,165.3,37,154.8z"/>
<path class="st2" d="M13.6,111.7V91.4l16.8-2.8c5.8,8.7,6.5,11.4,3.7,22.5L13.6,111.7z M37,154.8c1.7,10.5-2.6,17.7-14.3,13
	l0.9-12.9L37,154.8z M169.1,122.3c-8.5,2.6-96.3,8.6-104.5,7.2c-5.6-7.7-6.2-48.1-0.3-57.6c-53,1.6-61,13.6-54.8,62.6
	c7.4,57.9,23.9,34.2,78.9,30.3c122.4-8.7,134,11.2,126-56.3c-2.3-19.3,1.6-33.6-13.6-47.6c-13.8-2.2-30.1-0.8-41.6,4.6
	C161.4,79.4,172,111.9,169.1,122.3z"/>
<path class="st3" d="M160.8,105.9l-0.9-10.8c-19.8,13.5-13.3,9.9-39.3,10.9c-15.4,0.6-31.4,3.3-46.7,1.2l-5.8-8.8l0.2,16.3
	C95.8,118.6,133.7,109.3,160.8,105.9z"/>
<path class="st4" d="M21.4,94.8c-3.9,7.4-3.7,4.2,0.1,12.2C35.5,103.8,33.2,97,21.4,94.8z"/>
<path class="st5" d="M33,162c0-5-6.3-6.6-4.7-0.5C30.4,169.1,33,162.3,33,162z"/>
</svg>
