<svg xmlns="http://www.w3.org/2000/svg" viewBox="0 0 222.9 223.84"><defs><style>.a{fill:#d6e5e5;}.a,.b,.c,.d,.e,.f{fill-rule:evenodd;}.b{fill:#070808;}.c{fill:#bbb;}.d{fill:#116e6f;}.e{fill:#febf10;}.f{fill:#b4371a;}</style></defs><path class="a" d="M132.65,20.35c-8.27,5.16-38.49,4.74-49.92,5C84.21,21.57,74,19.84,104,18.2,114.06,17.66,126.16,15.25,132.65,20.35ZM133.93,31c-7.54,4.25-44.65,8.25-52.7,3.52C85,31.72,123.81,24.58,133.93,31Zm4.85,10.69c-4.77,2.61-55.37,7.74-63.61-.23L131,38.3C142.6,39.77,134.69,38.38,138.78,41.73Zm-2.39,10.68c-10.71,4.06-40,6.38-48.61,2.67,7.51-7.68,12.9-4.93,24.32-5.56C148.33,47.57,131.55,47.42,136.39,52.41Zm2.67,10.69c-9.64,4.37-49.44,7-57.6,2.69,7.82-4.19,33.11-5.81,44.19-6.18a64.93,64.93,0,0,1,7.8.09C141.07,61.12,134.49,59,139.06,63.1Zm-.4,10.69c-10.83,5.55-44.16,7.93-53.49,2.69,7.51-5.67,16.73-3.91,28-4.76C145.81,69.22,133.93,69.22,138.66,73.79Zm2.67,10.71c-9.27,3.55-21.52,2.33-31.89,3.21-10.18.87-20.44,4.47-28.09-1.42,6.23-3.69,37.3-5.59,47-6C145.32,79.57,137.5,80.14,141.33,84.5Zm3.34,5.1c-4.17,8.54.82,5-13.72,6-14.91,1-33.73,5.3-45.75,3C96.09,88.81,130.78,89.72,144.67,89.6ZM77.72,102.11c21.94-.23,71.52,2.09,76.08-13.3,2.72-9.1-4.93-73.19-9.16-80-10-3.29-65.11-.88-77.35,1C69.58,32.06,67.23,86.88,77.72,102.11Z"/><path class="a" d="M154.11,212.17c3.63-13.55-.28-29.67-3-43.62L74.94,171.3c1,15.33,2.52,34.07,8.56,45.72C99.29,219.49,141.44,220.88,154.11,212.17Z"/><path class="a" d="M164.37,115.77c-7.25-8-34.55,0-46.12,2-10.63,1.87-46,1.9-51.36,4.14,8.64,6.26,10.54,1.67,21.4.11C106.46,119.4,154.08,124.73,164.37,115.77Z"/><path class="b" d="M77.72,102.11c-10.49-15.23-8.14-70-10.43-92.3,12.24-1.9,67.37-4.31,77.35-1,4.23,6.83,11.88,70.92,9.16,80C149.24,104.2,99.66,101.88,77.72,102.11Zm82.6,3.77c-27.1,3.45-64.94,12.69-92.47,8.73l-.22-16.27,5.81,8.84c15.3,2.13,31.26-.54,46.68-1.16,26-1,19.51,2.6,39.26-10.94Zm4.05,9.89c-10.29,9-57.91,3.63-76.08,6.26-10.86,1.56-12.76,6.15-21.4-.11,5.36-2.24,40.73-2.27,51.36-4.14C129.82,115.77,157.12,107.77,164.37,115.77Zm4.28,6.55c2.84-10.44-7.71-42.92-9.83-56.78,11.5-5.42,27.72-6.78,41.55-4.62,15.2,14,11.34,28.23,13.64,47.56C222,176,210.38,156.11,88,164.81,33,168.72,16.46,192.36,9.06,134.48c-6.23-49,1.82-61,54.8-62.59-5.9,9.55-5.31,49.92.31,57.6C72.36,130.88,160.12,125,168.65,122.32Zm-14.54,89.85c-12.67,8.71-54.82,7.32-70.61,4.85-6-11.65-7.6-30.39-8.56-45.72l76.14-2.75C153.83,182.5,157.74,198.62,154.11,212.17Zm3.46-44.84c48.92,0,72.4.91,63.47-55.47-2.3-14.6-.57-42.81-12-52.1-16.81-13.61-33.11-2.39-51.45-2,0-11.54-1.45-12.73-2.47-21.6-1-8.39.14-17-.9-25.82-15-15.68-20.24-9-39.29-8.62C70.74,2.61,55.44-9.21,63,32.12,64.79,42.35,64,54.68,64,65.79c-15.68,0-37.08,3.52-49.84,11.65C-5.2,89.8.22,106.24,2.32,124.81c5.32,47.88,5.61,62.67,67,47.88,0,15.45,2.07,38.29,11.4,50.09,13,1.53,60.12,1.7,69.36-1.51C172.34,213.56,157.94,185.61,157.57,167.33Z"/><path class="b" d="M141.33,84.5c-3.83-4.36,4-4.93-13-4.19-9.72.39-40.79,2.29-47,6,7.65,5.89,17.91,2.29,28.09,1.42C119.81,86.83,132.06,88.05,141.33,84.5Z"/><path class="b" d="M144.67,89.6c-13.89.12-48.58-.79-59.47,9,12,2.35,30.84-1.93,45.75-3C145.49,94.62,140.5,98.14,144.67,89.6Z"/><path class="b" d="M21.05,107c-3.8-8-4-4.79-.11-12.22C32.73,97,35,103.81,21.05,107Zm12.45,4.11c2.86-11.08,2.12-13.78-3.66-22.51L13.09,91.45l0,20.29Z"/><path class="b" d="M138.66,73.79c-4.73-4.57,7.15-4.57-25.54-2.07-11.22.85-20.44-.91-27.95,4.76C94.5,81.72,127.83,79.34,138.66,73.79Z"/><path class="b" d="M139.06,63.1c-4.57-4.08,2-2-5.61-3.4a64.93,64.93,0,0,0-7.8-.09c-11.08.37-36.37,2-44.19,6.18C89.62,70.07,129.42,67.47,139.06,63.1Z"/><path class="b" d="M138.78,41.73c-4.09-3.35,3.82-2-7.8-3.43L75.17,41.5C83.41,49.47,134,44.34,138.78,41.73Z"/><path class="b" d="M136.39,52.41c-4.84-5,11.94-4.84-24.29-2.89-11.42.63-16.81-2.12-24.32,5.56C96.4,58.79,125.68,56.47,136.39,52.41Z"/><path class="b" d="M132.65,20.35c-6.49-5.1-18.59-2.69-28.63-2.15-30,1.64-19.81,3.37-21.29,7.11C94.16,25.09,124.38,25.51,132.65,20.35Z"/><path class="b" d="M133.93,31c-10.12-6.46-49,.68-52.7,3.52C89.28,39.29,126.39,35.29,133.93,31Z"/><path class="b" d="M32.56,162c0,.34-2.66,7.14-4.73-.51C26.21,155.42,32.56,157,32.56,162Zm3.94-7.2-13.41.06-.88,12.92C33.89,172.52,38.17,165.32,36.5,154.8Z"/><path class="c" d="M13.12,111.74l0-20.29,16.75-2.84c5.78,8.73,6.52,11.43,3.66,22.51ZM36.5,154.8c1.67,10.52-2.61,17.72-14.29,13l.88-12.92Zm132.15-32.48c-8.53,2.63-96.29,8.56-104.48,7.17-5.62-7.68-6.21-48.05-.31-57.6-53,1.56-61,13.63-54.8,62.59C16.46,192.36,33,168.72,88,164.81,210.38,156.11,222,176,214,108.48c-2.3-19.33,1.56-33.56-13.64-47.56-13.83-2.16-30.05-.8-41.55,4.62C160.94,79.4,171.49,111.88,168.65,122.32Z"/><path class="d" d="M160.32,105.88l-.94-10.8C139.63,108.62,146.12,105,120.12,106c-15.42.62-31.38,3.29-46.68,1.16l-5.81-8.84.22,16.27C95.38,118.57,133.22,109.33,160.32,105.88Z"/><path class="e" d="M20.94,94.79C17,102.22,17.25,99,21.05,107,35,103.81,32.73,97,20.94,94.79Z"/><path class="f" d="M32.56,162c0-5-6.35-6.58-4.73-.51C29.9,169.14,32.56,162.34,32.56,162Z"/></svg>