<svg xmlns="http://www.w3.org/2000/svg" viewBox="0 0 226.94 186.91"><defs><style>.a{fill:#b9baba;}.a,.b,.c,.d,.e{fill-rule:evenodd;}.b{fill:#16b6b7;}.c{fill:#000101;}.d{fill:#75cbcd;}.e{fill:#babbbb;}</style></defs><path class="a" d="M39.49,72.91c3.29-25.43.62-62.28,37.73-56.36C82,18.88,81.41,26.39,92,30.93L86.77,9.75C55.68.2,38.33,16.53,34.9,45.69,33.59,56.72,33.05,66.22,39.49,72.91Z"/><path class="a" d="M10.77,69.62c12.36,8.3,9.53-2,20.64,13.94L27.5,59.19C15,57.63,12.82,58.22,10.77,69.62Z"/><path class="b" d="M210.84,105.9c-66,8.14-127.53,1.84-192.67,1.59,0,13.92,12.14,51.42,21.72,61.06,16.55,16.66,49.91,9.44,72.17,8C185.67,171.67,192.48,186.8,210.84,105.9Z"/><path class="c" d="M210.84,105.9c-18.36,80.9-25.17,65.77-98.78,70.61-22.26,1.48-55.62,8.7-72.17-8-9.58-9.64-21.75-47.14-21.72-61.06C83.31,107.74,144.85,114,210.84,105.9Zm-203-5.64c3.4-4.05-7.06-5.41,10.4-6.49,2.95-.17,10.21.37,13.66.45l187-1c-4.79,6.75-9.27,7.09-21.18,8.14C162.51,104.43,28.52,106,7.8,100.26ZM41.5,86.8c1.9-13.19,12.11-33.28,27.1-21.92.14,11.82-.2,6.58-12,10.63C47.48,78.69,48.79,81.13,41.5,86.8ZM10.77,69.62c2.05-11.4,4.2-12,16.73-10.43l3.91,24.37C20.3,67.61,23.13,77.92,10.77,69.62Zm28.72,3.29c-6.44-6.69-5.9-16.19-4.59-27.22C38.33,16.53,55.68.2,86.77,9.75L92,30.93c-10.61-4.54-10-12-14.8-14.38C40.11,10.63,42.78,47.48,39.49,72.91ZM29.17,51c-18,0-25.62,4-23.36,23.35,12,9.53,14.55,1.31,18,14.06l-22.33.68c-5,18.66,3.08,1.45,13.2,37.85,3,10.65,8.76,29.05,14.91,38.52C46.41,191.17,82,188.79,111,183.51c32.91-5.95,68.14,10.24,86.6-20.26C209,144.31,215,112.19,219.49,105c5.22-8.48,7.45-5.11,7.45-19.25-30.3,0-56.15,2.66-85.52,2.66H50.57c11.71-16.44,20.47,1.73,27-21.6C72,57.4,72.85,60,64.15,53.4L48.42,58.34c-1.73-17.55,3.94-38.19,25.51-36.09C87.51,28.63,67.69,37.61,96,37.61,116.42-6.69,29.17-22.82,29.17,51Z"/><path class="d" d="M7.8,100.26c20.72,5.73,154.71,4.17,189.83,1,11.91-1,16.39-1.39,21.18-8.14l-186.95,1c-3.45-.08-10.71-.62-13.66-.45C.74,94.85,11.2,96.21,7.8,100.26Z"/><path class="e" d="M41.5,86.8c7.29-5.67,6-8.11,15.14-11.29,11.76-4.05,12.1,1.19,12-10.63C53.61,53.52,43.4,73.61,41.5,86.8Z"/></svg>