<svg xmlns="http://www.w3.org/2000/svg" viewBox="0 0 221.14 200.44"><defs><style>.a{fill:#72c8cb;}.a,.b,.c,.d{fill-rule:evenodd;}.b{fill:#ed4723;}.d{fill:#d5e4e4;}</style></defs><path class="a" d="M191.29,168.4l-.37,6.91c-11.08-3.14-3.91-2.35-10.26.8l-2.24,10.34c7.91,4.79,13.46-4.33,20.12-11.65s10.92-13.29,6.84-22.42c-9.16.65-3.21-2.83-12.16,5.78l4.7,8.25Z"/><path class="a" d="M215.55,159.52c-9.64,13.84-13.07,23.5-27.83,34.39C207.9,193,215.24,178.32,215.55,159.52Z"/><path class="a" d="M71.86,34.94c-10.8,1.5-18,10.52-19.19,21.38C61.86,51.58,69.09,44.69,71.86,34.94Z"/><path class="a" d="M162.49,146.71l-9.72-9.21C153,147.51,154.18,146.6,162.49,146.71Z"/><path class="a" d="M145.28,136.34c-.28-7.51,1.42-9.41-5.75-4.37Z"/><path class="a" d="M175.73,157.8l-8.68-7.66C169.23,156.75,168.75,155.92,175.73,157.8Z"/><path class="a" d="M184.09,162.93l-8.36-5.13Z"/><path class="a" d="M191.29,168.4l-7.2-5.47Z"/><path class="b" d="M167.76,138.55c10.49-11.88,14.34-22.51-.82-33.2-7.26,5.67-14.09,11.46-17.58,19.88C155.6,132.85,158.55,136.76,167.76,138.55Z"/><path class="b" d="M155.37,154.56l-8.61-10c-5.62,5.58-10.8,9-12.33,14.59C145.11,166.47,147.55,163.12,155.37,154.56Z"/><path class="b" d="M138,139.4c-8.08.42-10.6,3.85-12.33,12.47C135.19,150.48,137.51,148.41,138,139.4Z"/><path class="c" d="M187.72,193.91c14.76-10.89,18.19-20.55,27.83-34.39C215.24,178.32,207.9,193,187.72,193.91Zm3.57-25.51-7.2-5.47Zm0,0,6.63-2-4.7-8.25c8.95-8.61,3-5.13,12.16-5.78,4.08,9.13-.17,15.08-6.84,22.42s-12.21,16.44-20.12,11.65l2.24-10.34c6.35-3.15-.82-3.94,10.26-.8Zm-7.2-5.47-8.36-5.13Zm-8.36-5.13c-7-1.88-6.5-1.05-8.68-7.66Zm-8-19.25c-9.21-1.79-12.16-5.7-18.4-13.32,3.49-8.42,10.32-14.21,17.58-19.88C182.1,116,178.25,126.67,167.76,138.55Zm-5.27,8.16c-8.31-.11-9.47.8-9.72-9.21Zm-7.12,7.85c-7.82,8.56-10.26,11.91-20.94,4.62,1.53-5.61,6.71-9,12.33-14.59ZM139.53,132c7.17-5,5.47-3.14,5.75,4.37ZM138,139.4c-.49,9-2.81,11.08-12.33,12.47C127.4,143.25,129.92,139.82,138,139.4ZM71.86,34.94c-2.77,9.75-10,16.64-19.19,21.38C53.86,45.46,61.06,36.44,71.86,34.94Zm4.82,50.63c-8.16.42-5.41-1.11-13.32,6.83l2.89-15.28c-9,2.75-2.38.23-10.2,5.93l-7.66-9.78c43.09-45.84,39-60.44,80.31-10.18,10.54,12.78,22.82,23,34.18,35.74-2.94,7.23-3.68,7.66-10.6,13.58l-33.9,27.9c6.8-5.5,3.54-3.52,4.59-10-13.09,5.53-2.72,8.08-15.11,4.9l20.78-26.1c-13-3.52-15.53,20.58-27.89,19.73-1.81-8.06,5.56-7.77,8.25-19.34-11.11,1.87-6.72,4-14.91,12.28-9.36-10,.59-5.59,3.46-16.64-14.32.73-3.8,6.83-16.7,5.84,3.06-13.52,17.86-15.08,20.38-33.48C91,81.35,84.25,97.36,74.7,103.91,66.28,94.89,72.37,96.28,76.68,85.57ZM42.1,75c11.23,19.24,82.66,90.93,102,96.2l17.09-12.69,17.18,10.34c-29.85,43.06,49.24,45.38,42.32-13.24-8.22-8.33-8.42-10.12-20.92-11.59l-12.9,11.62-13.35-8.73c3-20.52,24-22.62-2.21-48.81-10.63-10.63-28.77-26.65-37.05-37.76C96.47,9.52,103.27,27,68.49,28.17c-8.64.28-12.5,8.81-19.9,14l-35-32.32C12.76,9,8.71,4.64,8.2,4.21c-8.87-7.45-2.81-3-5.95-1.64C1.17,5.63-6.26-1.85,13.61,17.93,50.07,54.22,49.56,47.58,42.1,75Z"/><path class="d" d="M56.05,83.05c7.82-5.7,1.22-3.18,10.2-5.93L63.36,92.4c7.91-7.94,5.16-6.41,13.32-6.83-4.31,10.71-10.4,9.32-2,18.34C84.25,97.36,91,81.35,101.23,77.49c-2.52,18.4-17.32,20-20.38,33.48,12.9,1,2.38-5.11,16.7-5.84-2.87,11.05-12.82,6.69-3.46,16.64,8.19-8.28,3.8-10.41,14.91-12.28-2.69,11.57-10.06,11.28-8.25,19.34,12.36.85,14.85-23.25,27.89-19.73l-20.78,26.1c12.39,3.18,2,.63,15.11-4.9-1,6.49,2.21,4.51-4.59,10l33.9-27.9c6.92-5.92,7.66-6.35,10.6-13.58-11.36-12.78-23.64-23-34.18-35.74C87.34,12.83,91.48,27.43,48.39,73.27Z"/></svg>