<?xml version="1.0" encoding="utf-8"?>
<!-- Generator: Adobe Illustrator 24.1.2, SVG Export Plug-In . SVG Version: 6.00 Build 0)  -->
<svg version="1.1" id="Слой_1" xmlns="http://www.w3.org/2000/svg" xmlns:xlink="http://www.w3.org/1999/xlink" x="0px" y="0px"
	 viewBox="0 0 221.1 221.1" style="enable-background:new 0 0 221.1 221.1;" xml:space="preserve">
<style type="text/css">
	.st0{fill-rule:evenodd;clip-rule:evenodd;fill:#72C8CB;}
	.st1{fill-rule:evenodd;clip-rule:evenodd;fill:#ED4723;}
	.st2{fill-rule:evenodd;clip-rule:evenodd;}
	.st3{fill-rule:evenodd;clip-rule:evenodd;fill:#D5E4E4;}
</style>
<path class="st0" d="M191.3,178.8l-0.4,6.9c-11.1-3.1-3.9-2.4-10.3,0.8l-2.2,10.3c7.9,4.8,13.5-4.3,20.1-11.6s10.9-13.3,6.8-22.4
	c-9.2,0.6-3.2-2.8-12.2,5.8l4.7,8.3L191.3,178.8z"/>
<path class="st0" d="M215.6,169.9c-9.6,13.8-13.1,23.5-27.8,34.4C207.9,203.4,215.2,188.7,215.6,169.9z"/>
<path class="st0" d="M71.9,45.3c-10.8,1.5-18,10.5-19.2,21.4C61.9,61.9,69.1,55,71.9,45.3z"/>
<path class="st0" d="M162.5,157.1l-9.7-9.2C153,157.9,154.2,157,162.5,157.1z"/>
<path class="st0" d="M145.3,146.7c-0.3-7.5,1.4-9.4-5.8-4.4L145.3,146.7z"/>
<path class="st0" d="M175.7,168.2l-8.7-7.7C169.2,167.1,168.8,166.3,175.7,168.2z"/>
<path class="st0" d="M184.1,173.3l-8.4-5.1L184.1,173.3z"/>
<path class="st0" d="M191.3,178.8l-7.2-5.5L191.3,178.8z"/>
<path class="st1" d="M167.8,148.9c10.5-11.9,14.3-22.5-0.8-33.2c-7.3,5.7-14.1,11.5-17.6,19.9C155.6,143.2,158.6,147.1,167.8,148.9z
	"/>
<path class="st1" d="M155.4,164.9l-8.6-10c-5.6,5.6-10.8,9-12.3,14.6C145.1,176.8,147.6,173.5,155.4,164.9z"/>
<path class="st1" d="M138,149.8c-8.1,0.4-10.6,3.9-12.3,12.5C135.2,160.8,137.5,158.8,138,149.8z"/>
<path class="st2" d="M187.7,204.3c14.8-10.9,18.2-20.6,27.8-34.4C215.2,188.7,207.9,203.4,187.7,204.3z M191.3,178.8l-7.2-5.5
	L191.3,178.8z M191.3,178.8l6.6-2l-4.7-8.3c8.9-8.6,3-5.1,12.2-5.8c4.1,9.1-0.2,15.1-6.8,22.4s-12.2,16.4-20.1,11.6l2.2-10.3
	c6.4-3.1-0.8-3.9,10.3-0.8L191.3,178.8z M184.1,173.3l-8.4-5.1L184.1,173.3z M175.7,168.2c-7-1.9-6.5-1.1-8.7-7.7L175.7,168.2z
	 M167.7,148.9c-9.2-1.8-12.2-5.7-18.4-13.3c3.5-8.4,10.3-14.2,17.6-19.9C182.1,126.3,178.3,137,167.7,148.9L167.7,148.9z
	 M162.5,157.1c-8.3-0.1-9.5,0.8-9.7-9.2L162.5,157.1z M155.3,164.9c-7.8,8.6-10.3,11.9-20.9,4.6c1.5-5.6,6.7-9,12.3-14.6
	L155.3,164.9z M139.5,142.4c7.2-5,5.5-3.1,5.8,4.4L139.5,142.4z M138,149.8c-0.5,9-2.8,11.1-12.3,12.5
	C127.4,153.6,129.9,150.2,138,149.8z M71.9,45.3c-2.8,9.8-10,16.6-19.2,21.4C53.9,55.8,61.1,46.8,71.9,45.3z M76.7,95.9
	c-8.2,0.4-5.4-1.1-13.3,6.8l2.9-15.3c-9,2.8-2.4,0.2-10.2,5.9l-7.7-9.8c43.1-45.8,39-60.4,80.3-10.2c10.5,12.8,22.8,23,34.2,35.7
	c-2.9,7.2-3.7,7.7-10.6,13.6l-33.9,27.9c6.8-5.5,3.5-3.5,4.6-10c-13.1,5.5-2.7,8.1-15.1,4.9l20.8-26.1c-13-3.5-15.5,20.6-27.9,19.7
	c-1.8-8.1,5.6-7.8,8.3-19.3c-11.1,1.9-6.7,4-14.9,12.3c-9.4-10,0.6-5.6,3.5-16.6c-14.3,0.7-3.8,6.8-16.7,5.8
	c3.1-13.5,17.9-15.1,20.4-33.5c-10.2,3.8-17,19.9-26.5,26.4C66.3,105.2,72.4,106.6,76.7,95.9z M42.1,85.3
	c11.2,19.2,82.7,90.9,102,96.2l17.1-12.7l17.2,10.3c-29.9,43.1,49.2,45.4,42.3-13.2c-8.2-8.3-8.4-10.1-20.9-11.6L186.9,166
	l-13.4-8.7c3-20.5,24-22.6-2.2-48.8c-10.6-10.6-28.8-26.7-37.1-37.8c-37.8-50.8-31-33.3-65.8-32.2c-8.6,0.3-12.5,8.8-19.9,14
	l-35-32.3c-0.8-0.8-4.9-5.2-5.4-5.6c-8.9-7.4-2.8-3-5.9-1.6C1.2,16-6.3,8.5,13.6,28.3C50.1,64.6,49.6,57.9,42.1,85.3z"/>
<path class="st3" d="M56,93.4c7.8-5.7,1.2-3.2,10.2-5.9l-2.9,15.3c7.9-7.9,5.2-6.4,13.3-6.8c-4.3,10.7-10.4,9.3-2,18.3
	c9.6-6.6,16.3-22.6,26.6-26.4c-2.5,18.4-17.3,20-20.4,33.5c12.9,1,2.4-5.1,16.7-5.8c-2.9,11.1-12.8,6.7-3.5,16.6
	c8.2-8.3,3.8-10.4,14.9-12.3c-2.7,11.6-10.1,11.3-8.3,19.3c12.4,0.9,14.8-23.3,27.9-19.7l-20.8,26.1c12.4,3.2,2,0.6,15.1-4.9
	c-1,6.5,2.2,4.5-4.6,10l33.9-27.9c6.9-5.9,7.7-6.3,10.6-13.6c-11.4-12.8-23.6-23-34.2-35.7C87.3,23.2,91.5,37.8,48.4,83.6L56,93.4z"
	/>
</svg>
