<svg xmlns="http://www.w3.org/2000/svg" viewBox="0 0 160.66 210.88"><defs><style>.a{fill:#bfe5ec;}.a,.b,.c,.d{fill-rule:evenodd;}.b{fill:#010202;}.c{fill:#bbb;}.d{fill:#127173;}</style></defs><path class="a" d="M83.41,163.38c4.88,10.48,1,19.38-11.53,14.34C67.31,169,67.23,172.08,72,162Zm3.09,22.81c21.92-9.78,9.36-49.49-20.52-34.13C44.69,163,63.63,196.4,86.5,186.19Z"/><path class="a" d="M84.21,74.48l-9.07-2.92c-4.06,8.76-4.71,6.35.08,14.17C84.07,85.39,86.08,84.46,84.21,74.48Z"/><path class="a" d="M42.91,145c-.09-6.12-3.69-1.3-1.45-.28C41.49,144.75,43,150.53,42.91,145Z"/><path class="a" d="M39.79,187.81c.34-4.76-1.16.4-1.19.4C36.78,189.31,39.39,193.68,39.79,187.81Z"/><path class="b" d="M7.53,149.8c2.27-29.31,3.63-50.46,1.22-80.08C6.93,47.35,3.39,9.6,32.62,6.48c15.59-1.65,62.93,3.46,82.51,4.33,36.34,1.65,38.5,16.64,35.58,49.87-2.58,29.36-1.5,52.92,1.19,82.09C158.64,216,156,205.44,40.16,201.19,5.43,199.89,5.29,178.88,7.53,149.8Zm153.13,43.45c-.37-31.12-5.1-59.47-5.56-88.18-.34-21.75,7.8-70.73-2-86.21C140.45-1.2,97.7,4.21,74.94,3.47c-26-.82-61.17-14.79-70.87,19.85-5.81,20.74-1.3,61.73-1.19,87,.09,24.27-9,64.23,4.76,83.42,16,22.2,55.87,10.41,80,13.53C112.61,210.49,143.73,217.94,160.66,193.25Z"/><path class="b" d="M31.48,64.25c18-55.25,101.77-41.9,92.75,27.52C117.34,145,10.76,127.89,31.48,64.25ZM99,126.78c59.3-17.26,34.81-122.29-42.75-99.35C29.7,35.28,16.8,73,25.87,98.06,35.54,124.74,74.85,133.78,99,126.78Z"/><path class="b" d="M86.5,186.19C63.63,196.4,44.69,163,66,152.06,95.86,136.7,108.42,176.41,86.5,186.19Zm2.72,5.42c24.41-10.6,17.3-59.67-22.11-46.52C33.72,156.23,56,206,89.22,191.61Z"/><path class="b" d="M75.22,85.73c-4.79-7.82-4.14-5.41-.08-14.17l9.07,2.92C86.08,84.46,84.07,85.39,75.22,85.73Zm-6.6-16.41c-3.21,10.06-3.29,12.3,1.53,21.52l13.09,1.81C101.87,71.53,83.07,59.34,68.62,69.32Z"/><path class="b" d="M114.37,145.49c.17,6.89,2,4.14-3.66,5.38Zm7-1.62c-6.64-5.69-3.55-4.53-12.9-2.89-4.68,8.45-5.73,7.57-.48,16.16C117.94,158.36,122.39,153.85,121.4,143.87Z"/><path class="b" d="M77.49,174.2c-4.22-6.86-4.73-.22.25-7.79C82.93,172.08,80.66,169.3,77.49,174.2Zm5.92-10.82L72,162c-4.76,10-4.68,6.92-.11,15.68C84.46,182.76,88.29,173.86,83.41,163.38Z"/><path class="b" d="M42.91,145c.08,5.5-1.42-.28-1.45-.28C39.22,143.73,42.82,138.91,42.91,145Zm7-6.94-13.75-.82c-3.06,10.74-3.4,5.3.65,14.09C48.89,154.59,52.52,150.11,49.94,138.09Z"/><path class="b" d="M39.79,187.81c-.4,5.87-3,1.5-1.19.4C38.63,188.21,40.13,183.05,39.79,187.81Zm7.51,4.62c-.45-9.72-3.06-13.35-13.15-10.94-4.68,9.44-3.72,4-1.31,13.72C38.23,196.26,44.1,197,47.3,192.43Z"/><path class="b" d="M116.81,188.75c0,.31.45-.83.65-.63Zm4.87,6.8,1.76-10.15-12.9-3-.62,12.36Z"/><path class="c" d="M68.62,69.32c14.45-10,33.25,2.21,14.62,23.33L70.15,90.84C65.33,81.62,65.41,79.38,68.62,69.32ZM31.48,64.25C10.76,127.89,117.34,145,124.23,91.77,133.25,22.35,49.45,9,31.48,64.25Z"/><path class="c" d="M77.74,166.41c-5,7.57-4.47.93-.25,7.79C80.66,169.3,82.93,172.08,77.74,166.41Z"/><path class="c" d="M114.37,145.49l-3.66,5.38C116.41,149.63,114.54,152.38,114.37,145.49Z"/><path class="c" d="M117.46,188.12c-.2-.2-.63.94-.65.63,0-.12-.26.25-.26.25S120.46,191,117.46,188.12Z"/><path class="d" d="M99,126.78c-24.1,7-63.41-2-73.08-28.72C16.8,73,29.7,35.28,56.2,27.43,133.76,4.49,158.25,109.52,99,126.78Zm-49,11.31c2.58,12-1,16.5-13.1,13.27-4.05-8.79-3.71-3.35-.65-14.09Zm71.46,5.78c1,10-3.46,14.49-13.38,13.27-5.25-8.59-4.2-7.71.48-16.16C117.85,139.34,114.76,138.18,121.4,143.87ZM89.22,191.61C56,206,33.72,156.23,67.11,145.09,106.52,131.94,113.63,181,89.22,191.61ZM34.15,181.49c10.09-2.41,12.7,1.22,13.15,10.94-3.2,4.54-9.07,3.83-14.46,2.78C30.43,185.46,29.47,190.93,34.15,181.49Zm75.77,13.32.62-12.36,12.9,3-1.76,10.15ZM7.53,149.8c-2.24,29.08-2.1,50.09,32.63,51.39C156,205.44,158.64,216,151.9,142.77c-2.69-29.17-3.77-52.73-1.19-82.09,2.92-33.23.76-48.22-35.58-49.87-19.58-.87-66.92-6-82.51-4.33C3.39,9.6,6.93,47.35,8.75,69.72,11.16,99.34,9.8,120.49,7.53,149.8Z"/></svg>