<?xml version="1.0" encoding="utf-8"?>
<!-- Generator: Adobe Illustrator 24.1.2, SVG Export Plug-In . SVG Version: 6.00 Build 0)  -->
<svg version="1.1" id="Слой_1" xmlns="http://www.w3.org/2000/svg" xmlns:xlink="http://www.w3.org/1999/xlink" x="0px" y="0px"
	 viewBox="0 0 210.9 210.9" style="enable-background:new 0 0 210.9 210.9;" xml:space="preserve">
<style type="text/css">
	.st0{fill-rule:evenodd;clip-rule:evenodd;fill:#BFE5EC;}
	.st1{fill-rule:evenodd;clip-rule:evenodd;fill:#010202;}
	.st2{fill-rule:evenodd;clip-rule:evenodd;fill:#BBBBBB;}
	.st3{fill-rule:evenodd;clip-rule:evenodd;fill:#127173;}
</style>
<path class="st0" d="M102.4,47.5c-4.9-10.5-1-19.4,11.5-14.3c4.6,8.7,4.7,5.6-0.1,15.7L102.4,47.5z M99.3,24.7
	c-21.9,9.8-9.4,49.5,20.5,34.1C141.1,47.9,122.2,14.5,99.3,24.7z"/>
<path class="st0" d="M101.6,136.4l9.1,2.9c4.1-8.8,4.7-6.4-0.1-14.2C101.7,125.5,99.7,126.4,101.6,136.4z"/>
<path class="st0" d="M142.9,65.9c0.1,6.1,3.7,1.3,1.4,0.3C144.3,66.1,142.8,60.4,142.9,65.9z"/>
<path class="st0" d="M146,23.1c-0.3,4.8,1.2-0.4,1.2-0.4C149,21.6,146.4,17.2,146,23.1z"/>
<path class="st1" d="M178.3,61.1c-2.3,29.3-3.6,50.5-1.2,80.1c1.8,22.4,5.4,60.1-23.9,63.2c-15.6,1.6-62.9-3.5-82.5-4.3
	c-36.3-1.6-38.5-16.6-35.6-49.9c2.6-29.4,1.5-52.9-1.2-82.1C27.1-5.1,29.8,5.4,145.6,9.7C180.4,11,180.5,32,178.3,61.1z M25.1,17.6
	c0.4,31.1,5.1,59.5,5.6,88.2c0.3,21.8-7.8,70.7,2,86.2c12.7,20.1,55.4,14.7,78.2,15.4c26,0.8,61.2,14.8,70.9-19.8
	c5.8-20.7,1.3-61.7,1.2-87c-0.1-24.3,9-64.2-4.8-83.4c-16-22.2-55.9-10.4-80-13.5C73.2,0.4,42.1-7.1,25.1,17.6z"/>
<path class="st1" d="M154.3,146.6c-18,55.3-101.8,41.9-92.7-27.5C68.4,65.9,175,83,154.3,146.6z M86.8,84.1
	c-59.3,17.3-34.8,122.3,42.8,99.4c26.5-7.9,39.4-45.6,30.4-70.6C150.2,86.1,110.9,77.1,86.8,84.1z"/>
<path class="st1" d="M99.3,24.7c22.9-10.2,41.8,23.2,20.5,34.1C89.9,74.2,77.4,34.5,99.3,24.7z M96.6,19.3
	c-24.4,10.6-17.3,59.7,22.1,46.5C152.1,54.7,129.8,4.9,96.6,19.3z"/>
<path class="st1" d="M110.6,125.2c4.8,7.8,4.1,5.4,0.1,14.2l-9.1-2.9C99.7,126.4,101.7,125.5,110.6,125.2z M117.2,141.6
	c3.2-10.1,3.3-12.3-1.5-21.5l-13.1-1.8C83.9,139.4,102.7,151.5,117.2,141.6z"/>
<path class="st1" d="M71.4,65.4c-0.2-6.9-2-4.1,3.7-5.4L71.4,65.4z M64.4,67c6.6,5.7,3.6,4.5,12.9,2.9c4.7-8.4,5.7-7.6,0.5-16.2
	C67.8,52.5,63.4,57,64.4,67L64.4,67z"/>
<path class="st1" d="M108.3,36.7c4.2,6.9,4.7,0.2-0.3,7.8C102.9,38.8,105.1,41.6,108.3,36.7z M102.4,47.5l11.4,1.4
	c4.8-10,4.7-6.9,0.1-15.7C101.3,28.1,97.5,37,102.4,47.5z"/>
<path class="st1" d="M142.9,65.9c-0.1-5.5,1.4,0.3,1.4,0.3C146.6,67.2,143,72,142.9,65.9z M135.9,72.8l13.8,0.8
	c3.1-10.7,3.4-5.3-0.7-14.1C136.9,56.3,133.3,60.8,135.9,72.8L135.9,72.8z"/>
<path class="st1" d="M146,23.1c0.4-5.9,3-1.5,1.2-0.4C147.2,22.7,145.7,27.8,146,23.1z M138.5,18.5c0.4,9.7,3.1,13.4,13.1,10.9
	c4.7-9.4,3.7-4,1.3-13.7C147.6,14.6,141.7,13.9,138.5,18.5z"/>
<path class="st1" d="M69,22.1c0-0.3-0.4,0.8-0.7,0.6L69,22.1z M64.1,15.3l-1.8,10.1l12.9,3l0.6-12.4L64.1,15.3z"/>
<path class="st2" d="M117.2,141.6c-14.4,10-33.3-2.2-14.6-23.3l13.1,1.8C120.5,129.3,120.4,131.5,117.2,141.6z M154.3,146.6
	C175,83,68.4,65.9,61.6,119.1C52.5,188.5,136.3,201.9,154.3,146.6z"/>
<path class="st2" d="M108,44.5c5-7.6,4.5-0.9,0.3-7.8C105.1,41.6,102.9,38.8,108,44.5z"/>
<path class="st2" d="M71.4,65.4l3.7-5.4C69.4,61.3,71.2,58.5,71.4,65.4z"/>
<path class="st2" d="M68.3,22.8c0.2,0.2,0.6-0.9,0.7-0.6c0,0.1,0.3-0.3,0.3-0.3S65.3,19.9,68.3,22.8z"/>
<path class="st3" d="M86.8,84.1c24.1-7,63.4,2,73.1,28.7c9.1,25.1-3.8,62.8-30.3,70.6C52,206.4,27.5,101.4,86.8,84.1z M135.8,72.8
	c-2.6-12,1-16.5,13.1-13.3c4.1,8.8,3.7,3.4,0.7,14.1L135.8,72.8z M64.3,67c-1-10,3.5-14.5,13.4-13.3c5.3,8.6,4.2,7.7-0.5,16.2
	C67.9,71.5,71,72.7,64.3,67L64.3,67z M96.6,19.3c33.2-14.4,55.5,35.4,22.1,46.5C79.3,78.9,72.2,29.9,96.6,19.3z M151.6,29.4
	c-10.1,2.4-12.7-1.2-13.1-10.9c3.2-4.5,9.1-3.8,14.5-2.8C155.4,25.4,156.3,20,151.6,29.4z M75.9,16.1l-0.6,12.4l-12.9-3l1.8-10.1
	L75.9,16.1z M178.3,61.1c2.2-29.1,2.1-50.1-32.6-51.4C29.8,5.4,27.1-5.1,33.9,68.1c2.7,29.2,3.8,52.7,1.2,82.1
	c-2.9,33.2-0.8,48.2,35.6,49.9c19.6,0.9,66.9,6,82.5,4.3c29.2-3.1,25.7-40.9,23.9-63.2C174.6,111.5,176,90.4,178.3,61.1z"/>
</svg>
