<svg xmlns="http://www.w3.org/2000/svg" viewBox="0 0 231.74 125.22"><defs><style>.a{fill:#040201;}.a,.b,.c,.d{fill-rule:evenodd;}.b{fill:#c36428;}.c{fill:#010000;}.d{fill:#bcbcbc;}</style></defs><path class="a" d="M179.89,89.1c7.2-.66,14.46-1.28,21.09-.06,12.53,2.32,9.73,3.26,8.76,15.19l-29,.91Zm-2.63-29.63,32.54,1.62-.11,22.14L178.9,81.9Zm1.84-22c9.18-1.33,20.55-2.49,29.22.68l0,16.3-30.82-1.87Zm-7.23-4.2c-3.54,14.57-.82,63.7,5.81,78.52l38.75-1.95c2.72-13.27-.59-61.83-1.73-78.58C202.2,28.94,182.81,26.93,171.87,33.22Z"/><path class="a" d="M56.81,108.77,25.8,110c-1.27-16-4.11-67.67.71-79l33.22,1.33ZM20.3,115.63l42.64-1.45,3.74-84.67c-16.13-8.16-33-8.87-48.76.34Z"/><path class="a" d="M145.65,42.38c6.49,10.52-.08,4,10.49,6.29,0,0,9-.25,10.15-.25-3.8-6.21-1.73-1.16-2-10.69l-8.27,2C153,44.62,154.1,42.3,145.65,42.38Z"/><path class="a" d="M164.33,7.68C158.18,0,152.85,2.16,143,4.91,148.94,8.7,155.88,7.49,164.33,7.68Z"/><path class="a" d="M145.14,22.54,129.61,19.7C135.67,27.3,134.65,25.94,145.14,22.54Z"/><path class="a" d="M195.8,48.42c-.63-5.67.93-4.08-4.71-4.79C191.09,50,189.47,48.42,195.8,48.42Z"/><path class="a" d="M193.84,96.52c0,2.92,5.53,5.56,3.91,0C196.25,91.36,193.75,91.79,193.84,96.52Z"/><path class="a" d="M193.73,67.72c-5.59.74-4.06-.85-4.62,4.74C195.31,72.46,193.73,74,193.73,67.72Z"/><path class="a" d="M44.31,72.29c6.41-2.41,2.41.51,4.65-5-.65.36-1.93,0-2.07.93Z"/><path class="b" d="M44.31,72.29l2.58-4c.14-1,1.42-.57,2.07-.93C46.72,72.8,50.72,69.88,44.31,72.29Zm15.42-40L26.51,31c-4.82,11.36-2,63-.71,79l31-1.25Z"/><path class="b" d="M171.87,33.22c10.94-6.29,30.33-4.28,42.83-2,1.14,16.75,4.45,65.31,1.73,78.58l-38.75,1.95C171.05,96.92,168.33,47.79,171.87,33.22Zm-7.57,4.51c.26,9.53-1.81,4.48,2,10.69.85,10.54,2.83,19.87,3.65,29.28,1.14,12.78-1.13,24.15.74,36.65l48.81,1c2.1-17.66,5.76-77.53-2.15-88-5.84-3.92-34.33,0-45,.05C157.61,32.74,172.3,29.17,164.3,37.73Z"/><path class="b" d="M17.92,29.85c15.76-9.21,32.63-8.5,48.76-.34l-3.74,84.67L20.3,115.63ZM17.35,117l50.38.88.85-76.2,29.11-2.41c-24.61-4.93-17.89,5-32.88-15.76L15.26,22.2C13,36.29,13.7,104.54,17.35,117Z"/><path class="b" d="M193.73,67.72l.56,5.56-5.18-.82C189.67,66.87,188.14,68.46,193.73,67.72ZM178.9,81.9l30.79,1.33.11-22.14-32.54-1.62Z"/><path class="b" d="M160.31,32.71c-4.68-8.78,9.32-4.81-22.48-6.06-13.55-.51-8.14-4-19.39,3.31-11.09-8.84-19.65-5.83-44.56-6.37C75.24,27.7,69.57,30.3,89.5,32c7.9.65,15.93.68,23.89,1.13C127.79,33.88,148.34,38.5,160.31,32.71Z"/><path class="b" d="M191.09,43.63c5.64.71,4.08-.88,4.71,4.79l-5.76.37Zm-13.61,8.9L208.3,54.4l0-16.3c-8.67-3.17-20-2-29.22-.68Z"/><path class="b" d="M193.84,96.52c-.09-4.73,2.41-5.16,3.91,0C199.37,102.08,193.87,99.44,193.84,96.52Zm15.9,7.71c1-11.93,3.77-12.87-8.76-15.19-6.63-1.22-13.89-.6-21.09.06l.88,16Z"/><path class="b" d="M145.65,42.38c8.45-.08,7.31,2.24,10.38-2.64L135,41.33Z"/><path class="c" d="M156,39.74l8.27-2c8-8.56-6.69-5,8.08-10.32,10.63,0,39.12-4,45-.05,7.91,10.48,4.25,70.35,2.15,88l-48.81-1c-1.87-12.5.4-23.87-.74-36.65-.82-9.41-2.8-18.74-3.65-29.28-1.11,0-10.15.25-10.15.25-10.57-2.29-4,4.23-10.49-6.29L135,41.33ZM17.35,117C13.7,104.54,13,36.29,15.26,22.2l49.55,1.33c15,20.75,8.27,10.83,32.88,15.76L68.58,41.7l-.85,76.2Zm143-84.31c-12,5.79-32.52,1.17-46.92.37-8-.45-16-.48-23.89-1.13C69.57,30.3,75.24,27.7,73.88,23.59c24.91.54,33.47-2.47,44.56,6.37,11.25-7.34,5.84-3.82,19.39-3.31C169.63,27.9,155.63,23.93,160.31,32.71ZM143,4.91c9.81-2.75,15.14-5,21.29,2.77,14.8.8,51.08-3.09,61.14,3.24l.2,5.44c-12.67,8.16-62.3,2.58-80.53,6.18-10.49,3.4-9.47,4.76-15.53-2.84L8.09,15C7.55.91,19.65,7.06,33.37,7,55.14,7,132.55,7.77,143,4.91ZM9.93,120c10.51,7.32,50.65,6.13,64.46,1.51.54-2.1,1.81-27.25,1.84-32.89.11-14.23-.09-28.6-.09-42.86,44.57,0,64.12,5.33,82.86,5.33.23,10.35,4,22.59,5,32.49,2.89,28.83-16,50.43,61.4,36.56,1.53-19.78,3.46-44.27,3.23-63.77-.14-12.82-3.8-22.43-.42-29.66,5.5-11.79,3,13.47,3-26.39-16.18,0-24.66,4.31-42.32,2.27C155.83-1.24,90.35.31,54.77.31c-77.5,0-51,0-48.07,32C9.3,61.23,7,90.65,9.93,120Z"/><path class="c" d="M195.8,48.42c-6.33,0-4.71,1.56-4.71-4.79L190,48.79Z"/><path class="c" d="M189.11,72.46l5.18.82-.56-5.56C193.73,74,195.31,72.46,189.11,72.46Z"/><path class="d" d="M129.61,19.7l15.53,2.84c18.23-3.6,67.86,2,80.53-6.18l-.2-5.44c-10.06-6.33-46.34-2.44-61.14-3.24-8.45-.19-15.39,1-21.29-2.77C132.55,7.77,55.14,7,33.37,7,19.65,7.06,7.55.91,8.09,15Z"/></svg>