<?xml version="1.0" encoding="utf-8"?>
<!-- Generator: Adobe Illustrator 24.1.2, SVG Export Plug-In . SVG Version: 6.00 Build 0)  -->
<svg version="1.1" id="Слой_1" xmlns="http://www.w3.org/2000/svg" xmlns:xlink="http://www.w3.org/1999/xlink" x="0px" y="0px"
	 viewBox="0 0 231.7 231.7" style="enable-background:new 0 0 231.7 231.7;" xml:space="preserve">
<style type="text/css">
	.st0{fill-rule:evenodd;clip-rule:evenodd;fill:#040201;}
	.st1{fill-rule:evenodd;clip-rule:evenodd;fill:#C36428;}
	.st2{fill-rule:evenodd;clip-rule:evenodd;fill:#010000;}
	.st3{fill-rule:evenodd;clip-rule:evenodd;fill:#BCBCBC;}
</style>
<path class="st0" d="M179.9,142.4c7.2-0.7,14.5-1.3,21.1-0.1c12.5,2.3,9.7,3.3,8.8,15.2l-29,0.9L179.9,142.4z M177.3,112.7l32.5,1.6
	l-0.1,22.1l-30.8-1.3L177.3,112.7z M179.1,90.7c9.2-1.3,20.6-2.5,29.2,0.7v16.3l-30.8-1.9L179.1,90.7z M171.9,86.5
	c-3.5,14.6-0.8,63.7,5.8,78.5l38.8-1.9c2.7-13.3-0.6-61.8-1.7-78.6C202.2,82.2,182.8,80.2,171.9,86.5L171.9,86.5z"/>
<path class="st0" d="M56.8,162l-31,1.2c-1.3-16-4.1-67.7,0.7-79l33.2,1.3L56.8,162z M20.3,168.9l42.6-1.4l3.7-84.7
	c-16.1-8.2-33-8.9-48.8,0.3L20.3,168.9z"/>
<path class="st0" d="M145.6,95.6c6.5,10.5-0.1,4,10.5,6.3c0,0,9-0.3,10.1-0.3c-3.8-6.2-1.7-1.2-2-10.7l-8.3,2
	C153,97.9,154.1,95.6,145.6,95.6z"/>
<path class="st0" d="M164.3,60.9c-6.2-7.7-11.5-5.5-21.3-2.8C148.9,62,155.9,60.8,164.3,60.9z"/>
<path class="st0" d="M145.1,75.8L129.6,73C135.7,80.6,134.6,79.2,145.1,75.8z"/>
<path class="st0" d="M195.8,101.7c-0.6-5.7,0.9-4.1-4.7-4.8C191.1,103.3,189.5,101.7,195.8,101.7z"/>
<path class="st0" d="M193.8,149.8c0,2.9,5.5,5.6,3.9,0C196.3,144.6,193.8,145.1,193.8,149.8z"/>
<path class="st0" d="M193.7,121c-5.6,0.7-4.1-0.8-4.6,4.7C195.3,125.7,193.7,127.3,193.7,121z"/>
<path class="st0" d="M44.3,125.6c6.4-2.4,2.4,0.5,4.7-5c-0.7,0.4-1.9,0-2.1,0.9L44.3,125.6z"/>
<path class="st1" d="M44.3,125.6l2.6-4c0.1-1,1.4-0.6,2.1-0.9C46.7,126.1,50.7,123.1,44.3,125.6z M59.7,85.6l-33.2-1.3
	c-4.8,11.4-2,63-0.7,79l31-1.3L59.7,85.6z"/>
<path class="st1" d="M171.9,86.5c10.9-6.3,30.3-4.3,42.8-2c1.1,16.8,4.4,65.3,1.7,78.6l-38.8,1.9
	C171.1,150.2,168.3,101.1,171.9,86.5z M164.3,91c0.3,9.5-1.8,4.5,2,10.7c0.9,10.5,2.8,19.9,3.6,29.3c1.1,12.8-1.1,24.1,0.7,36.6
	l48.8,1c2.1-17.7,5.8-77.5-2.1-88c-5.8-3.9-34.3,0-45,0C157.6,86,172.3,82.4,164.3,91L164.3,91z"/>
<path class="st1" d="M17.9,83.1c15.8-9.2,32.6-8.5,48.8-0.3l-3.7,84.7l-42.6,1.4L17.9,83.1z M17.4,170.3l50.4,0.9l0.8-76.2l29.1-2.4
	c-24.6-4.9-17.9,5-32.9-15.8l-49.5-1.3C13,89.6,13.7,157.8,17.4,170.3z"/>
<path class="st1" d="M193.7,121l0.6,5.6l-5.2-0.8C189.7,120.1,188.1,121.7,193.7,121z M178.9,135.2l30.8,1.3l0.1-22.1l-32.5-1.6
	L178.9,135.2z"/>
<path class="st1" d="M160.3,86c-4.7-8.8,9.3-4.8-22.5-6.1c-13.6-0.5-8.1-4-19.4,3.3c-11.1-8.8-19.7-5.8-44.6-6.4
	c1.4,4.1-4.3,6.7,15.6,8.4c7.9,0.7,15.9,0.7,23.9,1.1C127.8,87.1,148.3,91.8,160.3,86z"/>
<path class="st1" d="M191.1,96.9c5.6,0.7,4.1-0.9,4.7,4.8l-5.8,0.4L191.1,96.9z M177.5,105.8l30.8,1.9V91.4c-8.7-3.2-20-2-29.2-0.7
	L177.5,105.8z"/>
<path class="st1" d="M193.8,149.8c-0.1-4.7,2.4-5.2,3.9,0C199.4,155.3,193.9,152.7,193.8,149.8z M209.7,157.5
	c1-11.9,3.8-12.9-8.8-15.2c-6.6-1.2-13.9-0.6-21.1,0.1l0.9,16L209.7,157.5z"/>
<path class="st1" d="M145.6,95.6c8.4-0.1,7.3,2.2,10.4-2.6l-21,1.6L145.6,95.6z"/>
<path class="st2" d="M156,93l8.3-2c8-8.6-6.7-5,8.1-10.3c10.6,0,39.1-4,45,0c7.9,10.5,4.3,70.3,2.1,88l-48.8-1
	c-1.9-12.5,0.4-23.9-0.7-36.7c-0.8-9.4-2.8-18.7-3.6-29.3c-1.1,0-10.1,0.3-10.1,0.3c-10.6-2.3-4,4.2-10.5-6.3L135,94.6L156,93z
	 M17.4,170.3c-3.7-12.5-4.4-80.7-2.1-94.8l49.5,1.3c15,20.8,8.3,10.8,32.9,15.8L68.6,95l-0.8,76.2L17.4,170.3z M160.4,86
	c-12,5.8-32.5,1.2-46.9,0.4c-8-0.4-16-0.5-23.9-1.1c-20-1.6-14.3-4.2-15.7-8.3c24.9,0.5,33.5-2.5,44.6,6.4
	c11.3-7.3,5.8-3.8,19.4-3.3C169.6,81.2,155.6,77.2,160.4,86L160.4,86z M143,58.2c9.8-2.8,15.1-5,21.3,2.8
	c14.8,0.8,51.1-3.1,61.1,3.2l0.2,5.4c-12.7,8.2-62.3,2.6-80.5,6.2c-10.5,3.4-9.5,4.8-15.5-2.8L8.1,68.3c-0.5-14.1,11.6-7.9,25.3-8
	C55.1,60.3,132.6,61,143,58.2z M9.9,173.3c10.5,7.3,50.7,6.1,64.5,1.5c0.5-2.1,1.8-27.3,1.8-32.9c0.1-14.2-0.1-28.6-0.1-42.9
	c44.6,0,64.1,5.3,82.9,5.3c0.2,10.3,4,22.6,5,32.5c2.9,28.8-16,50.4,61.4,36.6c1.5-19.8,3.5-44.3,3.2-63.8
	c-0.1-12.8-3.8-22.4-0.4-29.7c5.5-11.8,3,13.5,3-26.4c-16.2,0-24.7,4.3-42.3,2.3c-33.1-3.8-98.5-2.3-134.1-2.3c-77.5,0-51,0-48.1,32
	C9.3,114.5,7,143.9,9.9,173.3z"/>
<path class="st2" d="M195.8,101.7c-6.3,0-4.7,1.6-4.7-4.8l-1.1,5.2L195.8,101.7z"/>
<path class="st2" d="M189.1,125.7l5.2,0.8l-0.6-5.6C193.7,127.3,195.3,125.7,189.1,125.7z"/>
<path class="st3" d="M129.6,73l15.5,2.8c18.2-3.6,67.9,2,80.5-6.2l-0.2-5.4c-10.1-6.3-46.3-2.4-61.1-3.2c-8.4-0.2-15.4,1-21.3-2.8
	c-10.5,2.9-87.9,2.1-109.7,2.1c-13.7,0.1-25.8-6.1-25.3,8L129.6,73z"/>
</svg>
