<svg xmlns="http://www.w3.org/2000/svg" viewBox="0 0 209.12 176.6"><defs><style>.a{fill:#f4841f;}.a,.b,.c{fill-rule:evenodd;}.b{fill:#fdbe10;}.c{fill:#010000;}</style></defs><path class="a" d="M117.69,160.92c16.9,7.09,44.42-10,45.07-28.85C150.83,131.39,113.44,143.26,117.69,160.92Z"/><path class="a" d="M131.1,133.82l29.2-10,10.57,8.81,2.18-11.82c-7.82.06-16,2.58-24,4.09C140.77,126.48,137.25,128.38,131.1,133.82Z"/><path class="a" d="M113,146.92c-6,8.31-12,17.94,2.21,20.89C107.8,159.25,109.78,157.41,113,146.92Z"/><path class="a" d="M128.69,77.5c-3,2.52,4.37,8.84,1.81,3.17C130.48,80.59,133.51,73.47,128.69,77.5Z"/><path class="a" d="M164.18,80.53c-.2.31,1,.94.6.94-.15,0,.25.37.25.37S167.35,75.69,164.18,80.53Z"/><path class="a" d="M131.1,133.82l-4.48,1.08Z"/><path class="b" d="M173.22,9.47c-15.13,20.24,17.41,23,11.45,48.87C156.61,74.61,62,23.61,21.09,65.68c-17.61,18.08-21,48.53,1.75,64.66,16.16,11.45,60.84,11.48,82.24,13.72,12.92-13.78,26.19-16.5,39.48-26.39-29.25-33.06-90.68,0-95-37.73,24.35-34.56,127,17.12,153.78-16.13C202.48,33.42,172.68,45.69,173.22,9.47Z"/><path class="c" d="M113,146.92c-3.26,10.49-5.24,12.33,2.21,20.89C101.08,164.86,107,155.23,113,146.92Zm18.06-13.1-4.48,1.08ZM128.69,77.5c4.82-4,1.79,3.09,1.81,3.17C133.06,86.34,125.69,80,128.69,77.5Zm34.07,54.57c-.65,18.87-28.17,35.94-45.07,28.85C113.44,143.26,150.83,131.39,162.76,132.07Zm2-50.6c.36,0-.8-.63-.6-.94ZM131.1,133.82c6.15-5.44,9.67-7.34,18-8.95,7.91-1.51,16.13-4,24-4.09l-2.18,11.82-10.57-8.81ZM173.22,9.47c-.54,36.22,29.26,24,30.08,54.34C176.57,97.06,73.87,45.38,49.52,79.94c4.36,37.73,65.79,4.67,95,37.73-13.29,9.89-26.56,12.61-39.48,26.39-21.4-2.24-66.08-2.27-82.24-13.72C.08,114.21,3.48,83.76,21.09,65.68,62,23.61,156.61,74.61,184.67,58.34,190.63,32.51,158.09,29.71,173.22,9.47ZM185.27,0c-14,.31-25.85,7.26-21.94,21.83,4.7,17.46,19.16,20.58,14.6,32.31-22,8.7-124.22-36.85-163.11,7.94-22,25.31-26.73,74.81,37.36,84.39l47.57,3.2,2.8,21,13.36,5.95c22.19-13.3,67.32-24,63.32-58.31-13.18-10.4-10.83-3.18-25.34-1.39-46-45.38-93.68-3.66-96.92-39.4,42-.88,7.26-4,63.7.48l5.87,12.53c8.47-1.3,7.45-.45,11.31-7.43,6.2,8.37,12.61,14.29,18.7,0,3.35,4.51,4,6.13,10.24,8l6.74-7.88,8.79,8.39c7.8-6.07,7.06-9.27,12.22-12.85,6.6-4.59,5.44-1.19,14.09-10,2-16.76-1.87-24.52-15.34-34C172.74,20.24,180.79,16.33,185.27,0Z"/></svg>