<svg xmlns="http://www.w3.org/2000/svg" viewBox="0 0 184.5 178.94"><defs><style>.a{fill:#040404;}.a,.b,.c,.d,.e{fill-rule:evenodd;}.c{fill:#bbb;}.d{fill:#070707;}.e{fill:#a1a1a1;}</style></defs><path class="a" d="M115.74,126c9.15-3.23,9.72-13.21,22.7-7.23,9.92,4.54,15.25,13.27,19.17,22.85-2.64,11.28-4.43,4.88-4.85,15.19C191.85,143.37,117.55,81.77,115.74,126Z"/><path class="b" d="M16.64,7C43,7.9,73.7,73.32,113.24,93.65c21.35,11,30.31.28,54.68,27.95,34.16,38.8-28.23,79-59.78,23.36-12.41-21.89,6.58-24.47-23.13-52.7C68.85,76.9-24,34.8,16.64,7Zm157,158.8c5.36-9.1,25.74-24.89-9-56.61-24.12-22-36-12.47-59.38-28.09C84.56,67.26,67.92,44.33,53.8,25.25c-19.73-26.68-44-34.64-52-12C-12.9,54.59,68.31,77,90,107.48c16.33,22.88-5,28.43,28.8,58,8.28,7.23,17.69,13.12,28.71,13.43,8.28.23,16.39-.93,22.65-6.8C181.11,161.94,169,173.76,173.68,165.79Z"/><path class="c" d="M28.35,35.54l-5.76,4.31L16.64,17.51c9.13,2.24,7,2.69,15.45,2.24,5.24,16,.56,2.27,7,9,5.33,5.59,2.78,7.57-2.44,11.26ZM115.74,126c1.81-44.22,76.11,17.38,37,30.81.42-10.31,2.21-3.91,4.85-15.19-3.92-9.58-9.25-18.31-19.17-22.85C125.46,112.78,124.89,122.76,115.74,126ZM16.64,7C-24,34.8,68.85,76.9,85,92.26c29.71,28.23,10.72,30.81,23.13,52.7,31.55,55.67,93.94,15.44,59.78-23.36-24.37-27.67-33.33-17-54.68-27.95C73.7,73.32,43,7.9,16.64,7Z"/><path class="d" d="M28.35,35.54,26.93,26.1Zm0,0,8.33,4.51c5.22-3.69,7.77-5.67,2.44-11.26-6.47-6.77-1.79,7-7-9-8.45.45-6.32,0-15.45-2.24l5.95,22.34Z"/><path class="e" d="M28.35,35.54,26.93,26.1Z"/></svg>