<?xml version="1.0" encoding="utf-8"?>
<!-- Generator: Adobe Illustrator 24.1.2, SVG Export Plug-In . SVG Version: 6.00 Build 0)  -->
<svg version="1.1" id="Слой_1" xmlns="http://www.w3.org/2000/svg" xmlns:xlink="http://www.w3.org/1999/xlink" x="0px" y="0px"
	 viewBox="0 0 184.5 184.5" style="enable-background:new 0 0 184.5 184.5;" xml:space="preserve">
<style type="text/css">
	.st0{fill-rule:evenodd;clip-rule:evenodd;fill:#040404;}
	.st1{fill-rule:evenodd;clip-rule:evenodd;}
	.st2{fill-rule:evenodd;clip-rule:evenodd;fill:#BBBBBB;}
	.st3{fill-rule:evenodd;clip-rule:evenodd;fill:#070707;}
	.st4{fill-rule:evenodd;clip-rule:evenodd;fill:#A1A1A1;}
</style>
<path class="st0" d="M115.7,128.8c9.2-3.2,9.7-13.2,22.7-7.2c9.9,4.5,15.3,13.3,19.2,22.8c-2.6,11.3-4.4,4.9-4.9,15.2
	C191.9,146.1,117.6,84.5,115.7,128.8z"/>
<path class="st1" d="M16.6,9.8c26.4,0.9,57.1,66.3,96.6,86.7c21.3,11,30.3,0.3,54.7,28c34.2,38.8-28.2,79-59.8,23.4
	C95.7,125.9,114.7,123.3,85,95C68.8,79.7-24,37.6,16.6,9.8z M173.6,168.6c5.4-9.1,25.7-24.9-9-56.6c-24.1-22-36-12.5-59.4-28.1
	C84.6,70,67.9,47.1,53.8,28C34.1,1.3,9.8-6.6,1.8,16C-12.9,57.4,68.3,79.8,90,110.3c16.3,22.9-5,28.4,28.8,58
	c8.3,7.2,17.7,13.1,28.7,13.4c8.3,0.2,16.4-0.9,22.6-6.8C181.1,164.7,169,176.5,173.6,168.6L173.6,168.6z"/>
<path class="st2" d="M28.4,38.3l-5.8,4.3l-6-22.3c9.1,2.2,7,2.7,15.5,2.2c5.2,16,0.6,2.3,7,9c5.3,5.6,2.8,7.6-2.4,11.3L28.4,38.3z
	 M115.7,128.8c1.8-44.2,76.1,17.4,37,30.8c0.4-10.3,2.2-3.9,4.9-15.2c-3.9-9.6-9.3-18.3-19.2-22.8
	C125.5,115.6,124.9,125.5,115.7,128.8z M16.6,9.8C-24,37.6,68.8,79.7,85,95c29.7,28.2,10.7,30.8,23.1,52.7
	c31.5,55.7,93.9,15.4,59.8-23.4c-24.4-27.7-33.3-17-54.7-27.9C73.7,76.1,43,10.7,16.6,9.8z"/>
<path class="st3" d="M28.4,38.3l-1.4-9.4L28.4,38.3z M28.4,38.3l8.3,4.5c5.2-3.7,7.8-5.7,2.4-11.3c-6.5-6.8-1.8,7-7-9
	c-8.5,0.5-6.3,0-15.5-2.2l6,22.3L28.4,38.3z"/>
<path class="st4" d="M28.4,38.3l-1.4-9.4L28.4,38.3z"/>
</svg>
