<svg xmlns="http://www.w3.org/2000/svg" viewBox="0 0 222.8 213.34"><defs><style>.a{fill:#010101;}.a,.b,.c,.d,.e,.f,.g,.h,.i,.j,.k,.l{fill-rule:evenodd;}.b{fill:#ed4723;}.c{fill:#127173;}.d{fill:#127072;}.e{fill:#eb4722;}.f{fill:#fdbe10;}.g{fill:#f6b910;}.h{fill:#010202;}.i{fill:#e04321;}.j{fill:#e74622;}.k{fill:#e34520;}.l{fill:#d9421f;}</style></defs><path class="a" d="M215,168c3.2,33.81-29.91,29.82-35.46,17.09C172.51,169.05,195.64,146.43,215,168ZM30.63,181.21l15.65-8.34C45.09,183.11,39.45,191.84,30.63,181.21ZM178.09,159.8l-1.24,5.36Zm-16,7.35c.42-7.52,1.9-7.2,7.71-10.38C167.63,164.6,169.28,163.69,162.05,167.15ZM52.57,154.87c35.55,16.76,15.71,56.61-18.51,52.64-36.14-4.22-35.8-57.88-.7-58.11-2.07,11.57-18.88,42,3.09,42.49,8,.17,16-7.82,15.7-16C51.67,165.16,42.23,169.5,52.57,154.87Zm-20.8-16.44c.06-.37,7-6.94,3.66.26C34.4,140.87,30.46,146.4,31.77,138.43Zm-5.93-2.63-3,9C20.37,138.77,17.31,142.29,25.84,135.8ZM28,132.71c.62,4.62,2,4.28-2.16,3.09C24.88,131.32,23.75,132,28,132.71Zm3-2.41c.74,4.13,1.42,3-3,2.41C27.26,128.51,26.58,129.64,31,130.3Zm0,0C41.38,114.31,46.11,119,55,93c4.56-13.35,7.4-33.45,16.73-42.49,5.55,13.24-13.92,51.76-16.7,66.76,12.41,7.37,19.13,2.52,30.53,17.54,10.91,14.4,1.5,22.8,14.74,33.65,20.44,8.05,56-3.74,72.51,7.43-8.22,9.58-72.45,9.86-84.36,1.42-3.15-4.74,8.7-40-36.34-44.93C44.18,146,48,161.93,36.5,170c-.9-17.6,11.43-24.23,4.62-39.09Zm90.4-90.15c-8.31-5.84-14.49-4.64-21.77-8.84L104,24.62c3.68,1.11,31.94,14.71,34.24,17.43C130.9,54,129.51,45.85,121.4,40.15ZM84.1,25.9c-1.53,9.38-1.28,14.17-7.63,21l-7.06-3c-.25-3.31,3.46-22.42,4.82-27.21l22.54,8.65ZM64.93,22.47c-10-1.25-25-4.71-32.11-9.67C39,1.72,61.93,10.7,68.56,15.35ZM178.09,159.8l-1.16-9c-10.66-3.2-10.2-4.16-21.91,10l-3.66,4.36c-16.64,0-35.15,2.38-50.31-3.14-14.43-39.77,8.27-21.24-38.36-50.32C74.43,90.78,75.62,55,90.81,34.66l4.68,7.11c31.15-4.25,13.1,11.74,44.51,10.86,18.11-24.92-11.34-16-32.09-36.46-11.77,1.48-8.28,1.19-21.29-2.75C72.33,9.11,25.36-16.77,26.44,17.48c7.43,5.89,29.08,9.92,39.17,12.07-4.19,9.19-1.41,10.52-3.45,19.7-1.22,5.53-4.77,14.26-6.69,20C51,82.67,47.7,95.2,41,108.21c-7.74,14.94-17.4,12.11-25.17,28.29L.47,174.69c-7.79,48.47,83.26,55,76-1.36C73.86,152.75,61.62,156,52.91,144.7l2.73-6.1c13.21,6.18,11.31,2.16,22.87,13.89,2.69,23-2.07,35.94,27.3,36.82,20.89.63,45.21,2.21,64.49-3,11.19,8.5,13.43,16.75,31.32,13.24,23.58-4.68,31.1-37.19,3.6-45.7C191.53,149.6,189.63,156.66,178.09,159.8Z"/><path class="b" d="M31,130.3l10.12.56c6.81,14.86-5.52,21.49-4.62,39.09,11.48-8,7.68-23.92,15.65-37.61,45,5,33.19,40.19,36.34,44.93,11.91,8.44,76.14,8.16,84.36-1.42-16.53-11.17-52.07.62-72.51-7.43-13.24-10.85-3.83-19.25-14.74-33.65-11.4-15-18.12-10.17-30.53-17.54,2.78-15,22.25-53.52,16.7-66.76C62.44,59.51,59.6,79.61,55,93,46.11,119,41.38,114.31,31,130.3Z"/><path class="c" d="M52.57,154.87c-10.34,14.63-.9,10.29-.42,21,.34,8.16-7.68,16.15-15.7,16-22-.45-5.16-30.92-3.09-42.49-35.1.23-35.44,53.89.7,58.11C68.28,211.48,88.12,171.63,52.57,154.87Z"/><path class="d" d="M189.69,182.82c-5.87-11.48-.43-17.18,11.34-16.52,8.16,7,7.11,7,3.08,17.46ZM215,168c-19.36-21.6-42.49,1-35.46,17.09C185.09,197.85,218.2,201.84,215,168Z"/><path class="e" d="M69.41,44l7.06,3c6.35-6.86,6.1-11.65,7.63-21l12.67-.51L74.23,16.74C72.87,21.53,69.16,40.64,69.41,44Z"/><path class="f" d="M32.82,12.8c7.11,5,22.16,8.42,32.11,9.67l3.63-7.12C61.93,10.7,39,1.72,32.82,12.8Z"/><path class="g" d="M99.63,31.31c7.28,4.2,13.46,3,21.77,8.84,8.11,5.7,9.5,13.87,16.81,1.9-2.3-2.72-30.56-16.32-34.24-17.43Z"/><path class="h" d="M194.11,175.85c0-3.18,5.7-5.84,4.14,0S194.11,180.38,194.11,175.85Zm-4.42,7,14.42.94c4-10.46,5.08-10.49-3.08-17.46C189.26,165.64,183.82,171.34,189.69,182.82Z"/><path class="i" d="M162.05,167.15c7.23-3.46,5.58-2.55,7.71-10.38C164,160,162.47,159.63,162.05,167.15Z"/><path class="j" d="M25.84,135.8c-8.53,6.49-5.47,3-3,9Z"/><path class="k" d="M28,132.71c-4.25-.74-3.12-1.39-2.16,3.09C30,137,28.62,137.33,28,132.71Z"/><path class="l" d="M31,130.3c-4.42-.66-3.74-1.79-3,2.41C32.42,133.3,31.74,134.43,31,130.3Z"/></svg>