<?xml version="1.0" encoding="utf-8"?>
<!-- Generator: Adobe Illustrator 24.1.2, SVG Export Plug-In . SVG Version: 6.00 Build 0)  -->
<svg version="1.1" id="Слой_1" xmlns="http://www.w3.org/2000/svg" xmlns:xlink="http://www.w3.org/1999/xlink" x="0px" y="0px"
	 viewBox="0 0 222.8 222.8" style="enable-background:new 0 0 222.8 222.8;" xml:space="preserve">
<style type="text/css">
	.st0{fill-rule:evenodd;clip-rule:evenodd;fill:#010101;}
	.st1{fill-rule:evenodd;clip-rule:evenodd;fill:#ED4723;}
	.st2{fill-rule:evenodd;clip-rule:evenodd;fill:#127173;}
	.st3{fill-rule:evenodd;clip-rule:evenodd;fill:#127072;}
	.st4{fill-rule:evenodd;clip-rule:evenodd;fill:#EB4722;}
	.st5{fill-rule:evenodd;clip-rule:evenodd;fill:#FDBE10;}
	.st6{fill-rule:evenodd;clip-rule:evenodd;fill:#F6B910;}
	.st7{fill-rule:evenodd;clip-rule:evenodd;fill:#010202;}
	.st8{fill-rule:evenodd;clip-rule:evenodd;fill:#E04321;}
	.st9{fill-rule:evenodd;clip-rule:evenodd;fill:#E74622;}
	.st10{fill-rule:evenodd;clip-rule:evenodd;fill:#E34520;}
	.st11{fill-rule:evenodd;clip-rule:evenodd;fill:#D9421F;}
</style>
<path class="st0" d="M215,172.7c3.2,33.8-29.9,29.8-35.5,17.1C172.5,173.8,195.6,151.2,215,172.7z M30.6,185.9l15.6-8.3
	C45.1,187.8,39.5,196.6,30.6,185.9z M178.1,164.5l-1.2,5.4L178.1,164.5z M162.1,171.9c0.4-7.5,1.9-7.2,7.7-10.4
	C167.6,169.3,169.3,168.4,162.1,171.9L162.1,171.9z M52.6,159.6c35.5,16.8,15.7,56.6-18.5,52.6c-36.1-4.2-35.8-57.9-0.7-58.1
	c-2.1,11.6-18.9,42,3.1,42.5c8,0.2,16-7.8,15.7-16C51.7,169.9,42.2,174.2,52.6,159.6z M31.8,143.2c0.1-0.4,7-6.9,3.7,0.3
	C34.4,145.6,30.5,151.1,31.8,143.2z M25.8,140.5l-3,9C20.4,143.5,17.3,147,25.8,140.5L25.8,140.5z M28,137.4c0.6,4.6,2,4.3-2.2,3.1
	C24.9,136.1,23.8,136.7,28,137.4z M31,135c0.7,4.1,1.4,3-3,2.4C27.3,133.2,26.6,134.4,31,135z M31,135c10.4-16,15.1-11.3,24-37.3
	c4.6-13.3,7.4-33.5,16.7-42.5C77.3,68.5,57.8,107,55,122c12.4,7.4,19.1,2.5,30.5,17.5c10.9,14.4,1.5,22.8,14.7,33.6
	c20.4,8.1,56-3.7,72.5,7.4c-8.2,9.6-72.4,9.9-84.4,1.4c-3.2-4.7,8.7-40-36.3-44.9c-7.9,13.6-4.1,29.6-15.6,37.6
	c-0.9-17.6,11.4-24.2,4.6-39.1L31,135z M121.4,44.9c-8.3-5.8-14.5-4.6-21.8-8.8l4.4-6.7c3.7,1.1,31.9,14.7,34.2,17.4
	C130.9,58.7,129.5,50.6,121.4,44.9z M84.1,30.6c-1.5,9.4-1.3,14.2-7.6,21l-7.1-3c-0.3-3.3,3.5-22.4,4.8-27.2l22.5,8.6L84.1,30.6z
	 M64.9,27.2c-10-1.3-25-4.7-32.1-9.7c6.2-11.1,29.1-2.1,35.7,2.6L64.9,27.2z M178.1,164.5l-1.2-9c-10.7-3.2-10.2-4.2-21.9,10
	l-3.7,4.4c-16.6,0-35.2,2.4-50.3-3.1c-14.4-39.8,8.3-21.2-38.4-50.3c11.7-20.9,12.9-56.7,28.1-77l4.7,7.1
	c31.2-4.3,13.1,11.7,44.5,10.9c18.1-24.9-11.3-16-32.1-36.5c-11.8,1.5-8.3,1.2-21.3-2.8C72.3,13.8,25.4-12,26.4,22.2
	c7.4,5.9,29.1,9.9,39.2,12.1c-4.2,9.2-1.4,10.5-3.5,19.7c-1.2,5.5-4.8,14.3-6.7,20c-4.5,13.4-7.8,25.9-14.5,39
	c-7.7,14.9-17.4,12.1-25.2,28.3L0.5,179.4c-7.8,48.5,83.3,55,76-1.4c-2.6-20.6-14.9-17.3-23.6-28.6l2.7-6.1
	c13.2,6.2,11.3,2.2,22.9,13.9c2.7,23-2.1,35.9,27.3,36.8c20.9,0.6,45.2,2.2,64.5-3c11.2,8.5,13.4,16.8,31.3,13.2
	c23.6-4.7,31.1-37.2,3.6-45.7C191.5,154.3,189.6,161.4,178.1,164.5z"/>
<path class="st1" d="M31,135l10.1,0.6c6.8,14.9-5.5,21.5-4.6,39.1c11.5-8,7.7-23.9,15.7-37.6c45,5,33.2,40.2,36.3,44.9
	c11.9,8.4,76.1,8.2,84.4-1.4c-16.5-11.2-52.1,0.6-72.5-7.4c-13.2-10.9-3.8-19.3-14.7-33.7c-11.4-15-18.1-10.2-30.5-17.5
	c2.8-15,22.3-53.5,16.7-66.8c-9.3,9-12.2,29.1-16.8,42.5C46.1,123.7,41.4,119,31,135z"/>
<path class="st2" d="M52.6,159.6c-10.3,14.6-0.9,10.3-0.4,21c0.3,8.2-7.7,16.1-15.7,16c-22-0.4-5.2-30.9-3.1-42.5
	c-35.1,0.2-35.4,53.9,0.7,58.1C68.3,216.2,88.1,176.4,52.6,159.6z"/>
<path class="st3" d="M189.7,187.6c-5.9-11.5-0.4-17.2,11.3-16.5c8.2,7,7.1,7,3.1,17.5L189.7,187.6z M215,172.7
	c-19.4-21.6-42.5,1-35.5,17.1C185.1,202.6,218.2,206.6,215,172.7z"/>
<path class="st4" d="M69.4,48.7l7.1,3c6.3-6.9,6.1-11.7,7.6-21l12.7-0.5l-22.5-8.8C72.9,26.3,69.2,45.4,69.4,48.7z"/>
<path class="st5" d="M32.8,17.5c7.1,5,22.2,8.4,32.1,9.7l3.6-7.1C61.9,15.4,39,6.5,32.8,17.5z"/>
<path class="st6" d="M99.6,36c7.3,4.2,13.5,3,21.8,8.8c8.1,5.7,9.5,13.9,16.8,1.9c-2.3-2.7-30.6-16.3-34.2-17.4L99.6,36z"/>
<path class="st7" d="M194.1,180.6c0-3.2,5.7-5.8,4.1,0S194.1,185.1,194.1,180.6z M189.7,187.6l14.4,0.9c4-10.5,5.1-10.5-3.1-17.5
	C189.3,170.4,183.8,176.1,189.7,187.6L189.7,187.6z"/>
<path class="st8" d="M162.1,171.9c7.2-3.5,5.6-2.6,7.7-10.4C164,164.7,162.5,164.4,162.1,171.9z"/>
<path class="st9" d="M25.8,140.5c-8.5,6.5-5.5,3-3,9L25.8,140.5z"/>
<path class="st10" d="M28,137.4c-4.3-0.7-3.1-1.4-2.2,3.1C30,141.7,28.6,142.1,28,137.4z"/>
<path class="st11" d="M31,135c-4.4-0.7-3.7-1.8-3,2.4C32.4,138,31.7,139.2,31,135z"/>
</svg>
