<svg xmlns="http://www.w3.org/2000/svg" viewBox="0 0 226.35 234.9"><defs><style>.a{fill:#73cbcd;}.a,.b,.c,.d,.e,.f{fill-rule:evenodd;}.c{fill:#020202;}.d{fill:#14b5b8;}.e{fill:#ed4723;}.f{fill:#72c8cb;}</style></defs><path class="a" d="M136.64,89.94c3.37-3.4,9-1.82,14.15-2.35,28.71-2.9,5.35,29.39-1.73,29.79C137.38,113.44,134.6,105.33,136.64,89.94ZM102.45,29.79l9.84,1.58c13.81,2.5-7.34-2.4,4.34.8.74.2,1.42.48,2.07.68s1.44.68,2,.88a7.89,7.89,0,0,1,1.9,1L112.12,37c-12.53,2.38-5.61-4.19-10,5,2.38,5.73-.29,5.47,20.75,3.86-8.11,18.9-18.12-5.87-23.45,15.76,9.22,4.39,20.5-.6,18.91,13.12-11.79,4.06-1.45,1.76-7.57-1.64-.42-.23-1-.82-1.39-1.08l-3.06-2C97.61,67.06,96.11,72,93.81,77c6.29,4,23.58,7.32,16.53,14.23C102.2,99.15,102.26,75,86,86.88c2.81,11.14,14.86,7.59,9.27,19-.57.54-.93,7.82-7.82-1.73L83,93.71l-9.81,4.9c4,10.09,17.46,16.3-.79,19.25l-3.32-13.64c-22.34,9.25-59.36,48.17-10.77,48.17,33.73,0,71.94-7.46,98.42-19.28C197.5,114.94,160.28,95,162,42l1.62-25.34C128.53,36.56,111.21,16.15,102.45,29.79Z"/><path class="a" d="M10.1,165.37c-30,75.74,125.29,11.85,150.44,5.89,12.07-2.86,18-1.58,20.63-15.42-11,2.61-30.44,12-41.5,16.59-16.55,6.83-25.62,11.36-44.59,14.57-12.41,2.09-41,4.5-53.37,3.54C16.54,188.58,19.68,181.55,10.1,165.37Z"/><path class="a" d="M63.25,184.28c1.82-2.81,1.5.08,2.38-5.14,1.31-7.51,1-16.27-2.38-21.31-7.91,2.32-6.69-1.56-6.29,11.56C57.44,186.2,60.5,183.17,63.25,184.28Z"/><path class="b" d="M57,169.39c-.4-13.12-1.62-9.24,6.29-11.56,3.4,5,3.69,13.8,2.38,21.31-.88,5.22-.56,2.33-2.38,5.14C60.5,183.17,57.44,186.2,57,169.39Zm-46.86-4c9.58,16.18,6.44,23.21,31.61,25.17,12.39,1,41-1.45,53.37-3.54,19-3.21,28-7.74,44.59-14.57,11.06-4.57,30.5-14,41.5-16.59-2.63,13.84-8.56,12.56-20.63,15.42C135.39,177.22-19.86,241.11,10.1,165.37Zm63,18.85c-1-11.88-2.44-6.46-2.44-27,16.61,0,48.67-4.79,64-9.46,7.37-2.24,10.74-4.51,19.3-5.22,0,9.67.77,9.95,2.44,17.15-12.67,3-25.17,10.52-38.86,15.05C90.29,183.79,81.31,180.25,73.06,184.22Zm87.45-33.71c-4.54-15.67,5.38-15.22,8.25-16.07,0,12.3,2.58,15.76-4.54,22.59C161.47,153.75,163.14,159.53,160.51,150.51ZM102.45,29.79c8.76-13.64,26.08,6.77,61.15-13.1L162,42c-1.7,53,35.52,72.91-5.21,91.08-26.48,11.82-64.69,19.28-98.42,19.28-48.59,0-11.57-38.92,10.77-48.17l3.32,13.64c18.25-3,4.76-9.16.79-19.25L83,93.71l4.45,10.46c6.89,9.55,7.25,2.27,7.82,1.73,5.59-11.43-6.46-7.88-9.27-19,16.22-11.88,16.16,12.27,24.3,4.33C117.39,84.3,100.1,81,93.81,77c2.3-5,3.8-9.92,12.47-6.88l3.06,2c.43.26,1,.85,1.39,1.08,6.12,3.4-4.22,5.7,7.57,1.64,1.59-13.72-9.69-8.73-18.91-13.12,5.33-21.63,15.34,3.14,23.45-15.76-21,1.61-18.37,1.87-20.75-3.86,4.42-9.18-2.5-2.61,10-5l10.43-2.35a7.89,7.89,0,0,0-1.9-1c-.51-.2-1.33-.65-2-.88s-1.33-.48-2.07-.68c-11.68-3.2,9.47,1.7-4.34-.8Zm2-9.84c5.33-3.88,44.44-15.56,57.14-13.15C153.76,25.51,124.57,20.09,104.5,20Zm-6.92-4.87c0,93.09-41,74.46-65.28,111.28C21.5,142.75,27.85,157.23,51,157.23c0,19-1.79,18.46,2.43,27-43.88,0-30.58-13.89-39.2-31.89-18.34,12.3-28.12,56.38,29.4,56.38,27.46,0,64.51-14.51,86.11-21.74,7.26-2.41,12.42-4.42,20.3-6.66,13.46-3.8,32.82-5.28,36.79-17.32,3-9.16-2.89-12.87-13.26-13.1,0-22,7.34-20.64,7.34-41.67,0-26.62-12.25-10.29-12.25-76,0-13.6,2.44-14.54,2.44-26.95-11.42-3.06-8.56-10.8-45.27,1.3C115,10.14,106.74,10.68,97.58,15.08Z"/><path class="c" d="M152.17,98.84c3.12-6.18-1.3-3.91,5.82-6.92.48,11.26-2.44,16.16-11.4,18.82-5.05-7.37-5.07-7.42-5-17.49C152.09,97.42,141.15,94.25,152.17,98.84Zm-15.53-8.9c-2,15.39.74,23.5,12.42,27.44,7.08-.4,30.44-32.69,1.73-29.79C145.65,88.12,140,86.54,136.64,89.94Z"/><path class="d" d="M104.5,20c20.07.14,49.26,5.56,57.14-13.15C148.94,4.39,109.83,16.07,104.5,20Z"/><path class="e" d="M152.17,98.84c-11-4.59-.08-1.42-10.6-5.59,0,10.07,0,10.12,5,17.49,9-2.66,11.88-7.56,11.4-18.82C150.87,94.93,155.29,92.66,152.17,98.84Z"/><path class="f" d="M164.22,157c7.12-6.83,4.51-10.29,4.54-22.59-2.87.85-12.79.4-8.25,16.07C163.14,159.53,161.47,153.75,164.22,157Z"/><path class="a" d="M175.36,116.1c3.38-3.37,9-1.81,14.15-2.32,28.71-2.89,5.35,29.36-1.73,29.76C176.13,139.6,173.35,131.49,175.36,116.1ZM141.2,56,151,57.54c13.81,2.49-7.31-2.41,4.37.79.71.2,1.42.48,2,.71s1.47.65,2,.85a8.7,8.7,0,0,1,1.9,1l-10.4,2.36c-12.56,2.38-5.61-4.2-10.06,5,2.38,5.72-.29,5.47,20.75,3.85-8.08,18.91-18.12-5.84-23.42,15.76,9.22,4.4,20.5-.59,18.88,13.13-11.79,4.08-1.44,1.75-7.57-1.65-.42-.22-.93-.82-1.39-1.07l-3.06-2c-8.64-3-10.15,1.87-12.47,6.89,6.29,4,23.58,7.31,16.53,14.23-8.14,7.93-8.08-16.22-24.3-4.34,2.81,11.14,14.86,7.6,9.27,19-.56.57-.9,7.82-7.82-1.7l-4.45-10.49L112,124.78c4,10.09,17.46,16.32-.79,19.24l-3.32-13.63c-22.34,9.24-59.36,48.16-10.77,48.16,33.73,0,71.94-7.46,98.45-19.28,40.73-18.17,3.51-38.09,5.18-91.07l1.62-25.35C167.25,62.73,149.94,42.32,141.2,56Z"/><path class="a" d="M48.85,191.53c-30,75.74,125.26,11.88,150.41,5.9,12.07-2.86,18-1.59,20.66-15.42-11,2.61-30.44,12-41.52,16.58-16.56,6.83-25.63,11.37-44.59,14.57-12.42,2.1-41,4.51-53.38,3.54C55.26,214.75,58.43,207.72,48.85,191.53Z"/><path class="a" d="M102,210.44c1.85-2.78,1.51.08,2.38-5.13,1.31-7.49,1-16.27-2.38-21.32-7.88,2.33-6.69-1.56-6.29,11.57C96.16,212.37,99.22,209.33,102,210.44Z"/><path class="b" d="M95.68,195.56c-.4-13.13-1.59-9.24,6.29-11.57,3.4,5,3.69,13.83,2.38,21.32-.87,5.21-.53,2.35-2.38,5.13C99.22,209.33,96.16,212.37,95.68,195.56Zm-46.83-4c9.58,16.19,6.41,23.22,31.58,25.17,12.39,1,41-1.44,53.38-3.54,19-3.2,28-7.74,44.59-14.57,11.08-4.56,30.5-14,41.52-16.58-2.66,13.83-8.59,12.56-20.66,15.42C174.11,203.41,18.86,267.27,48.85,191.53Zm62.93,18.85c-1-11.87-2.44-6.46-2.44-27,16.61,0,48.67-4.81,64.07-9.49,7.34-2.21,10.71-4.51,19.27-5.22,0,9.67.77,9.95,2.47,17.15-12.67,2.95-25.2,10.52-38.89,15C129,210,120,206.41,111.78,210.38Zm87.48-33.7c-4.57-15.65,5.36-15.22,8.22-16.07,0,12.3,2.58,15.76-4.51,22.59C200.22,179.91,201.87,185.69,199.26,176.68ZM141.2,56c8.74-13.63,26.05,6.78,61.12-13.1L200.7,68.2c-1.67,53,35.55,72.9-5.18,91.07C169,171.09,130.8,178.55,97.07,178.55c-48.59,0-11.57-38.92,10.77-48.16L111.16,144c18.25-2.92,4.76-9.15.79-19.24l9.81-4.91,4.45,10.49c6.92,9.52,7.26,2.27,7.82,1.7,5.59-11.42-6.46-7.88-9.27-19,16.22-11.88,16.16,12.27,24.3,4.34,7.05-6.92-10.24-10.26-16.53-14.23,2.32-5,3.83-9.92,12.47-6.89l3.06,2c.46.25,1,.85,1.39,1.07,6.13,3.4-4.22,5.73,7.57,1.65,1.62-13.72-9.66-8.73-18.88-13.13,5.3-21.6,15.34,3.15,23.42-15.76-21,1.62-18.37,1.87-20.75-3.85,4.45-9.19-2.5-2.61,10.06-5l10.4-2.36a8.7,8.7,0,0,0-1.9-1c-.48-.2-1.33-.65-2-.85s-1.33-.51-2-.71c-11.68-3.2,9.44,1.7-4.37-.79Zm2.05-9.84c5.3-3.88,44.41-15.56,57.11-13.15C192.48,51.7,163.31,46.26,143.25,46.11Zm-6.95-4.87c0,93.09-41,74.47-65.28,111.29-10.8,16.38-4.45,30.89,18.71,30.89,0,19-1.76,18.43,2.44,27-43.89,0-30.59-13.89-39.21-31.86C34.62,190.79,24.84,234.9,82.39,234.9c27.44,0,64.48-14.54,86.08-21.77,7.26-2.41,12.42-4.42,20.33-6.66,13.43-3.8,32.82-5.27,36.76-17.32,3-9.16-2.89-12.87-13.26-13.1,0-22,7.34-20.63,7.34-41.66,0-26.62-12.25-10.27-12.25-76,0-13.61,2.44-14.51,2.44-27-11.39-3-8.56-10.8-45.27,1.31C153.68,36.31,145.46,36.85,136.3,41.24Z"/><path class="c" d="M190.92,125c3.09-6.18-1.33-3.91,5.82-6.91.45,11.25-2.44,16.15-11.4,18.82-5.07-7.37-5.1-7.43-5.05-17.49C190.81,123.59,179.87,120.41,190.92,125Zm-15.56-8.9c-2,15.39.77,23.5,12.42,27.44,7.08-.4,30.44-32.65,1.73-29.76C184.38,114.29,178.74,112.73,175.36,116.1Z"/><path class="d" d="M143.25,46.11c20.06.15,49.23,5.59,57.11-13.15C187.66,30.55,148.55,42.23,143.25,46.11Z"/><path class="e" d="M190.92,125c-11-4.59-.11-1.41-10.63-5.58,0,10.06,0,10.12,5.05,17.49,9-2.67,11.85-7.57,11.4-18.82C189.59,121.09,194,118.82,190.92,125Z"/><path class="f" d="M203,183.2c7.09-6.83,4.48-10.29,4.51-22.59-2.86.85-12.79.42-8.22,16.07C201.87,185.69,200.22,179.91,203,183.2Z"/></svg>