<svg xmlns="http://www.w3.org/2000/svg" viewBox="0 0 241.43 230.52"><defs><style>.a{fill:#ee4823;}.a,.b,.c,.d,.e,.f{fill-rule:evenodd;}.b{fill:#71c497;}.c{fill:#010000;}.d{fill:#fbbd10;}.e{fill:#f3b70f;}.f{fill:#e6ad0e;}</style></defs><path class="a" d="M82.32,219.44c1.87-23-1.33-24.78,14.4-42.18-36-18.46-42.32-23.62-72.43-48C27,158.29,54.77,209.49,82.32,219.44Z"/><path class="a" d="M100.32,109.93C83.48,85.7,82,94.63,80.08,59.08c-13,2.78-53.35,41.44-55.08,55.67Z"/><path class="b" d="M98.39,171.16c1.3-10.71-.54-18.62,2.55-29.73,2.38-8.59,6.69-15.57,7.54-24.5l-81.66,2.24C37.59,141.26,74.69,163.56,98.39,171.16Z"/><path class="b" d="M79.65,50.58C61.63,42.16,64,37.2,63.27,17.72,40.48,36.2,15.79,70.84,22.14,104,50,77.9,25.71,89.55,79.65,50.58Z"/><path class="c" d="M229.58,91.79c-3.49-11.17-6.49-7.6-9.1-15.08,15-.68,18.88,16.92,12.7,28.57-3.94,7.4-17.21,9.1-25.37,9.3-8.34.17-4.57-.56-6.72-1.7C204.6,93.44,221.36,116.51,229.58,91.79ZM194.8,110.25c-9.33,3.48-23.56,2.35-34.22,2.72l-27.24,1.81c-5.33-.42-3.6-1.1-5.61-2.1,7.51-3.85,30.39-2.12,51.7-5C196.87,105.23,193.38,108.86,194.8,110.25ZM98.39,171.16c-23.7-7.6-60.8-29.9-71.57-52l81.66-2.24c-.85,8.93-5.16,15.91-7.54,24.5C97.85,152.54,99.69,160.45,98.39,171.16Zm1.93-61.23L25,114.75c1.73-14.23,42.1-52.89,55.08-55.67C82,94.63,83.48,85.7,100.32,109.93Zm-18,109.51c-27.55-9.95-55.33-61.15-58-90.2,30.11,24.4,36.46,29.56,72.43,48C81,194.66,84.19,196.42,82.32,219.44ZM79.65,50.58C25.71,89.55,50,77.9,22.14,104,15.79,70.84,40.48,36.2,63.27,17.72,64,37.2,61.63,42.16,79.65,50.58ZM5.87,115.77c8.44-3.77,4.11-3.43,10.49-.2C8.93,120.79,11.08,119.15,5.87,115.77Zm9.89,8.59c7.14,38.69,37.53,106.1,86,106.16-.45-24.63-10.34-4-13.35-18.71,0-17.55-.48-17,11.37-28.71,15.08-1.82,15.28,4.25,26.05-.68-4-14.72-7.51-8.45-19.62-12.45-5.75-17.18,2.27-32.17,6.72-45.89,25.68-2.64,53.94-9.72,81.33-4.74,10.57,2,26.59,1.17,36-3.57,18.23-9.24,14.65-53.57-14.46-43.85-5.41,16.24,1.39,9.53,8.48,18.71-5,7.82.08,4.48-9,7.54-6.35,2.15-7.91,1.36-14.6,1.42-10.8.11-18.85,2-29.42,2.66l-61.71,5.56c-6.89-5.22-8.45-4.65-13.27-10.8s-6.6-10.46-8.59-18.17C80.59,51,92,58.43,101.79,43.43L95.7,38.87c-11.88,1.84-1.87,6-19.93,3.88C58.2,20.3,79.43,10.58,82.63,4.26c-9.5-7.6-7.2-5.81-27,11.76C31.8,37.22,5.41,84.62,16,106.9c-10.23,1.36-8.22-.28-16,5.78l.62,7.83Z"/><path class="d" d="M220.48,76.71c2.61,7.48,5.61,3.91,9.1,15.08-8.22,24.72-25,1.65-28.49,21.09,2.15,1.14-1.62,1.87,6.72,1.7,8.16-.2,21.43-1.9,25.37-9.3C239.36,93.63,235.47,76,220.48,76.71Z"/><path class="e" d="M194.8,110.25c-1.42-1.39,2.07-5-15.37-2.61-21.31,2.92-44.19,1.19-51.7,5,2,1,.28,1.68,5.61,2.1L160.58,113C171.24,112.6,185.47,113.73,194.8,110.25Z"/><path class="f" d="M16.36,115.57c-6.38-3.23-2-3.57-10.49.2C11.08,119.15,8.93,120.79,16.36,115.57Z"/></svg>