<?xml version="1.0" encoding="utf-8"?>
<!-- Generator: Adobe Illustrator 24.1.2, SVG Export Plug-In . SVG Version: 6.00 Build 0)  -->
<svg version="1.1" id="Слой_1" xmlns="http://www.w3.org/2000/svg" xmlns:xlink="http://www.w3.org/1999/xlink" x="0px" y="0px"
	 viewBox="0 0 241.4 241.4" style="enable-background:new 0 0 241.4 241.4;" xml:space="preserve">
<style type="text/css">
	.st0{fill-rule:evenodd;clip-rule:evenodd;fill:#EE4823;}
	.st1{fill-rule:evenodd;clip-rule:evenodd;fill:#71C497;}
	.st2{fill-rule:evenodd;clip-rule:evenodd;fill:#010000;}
	.st3{fill-rule:evenodd;clip-rule:evenodd;fill:#FBBD10;}
	.st4{fill-rule:evenodd;clip-rule:evenodd;fill:#F3B70F;}
	.st5{fill-rule:evenodd;clip-rule:evenodd;fill:#E6AD0E;}
</style>
<path class="st0" d="M16.5,82.3c23,1.9,24.8-1.3,42.2,14.4c18.5-36,23.6-42.3,48-72.4C77.7,27,26.5,54.8,16.5,82.3z"/>
<path class="st0" d="M126,100.3c24.2-16.8,15.3-18.3,50.8-20.2c-2.8-13-41.4-53.3-55.7-55.1L126,100.3z"/>
<path class="st1" d="M64.8,98.4c10.7,1.3,18.6-0.5,29.7,2.6c8.6,2.4,15.6,6.7,24.5,7.5l-2.2-81.7C94.7,37.6,72.4,74.7,64.8,98.4z"/>
<path class="st1" d="M185.4,79.7c8.4-18,13.4-15.7,32.9-16.4c-18.5-22.8-53.1-47.5-86.3-41.1C158.1,50,146.4,25.7,185.4,79.7z"/>
<path class="st2" d="M144.2,229.6c11.2-3.5,7.6-6.5,15.1-9.1c0.7,15-16.9,18.9-28.6,12.7c-7.4-3.9-9.1-17.2-9.3-25.4
	c-0.2-8.3,0.6-4.6,1.7-6.7C142.5,204.6,119.5,221.4,144.2,229.6z M125.7,194.8c-3.5-9.3-2.3-23.6-2.7-34.2l-1.8-27.2
	c0.4-5.3,1.1-3.6,2.1-5.6c3.8,7.5,2.1,30.4,5,51.7C130.7,196.9,127.1,193.4,125.7,194.8z M64.8,98.4c7.6-23.7,29.9-60.8,52-71.6
	l2.2,81.7c-8.9-0.8-15.9-5.2-24.5-7.5C83.4,97.9,75.5,99.7,64.8,98.4z M126,100.3L121.2,25c14.2,1.7,52.9,42.1,55.7,55.1
	C141.3,82,150.3,83.5,126,100.3z M16.5,82.3c9.9-27.5,61.1-55.3,90.2-58c-24.4,30.1-29.6,36.5-48,72.4C41.3,81,39.6,84.2,16.5,82.3z
	 M185.4,79.7c-39-53.9-27.3-29.6-53.4-57.5c33.2-6.3,67.8,18.3,86.3,41.1C198.8,64,193.8,61.6,185.4,79.7z M120.2,5.9
	c3.8,8.4,3.4,4.1,0.2,10.5C115.2,8.9,116.8,11.1,120.2,5.9z M111.6,15.8C72.9,22.9,5.5,53.3,5.5,101.8c24.6-0.4,4-10.3,18.7-13.3
	c17.6,0,17-0.5,28.7,11.4c1.8,15.1-4.3,15.3,0.7,26c14.7-4,8.4-7.5,12.4-19.6c17.2-5.8,32.2,2.3,45.9,6.7
	c2.6,25.7,9.7,53.9,4.7,81.3c-2,10.6-1.2,26.6,3.6,36c9.2,18.2,53.6,14.6,43.9-14.5c-16.2-5.4-9.5,1.4-18.7,8.5
	c-7.8-5-4.5,0.1-7.5-9c-2.2-6.4-1.4-7.9-1.4-14.6c-0.1-10.8-2-18.9-2.7-29.4l-5.6-61.7c5.2-6.9,4.6-8.4,10.8-13.3
	c6.1-4.8,10.5-6.6,18.2-8.6c27.8-7.1,20.4,4.3,35.4,14.1l4.6-6.1c-1.8-11.9-6-1.9-3.9-19.9c22.4-17.6,32.2,3.7,38.5,6.9
	c7.6-9.5,5.8-7.2-11.8-27C198.8,31.8,151.4,5.4,129.1,16c-1.4-10.2,0.3-8.2-5.8-16l-7.8,0.6L111.6,15.8z"/>
<path class="st3" d="M159.3,220.5c-7.5,2.6-3.9,5.6-15.1,9.1c-24.7-8.2-1.7-25-21.1-28.5c-1.1,2.1-1.9-1.6-1.7,6.7
	c0.2,8.2,1.9,21.4,9.3,25.4C142.3,239.4,160,235.5,159.3,220.5z"/>
<path class="st4" d="M125.7,194.8c1.4-1.4,5,2.1,2.6-15.4c-2.9-21.3-1.2-44.2-5-51.7c-1,2-1.7,0.3-2.1,5.6l1.7,27.2
	C123.4,171.2,122.2,185.5,125.7,194.8z"/>
<path class="st5" d="M120.4,16.4c3.2-6.4,3.6-2-0.2-10.5C116.8,11.1,115.2,8.9,120.4,16.4z"/>
</svg>
