<svg xmlns="http://www.w3.org/2000/svg" viewBox="0 0 235.42 218.52"><defs><style>.a{fill:#bababa;}.a,.b,.c,.d,.e{fill-rule:evenodd;}.b{fill:#010100;}.c{fill:#bbb;}.d{fill:#fdbe10;}.e{fill:#127173;}</style></defs><path class="a" d="M56.3,101.88c1.81,23.75,12.64,9.41,22.73,19.75,6.66,6.86.45,8.93,6.72,14.63,11.11,10.12,13.49-9.21,23,19.62,16.52,6.55,11.53-1.36,21.74,13.12,11.68,16.53,17.83-2.21,25.4,25.34,32.28,7,23.21,24,36.34,16.76.88-3.92-6.69-6.55-12-11.71C157.72,177.62,113,144.06,97.4,124.64,84.73,108.91,77.19,103.83,56.3,101.88Z"/><path class="a" d="M73.08,89.26l4.48-5.07Z"/><path class="b" d="M77.56,84.19l-4.48,5.07ZM16.38,48.13c1.17-.93,29-19.33,30.31-19.76C54.79,25.6,61,27.92,68.8,26s6.54-4.9,16.66-6.94l11,12.84C70,34.07,72.34,43.51,56.13,46.32c-8.79,1.53-14.46-.54-23.64,2.41C21,52.47,23.41,57.12,16.38,48.13ZM109.56,43c-1.53,13.83-5.33,8.25-39.49,16.61-6.74,1.65-15.64,3.15-22.56,4.23-13.21,2.07-16.9.93-22.76-4.11,16.41-12,26.27-.2,44.73-11.4C84.19,39.37,92.72,35.23,109.56,43Zm-23-36.57c86.6,62,23.22,63.42,3.69,85.55L82.57,75.91c-14.11,1-23.84,14.54-8,22.08C61.82,97.63,38,94.71,29.93,85.18,23.67,77.78,10.49,58.9,7.85,50.51c20,9.05,1.56,28,49.69,18,17.07-3.54,47.71-4.85,58.34-16.81C118.35,30.93,87.39,23,86.51,6.43ZM56.3,101.88c20.89,2,28.43,7,41.1,22.76,15.62,19.42,60.32,53,82.83,74.75,5.3,5.16,12.87,7.79,12,11.71-13.13,7.22-4.06-9.78-36.34-16.76-7.57-27.55-13.72-8.81-25.4-25.34-10.21-14.48-5.22-6.57-21.74-13.12-9.5-28.83-11.88-9.5-23-19.62-6.27-5.7-.06-7.77-6.72-14.63C68.94,111.29,58.11,125.63,56.3,101.88ZM226.2,197l-24.51,10.32c-15.09-10.27-45.81-36-60.07-49.44-19.93-18.82-37.31-35-57.4-55.11L130.65,72ZM82.63,0c-7.29,9.33-3.32,5.81-4.22,14.51-16.3,8.11-30.67,3.46-43,13.1C20.89,39,10.37,39.29,0,51c11,21.91,24.92,46.63,50.31,51.25,2.22,28,12,15.87,22.57,22.87,7.51,5,2.38,8.51,6.6,14.77,4.79,7.09,8.85,3.51,17.63,6.41,13.92,28.23,16.84,9.83,27.64,25.82,8.05,11.91,5.33,5.67,16,10.74,8.62,4.11,5.61,5.9,10.69,16l19,5.35c9.35,24.24,28,12.73,53.17.94l11.77-7.43L140.94,73c-10.29-15.93,6.18-11.48-7.77-32.2C125.66,29.57,95.7,1.59,82.63,0Z"/><path class="b" d="M134.53,92.86l1.14,12.45c-10.1,3.06-8.9,3.29-15.4-.85C116.08,93.71,123.59,88.84,134.53,92.86Zm-12.87-8.39c-30.95,28,27.58,50.12,19.53,6.69C134.67,84.33,131.75,83.17,121.66,84.47Z"/><path class="c" d="M121.66,84.47c10.09-1.3,13-.14,19.53,6.69C149.24,134.59,90.71,112.51,121.66,84.47Zm9-12.5L84.22,102.78c20.09,20.13,37.47,36.29,57.4,55.11,14.26,13.49,45,39.17,60.07,49.44L226.2,197Z"/><path class="d" d="M86.51,6.43c.88,16.56,31.84,24.5,29.37,45.3C105.25,63.69,74.61,65,57.54,68.54c-48.13,10-29.7-9-49.69-18,2.64,8.39,15.82,27.27,22.08,34.67C38,94.71,61.82,97.63,74.58,98c-15.85-7.54-6.12-21.11,8-22.08L90.2,92C109.73,69.85,173.11,68.4,86.51,6.43Z"/><path class="e" d="M85.46,19.08c-10.12,2-8.92,5.07-16.66,6.94s-14-.42-22.11,2.35c-1.28.43-29.14,18.83-30.31,19.76,7,9,4.6,4.34,16.11.6,9.18-2.95,14.85-.88,23.64-2.41C72.34,43.51,70,34.07,96.46,31.92Z"/></svg>