<?xml version="1.0" encoding="utf-8"?>
<!-- Generator: Adobe Illustrator 24.1.2, SVG Export Plug-In . SVG Version: 6.00 Build 0)  -->
<svg version="1.1" id="Слой_1" xmlns="http://www.w3.org/2000/svg" xmlns:xlink="http://www.w3.org/1999/xlink" x="0px" y="0px"
	 viewBox="0 0 235.4 235.4" style="enable-background:new 0 0 235.4 235.4;" xml:space="preserve">
<style type="text/css">
	.st0{fill-rule:evenodd;clip-rule:evenodd;fill:#BABABA;}
	.st1{fill-rule:evenodd;clip-rule:evenodd;fill:#010100;}
	.st2{fill-rule:evenodd;clip-rule:evenodd;fill:#BBBBBB;}
	.st3{fill-rule:evenodd;clip-rule:evenodd;fill:#FDBE10;}
	.st4{fill-rule:evenodd;clip-rule:evenodd;fill:#127173;}
</style>
<path class="st0" d="M56.3,110.3c1.8,23.8,12.6,9.4,22.7,19.8c6.7,6.9,0.4,8.9,6.7,14.6c11.1,10.1,13.5-9.2,23,19.6
	c16.5,6.6,11.5-1.4,21.7,13.1c11.7,16.5,17.8-2.2,25.4,25.3c32.3,7,23.2,24,36.3,16.8c0.9-3.9-6.7-6.6-12-11.7
	c-22.5-21.8-67.2-55.3-82.8-74.7C84.7,117.4,77.2,112.3,56.3,110.3z"/>
<path class="st0" d="M73.1,97.7l4.5-5.1L73.1,97.7z"/>
<path class="st1" d="M77.6,92.6l-4.5,5.1L77.6,92.6z M16.4,56.6c1.2-0.9,29-19.3,30.3-19.8c8.1-2.8,14.3-0.5,22.1-2.4
	c7.8-1.9,6.5-4.9,16.7-6.9l11,12.8C70,42.5,72.3,52,56.1,54.8c-8.8,1.5-14.5-0.5-23.6,2.4C21,60.9,23.4,65.6,16.4,56.6z M109.6,51.4
	c-1.5,13.8-5.3,8.3-39.5,16.6c-6.7,1.7-15.6,3.2-22.6,4.2c-13.2,2.1-16.9,0.9-22.8-4.1C41.2,56.2,51,68,69.5,56.8
	C84.2,47.8,92.7,43.7,109.6,51.4z M86.6,14.9c86.6,62,23.2,63.4,3.7,85.6l-7.7-16.1c-14.1,1-23.8,14.5-8,22.1
	c-12.8-0.4-36.6-3.3-44.6-12.8C23.7,86.2,10.5,67.3,7.8,59c20,9,1.6,28,49.7,18c17.1-3.5,47.7-4.8,58.3-16.8
	C118.3,39.4,87.4,31.4,86.6,14.9L86.6,14.9z M56.3,110.3c20.9,2,28.4,7,41.1,22.8c15.6,19.4,60.3,53,82.8,74.8
	c5.3,5.2,12.9,7.8,12,11.7c-13.1,7.2-4.1-9.8-36.3-16.8c-7.6-27.6-13.7-8.8-25.4-25.3c-10.2-14.5-5.2-6.6-21.7-13.1
	c-9.5-28.8-11.9-9.5-23-19.6c-6.3-5.7-0.1-7.8-6.7-14.6C68.9,119.7,58.1,134.1,56.3,110.3z M226.2,205.4l-24.5,10.3
	c-15.1-10.3-45.8-36-60.1-49.4c-19.9-18.8-37.3-35-57.4-55.1l46.4-30.8L226.2,205.4z M82.6,8.4c-7.3,9.3-3.3,5.8-4.2,14.5
	c-16.3,8.1-30.7,3.5-43,13.1C20.9,47.4,10.4,47.7,0,59.4c11,21.9,24.9,46.6,50.3,51.3c2.2,28,12,15.9,22.6,22.9
	c7.5,5,2.4,8.5,6.6,14.8c4.8,7.1,8.8,3.5,17.6,6.4c13.9,28.2,16.8,9.8,27.6,25.8c8.1,11.9,5.3,5.7,16,10.7c8.6,4.1,5.6,5.9,10.7,16
	l19,5.4c9.4,24.2,28,12.7,53.2,0.9l11.8-7.4L140.9,81.4c-10.3-15.9,6.2-11.5-7.8-32.2C125.7,38,95.7,10,82.6,8.4z"/>
<path class="st1" d="M134.5,101.3l1.1,12.4c-10.1,3.1-8.9,3.3-15.4-0.8C116.1,102.2,123.6,97.3,134.5,101.3z M121.7,92.9
	c-31,28,27.6,50.1,19.5,6.7C134.7,92.8,131.8,91.6,121.7,92.9z"/>
<path class="st2" d="M121.7,92.9c10.1-1.3,13-0.1,19.5,6.7C149.2,143,90.7,121,121.7,92.9z M130.7,80.4l-46.4,30.8
	c20.1,20.1,37.5,36.3,57.4,55.1c14.3,13.5,45,39.2,60.1,49.4l24.5-10.3L130.7,80.4z"/>
<path class="st3" d="M86.5,14.9c0.9,16.6,31.8,24.5,29.4,45.3c-10.6,12-41.3,13.3-58.3,16.8C9.4,87,27.8,68,7.9,59
	c2.6,8.4,15.8,27.3,22.1,34.7c8.1,9.5,31.9,12.4,44.7,12.8c-15.8-7.5-6.1-21.1,8-22.1l7.6,16.1C109.7,78.3,173.1,76.8,86.5,14.9z"/>
<path class="st4" d="M85.5,27.5c-10.1,2-8.9,5.1-16.7,6.9c-7.7,1.9-14-0.4-22.1,2.4c-1.3,0.4-29.1,18.8-30.3,19.8
	c7,9,4.6,4.3,16.1,0.6c9.2-3,14.8-0.9,23.6-2.4C72.3,52,70,42.5,96.5,40.4L85.5,27.5z"/>
</svg>
