<svg xmlns="http://www.w3.org/2000/svg" viewBox="0 0 225.09 230.66"><defs><style>.a{fill:#74cbce;}.a,.b,.c,.d{fill-rule:evenodd;}.b{fill:#d5e4e4;}.d{fill:#fbbe94;}</style></defs><path class="a" d="M102.42,223.34a105.27,105.27,0,0,1-38.24-31.46c-13.83-18.77-13.49-29.79-17.49-52C33.14,148.11,23.87,147.54,8,145,1.56,198.57,59.76,224.28,102.42,223.34Z"/><path class="a" d="M174.22,143.66c-32.37,5.78-22.56-1.42-46.15-6.35l.2,81.41c12.76-8,22.65-13.41,31.3-29.76C166.48,175.78,174.36,155.82,174.22,143.66Z"/><path class="b" d="M121.89,137.42c-27.07,23.16-41.1,9.07-68.91,5.08,3.72,23.55,5.81,34.27,21.43,52,12,13.67,29.37,26.25,47.94,27.73Z"/><path class="b" d="M141.62,220c39.32-8.11,72.48-44.42,74.47-76.57-13,6.1-20.84,7.29-34.92,3.6C159.2,212.88,171.53,181.42,141.62,220Z"/><path class="c" d="M115.66,6l3.8,8.33,8.7-4.79-6.44,14.55,14,1.56C113.22,38.47,120.56,45,112.91,49.24,108.66,45.3,108.2,35.66,103.5,27c.25-.12.82.19.9-.12C105.93,21.2,111.21,44.31,115.66,6ZM85.5,53.74l.68-2.43,2,1.53Zm-2.7,2.7,2.7-2.7ZM216.46,136.6c-1.9,1.31-1.17,1.59-4.94,3.12-8.64,3.49-17.12,2.64-26.47,1.53-4.37-6.07-13-32.74-21-45.84-6.09-10-22.67-35.34-25.14-44.33C164.55,64,215.29,105.05,216.46,136.6ZM82.8,56.44c-1.22,4.5-24,40.05-29.42,50.74-3.23,6.43-9.35,25.62-11.91,28.17-2.69,2.73-14.4,8.37-23.89,5.22-10.35-3.4-3.55-1.62-6.92-4C12.33,117.84,65.57,65.11,82.8,56.44ZM102.45,46.2l3,8.45,14.43,4c2.18,22.16,4.93,47.45,2.35,69.22-26.3,26.39-41,13.41-71.46,6C56.41,108.74,84.84,63.72,102.45,46.2Zm69.47,91.31c-10.85,3.63-38.58,1.64-41-11.6,0-12.81,1-27.09-1-39-1.45-8.22-4.42-27.69-3.83-35.35C134.25,54.11,177.28,125.86,171.92,137.51Zm2.3,6.15c.14,12.16-7.74,32.12-14.65,45.3-8.65,16.35-18.54,21.74-31.3,29.76l-.2-81.41C151.66,142.24,141.85,149.44,174.22,143.66Zm-52.33-6.24.46,84.82c-18.57-1.48-35.95-14.06-47.94-27.73C58.79,176.77,56.7,166.05,53,142.5,80.79,146.49,94.82,160.58,121.89,137.42ZM141.62,220c29.91-38.58,17.58-7.12,39.55-73,14.08,3.69,21.91,2.5,34.92-3.6C214.1,175.58,180.94,211.89,141.62,220Zm-39.2,3.34C59.76,224.28,1.56,198.57,8,145c15.9,2.58,25.17,3.15,38.72-5.1,4,22.23,3.66,33.25,17.49,52A105.27,105.27,0,0,0,102.42,223.34ZM130.94,37.53,144.09,26c-5.13-8.93-2-4.36-10.6-9.24,4-9.72,4.22-5.1,1-14.85L111.94,0,109,15.48c-11.34-3.15-3.6-2.89-10.63.85L99.19,35C80.85,51.14,6.69,102.13,1.05,137.17-12.61,222.24,110,258.09,185.5,207.24c17.07-11.51,34.9-42.49,38.92-62.87C234.09,95.5,135.56,42.07,130.94,37.53Z"/><path class="d" d="M115.66,6c-4.45,38.33-9.73,15.22-11.26,20.89-.08.31-.65,0-.9.12,4.7,8.67,5.16,18.31,9.41,22.25,7.65-4.25.31-10.77,22.79-23.61l-14-1.56,6.44-14.55-8.7,4.79Z"/></svg>