<?xml version="1.0" encoding="utf-8"?>
<!-- Generator: Adobe Illustrator 24.1.2, SVG Export Plug-In . SVG Version: 6.00 Build 0)  -->
<svg version="1.1" id="Слой_1" xmlns="http://www.w3.org/2000/svg" xmlns:xlink="http://www.w3.org/1999/xlink" x="0px" y="0px"
	 viewBox="0 0 204.8 204.8" style="enable-background:new 0 0 204.8 204.8;" xml:space="preserve">
<style type="text/css">
	.st0{fill-rule:evenodd;clip-rule:evenodd;fill:#BBBBBB;}
	.st1{fill-rule:evenodd;clip-rule:evenodd;fill:#126F72;}
	.st2{fill-rule:evenodd;clip-rule:evenodd;fill:#ED4653;}
	.st3{fill-rule:evenodd;clip-rule:evenodd;fill:#020101;}
	.st4{fill-rule:evenodd;clip-rule:evenodd;fill:#FBBE94;}
</style>
<path class="st0" d="M22.2,173.2c8.1,22.4,35.4,16.1,31.8-8.7C37.7,157.9,30.6,159.8,22.2,173.2z"/>
<path class="st0" d="M146.8,176.3c10,16.7,30.7,13.7,31.9-8C167,155,150.7,159.4,146.8,176.3z"/>
<path class="st0" d="M67.1,146.2c1.8,1.4-4.3,5.4,9.2,2.4l24.2-11.1c10.1-5,19.9-10.5,29.4-16.5C112.2,117.8,92.4,133.5,67.1,146.2z
	"/>
<path class="st0" d="M140.7,148.5c-7.7-7.1-17.4-15-28.5-10.6C117.5,144.2,131.1,155.4,140.7,148.5z"/>
<path class="st0" d="M87.2,121.5c7.2,6.8,4.5,5.2,13.2-0.2L87.2,121.5z"/>
<path class="st1" d="M16.3,176.3c1.9-11.1,5.7-17.6,16.8-20.4c14.7-3.7,20.4,1.5,27.9,9.6C61.6,198.1,27.9,201.9,16.3,176.3z
	 M69.2,157.7c-10-7.5-24.6-14-42-7.9c-10,3.5-23.2,18-14,34.5C25.8,207.1,76.9,202.6,69.2,157.7L69.2,157.7z"/>
<path class="st1" d="M155.8,157.3c29.9-13.3,39.5,26,14.5,34.2C148.5,198.7,123.6,171.6,155.8,157.3z M193.1,176.3
	c12.9-34.4-50.3-39.3-57.7-8.9C127.8,198.4,179.5,212.5,193.1,176.3z"/>
<path class="st2" d="M79,13.2c2.4,2.3,0.3,0.7,4.8,4.2l14.3,10.1c6.9,5.1,10.3,8.3,17,15.1c29.7,30.2,14.4,30.5,34.6,27
	c0-34.9-2.1-41.4-18.7-61.2C99.7,24,99.1,5,79,13.2z"/>
<path class="st2" d="M163.2,77.5c13.9-10.3,15.4-28.6,15-44.7c-10.1-4-14.4-1.3-21.7-10.3c-6.6-8.3-4-12.3-16.9-14.4
	C170.3,52.4,141.7,60,163.2,77.5z"/>
<path class="st2" d="M21.4,80.2c25.2,6.3,81.7-2.7,111.6-4.9l-8.4-12.9c-8.1,13.3-17.8,5.6-52.3,7.5c-9.5,0.5-19.8,1.4-29.5,2.2
	C27.5,73.5,26,73.9,21.4,80.2z"/>
<path class="st2" d="M118.1,57.1c-4.8-12.5-11.2-14.5-21.6-22.7c-7.4-5.9-17.3-15-29.5-15.9C72,28,104.6,50.4,118.1,57.1z"/>
<path class="st2" d="M174,101.3c8.6-14.9,10.5-22.3,11.8-44.5L178,68.3c-5,9-10,12.9-8.9,21.6L174,101.3z"/>
<path class="st3" d="M69.2,157.7c7.7,44.8-43.4,49.4-56,26.6c-9.2-16.6,4-31,14-34.5C44.7,143.7,59.2,150.3,69.2,157.7z
	 M193.1,176.3c-13.7,36.3-65.3,22.2-57.7-8.9C142.9,136.9,206.1,141.8,193.1,176.3z M112.1,137.8c11.1-4.3,20.8,3.5,28.5,10.6
	C131.1,155.4,117.5,144.2,112.1,137.8L112.1,137.8z M67,146.2c25.4-12.8,45.1-28.4,62.8-25.2c-9.5,6-19.3,11.6-29.3,16.5l-24.3,11.1
	C62.8,151.6,68.9,147.7,67,146.2L67,146.2z M100.4,121.3c-8.7,5.4-6,7-13.2,0.2L100.4,121.3z M24.1,87.8c34.4,2,65.1-3.3,99.1-5.2
	c16.4-1,18.4-5.7,29.3-5c8.3,6.7,15.4,15.3,12.2,30.7c-18.2,6.9-103.6,10.6-119.3,4C31.9,106.7,30.7,98.9,24.1,87.8z M174.1,101.3
	l-5-11.4c-1.1-8.7,4-12.6,8.9-21.6l7.8-11.5C184.5,79,182.7,86.4,174.1,101.3L174.1,101.3z M21.4,80.2c4.6-6.2,6-6.6,21.4-8
	c9.7-0.8,20-1.7,29.5-2.2c34.6-2,44.2,5.8,52.3-7.5l8.4,12.9C103.1,77.4,46.6,86.4,21.4,80.2z M118.1,57.2
	C104.6,50.4,72,28,67.1,18.5c12.2,0.9,22.1,10,29.5,15.9C106.9,42.6,113.3,44.6,118.1,57.2L118.1,57.2z M79,13.2
	C99.1,5,99.7,24,131,8.4c16.5,19.8,18.6,26.3,18.7,61.2c-20.2,3.5-4.9,3.2-34.6-27c-6.7-6.8-10-10-17-15.1L83.8,17.5
	C79.2,13.9,81.3,15.5,79,13.2z M163.2,77.5c-21.4-17.5,7.2-25-23.6-69.3c12.8,2.1,10.2,6.1,16.9,14.4c7.3,9,11.6,6.3,21.7,10.3
	C178.6,48.9,177.1,67.2,163.2,77.5L163.2,77.5z M80.3,5.2c-10.7,0-16.2,5.3-21.4,10.7c5.5,23.6,40.2,30,53.4,48.1
	C88,64,32.4,57.4,13.5,77.4c1.8,21.1,19.2,42,45.8,45c26.2,2.9,12.9,2.6,26.3,5.7c-0.5,0.4-1.3,0.4-1.5,1.2l-6.5,4.2
	c-3,1.7-5.3,2.7-8.9,4.7c-15.6,8.7-1.8,3.3-33.9,3.3c-30.6,0-45.5,44.1-11.5,59.7c29.6,13.5,65.6-17.3,51.6-46.3
	c14.3-1.2,19.6-10.4,29-9.8c4.8,0.3,21.6,9.6,27.1,12.5c-3.3,14.3-6.9,28.5,9,39.1c52.2,35.1,91.2-55.1,28.4-55.1
	c-29.5,0-13.5,6-26.3-0.4c-6.6-3.3-5.8-5.5-13.8-7.6v-5.4c6.7-1.6,5.9-2.1,11.3-4.8c21.7-10.5,52.9-1,52.9-72.7
	c0-28.9-17.1-24.6-25.3-28.1c-8-3.5-7.7-8.2-12.8-13.9c-16.5-18.5-28.7-1.1-42-0.6C103.2,8.2,94.4,5.2,80.3,5.2z"/>
<path class="st3" d="M146.8,176.3c3.9-16.9,20.2-21.2,31.9-8C177.5,190,156.8,192.9,146.8,176.3z M155.8,157.3
	c-32.3,14.3-7.4,41.4,14.5,34.2C195.3,183.3,185.8,144,155.8,157.3L155.8,157.3z"/>
<path class="st3" d="M22.2,173.2c8.4-13.5,15.5-15.3,31.8-8.7C57.6,189.3,30.3,195.7,22.2,173.2z M16.3,176.2
	c11.6,25.6,45.3,21.9,44.7-10.8c-7.5-8.2-13.2-13.4-27.9-9.6C22.1,158.6,18.2,165.2,16.3,176.2L16.3,176.2z"/>
<path class="st4" d="M24.1,87.8c6.7,11.1,7.8,18.9,21.3,24.5c15.6,6.6,101.1,2.9,119.3-4c3.2-15.4-3.9-24-12.2-30.7
	c-10.8-0.7-12.8,4-29.3,5C89.2,84.5,58.5,89.8,24.1,87.8z"/>
</svg>
