<svg xmlns="http://www.w3.org/2000/svg" viewBox="0 0 196.98 204.77"><defs><style>.a{fill:#bbb;}.a,.b,.c,.d,.e{fill-rule:evenodd;}.b{fill:#126f72;}.c{fill:#ed4653;}.d{fill:#020101;}.e{fill:#fbbe94;}</style></defs><path class="a" d="M18.32,173.21c8.13,22.45,35.43,16.1,31.78-8.7C33.85,157.91,26.74,159.75,18.32,173.21Z"/><path class="a" d="M142.9,176.25c10,16.66,30.67,13.72,31.86-8C163.14,155,146.84,159.38,142.9,176.25Z"/><path class="a" d="M63.16,146.23c1.79,1.44-4.28,5.36,9.22,2.44l24.23-11.14A304.54,304.54,0,0,0,126,121C108.26,117.8,88.53,133.47,63.16,146.23Z"/><path class="a" d="M136.78,148.47c-7.71-7.09-17.41-15-28.52-10.63C113.56,144.24,127.23,155.41,136.78,148.47Z"/><path class="a" d="M83.29,121.51c7.23,6.83,4.51,5.19,13.21-.2Z"/><path class="b" d="M12.45,176.25c1.87-11.09,5.73-17.61,16.78-20.41,14.69-3.72,20.41,1.47,27.87,9.64C57.72,198.1,24.05,201.9,12.45,176.25Zm52.9-18.54c-10-7.46-24.58-14-42-7.88-10,3.54-23.19,18-14,34.52C21.92,207.12,73,202.55,65.35,157.71Z"/><path class="b" d="M151.94,157.31c29.94-13.32,39.46,26,14.49,34.24C144.57,198.73,119.69,171.65,151.94,157.31Zm37.31,18.94c12.95-34.42-50.26-39.32-57.71-8.88C123.91,198.41,175.59,212.5,189.25,176.25Z"/><path class="c" d="M75.07,13.23c2.38,2.29.28.7,4.79,4.22L94.2,27.51c6.92,5.11,10.29,8.31,17,15.08,29.71,30.22,14.4,30.48,34.61,27,0-34.92-2.15-41.44-18.68-61.2C95.82,24.05,95.25,5,75.07,13.23Z"/><path class="c" d="M159.26,77.46c13.92-10.26,15.45-28.57,15-44.7-10.06-4-14.4-1.25-21.71-10.26-6.63-8.25-4-12.31-16.87-14.38C166.43,52.43,137.83,60,159.26,77.46Z"/><path class="c" d="M17.55,80.15c25.2,6.3,81.67-2.72,111.6-4.87l-8.36-12.93c-8.13,13.3-17.77,5.58-52.35,7.54-9.53.54-19.79,1.39-29.51,2.24C23.56,73.52,22.12,73.94,17.55,80.15Z"/><path class="c" d="M114.22,57.11C109.4,44.61,103,42.62,92.67,34.4c-7.37-5.87-17.29-15-29.51-15.9C68.15,28,100.75,50.36,114.22,57.11Z"/><path class="c" d="M170.14,101.3c8.62-14.94,10.46-22.34,11.8-44.51l-7.83,11.54c-5,9-10,12.93-8.93,21.6Z"/><path class="d" d="M65.35,157.71c7.68,44.84-43.43,49.41-56,26.64-9.18-16.55,4-31,14-34.52C40.77,143.68,55.31,150.25,65.35,157.71Zm123.9,18.54c-13.66,36.25-65.34,22.16-57.71-8.88C139,136.93,202.2,141.83,189.25,176.25Zm-81-38.41c11.11-4.34,20.81,3.54,28.52,10.63C127.23,155.41,113.56,144.24,108.26,137.84Zm-45.1,8.39C88.53,133.47,108.26,117.8,126,121a304.54,304.54,0,0,1-29.34,16.53L72.38,148.67C58.88,151.59,65,147.67,63.16,146.23ZM96.5,121.31c-8.7,5.39-6,7-13.21.2ZM20.16,87.75c34.44,2,65.14-3.29,99.13-5.22,16.41-1,18.42-5.72,29.25-5,8.31,6.67,15.4,15.28,12.19,30.68-18.22,6.91-103.63,10.6-119.28,4C28,106.66,26.82,98.86,20.16,87.75Zm150,13.55-5-11.37c-1.1-8.67,4-12.58,8.93-21.6l7.83-11.54C180.6,79,178.76,86.36,170.14,101.3ZM17.55,80.15c4.57-6.21,6-6.63,21.38-8,9.72-.85,20-1.7,29.51-2.24,34.58-2,44.22,5.76,52.35-7.54l8.36,12.93C99.22,77.43,42.75,86.45,17.55,80.15Zm96.67-23C100.75,50.36,68.15,28,63.16,18.5c12.22.91,22.14,10,29.51,15.9C103,42.62,109.4,44.61,114.22,57.11ZM75.07,13.23c20.18-8.25,20.75,10.82,52-4.85,16.53,19.76,18.63,26.28,18.68,61.2-20.21,3.49-4.9,3.23-34.61-27-6.66-6.77-10-10-17-15.08L79.86,17.45C75.35,13.93,77.45,15.52,75.07,13.23Zm84.19,64.23c-21.43-17.49,7.17-25-23.56-69.34,12.84,2.07,10.24,6.13,16.87,14.38,7.31,9,11.65,6.26,21.71,10.26C174.71,48.89,173.18,67.2,159.26,77.46ZM76.4,5.2C65.74,5.2,60.19,10.45,55,15.89c5.5,23.64,40.19,30.05,53.43,48.1C84.08,64,28.52,57.42,9.59,77.37c1.76,21.12,19.19,42,45.83,45,26.17,2.89,12.85,2.63,26.31,5.75-.48.43-1.25.37-1.5,1.16l-6.47,4.23c-3,1.67-5.3,2.66-8.87,4.68-15.56,8.73-1.81,3.31-33.93,3.31-30.58,0-45.52,44.11-11.51,59.67C49.05,214.71,85,183.9,71,154.87c14.35-1.19,19.59-10.43,29-9.83,4.85.28,21.57,9.58,27.1,12.5-3.32,14.28-6.89,28.46,9,39.12,52.24,35.12,91.24-55.14,28.43-55.14-29.51,0-13.47,6-26.28-.42-6.55-3.26-5.78-5.47-13.8-7.6v-5.36c6.71-1.56,5.86-2.12,11.28-4.76,21.68-10.54,52.86-1,52.86-72.74,0-28.94-17.06-24.6-25.31-28.14-8-3.49-7.71-8.22-12.78-13.95C134-10,121.78,7.42,108.46,7.9,99.28,8.24,90.46,5.2,76.4,5.2Z"/><path class="d" d="M142.9,176.25c3.94-16.87,20.24-21.21,31.86-8C173.57,190,152.88,192.91,142.9,176.25Zm9-18.94c-32.25,14.34-7.37,41.42,14.49,34.24C191.4,183.33,181.88,144,151.94,157.31Z"/><path class="d" d="M18.32,173.21c8.42-13.46,15.53-15.3,31.78-8.7C53.75,189.31,26.45,195.66,18.32,173.21Zm-5.87,3c11.6,25.65,45.27,21.85,44.65-10.77-7.46-8.17-13.18-13.36-27.87-9.64C18.18,158.64,14.32,165.16,12.45,176.25Z"/><path class="e" d="M20.16,87.75c6.66,11.11,7.83,18.91,21.29,24.52,15.65,6.55,101.06,2.86,119.28-4,3.21-15.4-3.88-24-12.19-30.68-10.83-.73-12.84,4-29.25,5C85.3,84.46,54.6,89.76,20.16,87.75Z"/></svg>