<svg xmlns="http://www.w3.org/2000/svg" viewBox="0 0 222.61 220.46"><defs><style>.a,.b,.c,.d{fill-rule:evenodd;}.b{fill:#14b5b8;}.c{fill:#d5e4e4;}.d{fill:#ee4823;}</style></defs><path class="a" d="M110.29,178.18c3.74,7.71,4.19,10,.08,17.34C97.42,192.92,97.16,181.75,110.29,178.18Zm74.12-76.45c4.51-7.52,5.73-7.26,14.35-3C195.21,107,195.38,108.87,184.41,101.73Zm-157.49,0c6.32-8,6.63-5.9,11.54,1.22C26.86,109.32,31.37,105.35,26.92,101.73Zm1.67-12.31C48.72,52,56.46,44.58,95.86,27.43l2.52,16,16.53-.66,7.91-21.17c45,4.59,77.24,31.72,74.89,68.85-10.38.6-9.78-1.33-17.49,4.45-5.3,18.29,5.67,15.2,18.85,17.78-15,41.18-14.66,67.18-79.71,82.14l-1.76-19.72c-8.93-4.29-12.16-3.09-20.24,1.78l-1.59,18.71c-12.53-5.53-29.79-3.37-49.15-25.14-14.91-16.78-18.28-28.49-21-55.22l18.28-5.13L43,94.7C36.36,90.61,36.9,92.15,28.59,89.42Zm79.63-52c-10.94-6.17-5.67-14,6.57-12.24C110.83,35.62,116,32.79,108.22,37.46Zm2.26-19.33C-16.93,42.71-6.33,206.92,115.7,200.63c53.58-2.75,86.29-45,88.87-95.84C207.63,43.9,161.25,8.35,110.48,18.13Z"/><path class="a" d="M211.94,136.48c-11.11,54.42-67.75,87.76-126.2,75.83C30.07,200.94-5.25,141.78,11.1,83,25.59,30.89,83-1.77,137.75,7.7,204.51,19.27,224.21,76.19,211.94,136.48ZM96.68,2.85C89.57,4.7,83.1,4.19,74.46,7.36c-22.6,8.25-32,18.77-48,34.87C-3.81,72.76-8.71,128.57,14.87,167.52L32.7,189.77c25.09,26.9,55.56,33.85,93.29,29.48C255.28,204.37,255.19-.07,123.44.16,119,.16,114.2-.07,109.86,0,97.19.22,96.74,2.83,96.68,2.85Z"/><path class="a" d="M60.37,136.08c1.87-2.83,33.84-41.36,35.94-42.86,4.74-3.4,58.45-14.45,64.75-14.37-1.39,2.21-34.7,43-35.64,43.82C118.79,128.26,70.77,136.42,60.37,136.08Zm-11.28,7.85c13.18.83,71.57-9.24,80.33-17.32,2.84-2.63,20.47-24.26,23.13-27.92,9-12.33,18.51-13.57,20.95-28.37-7-1.56-72,12.75-79.54,17.37C91.86,89,50.62,134,49.09,143.93Z"/><path class="a" d="M105.84,148.67c13.43-2.67,5.64-2.27,6.49-6.64-10.58-.51-8.62-2-14.43,6.35,5.61,11.65,4.53,3.49,14.63,9.33L95,160c9.61,12.84,29.4,1.39,22.51-7.82C113.38,146.66,114.65,149.46,105.84,148.67Z"/><path class="a" d="M107.91,102.35c10,1.39,6-1,6.91,7.11C103.51,108.61,109.52,110.34,107.91,102.35Zm-4.45-4.48c-5.16,15,3.57,21.71,17.71,15.45C122.65,99.32,118.11,94.16,103.46,97.87Z"/><path class="b" d="M110.48,18.13c50.77-9.78,97.15,25.77,94.09,86.66-2.58,50.82-35.29,93.09-88.87,95.84C-6.33,206.92-16.93,42.71,110.48,18.13ZM211.94,136.48C224.21,76.19,204.51,19.27,137.75,7.7,83-1.77,25.59,30.89,11.1,83c-16.35,58.82,19,118,74.64,129.35C144.19,224.24,200.83,190.9,211.94,136.48Z"/><path class="b" d="M110.29,178.18c-13.13,3.57-12.87,14.74.08,17.34C114.48,188.15,114,185.89,110.29,178.18Z"/><path class="b" d="M108.22,37.46c7.76-4.67,2.61-1.84,6.57-12.24C102.55,23.43,97.28,31.29,108.22,37.46Z"/><path class="b" d="M198.76,98.75c-8.62-4.28-9.84-4.54-14.35,3C195.38,108.87,195.21,107,198.76,98.75Z"/><path class="b" d="M38.46,103c-4.91-7.12-5.22-9.27-11.54-1.22C31.37,105.35,26.86,109.32,38.46,103Z"/><path class="b" d="M114.82,109.46c-1-8.13,3.06-5.72-6.91-7.11C109.52,110.34,103.51,108.61,114.82,109.46Z"/><path class="c" d="M105.84,148.67c8.81.79,7.54-2,11.62,3.46,6.89,9.21-12.9,20.66-22.51,7.82l17.58-2.24c-10.1-5.84-9,2.32-14.63-9.33,5.81-8.33,3.85-6.86,14.43-6.35C111.48,146.4,119.27,146,105.84,148.67Zm-56.75-4.74C50.62,134,91.86,89,94,87.69c7.54-4.62,72.57-18.93,79.54-17.37-2.44,14.8-11.93,16-20.95,28.37-2.66,3.66-20.29,25.29-23.13,27.92C120.66,134.69,62.27,144.76,49.09,143.93ZM28.59,89.42C36.9,92.15,36.36,90.61,43,94.7l.85,15.42-18.28,5.13c2.75,26.73,6.12,38.44,21,55.22C66,192.24,83.24,190.08,95.77,195.61l1.59-18.71c8.08-4.87,11.31-6.07,20.24-1.78l1.76,19.72c65.05-15,64.74-41,79.71-82.14-13.18-2.58-24.15.51-18.85-17.78,7.71-5.78,7.11-3.85,17.49-4.45,2.35-37.13-29.88-64.26-74.89-68.85l-7.91,21.17-16.53.66-2.52-16C56.46,44.58,48.72,52,28.59,89.42Z"/><path class="d" d="M103.46,97.87c14.65-3.71,19.19,1.45,17.71,15.45C107,119.58,98.3,112.87,103.46,97.87ZM60.37,136.08c10.4.34,58.42-7.82,65.05-13.41.94-.79,34.25-41.61,35.64-43.82-6.3-.08-60,11-64.75,14.37C94.21,94.72,62.24,133.25,60.37,136.08Z"/><path class="a" d="M99,55.63c-2.44,9.64-1.82,4.68,1.84,12.87l2.35-7.85,14.26,6.89,1.81-16.78c-2.89,2.1-5.47,8.93-7.31,8.28C102.41,55.58,103.77,41.75,99,55.63Z"/></svg>