<?xml version="1.0" encoding="utf-8"?>
<!-- Generator: Adobe Illustrator 24.1.2, SVG Export Plug-In . SVG Version: 6.00 Build 0)  -->
<svg version="1.1" id="Слой_1" xmlns="http://www.w3.org/2000/svg" xmlns:xlink="http://www.w3.org/1999/xlink" x="0px" y="0px"
	 viewBox="0 0 222.6 222.6" style="enable-background:new 0 0 222.6 222.6;" xml:space="preserve">
<style type="text/css">
	.st0{fill-rule:evenodd;clip-rule:evenodd;}
	.st1{fill-rule:evenodd;clip-rule:evenodd;fill:#14B5B8;}
	.st2{fill-rule:evenodd;clip-rule:evenodd;fill:#D5E4E4;}
	.st3{fill-rule:evenodd;clip-rule:evenodd;fill:#EE4823;}
</style>
<path class="st0" d="M110.3,179.3c3.7,7.7,4.2,10,0.1,17.3C97.4,194,97.2,182.8,110.3,179.3z M184.4,102.8c4.5-7.5,5.7-7.3,14.4-3
	C195.2,108.1,195.4,109.9,184.4,102.8z M26.9,102.8c6.3-8,6.6-5.9,11.5,1.2C26.9,110.4,31.4,106.4,26.9,102.8z M28.6,90.5
	c20.1-37.4,27.9-44.8,67.3-62l2.5,16l16.5-0.7l7.9-21.2c45,4.6,77.2,31.7,74.9,68.8c-10.4,0.6-9.8-1.3-17.5,4.4
	c-5.3,18.3,5.7,15.2,18.9,17.8c-15,41.2-14.7,67.2-79.7,82.1l-1.8-19.7c-8.9-4.3-12.2-3.1-20.2,1.8l-1.6,18.7
	c-12.5-5.5-29.8-3.4-49.2-25.1c-14.9-16.8-18.3-28.5-21-55.2l18.3-5.1L43,95.8C36.4,91.7,36.9,93.2,28.6,90.5z M108.2,38.5
	c-10.9-6.2-5.7-14,6.6-12.2C110.8,36.7,116,33.9,108.2,38.5L108.2,38.5z M110.5,19.2C-16.9,43.8-6.3,208,115.7,201.7
	c53.6-2.8,86.3-45,88.9-95.8C207.6,45,161.3,9.4,110.5,19.2L110.5,19.2z"/>
<path class="st0" d="M211.9,137.6c-11.1,54.4-67.8,87.8-126.2,75.8C30.1,202-5.3,142.9,11.1,84.1C25.6,32,83-0.7,137.8,8.8
	C204.5,20.3,224.2,77.3,211.9,137.6z M96.7,3.9c-7.1,1.8-13.6,1.3-22.2,4.5c-22.6,8.3-32,18.8-48,34.9
	C-3.8,73.8-8.7,129.6,14.9,168.6l17.8,22.3c25.1,26.9,55.6,33.8,93.3,29.5C255.3,205.4,255.2,1,123.4,1.2c-4.4,0-9.2-0.2-13.6-0.2
	C97.2,1.3,96.7,3.9,96.7,3.9z"/>
<path class="st0" d="M60.4,137.2c1.9-2.8,33.8-41.4,35.9-42.9c4.7-3.4,58.4-14.4,64.8-14.4c-1.4,2.2-34.7,43-35.6,43.8
	C118.8,129.3,70.8,137.5,60.4,137.2z M49.1,145c13.2,0.8,71.6-9.2,80.3-17.3c2.8-2.6,20.5-24.3,23.1-27.9
	c9-12.3,18.5-13.6,20.9-28.4c-7-1.6-72,12.8-79.5,17.4C91.9,90.1,50.6,135.1,49.1,145L49.1,145z"/>
<path class="st0" d="M105.8,149.7c13.4-2.7,5.6-2.3,6.5-6.6c-10.6-0.5-8.6-2-14.4,6.4c5.6,11.6,4.5,3.5,14.6,9.3L95,161.1
	c9.6,12.8,29.4,1.4,22.5-7.8C113.4,147.7,114.7,150.5,105.8,149.7z"/>
<path class="st0" d="M107.9,103.4c10,1.4,6-1,6.9,7.1C103.5,109.7,109.5,111.4,107.9,103.4z M103.5,98.9c-5.2,15,3.6,21.7,17.7,15.4
	C122.7,100.4,118.1,95.2,103.5,98.9z"/>
<path class="st1" d="M110.5,19.2c50.8-9.8,97.2,25.8,94.1,86.7c-2.6,50.8-35.3,93.1-88.9,95.8C-6.3,208-16.9,43.8,110.5,19.2z
	 M211.9,137.6c12.3-60.3-7.4-117.2-74.2-128.8C83-0.7,25.6,32,11.1,84.1c-16.4,58.8,19,118,74.6,129.4
	C144.2,225.3,200.8,192,211.9,137.6z"/>
<path class="st1" d="M110.3,179.3c-13.1,3.6-12.9,14.7,0.1,17.3C114.5,189.2,114,187,110.3,179.3z"/>
<path class="st1" d="M108.2,38.5c7.8-4.7,2.6-1.8,6.6-12.2C102.6,24.5,97.3,32.4,108.2,38.5z"/>
<path class="st1" d="M198.8,99.8c-8.6-4.3-9.8-4.5-14.4,3C195.4,109.9,195.2,108.1,198.8,99.8z"/>
<path class="st1" d="M38.5,104.1c-4.9-7.1-5.2-9.3-11.5-1.2C31.4,106.4,26.9,110.4,38.5,104.1z"/>
<path class="st1" d="M114.8,110.5c-1-8.1,3.1-5.7-6.9-7.1C109.5,111.4,103.5,109.7,114.8,110.5z"/>
<path class="st2" d="M105.8,149.7c8.8,0.8,7.5-2,11.6,3.5c6.9,9.2-12.9,20.7-22.5,7.8l17.6-2.2c-10.1-5.8-9,2.3-14.6-9.3
	c5.8-8.3,3.8-6.9,14.4-6.4C111.5,147.5,119.3,147.1,105.8,149.7z M49.1,145c1.5-9.9,42.8-54.9,44.9-56.2
	c7.5-4.6,72.6-18.9,79.5-17.4c-2.4,14.8-11.9,16-20.9,28.4c-2.7,3.7-20.3,25.3-23.1,27.9C120.7,135.8,62.3,145.8,49.1,145z
	 M28.6,90.5c8.3,2.7,7.8,1.2,14.4,5.3l0.8,15.4l-18.3,5.1c2.8,26.7,6.1,38.4,21,55.2c19.4,21.8,36.7,19.6,49.2,25.1l1.6-18.7
	c8.1-4.9,11.3-6.1,20.2-1.8l1.8,19.7c65.1-15,64.7-41,79.7-82.1c-13.2-2.6-24.1,0.5-18.9-17.8c7.7-5.8,7.1-3.8,17.5-4.4
	c2.4-37.1-29.9-64.3-74.9-68.8l-7.9,21.2l-16.5,0.7l-2.5-16C56.5,45.7,48.7,53.1,28.6,90.5z"/>
<path class="st3" d="M103.5,98.9c14.7-3.7,19.2,1.4,17.7,15.4C107,120.7,98.3,113.9,103.5,98.9z M60.4,137.2
	c10.4,0.3,58.4-7.8,65.1-13.4c0.9-0.8,34.3-41.6,35.6-43.8c-6.3-0.1-60,11-64.8,14.4C94.2,95.8,62.2,134.3,60.4,137.2z"/>
<path class="st0" d="M99,56.7c-2.4,9.6-1.8,4.7,1.8,12.9l2.3-7.8l14.3,6.9l1.8-16.8c-2.9,2.1-5.5,8.9-7.3,8.3
	C102.4,56.7,103.8,42.8,99,56.7z"/>
</svg>
