<svg xmlns="http://www.w3.org/2000/svg" viewBox="0 0 248.57 203.91"><defs><style>.a{fill:#14b4b7;}.a,.b,.c,.d,.e,.f{fill-rule:evenodd;}.b{fill:#030303;}.c{fill:#000202;}.d{fill:#bbb;}.e{fill:#fbbd10;}.f{fill:#d5e3e3;}</style></defs><path class="a" d="M123,137c-4.56-8.65-7.73-18.06-2.32-26.34,8.36,11.2-4.68,7.29,10.54,10.29,5.42-11.93-5.27-5.44,6.24-11.08,7.68,27.78,2.81,18.88.79,21.94-3.71-1,1.36-3.26-10-5.22C124.7,133.77,128.41,129.8,123,137Zm-11.79-27,2.07,27c8.19,3.29,26.76,1.08,34.67-2.35,1.76-8-.88-20.35-5.08-28.63Z"/><path class="a" d="M53.35,14.14c8,17.44,47.88,7.94,62.79,2.75C108.48,12.47,58.51,4.53,53.35,14.14Z"/><path class="a" d="M184.56,13c19.36,2.44,37.87,5.1,57.15,1.42C229.72,3,197.26,7.28,184.56,13Z"/><path class="a" d="M137.08,42c10.35-.43,9.24.48,3.86-9.19Z"/><path class="b" d="M142.89,106.13c4.2,8.28,6.84,20.61,5.08,28.63-7.91,3.43-26.48,5.64-34.67,2.35l-2.07-27Zm-36.31-2.47c-2.52,9.55-1.33,29.77,3.09,38.47,10.09,5.64,34.9,3.77,44-4.17,2.9-11.68-.79-29.22-7.88-37.27C133.31,98.08,118.77,99.44,106.58,103.66Z"/><path class="b" d="M168.52,106.78c-11.68-8.93-16.84-24.94-4-35.12,9.44,2,35.83,26,39.15,35.91Zm2.32-42.18c-27.86,2.35-23,35.92-5.38,47.74,13.43,1.41,29.37,3.09,42-.85C216.14,93.88,179.6,76.9,170.84,64.6Z"/><path class="c" d="M82.09,190.23C97.37,182,199.59,194.77,244,179.12c-5.24,16.92-16.27,13.55-32.77,14.17C185.33,194.31,94.9,202.73,82.09,190.23ZM248.57,169.4v11.17a20.21,20.21,0,0,1-2.69,7c-9,17.91-49.33,13-66.9,13.27-11.2.17-12,2.12-21.26,2.8-19.45,1.45-33.65-2.8-50.74-2.75-14.63.06-36.94,4.08-30.47-17.6l18.93-2.67c7.29-31.66,9.41-18.56-10.6-53.83C67.12,124.7,63,129,48.1,129c-6,0-13-1.76-16-1.76-3.2,0-9.7,1.56-16.05,1.56C16,87.5,11.74,109,0,86c5.7-8.59,6.89-8.76,16-13.38,8.42,5.59,10.63,10.43,16.05,18.71,51.59,0,43.2-6.06,64.12-21.4,32.62-23.9,10.15-6,22-20.72,9.92-12.36,14.91-4.08,15.42-27.36-14.2,3.41-30,3.89-44.36,6.44-16.38,2.89-28.37,5-41.53-7.26l3-15.22c9.12-4.2,44.44-.82,55.05,1.05C146.61,14.14,166,8.19,209,1.13c16.52-2.72,39.17-1.9,39.57,18.06-43.82,10.54-93.91-10.2-100.88,6C147.26,39,152.76,40.85,164,45c6.29,17.06,12.61,12.33,27.46,23.32,15.54,11.46,35.29,35,42.78,53.41,8,19.61,2.83,18.88-6.41,33.36l8.11,13.52c5.58-7.56.42-5.64,9.3-7.08A20.43,20.43,0,0,1,248.57,169.4ZM104.23,179.55l5.61-21.32,55.76-2.86c17-.71,40.45,6.77,53.35-.12L232.75,174c-12.5,9-46.66,8.25-61.68,8.25Zm66.61-115c24.52,6.27,62.71,49.89,58.6,77.33-14.74,14.12-37.51,7.88-58.37,8-18.11.14-49.29,2.41-65.73-.91-9.9-15.22-5.14-27.83-27.67-29-8.76-.45-48.08.51-53.92,2.81-3.71-27.22-1.67-17.44-16-36.68l5.61-5.5c19.56,8.81,5.87,21.43,38.47,16.86,21.91-3,24.29-.65,40.59-15.25C111.17,65.39,147.29,44.28,170.84,64.6Zm-29.9-31.75c5.38,9.67,6.49,8.76-3.86,9.19Zm-24.8-16c-14.91,5.19-54.77,14.69-62.79-2.75C58.51,4.53,108.48,12.47,116.14,16.89ZM184.56,13c12.7-5.73,45.16-10,57.15,1.42C222.43,18.11,203.92,15.45,184.56,13Z"/><path class="c" d="M123,137c5.39-7.23,1.68-3.26,5.28-10.41,11.33,2,6.26,4.25,10,5.22,2-3.06,6.89,5.84-.79-21.94-11.51,5.64-.82-.85-6.24,11.08-15.22-3-2.18.91-10.54-10.29C115.29,119,118.46,128.38,123,137Z"/><path class="d" d="M106.58,103.66c12.19-4.22,26.73-5.58,39.23-3,7.09,8,10.78,25.59,7.88,37.27-9.12,7.94-33.93,9.81-44,4.17C105.25,133.43,104.06,113.21,106.58,103.66ZM170.84,64.6c8.76,12.3,45.3,29.28,36.66,46.89-12.67,3.94-28.61,2.26-42,.85C147.8,100.52,143,67,170.84,64.6Zm0,0c-23.55-20.32-59.67.79-78.46,17.63C76.08,96.83,73.7,94.45,51.79,97.48c-32.6,4.57-18.91-8-38.47-16.86l-5.61,5.5c14.37,19.24,12.33,9.46,16,36.68,5.84-2.3,45.16-3.26,53.92-2.81,22.53,1.22,17.77,13.83,27.67,29.05,16.44,3.32,47.62,1.05,65.73.91,20.86-.14,43.63,6.1,58.37-8C233.55,114.49,195.36,70.87,170.84,64.6Z"/><path class="e" d="M82.09,190.23c12.81,12.5,103.24,4.08,129.09,3.06,16.5-.62,27.53,2.75,32.77-14.17C199.59,194.77,97.37,182,82.09,190.23Z"/><path class="f" d="M168.52,106.78l35.18.79C200.38,97.68,174,73.7,164.55,71.66,151.68,81.84,156.84,97.85,168.52,106.78Z"/></svg>