<?xml version="1.0" encoding="utf-8"?>
<!-- Generator: Adobe Illustrator 24.1.2, SVG Export Plug-In . SVG Version: 6.00 Build 0)  -->
<svg version="1.1" id="Слой_1" xmlns="http://www.w3.org/2000/svg" xmlns:xlink="http://www.w3.org/1999/xlink" x="0px" y="0px"
	 viewBox="0 0 232.4 232.4" style="enable-background:new 0 0 232.4 232.4;" xml:space="preserve">
<style type="text/css">
	.st0{fill-rule:evenodd;clip-rule:evenodd;fill:#126F70;}
	.st1{fill-rule:evenodd;clip-rule:evenodd;fill:#EB4723;}
	.st2{fill-rule:evenodd;clip-rule:evenodd;fill:#FBBD10;}
	.st3{fill-rule:evenodd;clip-rule:evenodd;fill:#14B5B8;}
	.st4{fill-rule:evenodd;clip-rule:evenodd;fill:#39B17A;}
	.st5{fill-rule:evenodd;clip-rule:evenodd;fill:#010100;}
</style>
<path class="st0" d="M18.5,62.1c9.1-3.4,7-3.7,10.2-13.4L16.4,47C15.7,55.7,14.8,56,18.5,62.1z"/>
<path class="st0" d="M77.4,67.7L82,50.4L69.2,51C70.6,59.9,70.7,60.4,77.4,67.7z"/>
<path class="st0" d="M132.3,67.7l7.7,0.7c0.3-0.1,6.2-3.5,7.5-4.1l-8-9.7C133.7,59.9,131.4,60.4,132.3,67.7z"/>
<path class="st0" d="M180.7,99.6c6.5-3.4,0.2,1.7,7.5-4.8c3.2-2.9,3.8-4.2,5.6-6.8l-12.4-5.3L180.7,99.6z"/>
<path class="st0" d="M46.4,66c4.7-4.5,6.8-7.3,9.1-12.6l-14.6-2.2L46.4,66z"/>
<polygon class="st0" points="155.5,84.8 170.7,78.4 157.8,69.6 "/>
<path class="st0" d="M92,47c4.6,8.3,6.1,9,11.3,13.8l-1-17.6L92,47z"/>
<path class="st0" d="M207.2,104.8c3.1-2.1,3-0.4,5.9-6.5c0.8-1.6,1.4-4.9,1.9-6.3l-10.5-3L207.2,104.8z"/>
<path class="st0" d="M200.1,98.5c-2.1-7.7-2.5-4.7-4.7-1.8L200.1,98.5z"/>
<path class="st1" d="M23.8,29.3l-5.3,10.3C38,46.1,71,49.4,91.3,40.8l7.7-6.1l-3.3-8.2c-7.8,2.4-7.1,4.8-15.5,8.4
	C57.5,44.6,40.4,46.8,23.8,29.3z"/>
<path class="st1" d="M143.9,46.9c9.8,22.5,49.9,33.4,71.3,37.5l0.9-13.7c-10.9,5.3-30.1,1.5-41-2.5c-17.5-6.5-15.8-11.6-22.9-26.5
	C147.7,45.8,149.9,43.1,143.9,46.9z"/>
<path class="st2" d="M98.8,75.1C60.6,85.6,51,78.3,17.6,69.3c8.3,13.2,20.5,16.9,38.3,18.5c8.5,0.8,16.8,0.8,25-1.5
	c3.2-1,6.4-2.2,9.6-3.5C101.4,77.8,95.2,83,98.8,75.1z"/>
<path class="st2" d="M197.3,119.9c-9.6-8.7-37-8.1-61.1-36.9c-4.5-5.5-3-4.4-8.2-8.7c1.6,8.8,2.4,13.7,8.1,19.5
	C151.9,110,170.9,123,197.3,119.9z"/>
<path class="st2" d="M42.8,13.4c11.6,5.1,24.7,5.5,34.3-2.9C65.1,5.2,50.8,1.2,42.8,13.4z"/>
<path class="st2" d="M208.1,51.2c-4.3-8.6-15-19.6-30.6-15.1C182.2,47.1,191.7,50.5,208.1,51.2z"/>
<path class="st3" d="M214,64.6c-3.5-9.2,5.2-5.2-12-8c-9.5-1.5-18.4-1.6-27-12.8c-7.4-9.6-0.6-8-8.3-10.2
	C140.1,46,186.7,76.3,214,64.6z"/>
<path class="st3" d="M87.2,16.8c-19.7-0.5-24.2,14.8-48.5,0.4c-4.7-2.8-0.1-1.8-5.9-2.8c-8.6,12.8,2.1,30,42.6,15.9
	C84.5,27.2,86.6,26.7,87.2,16.8z"/>
<path class="st4" d="M66.5,189.8v2.7c0,14.7-7.6-2.8-7.5,15.6c13.3,2,19.8,1.4,28.3-7.3c-4.8-10.3-3.4-3.5-11.8-11
	c5.2-57.5-3.2-46.4-3.8-85.5c4.1-3.5,10.6-9.5,15.2-12.3c-28.2,2-30.9,0.8-57-3c24.9,28,22.7,4.2,28.6,39.4
	C61.5,146,66.5,172,66.5,189.8z"/>
<path class="st4" d="M101.3,213.8c5.3,10.3,16,14.3,27.7,8.9c1.2-7.5-2-6.2-5.7-14.2c39.8-54.8,16.2-77.4,56.2-80.7
	c-8.1-4.9-16.4-6.5-25.7-12c-10.7-6.4-14.6-12.2-23.1-17.3c5.9,38,23,7.9-8.8,93.1C112.5,216.7,115.7,204.6,101.3,213.8z"/>
<path class="st4" d="M158,93.5c5.2,5.6,9.7,8.8,17.1,9.8V84.2C165.9,86.8,163.4,87.6,158,93.5z"/>
<path class="st4" d="M51.3,71.7l20.8,3.7c-1.6-5.2-1.1-4.9-4-10.3c-3.3-6.2-3.5-5.7-6.9-9L51.3,71.7z"/>
<path class="st4" d="M81.6,72.5l16.8-4.4c-1.8-3.6-2-4.8-4.3-7.5c-6.7-7.7-1.4-2-6.2-5.1L81.6,72.5z"/>
<polygon class="st4" points="200.1,98.5 195.4,96.7 184.1,107.9 201.5,109.9 "/>
<path class="st4" d="M139.1,75.2l7.2,10.6c2.5-3.3,2.7,3,4.6-15.7C144.4,71.1,145.3,71,139.1,75.2z"/>
<path class="st4" d="M27.8,65.6l12.8,4.7c-2.2-8.5-2.8-10.7-6.6-15.7L27.8,65.6z"/>
<path class="st5" d="M195.4,96.7c2.2-2.9,2.6-5.9,4.7,1.8l1.4,11.4l-17.4-1.9L195.4,96.7z M101.3,213.8c14.4-9.2,11.1,2.9,20.5-22.2
	c31.9-85.2,14.7-55.2,8.9-93.1c8.6,5.2,12.4,11,23.1,17.3c9.3,5.5,17.6,7.1,25.7,12c-40.1,3.2-16.4,25.8-56.2,80.7
	c3.8,8,6.9,6.7,5.7,14.2C117.3,228.1,106.6,224.1,101.3,213.8z M158,93.5c5.4-5.9,7.9-6.7,17.1-9.4v19.1
	C167.7,102.3,163.2,99.1,158,93.5z M204.5,89l10.5,3c-0.5,1.5-1.2,4.8-1.9,6.3c-2.9,6.1-2.9,4.4-5.9,6.5L204.5,89z M181.5,82.7
	l12.4,5.3c-1.9,2.6-2.4,3.9-5.6,6.8c-7.3,6.6-1,1.4-7.5,4.8L181.5,82.7z M157.8,69.6l12.9,8.8l-15.2,6.4L157.8,69.6z M197.3,119.9
	c-26.3,3.1-45.4-9.9-61.2-26.2c-5.7-5.8-6.5-10.7-8.1-19.5c5.2,4.3,3.7,3.3,8.2,8.7C160.3,111.8,187.6,111.2,197.3,119.9
	L197.3,119.9z M139.1,75.2c6.1-4.3,5.3-4.2,11.8-5.1c-1.9,18.7-2.1,12.4-4.6,15.7L139.1,75.2z M132.3,67.7
	c-0.9-7.3,1.4-7.8,7.2-13.2l8,9.7c-1.3,0.6-7.2,4-7.5,4.1L132.3,67.7z M216.1,70.6l-0.9,13.7c-21.4-4-61.5-15-71.3-37.5
	c6-3.7,3.8-1,8.2-5.3c7.1,14.9,5.4,20,22.9,26.5C186,72.1,205.2,75.9,216.1,70.6z M175,43.8c8.5,11.1,17.5,11.2,27,12.8
	c17.2,2.8,8.5-1.3,12,8c-27.3,11.7-73.9-18.6-47.3-31C174.4,35.9,167.6,34.2,175,43.8z M208.1,51.2c-16.4-0.7-26-4-30.6-15.1
	C193.1,31.6,203.8,42.6,208.1,51.2z M120,77.5c0,10.2,5,29.5,8.5,37c8.1,17.1,8.9,11.2,1.2,34.2c-29.1,87-22.6,39.7-33.8,62.4
	l-0.9,3.1c0.2,4.8,0.5,7.4,7.1,12c6.9,4.7,33.9,14.2,33.9-7c0-13.6-10.6-0.6,0.2-18.1c3.9-6.2,7.4-12.7,10.4-19.5
	c3.7-8.3,15.3-36.3,16.1-45.4c78.4-1.7,80.2-109.6,10.7-109.6C142.4,26.7,120,65.2,120,77.5z"/>
<path class="st5" d="M66.5,189.8c0-17.8-5-43.8-7.9-61.4c-6-35.2-3.7-11.4-28.6-39.4c26,3.8,28.8,5,57,3
	c-4.6,2.9-11.1,8.8-15.2,12.3c0.6,39.1,9,28,3.8,85.5c8.4,7.5,7,0.7,11.8,11c-8.6,8.7-15,9.3-28.3,7.3c-0.1-18.4,7.5-0.9,7.5-15.6
	V189.8z M98.8,75.1c-3.6,7.9,2.6,2.7-8.4,7.8c-3.1,1.3-6.3,2.5-9.6,3.5c-8.2,2.3-16.5,2.3-25,1.5c-17.8-1.6-30-5.4-38.3-18.5
	C51,78.3,60.6,85.6,98.8,75.1z M61.2,56.1c3.4,3.3,3.6,2.8,6.9,9c2.9,5.4,2.4,5.1,4,10.3l-20.8-3.7L61.2,56.1z M88,55.5
	c4.8,3.1-0.5-2.6,6.2,5.1c2.3,2.6,2.5,3.9,4.3,7.5l-16.8,4.4L88,55.5z M34,54.6c3.8,4.9,4.4,7.2,6.6,15.6l-12.8-4.6L34,54.6z
	 M77.4,67.7c-6.7-7.3-6.8-7.8-8.3-16.7L82,50.4L77.4,67.7z M40.8,51.3l14.7,2.2c-2.3,5.3-4.3,8-9.1,12.6L40.8,51.3z M18.5,62.1
	c-3.6-6.1-2.8-6.3-2-15l12.2,1.6C25.4,58.4,27.5,58.7,18.5,62.1z M103.3,60.8C98,56,96.6,55.3,92,47l10.3-3.9L103.3,60.8z
	 M23.8,29.3c16.5,17.5,33.7,15.3,56.3,5.7c8.4-3.6,7.7-6,15.5-8.4l3.3,8.2l-7.7,6.1C71,49.4,38,46.1,18.6,39.6L23.8,29.3z
	 M87.2,16.8c-0.7,9.9-2.8,10.4-11.7,13.5C35,44.5,24.3,27.2,32.9,14.4c5.8,1,1.1,0,5.9,2.8C63.1,31.6,67.5,16.3,87.2,16.8z
	 M42.8,13.4c8-12.2,22.3-8.2,34.3-2.9C67.5,18.9,54.4,18.5,42.8,13.4z M58.6,181.7c0,24-3.6,7.5-8,24.1c13.9,20.7,42.8,7.7,42.8-8
	c0-20.6-10.7,16.7-10.6-42.9c0-18-4.1-32.4-5.4-48C138.9,65.7,103.7,0,55.9,0C34.6,0,21.2,12.7,15.4,28.9
	c-12.8,35.2-7.1,48.4,17.1,72c7.5,7.3,14.5,9.4,17.5,17.3C52.7,125.6,58.6,170.9,58.6,181.7z"/>
</svg>
