<svg xmlns="http://www.w3.org/2000/svg" viewBox="0 0 214.99 232.44"><defs><style>.a{fill:#126f70;}.a,.b,.c,.d,.e,.f{fill-rule:evenodd;}.b{fill:#eb4723;}.c{fill:#fbbd10;}.d{fill:#14b5b8;}.e{fill:#39b17a;}.f{fill:#010100;}</style></defs><path class="a" d="M9.74,62.08c9.08-3.37,7-3.66,10.18-13.41L7.7,47C6.94,55.73,6.12,56,9.74,62.08Z"/><path class="a" d="M68.71,67.69,73.27,50.4,60.46,51C61.9,59.87,62,60.43,68.71,67.69Z"/><path class="a" d="M123.61,67.72l7.68.68c.29-.09,6.16-3.49,7.49-4.11l-8-9.72C125,59.87,122.71,60.43,123.61,67.72Z"/><path class="a" d="M172,99.55c6.49-3.4.23,1.73,7.54-4.82,3.2-2.89,3.77-4.22,5.64-6.8l-12.39-5.27Z"/><path class="a" d="M37.69,66c4.74-4.54,6.75-7.31,9.07-12.56L32.11,51.28Z"/><polygon class="a" points="146.74 84.84 161.97 78.44 149.12 69.56 146.74 84.84"/><path class="a" d="M83.25,47c4.59,8.33,6.06,9,11.28,13.78l-1-17.64Z"/><path class="a" d="M198.48,104.77c3.06-2.07,3-.4,5.92-6.49.76-1.59,1.42-4.88,1.93-6.35l-10.52-3Z"/><path class="a" d="M191.39,98.48c-2.13-7.71-2.5-4.71-4.68-1.79Z"/><path class="b" d="M15.1,29.25,9.83,39.6c19.45,6.49,52.47,9.81,72.79,1.22l7.71-6.07L87,26.56c-7.85,2.35-7.12,4.79-15.54,8.36C48.75,44.56,31.63,46.77,15.1,29.25Z"/><path class="b" d="M135.18,46.86c9.81,22.48,49.94,33.45,71.29,37.47l.88-13.72c-10.92,5.33-30.08,1.53-41-2.52-17.46-6.46-15.84-11.6-22.9-26.51C139,45.81,141.22,43.14,135.18,46.86Z"/><path class="c" d="M90.08,75.12c-38.24,10.49-47.82,3.2-81.24-5.78,8.33,13.15,20.52,16.89,38.35,18.53,8.48.8,16.81.83,25-1.47a95.66,95.66,0,0,0,9.56-3.51C92.63,77.81,86.45,83,90.08,75.12Z"/><path class="c" d="M188.53,119.88c-9.61-8.73-37-8.08-61.12-36.94-4.53-5.47-3-4.42-8.19-8.73,1.56,8.76,2.38,13.66,8.08,19.5C143.17,110,162.19,123,188.53,119.88Z"/><path class="c" d="M34.07,13.38c11.56,5.13,24.71,5.53,34.32-2.86C56.37,5.16,42.09,1.16,34.07,13.38Z"/><path class="c" d="M199.41,51.17c-4.31-8.57-15-19.59-30.64-15.11C173.45,47.14,183,50.46,199.41,51.17Z"/><path class="d" d="M205.25,64.6c-3.46-9.24,5.22-5.21-12-8-9.5-1.53-18.45-1.62-27-12.76-7.37-9.61-.56-8-8.25-10.23C131.38,46,178,76.34,205.25,64.6Z"/><path class="d" d="M78.51,16.78c-19.73-.45-24.15,14.8-48.47.43-4.73-2.81-.06-1.76-5.87-2.81-8.59,12.78,2.1,30.05,42.61,15.9C75.76,27.16,77.83,26.7,78.51,16.78Z"/><path class="e" d="M57.74,189.75v2.67c0,14.71-7.6-2.78-7.49,15.59,13.35,2,19.79,1.39,28.29-7.26-4.76-10.26-3.37-3.46-11.76-11C72,132.21,63.6,143.32,63,104.23c4.08-3.52,10.57-9.47,15.19-12.33-28.2,2-30.92.79-57-3,24.91,28,22.65,4.23,28.6,39.41C52.77,146,57.76,172,57.74,189.75Z"/><path class="e" d="M92.6,213.82c5.25,10.29,16,14.31,27.7,8.87,1.16-7.54-2-6.18-5.73-14.2,39.85-54.82,16.16-77.42,56.21-80.65-8.13-4.9-16.41-6.46-25.68-12-10.74-6.38-14.57-12.19-23.13-17.35,5.89,38,23,7.88-8.85,93.12C103.74,216.71,107,204.63,92.6,213.82Z"/><path class="e" d="M149.27,93.54c5.21,5.59,9.72,8.79,17.06,9.75V84.16C157.15,86.85,154.71,87.62,149.27,93.54Z"/><path class="e" d="M42.6,71.74l20.78,3.72c-1.59-5.22-1.11-4.93-4-10.29-3.32-6.18-3.49-5.73-6.92-9Z"/><path class="e" d="M72.9,72.51l16.81-4.42c-1.79-3.57-2-4.82-4.28-7.46-6.72-7.74-1.39-2-6.18-5.13Z"/><polygon class="e" points="191.39 98.48 186.71 96.69 175.4 107.94 192.78 109.87 191.39 98.48"/><path class="e" d="M130.42,75.23l7.2,10.6c2.52-3.29,2.69,3,4.62-15.73C135.72,71.06,136.54,71,130.42,75.23Z"/><path class="e" d="M19.1,65.62l12.78,4.65c-2.24-8.47-2.8-10.71-6.63-15.65Z"/><path class="f" d="M186.71,96.69c2.18-2.92,2.55-5.92,4.68,1.79l1.39,11.39-17.38-1.93ZM92.6,213.82c14.4-9.19,11.14,2.89,20.52-22.2C145,106.38,127.86,136.46,122,98.5c8.56,5.16,12.39,11,23.13,17.35,9.27,5.53,17.55,7.09,25.68,12-40.05,3.23-16.36,25.83-56.21,80.65,3.77,8,6.89,6.66,5.73,14.2C108.62,228.13,97.85,224.11,92.6,213.82ZM149.27,93.54c5.44-5.92,7.88-6.69,17.06-9.38v19.13C159,102.33,154.48,99.13,149.27,93.54ZM195.81,89l10.52,3c-.51,1.47-1.17,4.76-1.93,6.35-2.92,6.09-2.86,4.42-5.92,6.49Zm-23.05-6.32,12.39,5.27c-1.87,2.58-2.44,3.91-5.64,6.8-7.31,6.55-1,1.42-7.54,4.82Zm-23.64-13.1L162,78.43l-15.22,6.41Zm39.41,50.32C162.19,123,143.17,110,127.3,93.71c-5.7-5.84-6.52-10.74-8.08-19.5,5.24,4.31,3.66,3.26,8.19,8.73C151.53,111.8,178.92,111.15,188.53,119.88ZM130.42,75.23c6.12-4.28,5.3-4.17,11.82-5.13-1.93,18.71-2.1,12.44-4.62,15.73Zm-6.81-7.51c-.9-7.29,1.42-7.85,7.2-13.15l8,9.72c-1.33.62-7.2,4-7.49,4.11Zm83.74,2.89-.88,13.72c-21.35-4-61.48-15-71.29-37.47,6-3.72,3.8-1,8.22-5.28,7.06,14.91,5.44,20.05,22.9,26.51C177.27,72.14,196.43,75.94,207.35,70.61ZM166.27,43.85c8.54,11.14,17.49,11.23,27,12.76,17.21,2.78,8.53-1.25,12,8C178,76.34,131.38,46,158,33.62,165.71,35.86,158.9,34.24,166.27,43.85Zm33.14,7.32c-16.38-.71-26-4-30.64-15.11C184.42,31.58,195.1,42.6,199.41,51.17ZM111.31,77.5c0,10.18,5,29.48,8.53,37,8.14,17.1,8.9,11.17,1.19,34.22-29.08,87-22.62,39.68-33.76,62.44l-.88,3.12c.17,4.82.46,7.43,7.09,12,6.94,4.74,33.87,14.21,33.87-7,0-13.55-10.6-.6.23-18.12A158.4,158.4,0,0,0,138,181.7c3.69-8.28,15.31-36.34,16.07-45.41,78.44-1.73,80.17-109.56,10.69-109.56C133.65,26.73,111.31,65.2,111.31,77.5Z"/><path class="f" d="M57.74,189.75c0-17.77-5-43.79-7.94-61.45-5.95-35.18-3.69-11.37-28.6-39.41,26.05,3.8,28.77,5,57,3-4.62,2.86-11.11,8.81-15.19,12.33.62,39.09,9,28,3.8,85.52,8.39,7.54,7,.74,11.76,11C70,209.4,63.6,210.05,50.25,208c-.11-18.37,7.46-.88,7.49-15.59ZM90.08,75.12c-3.63,7.88,2.55,2.69-8.36,7.77a95.66,95.66,0,0,1-9.56,3.51c-8.16,2.3-16.49,2.27-25,1.47-17.83-1.64-30-5.38-38.35-18.53C42.26,78.32,51.84,85.61,90.08,75.12Zm-37.59-19c3.43,3.29,3.6,2.84,6.92,9,2.86,5.36,2.38,5.07,4,10.29L42.6,71.74Zm26.76-.65c4.79,3.12-.54-2.61,6.18,5.13,2.3,2.64,2.49,3.89,4.28,7.46L72.9,72.51Zm-54-.88c3.83,4.94,4.39,7.18,6.63,15.65L19.1,65.62ZM68.71,67.69C62,60.43,61.9,59.87,60.46,51l12.81-.62ZM32.11,51.28l14.65,2.18c-2.32,5.25-4.33,8-9.07,12.56ZM9.74,62.08c-3.62-6.07-2.8-6.35-2-15l12.22,1.64C16.69,58.42,18.82,58.71,9.74,62.08Zm84.79-1.33C89.31,56,87.84,55.3,83.25,47l10.26-3.86ZM15.1,29.25c16.53,17.52,33.65,15.31,56.35,5.67,8.42-3.57,7.69-6,15.54-8.36l3.34,8.19-7.71,6.07C62.3,49.41,29.28,46.09,9.83,39.6ZM78.51,16.78c-.68,9.92-2.75,10.38-11.73,13.52-40.51,14.15-51.2-3.12-42.61-15.9,5.81,1,1.14,0,5.87,2.81C54.36,31.58,58.78,16.33,78.51,16.78Zm-44.44-3.4c8-12.22,22.3-8.22,34.32-2.86C58.78,18.91,45.63,18.51,34.07,13.38ZM49.85,181.73c0,24-3.6,7.51-8,24.07,13.89,20.74,42.75,7.71,42.75-8,0-20.55-10.72,16.67-10.6-42.86,0-18-4.14-32.4-5.42-48C130.16,65.65,95,0,47.16,0,25.85,0,12.49,12.7,6.63,28.94c-12.76,35.15-7.12,48.42,17.09,72,7.54,7.34,14.51,9.38,17.49,17.26C44,125.6,49.85,170.9,49.85,181.73Z"/></svg>