<svg xmlns="http://www.w3.org/2000/svg" viewBox="0 0 228.54 115.93"><defs><style>.a{fill:#116e70;}.a,.b,.c,.d{fill-rule:evenodd;}.b{fill:#bbb;}.c{fill:#000101;}.d{fill:#14b5b8;}</style></defs><path class="a" d="M187.08,6.31c-12.7,3.8-8.7,1.79-6.26,36.66,2.21,32,.42,34.41,11.39,36.48,3.89-7.17,2.21-3.57.74-14.06C190,44.27,190.14,12.78,187.08,6.31Z"/><path class="a" d="M26.53,50.65c-8.42,7.14-6.69,11.11.42,16.89C30.33,60.65,31.49,57.65,26.53,50.65Z"/><path class="b" d="M195.76,8c-2.7,19-2.19,52,7.14,67.29C236.12,58.78,224.41,16.43,195.76,8Z"/><path class="b" d="M172.51,15.58C149.21,22.33,158.59,67,178.15,74Z"/><path class="b" d="M15.64,90.28c5.93,15.47,18.8,21.06,35.41,16.27,35.71-10.35,17.71-2.58,42.37,2C84.81,91.44,68.79,98,53.68,101.11,31.54,105.64,31.35,98.72,15.64,90.28Z"/><path class="b" d="M15.64,90.28c-1.81-6-4.42-10.09-4.68-16.53-.31-7.74,2.5-7.88-.28-13C3,71.79,6.68,82.11,15.64,90.28Z"/><path class="c" d="M15.64,90.28c-9-8.17-12.64-18.49-5-29.48,2.78,5.07,0,5.21.28,13C11.22,80.19,13.83,84.24,15.64,90.28ZM26.53,50.65c5,7,3.8,10,.42,16.89C19.84,61.76,18.11,57.79,26.53,50.65ZM15.64,90.28c15.71,8.44,15.9,15.36,38,10.83,15.11-3.09,31.13-9.67,39.74,7.48-24.66-4.62-6.66-12.39-42.37-2C34.44,111.34,21.57,105.75,15.64,90.28ZM153.77,29.47c-1.61,20.81.12,20.64,6.18,38.67-20.43-.09-109.73,5.47-120.78,1.19C34.66,60,32.08,54.25,37.53,44.81ZM178.15,74c-19.56-7-28.94-51.65-5.64-58.4Zm8.93-67.67c3.06,6.47,2.95,38,5.87,59.08,1.47,10.49,3.15,6.89-.74,14.06-11-2.07-9.18-4.51-11.39-36.48C178.38,8.1,174.38,10.11,187.08,6.31ZM195.76,8c28.65,8.41,40.36,50.76,7.14,67.29C193.57,60.06,193.06,27,195.76,8Zm-93,102.64C94.22,66.61,15,120.27,19,73.47c16.81-2.55,19.36,7.31,38.21,4.87,17.55-2.26,31.64-.51,48.31-2.83,15.42-2.18,31.18-1.87,46.8-1.79,23.27.17,19.64,10.52,38.21,12.53C215.43,89,235.1,58.7,226.48,31.71c-8.39-26.25-34.1-43.25-58.76-22.33-47,39.91-99.61,5.84-157.29,43.14-24.81,16,.14,51,18,59.9,15.05,7.51,24.94-2.16,38.72-3.55C87,106.89,90.14,124.32,102.75,110.66Z"/><path class="c" d="M116.73,46C100.2,42.8,94.81,45.69,96,60.85l21-2.21Z"/><path class="d" d="M116.92,58.64,96,60.85C94.81,45.69,100.2,42.8,116.73,46Zm36.85-29.17L37.53,44.81C32.08,54.25,34.66,60,39.17,69.33c11,4.28,100.35-1.28,120.78-1.19C153.89,50.11,152.16,50.28,153.77,29.47Z"/></svg>