<?xml version="1.0" encoding="utf-8"?>
<!-- Generator: Adobe Illustrator 24.1.2, SVG Export Plug-In . SVG Version: 6.00 Build 0)  -->
<svg version="1.1" id="Слой_1" xmlns="http://www.w3.org/2000/svg" xmlns:xlink="http://www.w3.org/1999/xlink" x="0px" y="0px"
	 viewBox="0 0 228.5 228.5" style="enable-background:new 0 0 228.5 228.5;" xml:space="preserve">
<style type="text/css">
	.st0{fill-rule:evenodd;clip-rule:evenodd;fill:#116E70;}
	.st1{fill-rule:evenodd;clip-rule:evenodd;fill:#BBBBBB;}
	.st2{fill-rule:evenodd;clip-rule:evenodd;fill:#000101;}
	.st3{fill-rule:evenodd;clip-rule:evenodd;fill:#14B5B8;}
</style>
<path class="st0" d="M187.1,62.6c-12.7,3.8-8.7,1.8-6.3,36.7c2.2,32,0.4,34.4,11.4,36.5c3.9-7.2,2.2-3.6,0.7-14.1
	C190,100.6,190.1,69.1,187.1,62.6z"/>
<path class="st0" d="M26.5,107c-8.4,7.1-6.7,11.1,0.4,16.9C30.3,117,31.5,114,26.5,107z"/>
<path class="st1" d="M195.8,64.3c-2.7,19-2.2,52,7.1,67.3C236.1,115.1,224.4,72.7,195.8,64.3z"/>
<path class="st1" d="M172.5,71.9c-23.3,6.8-13.9,51.4,5.6,58.4L172.5,71.9z"/>
<path class="st1" d="M15.6,146.6c5.9,15.5,18.8,21.1,35.4,16.3c35.7-10.3,17.7-2.6,42.4,2c-8.6-17.1-24.6-10.6-39.7-7.4
	C31.5,161.9,31.4,155,15.6,146.6z"/>
<path class="st1" d="M15.6,146.6c-1.8-6-4.4-10.1-4.7-16.5c-0.3-7.7,2.5-7.9-0.3-13C3,128.1,6.7,138.4,15.6,146.6z"/>
<path class="st2" d="M15.6,146.6c-9-8.2-12.6-18.5-5-29.5c2.8,5.1,0,5.2,0.3,13C11.2,136.5,13.8,140.5,15.6,146.6z M26.5,107
	c5,7,3.8,10,0.4,16.9C19.8,118.1,18.1,114.1,26.5,107z M15.6,146.6c15.7,8.4,15.9,15.4,38,10.8c15.1-3.1,31.1-9.7,39.7,7.5
	c-24.7-4.6-6.7-12.4-42.4-2C34.4,167.6,21.6,162.1,15.6,146.6z M153.8,85.8c-1.6,20.8,0.1,20.6,6.2,38.7
	c-20.4-0.1-109.7,5.5-120.8,1.2c-4.5-9.3-7.1-15.1-1.6-24.5L153.8,85.8z M178.1,130.3c-19.6-7-28.9-51.6-5.6-58.4L178.1,130.3z
	 M187.1,62.6c3.1,6.5,2.9,38,5.9,59.1c1.5,10.5,3.1,6.9-0.7,14.1c-11-2.1-9.2-4.5-11.4-36.5C178.4,64.4,174.4,66.4,187.1,62.6
	L187.1,62.6z M195.8,64.3c28.6,8.4,40.4,50.8,7.1,67.3C193.6,116.4,193.1,83.3,195.8,64.3z M102.8,166.9c-8.5-44-87.8,9.6-83.8-37.2
	c16.8-2.5,19.4,7.3,38.2,4.9c17.5-2.3,31.6-0.5,48.3-2.8c15.4-2.2,31.2-1.9,46.8-1.8c23.3,0.2,19.6,10.5,38.2,12.5
	c24.9,2.8,44.6-27.5,35.9-54.5c-8.4-26.3-34.1-43.3-58.8-22.3c-47,39.9-99.6,5.8-157.3,43.1c-24.8,16,0.1,51,18,59.9
	c15,7.5,24.9-2.2,38.7-3.6C87,163.2,90.1,180.6,102.8,166.9L102.8,166.9z"/>
<path class="st2" d="M116.7,102.3c-16.5-3.2-21.9-0.3-20.7,14.8l21-2.2L116.7,102.3z"/>
<path class="st3" d="M116.9,114.9L96,117.2c-1.2-15.2,4.2-18.1,20.7-14.8L116.9,114.9z M153.8,85.8L37.5,101.1
	c-5.4,9.4-2.9,15.2,1.6,24.5c11,4.3,100.3-1.3,120.8-1.2C153.9,106.4,152.2,106.6,153.8,85.8L153.8,85.8z"/>
</svg>
