<svg xmlns="http://www.w3.org/2000/svg" viewBox="0 0 208.82 215.96"><defs><style>.a{fill:#bbb;}.a,.b,.c,.d,.e,.f,.g,.h,.i{fill-rule:evenodd;}.b{fill:#000101;}.c{fill:#116e6f;}.d{fill:#116d6f;}.e{fill:#116c6d;}.f{fill:#14b2b5;}.g{fill:#126f71;}.h{fill:#b6b6b6;}.i{fill:#666;}</style></defs><path class="a" d="M70.84,65.55c4,21.29,15,30.87,28.26,44.2,14.34.19,92-30.59,100.71-39C190.46,53.68,173.48,16.43,157.66,7Z"/><path class="a" d="M49.8,89.05c6.38,22.88,17.64,30.39,38.05,19.17-.29-.77-19-29.23-21.77-33Z"/><path class="b" d="M48.47,137c4.71,13.8,18.48,57.17,10.35,67.88-6.49-8.19-4.85-23.81-7.46-35.09C47,151,43.71,147.53,48.47,137Zm27.9,26.67c6.66,12.53,25.56,32.74,27.35,40.56-14.34-12.67-52.95-64-56.66-82.29C60.46,127.66,69.31,150.45,76.37,163.69ZM7.6,208.28c1.1-18.34,15.81-45.7,23-66,3.6-10.21,1.7-12.93,9.55-17.38-3.49,14.77-8.08,31.41-13.46,45.47C20.78,185.69,16.3,203.46,7.6,208.28Zm3.2-83.34c2.27-7.48,4.79-7.26,13-7.74C20.61,125.25,19.9,124.6,10.8,124.94ZM35,118.59c-6.69-4.82-6.92-2.75-6.83-10.06,10.09-5.5,14.51-4.88,19.5,6.89Zm15.14-12.84c-10-3.91-5.5-3-7.29-7.2C48.59,99.68,48.44,94,50.12,105.75Zm16-30.56c2.72,3.8,21.48,32.26,21.77,33-20.41,11.22-31.67,3.71-38-19.17ZM157.66,7c15.82,9.41,32.8,46.66,42.15,63.75-8.73,8.39-86.37,39.17-100.71,39C85.86,96.42,74.86,86.84,70.84,65.55ZM174,12.57c19.53,8,27.47,28.49,28.26,49.89ZM26.73,127.77C26.19,153-.06,183.05,0,216c19.5,0,22.56-12.44,33-44.5,4.4-13.41,3-14.26,9.75-17,0,6.88,6.44,51.11,10.58,54.11,24.21,17.55,10.74-33.68,11.25-40.28,8.7,10.15,27.07,47.25,45.81,40.45C113.78,197.11,91,175.88,84,164.06c-9.64-16.19-17.29-30.87-27.83-47,16.95,4,9.63,6.26,27.32.68,14.8-4.68,13,1.9,29.79-2.18,18.12-4.43,35.61-16.64,54.8-22.91,21.48-7,41.92-10.29,40.73-36.9-.88-19.36-12.61-38.95-29-48.93-24.85-15.11-31-2.32-51.44,11.37C98.48,38.11,64.06,59.23,44,88.85c-7.71,11.37-37.11,22.37-41.5,36.06C12.9,139,15.17,131.18,26.73,127.77Z"/><path class="c" d="M7.6,208.28c8.7-4.82,13.18-22.59,19-37.87,5.38-14.06,10-30.7,13.46-45.47-7.85,4.45-6,7.17-9.55,17.38C23.41,162.58,8.7,189.94,7.6,208.28Z"/><path class="d" d="M103.72,204.25c-1.79-7.82-20.69-28-27.35-40.56-7.06-13.24-15.91-36-29.31-41.73C50.77,140.28,89.38,191.58,103.72,204.25Z"/><path class="e" d="M58.82,204.9C67,194.19,53.18,150.82,48.47,137c-4.76,10.51-1.44,14,2.89,32.79C54,181.09,52.33,196.71,58.82,204.9Z"/><path class="f" d="M202.28,62.46c-.79-21.4-8.73-41.89-28.26-49.89Z"/><path class="g" d="M28.15,108.53c-.09,7.31.14,5.24,6.83,10.06l12.67-3.17C42.66,103.65,38.24,103,28.15,108.53Z"/><path class="h" d="M10.8,124.94c9.1-.34,9.81.31,13-7.74C15.59,117.68,13.07,117.46,10.8,124.94Z"/><path class="i" d="M50.12,105.75c-1.68-11.76-1.53-6.07-7.29-7.2C44.62,102.74,40.14,101.84,50.12,105.75Z"/></svg>