<svg xmlns="http://www.w3.org/2000/svg" viewBox="0 0 161.8 214.17"><defs><style>.a{fill:#11696c;}.a,.b,.c,.d,.e{fill-rule:evenodd;}.b{fill:#020303;}.c{fill:#010101;}.d{fill:#ed4823;}.e{fill:#74cbce;}</style></defs><path class="a" d="M80.93,28.26c4-5.56,7.26-18.6-5.33-22.71-2,5.3-2.1,4.31-1.47,11.62C75.23,30.27,74,26.5,80.93,28.26Z"/><path class="a" d="M64.91,28.82c5.81-2.24,4.79,3.77,4.85-9.44,0-8.9-.71-9.35-4.87-14.06C60.46,12.52,59.36,23.18,64.91,28.82Z"/><path class="a" d="M99.5,24.71c9.07-7.23,7.71-11.62-2-15.76C96.46,18.28,95.47,17.17,99.5,24.71Z"/><path class="a" d="M77.73,52.66l2-17.2c-5.72-.15-6.38-7.23-6.38,6.15C73.33,49.66,75.4,50,77.73,52.66Z"/><path class="a" d="M54.2,27.52c3.74-7.12,2.66-10.26,2.3-19.87C45.67,21.11,53.94,27.06,54.2,27.52Z"/><path class="a" d="M91.13,27c2.78-4.79,1.14-16.44-1.92-21.69-.29.48-.8.68-.83,1.42L87.65,14C88.3,21.79,88.19,22,91.13,27Z"/><path class="a" d="M105.76,174.58c7.88-1.45-.42-8.45-.59-8.65Z"/><path class="a" d="M78.18,86.08c7.85-2,.62-8.81.57-8.93Z"/><path class="a" d="M75.69,86.08l-.37-8.73C70.33,82.45,71.09,82.2,75.69,86.08Z"/><path class="a" d="M58.56,83.67l-4.22-.56L54.79,87C59.64,87,58.56,88.24,58.56,83.67Z"/><polygon class="a" points="96.83 85.66 94.2 81.97 90.45 85 96.83 85.66"/><polygon class="a" points="95.27 88.97 89.35 87.61 91.73 91.81 95.27 88.97"/><polygon class="a" points="78.75 77.15 78.75 74.52 75.15 74.63 75.32 77.35 78.75 77.15"/><polygon class="a" points="40.51 104.71 41.87 99.58 37.84 101.73 40.51 104.71"/><path class="a" d="M91.62,176.22c1.64-12.61,1-3.71-2-7Z"/><polygon class="a" points="82.2 141.13 76.14 141.61 78.04 144.31 82.2 141.13"/><path class="a" d="M85.66,177.7l.85-6.35C82.15,176.2,82.21,171.09,85.66,177.7Z"/><path class="a" d="M49.69,109.89c4-5.69,3.57-.88-.51-5.81Z"/><path class="a" d="M91.62,179.54l-5.87.65C91.62,183.57,86.91,183.59,91.62,179.54Z"/><polygon class="a" points="131.02 143.12 126.45 144.59 128.47 147.11 131.02 143.12"/><polygon class="a" points="61.82 90.5 57.54 90.39 59.13 93.65 61.82 90.5"/><polygon class="a" points="109.98 95.69 105.59 95.3 107.49 98.53 109.98 95.69"/><path class="a" d="M126.91,125.8c3.57-4.77,3.51-.8,0-5.42Z"/><path class="a" d="M65,160c-3.6-2.1-.09-3.94-5,1.47Z"/><path class="a" d="M70.16,131l.25-4.76C66.73,130.19,66.78,126.67,70.16,131Z"/><path class="a" d="M57.54,90.39c.17-4.53,1.42-3.68-2.6-3.68Z"/><path class="a" d="M125.18,139.74l-3.09-2.55C122.09,141.1,121.15,140.14,125.18,139.74Z"/><path class="a" d="M24.15,113.66c-3.77,0-2.72-.82-2.27,3.26Z"/><path class="a" d="M105.76,174.58l-3.12-1C104.09,176.17,100.94,178.6,105.76,174.58Z"/><path class="a" d="M129.63,171.72l-2.5,2.94C130.88,174.69,129.94,175.57,129.63,171.72Z"/><polygon class="a" points="54.34 83.11 53.66 80.19 51.34 82.88 54.34 83.11"/><path class="a" d="M35.41,96.34l-2.53,2.89C36.65,99.23,35.77,100.14,35.41,96.34Z"/><path class="a" d="M59.47,168.43l-3.43.31C58.85,171.92,56.89,171.72,59.47,168.43Z"/><path class="a" d="M134.76,114.12c.37-3.66,1.19-2.75-2.49-2.75Z"/><path class="a" d="M58.54,77.27c-3.6-.46-2.64-1.22-2.64,2.49Z"/><path class="a" d="M120.08,155.53,117.33,153C117.33,156.69,116.42,155.87,120.08,155.53Z"/><path class="a" d="M121.24,141.53l-.51-3.4C117.67,141.05,118,139.09,121.24,141.53Z"/><path class="a" d="M43.29,22.22l3.57-8.14Z"/><path class="a" d="M66.36,75.74,63,77.83Z"/><path class="a" d="M124.19,144.11l-3-2.58Z"/><path class="a" d="M73.05,114.63l-2.1-4Z"/><path class="a" d="M93.57,77.8,90.2,75.74Z"/><path class="a" d="M30.13,149.78l-2.72-2.33Z"/><path class="a" d="M107.09,83.47l.49,2Z"/><path class="a" d="M51.42,149.75l-2.58,2.83Z"/><path class="a" d="M46.49,85.94l-2.81,2.52Z"/><path class="a" d="M139.41,151.85l-2,4Z"/><path class="a" d="M112.42,157.91l-2.15-2.32Z"/><path class="a" d="M115.29,112.56l0-3.8Z"/><path class="a" d="M61.91,88.63l-2.75-2.46Z"/><path class="a" d="M136.57,159.87l-2.43,2.55Z"/><path class="a" d="M65.11,163.89l-2.78,2.24Z"/><path class="a" d="M132.12,108.79l-2.63-2.5Z"/><path class="a" d="M43.68,88.46l-3.29,2Z"/><path class="a" d="M40.39,90.5l-2.86,2.56Z"/><path class="a" d="M131.92,168.85l-2.29,2.87Z"/><path class="a" d="M126.17,109.89l-2.72-2.63Z"/><path class="a" d="M102.64,173.59l-.28-5.08Z"/><path class="a" d="M113.36,91.78l-2.44,2.78Z"/><path class="a" d="M37.53,93.06l-2.12,3.28Z"/><path class="a" d="M127.08,100.74,124,98.33Z"/><path class="a" d="M58.45,177.1l-2.55-2.69Z"/><path class="a" d="M71.77,177.7l.37-5.3Z"/><path class="a" d="M78.12,173.76l-2,3.37Z"/><path class="a" d="M49.18,104.08l-2.69-2.61Z"/><path class="a" d="M83.57,104.51l-2.75-5.05Z"/><path class="a" d="M36.4,115.51l-3.29,2.58Z"/><path class="a" d="M127.13,174.66l-2.69,2.44Z"/><path class="a" d="M76.14,177.13l-4.37.57Z"/><path class="a" d="M136.49,121.32l-2.18-3.06Z"/><path class="a" d="M43.12,107.46l-2.61-2.75Z"/><path class="a" d="M139.52,131.52l-1.87-4.62Z"/><path class="a" d="M118.52,179.4,116,181.89Z"/><path class="a" d="M75.52,184.47l-3.26-2.24Z"/><path class="a" d="M112.76,181.92l-3,2.27Z"/><path class="a" d="M86.54,187.11l-4.9-2.78Z"/><path class="a" d="M103.83,184.19l-5.41,2.52Z"/><path class="a" d="M29.71,103.6,26.93,106Z"/><path class="a" d="M24.49,139.63l-2.29-3Z"/><path class="a" d="M33.08,136.71l-2.38,3.85Z"/><path class="a" d="M50.4,171.94l-2.47-3Z"/><path class="b" d="M105.59,95.29l4.39.4.94-1.13,2.44-2.78c3.68-4,4.11.2,10.63,6.55l3.09,2.41,2.41,5.55,2.63,2.5.15,2.58c3.68,0,2.86-.91,2.49,2.75l-.45,4.14,2.18,3.06,1.16,5.58,1.87,4.62-.11,20.33-2,4-.83,4-2.43,2.55-2.22,6.43-2.29,2.87c.31,3.85,1.25,3-2.5,2.94l-2.69,2.44-5.92,2.3L116,181.89l-3.23,0-3,2.27h-6l-5.41,2.52-11.88.4-4.9-2.78-6.12.14-3.26-2.24L58.45,177.1l-2.55-2.69-5.5-2.47-2.47-3-17.8-19.19-2.72-2.33-2.92-7.82-2.29-3-.32-19.68c-.45-4.08-1.5-3.26,2.27-3.26L26.93,106l2.78-2.44,3.17-4.37,2.53-2.89,2.12-3.28,2.86-2.56,3.29-2,2.81-2.52,4.85-3.06,2.32-2.69,2.24-.43c0-3.71-1-3,2.64-2.49l4.47.56,3.35-2.09,8.79-1.11,3.6-.11L90.2,75.74l3.37,2.06,13.52,5.67.49,2ZM17.12,136.45c7.29,26.34,43.17,53,70.07,55.53C177,200.4,152.59,65.22,75.57,68.88,46.89,70.26,8.62,105.7,17.12,136.45Z"/><path class="b" d="M84.47,136.65c-12.07-1.33-6.66,1.45-9.27-8.36C84.87,123.27,87.76,125.63,84.47,136.65Zm-7.25-34.18-.37,8.67ZM71,110.63l2.1,4-2.64,11.65L70.16,131c.56,8.7,0,7,6,10.57l6.07-.48c18.59-4.87,7.08-15.28,1.1-23l.26-13.58-2.75-5.05L76.25,88.21,70,90.11Z"/><polygon class="b" points="40.51 104.71 43.12 107.45 49.69 109.89 49.18 104.08 46.49 101.47 41.87 99.58 40.51 104.71"/><path class="b" d="M72.14,172.4l-.37,5.3,4.37-.57,2-3.37c.37-12.87,0-4.85-2.52-8.19Z"/><path class="b" d="M112.42,157.91l11.06,2.81-3.4-5.19c-3.66.34-2.75,1.16-2.75-2.49-10.15-1.08-4.31-.29-7.06,2.55Z"/><polygon class="b" points="126.91 125.8 126.88 120.38 117.72 120.44 117.67 125.74 126.91 125.8"/><path class="b" d="M56,168.74l3.43-.31,2.86-2.3,2.78-2.24L65,160l-5,1.47C54.37,166.5,55.45,163.38,56,168.74Z"/><polygon class="b" points="85.66 177.7 85.75 180.19 91.62 179.54 91.62 176.22 89.66 169.19 86.51 171.35 85.66 177.7"/><path class="b" d="M115.29,112.56c10.46,0,4.93,1.5,10.88-2.67l-2.72-2.63-8.11,1.5Z"/><path class="b" d="M30.7,140.56c9.21,2.47,7.2,1.82,12.61-1.7l-10.23-2.15Z"/><path class="b" d="M33.11,118.09c2.52,1.78-3.54,3.31,5.16,2.35,6.52-.68,2-.17,5.19-2.64l-7.06-2.29Z"/><polygon class="b" points="48.84 152.58 51.42 149.75 50.34 143.85 43.99 150.26 48.84 152.58"/><path class="b" d="M121.24,141.53l3,2.58,2.26.48,4.57-1.47-5.84-3.38c-4,.4-3.09,1.36-3.09-2.55l-1.36.94Z"/><polygon class="b" points="75.69 86.08 76.25 88.21 78.18 86.08 78.75 77.15 75.32 77.35 75.69 86.08"/><path class="b" d="M19.33,91c-6.66,0-5.69-1.75-4,4.4C20,95.41,18.31,96.4,19.33,91Z"/><polygon class="b" points="95.27 88.97 96.83 85.66 90.45 85 89.35 87.61 95.27 88.97"/><path class="b" d="M39.83,196.6c0-4.5.93-2.77-4.31-3.85C35.52,199.33,33.79,198.42,39.83,196.6Z"/><path class="b" d="M143.69,92.72c1.87-6,2.86-4.37-3.54-4.37C140.94,93.65,139.27,92.72,143.69,92.72Z"/><path class="b" d="M146.35,98.1c1.87-6,2.89-4.39-3.45-4.39C143.58,99,141.9,98.1,146.35,98.1Z"/><path class="b" d="M8.08,125.77c-6.12,0-5.07-1.51-3.35,4.33C9.3,130.1,7.71,131.07,8.08,125.77Z"/><path class="b" d="M113,63.72c0-6.3,1.53-5.25-4.39-3.35C108.6,64.71,107.72,63,113,63.72Z"/><path class="b" d="M151.6,111.54c2-6,3.06-4.48-3.18-4.48C149,112.39,147.35,111.54,151.6,111.54Z"/><path class="b" d="M141.53,190.91c-4.62,0-3.45-1.16-3.45,3.46C143.83,195.53,142.67,196.66,141.53,190.91Z"/><path class="b" d="M54.79,87l.15-.25c4,0,2.77-.85,2.6,3.68l4.28.11.09-1.87-2.75-2.46-.6-2.5C58.56,88.24,59.64,87,54.79,87Z"/><path class="b" d="M67.18,57.93c-6.38-2.12-4.93-3.48-4.93,3.07Z"/><path class="b" d="M64.38,207,59.56,204C59.56,210.38,58.2,209.08,64.38,207Z"/><path class="c" d="M4.73,130.1C3,124.26,2,125.77,8.08,125.77c.17-17.41,5.13-17.41,7.28-30.36-1.72-6.15-2.69-4.4,4-4.4.77-.19,33.93-24.86,42.92-30,0-6.55-1.45-5.19,4.93-3.07,10,1.19,34.27,3.35,41.42,2.44,5.92-1.9,4.39-2.95,4.39,3.35,4.08,4.87,9.58,6.69,15.19,12,5.42,5.13,7.34,11,12,12.61,6.4,0,5.41-1.62,3.54,4.37l-.79,1c6.34,0,5.32-1.59,3.45,4.39l2.07,9c6.24,0,5.13-1.48,3.18,4.48-.68,15.62,5.75,28.88,3.26,46.29-2.44,16.86-9.78,20.49-13.33,33.08,1.14,5.75,2.3,4.62-3.45,3.46-11.51,3.06-14.49,9.63-32.55,12.5-13.86,2.18-27.75-1.34-41.15.08-6.18,2.13-4.82,3.43-4.82-2.95l-19.73-7.4c-6,1.82-4.31,2.73-4.31-3.85-1.62-4.42-15.79-17.26-20.44-24.8C7.57,155.7,7,144,4.73,130.1Zm73-77.44c-2.33-2.63-4.4-3-4.43-11,0-13.38.66-6.3,6.38-6.15ZM64.91,28.82c-5.55-5.64-4.45-16.3,0-23.5,4.16,4.71,4.87,5.16,4.87,14.06C69.7,32.59,70.72,26.58,64.91,28.82ZM54.2,27.52c-.26-.46-8.53-6.41,2.3-19.87C56.86,17.26,57.94,20.4,54.2,27.52Zm45.3-2.81c-4-7.54-3-6.43-2-15.76C107.21,13.09,108.57,17.48,99.5,24.71ZM46.86,14.08l-3.57,8.14ZM75.6,5.55C88.19,9.66,85,22.7,80.93,28.26c-7-1.76-5.7,2-6.8-11.09C73.5,9.86,73.59,10.85,75.6,5.55ZM91.13,27C88.19,22,88.3,21.79,87.65,14l.73-7.23c0-.74.54-.94.83-1.42C92.27,10.6,93.91,22.25,91.13,27ZM38.18,10.82c0,30.13,13,16.1,28.69,27.41l.79,12.7c-1.92,1.59-1.41,1.59-4.56,3.55L43.54,64.31C-31.72,107.63-4.22,210,86.2,214.07c49.64,2.21,82.35-31.67,74.41-82.46-5.1-32.6-18.45-58-47.56-72.71C99.67,52.15,94.73,55.81,84.3,47.56l3.15-13.78c2.72-.82,27.92-3.85,23.13-20.49C98.84-2.19,94.68.11,75.6.14,55.36.16,52.5-1.91,38.18,10.82Z"/><path class="c" d="M102.64,173.59l3.12,1-.59-8.65c-4.17-.08-3.55-1.24-2.81,2.58Z"/><path class="d" d="M17.12,136.45C8.62,105.7,46.89,70.26,75.57,68.88,152.59,65.22,177,200.4,87.19,192,60.29,189.46,24.41,162.79,17.12,136.45ZM62.25,61c-9,5.15-42.15,29.82-42.92,30-1,5.39.71,4.4-4,4.4-2.15,13-7.11,13-7.28,30.36-.37,5.3,1.22,4.33-3.35,4.33C7,144,7.57,155.7,15.08,168c4.65,7.54,18.82,20.38,20.44,24.8,5.24,1.08,4.31-.65,4.31,3.85L59.56,204,64.38,207c13.4-1.42,27.29,2.1,41.15-.08,18.06-2.87,21-9.44,32.55-12.5,0-4.62-1.17-3.46,3.45-3.46,3.55-12.59,10.89-16.22,13.33-33.08,2.49-17.41-3.94-30.67-3.26-46.29-4.25,0-2.58.85-3.18-4.48l-2.07-9c-4.45,0-2.77.91-3.45-4.39l.79-1c-4.42,0-2.75.93-3.54-4.37-4.63-1.64-6.55-7.48-12-12.61-5.61-5.33-11.11-7.15-15.19-12-5.27-.68-4.39,1-4.39-3.35-7.15.91-31.38-1.25-41.42-2.44Z"/><path class="d" d="M76.85,111.14l.37-8.67Z"/><path class="e" d="M86.51,171.35l3.15-2.16c3,3.32,3.6-5.58,2,7v3.32c-4.71,4.05,0,4-5.87.65l-.09-2.49C82.21,171.09,82.15,176.2,86.51,171.35ZM72.14,172.4l3.46-6.83c2.52,3.34,2.89-4.68,2.52,8.19l-2,3.37-4.37.57Zm30.22-3.89c-.74-3.82-1.36-2.66,2.81-2.58.17.2,8.47,7.2.59,8.65-4.82,4-1.67,1.59-3.12-1Zm-42.89-.08c-2.58,3.29-.62,3.49-3.43.31-.59-5.36-1.67-2.24,3.91-7.26,5-5.41,1.45-3.57,5-1.47l.11,3.88-2.78,2.24ZM117.33,153l2.75,2.49,3.4,5.19-11.06-2.81-2.15-2.32C113,152.75,107.18,152,117.33,153Zm-65.91-3.29-2.58,2.83L44,150.26l6.35-6.41Zm69.31-11.62,1.36-.94,3.09,2.55,5.84,3.38-2.55,4-2-2.52-2.26-.48-3-2.58C118,139.09,117.67,141.05,120.73,138.13Zm-87.65-1.42,10.23,2.15c-5.41,3.52-3.4,4.17-12.61,1.7Zm93.8-16.33c3.54,4.62,3.6.65,0,5.42l-9.24-.06,0-5.3ZM36.4,115.51l7.06,2.29c-3.21,2.47,1.33,2-5.19,2.64-8.7,1-2.64-.57-5.16-2.35Zm39.85-27.3,4.57,11.25,2.75,5.05-.26,13.58c6,7.76,17.49,18.17-1.1,23L78,144.31l-1.9-2.7c-6-3.6-5.42-1.87-6-10.57-3.38-4.37-3.43-.85.25-4.76l2.64-11.65-2.1-4L70,90.11Zm39.09,20.55,8.11-1.5,2.72,2.63c-6,4.17-.42,2.72-10.88,2.67ZM41.87,99.58l4.62,1.89,2.69,2.61c4.08,4.93,4.48.12.51,5.81l-6.57-2.43-2.61-2.75-2.67-3ZM54.79,87l-.45-3.85,4.22.56.6,2.5,2.75,2.46-.09,1.87-2.69,3.15-1.59-3.26-2.6-3.68Zm34.56.65L90.45,85l3.75-3,2.63,3.69L95.27,89l-3.54,2.84ZM63,77.83l-4.47-.56L55.9,79.76l-2.24.43.68,2.92-3-.23-4.85,3.06-2.81,2.52-3.29,2-2.86,2.56-2.12,3.28c.36,3.8,1.24,2.89-2.53,2.89l-3.17,4.37L26.93,106l-2.78,7.62-2.27,3.26.32,19.68,2.29,3,2.92,7.82,2.72,2.33L47.93,169l2.47,3,5.5,2.47,2.55,2.69,13.81,5.13,3.26,2.24,6.12-.14,4.9,2.78,11.88-.4,5.41-2.52h6l3-2.27,3.23,0,2.53-2.49,5.92-2.3,2.69-2.44,2.5-2.94,2.29-2.87,2.22-6.43,2.43-2.55.83-4,2-4,.11-20.33-1.87-4.62-1.16-5.58-2.18-3.06.45-4.14-2.49-2.75-.15-2.58-2.63-2.5-2.41-5.55L124,98.33C117.47,92,117,87.75,113.36,91.78l-2.44,2.78L110,95.69l-2.49,2.84-1.9-3.24,2-9.8-.49-2L93.57,77.8,90.2,75.74,78.75,74.52v2.63c0,.12,7.28,7-.57,8.93l-1.93,2.13-.56-2.13c-4.6-3.88-5.36-3.63-.37-8.73l-.17-2.72-8.79,1.11Z"/><path class="e" d="M84.47,136.65c3.29-11,.4-13.38-9.27-8.36C77.81,138.1,72.4,135.32,84.47,136.65Z"/></svg>