<svg xmlns="http://www.w3.org/2000/svg" viewBox="0 0 229.74 219.59"><defs><style>.a{fill:#bbb;}.a,.b,.c{fill-rule:evenodd;}.c{fill:#ee4823;}</style></defs><path class="a" d="M173.73,66.69c-12.7,6-22.62-6.66-21.54-21.26.65-8.93,7-19.16,14.28-21,12.42-3.17,8.88,2.1,9,2.21-3,1.87-30.22,17.24-13.13,32.43C168.09,64.14,166.93,58.73,173.73,66.69ZM205.22,64c3.52-24-11.87-34.47-23.75-45.47-14.14-1.33-23.1,3.8-30.47-1.59-14-10.29-10.18-9.1-32.09-9.83,5.33,14.34,12.67,16,18.34,26.47,6.66,12.22-3.71,13.61,10.6,29.26C171.32,88.55,179.09,80.38,205.22,64Z"/><path class="a" d="M104,127.58c8.42-4.31,18.31-16.07,26.82-23.47,9.24-8,16.35-17.55,23-26.73a90.6,90.6,0,0,0-15-13.95c-10.46,6.83-19,20.47-29.68,29.65C95.27,105,85.66,110.86,104,127.58Z"/><path class="a" d="M190,101.05c13,7.09,33.17-5.56,31.53-23.7-11.54,1.14-11.17,2.78-18.8,7.94C193.8,91.35,190.6,89.29,190,101.05Z"/><path class="a" d="M210.89,37.61c-2-11.51-6.46-21.74-20.07-22.37,3.21,11.23.77,5.3,7.94,12.76C205.25,34.72,200.8,33.87,210.89,37.61Z"/><path class="a" d="M190.48,84.21c8.93-2.52,11.57-3.8,15-12.1C198.7,75,192,77.15,190.48,84.21Z"/><path class="b" d="M72.56,117.38c9.33-5.13,7.88-6.86,16.27,1.53.29.28,10.41,13.18,10.75,13.92,5.1,11.65-8.59,23.64-14.18,30.24-21.68,25.6-55.33,77.5-77,28.21-6.29-14.35,2.95-19.68,12.17-28.92S60.23,124.21,72.56,117.38ZM190,101.05c.63-11.76,3.83-9.7,12.73-15.76,7.63-5.16,7.26-6.8,18.8-7.94C223.14,95.49,203,108.14,190,101.05Zm-86,26.53C85.66,110.86,95.27,105,109,93.08c10.69-9.18,19.22-22.82,29.68-29.65a90.6,90.6,0,0,1,15,13.95c-6.61,9.18-13.72,18.68-23,26.73C122.28,111.51,112.39,123.27,104,127.58Zm86.51-43.37c1.51-7.06,8.22-9.18,15-12.1C202.05,80.41,199.41,81.69,190.48,84.21Zm20.41-46.6c-10.09-3.74-5.64-2.89-12.13-9.61-7.17-7.46-4.73-1.53-7.94-12.76C204.43,15.87,208.85,26.1,210.89,37.61ZM205.22,64c-26.13,16.35-33.9,24.52-57.37-1.16-14.31-15.65-3.94-17-10.6-29.26-5.67-10.46-13-12.13-18.34-26.47C140.82,7.87,137,6.68,151,17c7.37,5.39,16.33.26,30.47,1.59C193.35,29.56,208.74,40,205.22,64ZM112,2.54c.65,29.06,21.38,16.7,21.38,50.8,0,10.06-43.06,50-45.1,51.11-9,4.9-13.55,1.9-24.86,9.86-16.84,11.88-19.53,21.38-34.27,32.58C1,168.26-9.47,181.78,9.92,206.19c25.93,32.68,48.75-3.29,58.67-14.52,5.79-6.57,9.78-9.13,15.57-16.52,6.06-7.74,9.49-11.65,15.3-19.42,13.67-18.26,6.64-24.24,27-39.8,22.39-17.09,22.67-25.88,33.62-33.19,12.3,2.86,7.28,5.33,24.06,5.33-1.24,15-2.78,15.05,10.69,24.06,23.92-5.58,45.84-27.1,28.88-39.68-5.55-4.14-5.75-2.07-12.86-.4,5.38-23.13,1-13.32,1.38-22.17l.51-3.6c.12-.45.46-1.19.63-1.61,2.86-7.88,5.78-4.06,3.31-13.16C214,21.51,206.24,7.9,194.85,7.9c-10,0-1.19,2.1-9.07,3.6-8.19,1.56-.2-.93-12.33-.93-19.87,0-7.43,7.91-23.61-2.92C139.74.9,125.74-2.78,112,2.54Z"/><path class="b" d="M173.73,66.69c-6.8-8-5.64-2.55-11.37-7.65-17.09-15.19,10.18-30.56,13.13-32.43-.14-.11,3.4-5.38-9-2.21-7.25,1.87-13.63,12.1-14.28,21C151.11,60,161,72.73,173.73,66.69Z"/><path class="c" d="M72.56,117.38c-12.33,6.83-42.83,35.83-52,45S2.12,176.93,8.41,191.28c21.66,49.29,55.31-2.61,77-28.21,5.59-6.6,19.28-18.59,14.18-30.24-.34-.74-10.46-13.64-10.75-13.92C80.44,110.52,81.89,112.25,72.56,117.38Z"/></svg>