<svg xmlns="http://www.w3.org/2000/svg" viewBox="0 0 204.66 205.97"><defs><style>.a{fill:#d5e4e4;}.a,.b,.c{fill-rule:evenodd;}.b{fill:#127173;}</style></defs><path class="a" d="M4,151.07l1.13,9.22c.34,13.38-2,23.86,8.67,32.06l14.66,6.71c1.84-2.18,24.06,3.24,50.68,1.39,16.56-1.16,46.35-.88,63.61-3.17,34.13-4.57,52-12.73,50.71-16.3l7.94-20.41L199.7,141.8,90,142.09,36.82,145c-15.39-2.73-24.57,1.78-32.54.05Z"/><path class="b" d="M7.2,142.06c32-2.21,62.16-4,94.37-3.29,33.73.77,63.41-1.39,95.78-1.84,4.45-81.19-33.11-52.7-55.42-54.43-38.95-3.06-29.48-44.42-49.61-65C68.68-6.67,34.75,12.37,20.89,37.15,3.74,67.76,7.74,107.08,7.2,142.06Z"/><path class="b" d="M195.65,144.13l-3.06.06Z"/><path class="b" d="M7.65,161.05l-.36-11.73Z"/><path class="c" d="M26.7,168.28l0-15.51.43-5.58,5.44.09,2.84,17.32,1.84,4L37.7,174,40,176.27l2.52,18.26-13.41,1.19ZM128.15,177c.15-10.52-1.7-23.3,2.73-32.26,7.65,1,9.83,1.5,10.29,8.53l.62,15.59,2.58,10.29-.23,15.51-12.7,1-.85-13.26Zm66.53-.57-2.35,2.19c-2.75,4.11-.11,3.54-3,.73l.22-14.28,2.33-2.73.71-18.19,3.06-.06C200.13,152.55,197.77,166.47,194.68,176.47Zm-48.58-30c5.78-5,5.87-3.4,11,.6l1.07,18.17,4.23.59c2.35,11.43,2.75,11.71,3.34,24.75l-3.09,1.73-12.16.37ZM7.29,149.32c-.74-4.09-1.34-2.92,3-2.21,8,1.72,5.47,10.63,6.24,20.72l2.07,3.11c2,8.2,3.06,15.06.11,21.35l-2.13-2.44C5.9,181.63,8,174.4,7.65,161.05Zm48.81,9.44,2.46,7.51,3.35,25.59v6L49,197.22l-.93-7.79L46,183.81l.51-13c.25-5.89,4.51.34,3.85-4.51-1.58-11.9-4.25-16.58,3-21.23Zm28.6-14.57,8.62.39.51,7.74c1.07,2.72,2.24,17,2.35,19.65l5.41,1.38,3.15,24.13c-14.54,1.44-17.35,9.46-19.25-45.5Zm96.8,27.89c-1.07,7.48,1.05,7.6.68,15.11l-8.64,2.75c-5.56-17.27-.06-29.46-4.51-44.79l12.42-.26Zm-57.94,8.56,2.35,6-.45,8.81-3.23,2-10.49.45-2.69-4.22.59-49c3.72,1.68,5.7-.82,6.78,5.31.57,3.2,0,11.14,1.22,18.19.88,5,3.31-1.61,4.53,1.34C123.11,171.88,122.8,176.64,123.56,180.64Zm-55-36.37,8.82.43.42,5.1,2,6,.56,13,2.07,5.81.74,23-11,.51c-.43-.65-1-2.21-1.17-1.82-.2.69-4.42-8.13-3-21,1.19-11.22,4.54,2.35,3.12-9.72ZM7.2,142.06c.54-35-3.46-74.3,13.69-104.91C34.75,12.37,68.68-6.67,92.32,17.51c20.13,20.57,10.66,61.93,49.61,65,22.31,1.73,59.87-26.76,55.42,54.43-32.37.45-62,2.61-95.78,1.84C69.36,138.06,39.15,139.85,7.2,142.06ZM3.4,186.59C24.58,208.76,35,202.15,61.6,203.2c26.84,1.08,1.7,5.45,45.52.34,21.69-2.55,32.46,1.45,71.49-8.7,35.63-9.24,24.27-47.31,24.52-74.38.62-65.08-36.31-45.58-53.4-45.24C108.23,76,119.59,44,103.24,19.91,84.67-7.41,56-3.67,32,13.45,8.67,30,3.74,62,2.78,88.51,2.21,104.81,0,102.2,0,136.5,0,156.69,1.08,167.46,3.4,186.59Z"/></svg>