<svg xmlns="http://www.w3.org/2000/svg" viewBox="0 0 195.08 174.28"><defs><style>.a{fill:#010101;}.a,.b,.c{fill-rule:evenodd;}.b{fill:#bbb;}.c{fill:#020202;}</style></defs><path class="a" d="M11.45,144.11C7.71,106.47,6.77,93.54,8.7,53.69l16.7,1.64c-1.14,35.27-1.9,51.88,3.43,87.08ZM0,99.44c0,22,7.17,28.77,2.66,48.1,16.59,3.86,15.51,3.86,32.06,0,0-38.23-9-19.95-2.77-83.5C33.14,51.9,29.25,46,18.71,46,4.14,46,3.37,50.23,2.41,64.43,1.5,77.56,0,83.54,0,99.44Z"/><path class="a" d="M168.38,78.07V83.4c4.42,0,12.3.56,16.24.25,10.15-.82,8.16.37,10.46-8.25C184.56,75.4,175.69,75.23,168.38,78.07Z"/><path class="a" d="M163,40.65c3.63,1.62-2.58,4.73,7.51-2.83,4-3,5.81-4.17,8.53-7.86-2-.93-7-7.45-15.59,6C160.13,41.22,161.32,36.82,163,40.65Z"/><path class="a" d="M171,123.51c8.19.68,12.84,2.52,18.71,5.33v-8c-10.37-.85-7-2.41-18.71-2.66Z"/><path class="b" d="M130.56,168.32c-17.51-18.31-17.85-46.43-17.51-79.57a307.11,307.11,0,0,1,3.74-43.56c2.49-14.52,8.08-27,9-40C99.64,8.28,92.49,36,70,46.57L47.85,54c-9.53,16-.43,63.38,1.78,84C74.81,144.57,69,134.76,92.81,151,104.12,158.63,113.61,166,130.56,168.32Z"/><path class="b" d="M120.27,62c19,15.08,26.25,28.86-.22,48.11-1,22.19,1.47,46.4,16.24,53.86,26.79,2.32,15.65-124.28-2.3-157.67a11.15,11.15,0,0,0-.93,1.7Z"/><path class="b" d="M11.45,144.11l17.38-1.7c-5.33-35.2-4.57-51.81-3.43-87.08L8.7,53.69C6.77,93.54,7.71,106.47,11.45,144.11Z"/><path class="b" d="M118.66,102.25c7.54-2.58,12.27-4.79,12.33-16.08,0-10.63-3.83-13.43-11.4-16.18Z"/><path class="c" d="M119.59,70c7.57,2.75,11.43,5.55,11.4,16.18-.06,11.29-4.79,13.5-12.33,16.08Zm.68-8L133.06,8a11.15,11.15,0,0,1,.93-1.7c17.95,33.39,29.09,160,2.3,157.67-14.77-7.46-17.26-31.67-16.24-53.86C146.52,90.88,139.24,77.1,120.27,62Zm10.29,106.3c-17-2.32-26.44-9.69-37.75-17.37C69,134.76,74.81,144.57,49.63,138,47.42,117.38,38.32,70,47.85,54L70,46.57C92.49,36,99.64,8.28,125.8,5.19c-.93,13-6.52,25.48-9,40a307.11,307.11,0,0,0-3.74,43.56C112.71,121.89,113.05,150,130.56,168.32ZM37.42,64.69l2.38,42.94c8.56,71.15,1.9,13.18,53.74,50.6,12.84,9.27,19.34,16.05,40.09,16.05C171.33,174.28,157.8,55,146,20.21c-2.83-8.39-5.3-12-7.09-19.64-27.44,0-21.74-6.72-54.11,26.05C56.66,55.14,55.25,37.5,43.46,49.38,40.73,52.1,37.42,60.41,37.42,64.69Z"/></svg>