<svg xmlns="http://www.w3.org/2000/svg" viewBox="0 0 163.05 190.16"><defs><style>.a{fill:#75ccce;}.a,.b,.c,.d,.e{fill-rule:evenodd;}.b{fill:#010202;}.c{fill:#d5e6e6;}.d{fill:#bbbcbc;}.e{fill:#127070;}</style></defs><path class="a" d="M19.93,28.26,54.6,28C47.57,19.11,23.41,19,19.93,28.26Z"/><path class="a" d="M37.81,115.17c6.61-13.72-10.34-6.15,4.28-42C29.28,78,36.51,112.88,37.81,115.17Z"/><path class="a" d="M75.12,21.63c3.57,7.77,2.66,6.92,10.66,2.75C81.86,17.09,83.74,16.36,75.12,21.63Z"/><path class="a" d="M128.75,182c8.93,4.85,9.41,2.19,16.92-1.75Z"/><path class="a" d="M19.84,180.94c8.48,1.53,15.28,2.58,22.11-1.93Z"/><path class="b" d="M128.75,182l16.92-1.75C138.16,184.2,137.68,186.86,128.75,182ZM42,179c-6.83,4.51-13.63,3.46-22.11,1.93ZM5.27,10.06c24-.45,135.87-7.62,146.7-1.16,5.35,8.85,5.27,150.15-.15,162.4-7.2,3.31-129,3.4-143.17,1.78ZM1.56,4.56,0,175.15c37.08,30.45,39.46,4.11,66.53,3.94,9.27-.05,37.81-.82,45,.83,18.82,4.22,4,13,34.67,9.38,26.22-12.5,13.83-135.53,14.2-165.18C160.72,2.69,161.35,0,139.12,0c-17.43.06-30.18,2.21-45.66,3C72.2,4,17.74-.17,1.56,4.56Z"/><path class="b" d="M44.11,101.31c-9.7-53.26,79.57-67.8,84.19-12.78C132.6,140.12,54.79,160,44.11,101.31Zm-6.3,13.86c-1.3-2.29-8.53-37.19,4.28-42C27.47,109,44.42,101.45,37.81,115.17Zm-7.37,1.65c10,9.12,7.2.56,16,8C51.28,129,66.84,153,101.91,139.63c62.92-23.92,27-118-38.24-86.48C57.09,56.32,54.2,60,49.35,63,42.46,67.24,20.13,60.18,30.44,116.82Z"/><path class="b" d="M100.09,115.94c-19.78,11.14-39.91-5.73-35.86-27.22C67.49,71.26,94.42,64,108.48,75.91c-.37,13-7.77,8-11.14,19.16C94.08,105.85,99.61,106.07,100.09,115.94Zm5.81,3.94c1-11.34-4.05-16.59-2.78-22.28,2.22-9.95,12.08-8.08,11.8-19.68-.49-19-32.38-15.39-43.35-8.78C37.16,89.83,72.65,145.28,105.9,119.88Z"/><path class="b" d="M19.93,28.26C23.41,19,47.57,19.11,54.6,28Zm-5,5.33,44.87.94C65.42,7.09,8.7,9.3,14.91,33.59Z"/><path class="b" d="M75.12,21.63c8.62-5.27,6.74-4.54,10.66,2.75C77.78,28.55,78.69,29.4,75.12,21.63Zm12.3,9.89c11.34-14.12-2-21.71-12.13-17.94C65.74,17.12,64.63,36.34,87.42,31.52Z"/><path class="b" d="M143.83,24.29c0,3,6.38,6,4.56-.05C146.69,18.54,143.83,19.16,143.83,24.29Z"/><path class="b" d="M144.37,13.61c.06,3.57,6.29,6.37,4.45.17C147.15,8.11,144.34,9.5,144.37,13.61Z"/><path class="b" d="M120.56,16.47c.11.88,7,5.41,3.91-1.25C122.46,10.86,119.65,7.31,120.56,16.47Z"/><path class="b" d="M133.6,24.29c0,3,5.75,5.81,4.14-.05C136.23,18.82,133.63,19.13,133.6,24.29Z"/><path class="b" d="M98,16.27c0,3,6.2,4.88,4.5-.06C100.69,11,97.91,12,98,16.27Z"/><path class="b" d="M96.75,27.52c-.06.63,5.58,5.36,4.14-1C99.67,21.29,97.34,21.23,96.75,27.52Z"/><path class="b" d="M134.22,13.61c0,3,5.7,6.37,3.94.19C136.66,8.56,134.19,10.32,134.22,13.61Z"/><path class="b" d="M109.42,16.27c0,2.44,4.82,3.71,3.63-.45S109.47,9.24,109.42,16.27Z"/><path class="b" d="M120.61,24.29c.15,4.68,4.68,6,3.38.74C122.49,18.91,120.61,23.87,120.61,24.29Z"/><path class="b" d="M110.58,25.26c-4.45,4.28-2.69,5.44,1.22,1.53C115,23.61,114.89,21.12,110.58,25.26Z"/><path class="c" d="M30.44,116.82C20.13,60.18,42.46,67.24,49.35,63c4.85-3,7.74-6.67,14.32-9.84,65.28-31.52,101.16,62.56,38.24,86.48C66.84,153,51.28,129,46.43,124.84,37.64,117.38,40.48,125.94,30.44,116.82ZM14.91,33.59C8.7,9.3,65.42,7.09,59.78,34.53Zm128.92-9.3c0-5.13,2.86-5.75,4.56-.05C150.21,30.27,143.86,27.33,143.83,24.29Zm-10.23,0c0-5.16,2.63-5.47,4.14-.05C139.35,30.1,133.6,27.33,133.6,24.29Zm-13,0c0-.42,1.88-5.38,3.38.74C125.29,30.3,120.76,29,120.61,24.29Zm-8.81,2.5c-3.91,3.91-5.67,2.75-1.22-1.53S115,23.61,111.8,26.79Zm-15,.73c.59-6.29,2.92-6.23,4.14-1C102.33,32.88,96.69,28.15,96.75,27.52Zm-9.33,4c-22.79,4.82-21.68-14.4-12.13-17.94C85.38,9.81,98.76,17.4,87.42,31.52Zm22-15.25c0-7,2.46-4.51,3.63-.45S109.39,18.71,109.42,16.27ZM98,16.27c-.06-4.31,2.72-5.27,4.5-.06C104.17,21.15,98,19.3,98,16.27Zm46.4-2.66c0-4.11,2.78-5.5,4.45.17C150.66,20,144.43,17.18,144.37,13.61Zm-10.15,0c0-3.29,2.44-5,3.94.19C139.92,20,134.25,16.64,134.22,13.61Zm-13.66,2.86c-.91-9.16,1.9-5.61,3.91-1.25C127.59,21.88,120.67,17.35,120.56,16.47ZM8.65,173.08c14.14,1.62,136,1.53,143.17-1.78,5.42-12.25,5.5-153.55.15-162.4-10.83-6.46-122.66.71-146.7,1.16Z"/><path class="d" d="M105.9,119.88c-33.25,25.4-68.74-30-34.33-50.74,11-6.61,42.86-10.21,43.35,8.78.28,11.6-9.58,9.73-11.8,19.68C101.85,103.29,106.92,108.54,105.9,119.88ZM44.11,101.31C54.79,160,132.6,140.12,128.3,88.53,123.68,33.51,34.41,48.05,44.11,101.31Z"/><path class="e" d="M100.09,115.94c-.48-9.87-6-10.09-2.75-20.87,3.37-11.11,10.77-6.15,11.14-19.16-14.06-11.9-41-4.65-44.25,12.81C60.18,110.21,80.31,127.08,100.09,115.94Z"/></svg>