<?xml version="1.0" encoding="utf-8"?>
<!-- Generator: Adobe Illustrator 24.1.2, SVG Export Plug-In . SVG Version: 6.00 Build 0)  -->
<svg version="1.1" id="Слой_1" xmlns="http://www.w3.org/2000/svg" xmlns:xlink="http://www.w3.org/1999/xlink" x="0px" y="0px"
	 viewBox="0 0 190.2 190.2" style="enable-background:new 0 0 190.2 190.2;" xml:space="preserve">
<style type="text/css">
	.st0{fill-rule:evenodd;clip-rule:evenodd;fill:#75CCCE;}
	.st1{fill-rule:evenodd;clip-rule:evenodd;fill:#010202;}
	.st2{fill-rule:evenodd;clip-rule:evenodd;fill:#D5E6E6;}
	.st3{fill-rule:evenodd;clip-rule:evenodd;fill:#BBBCBC;}
	.st4{fill-rule:evenodd;clip-rule:evenodd;fill:#127070;}
</style>
<path class="st0" d="M33.5,28.3L68.2,28C61.1,19.1,37,19,33.5,28.3z"/>
<path class="st0" d="M51.4,115.2c6.6-13.7-10.3-6.2,4.3-42C42.8,78,50.1,112.9,51.4,115.2z"/>
<path class="st0" d="M88.7,21.6c3.6,7.8,2.7,6.9,10.7,2.8C95.4,17.1,97.3,16.4,88.7,21.6z"/>
<path class="st0" d="M142.3,182c8.9,4.9,9.4,2.2,16.9-1.8L142.3,182z"/>
<path class="st0" d="M33.4,180.9c8.5,1.5,15.3,2.6,22.1-1.9L33.4,180.9z"/>
<path class="st1" d="M142.3,182l16.9-1.8C151.7,184.2,151.2,186.9,142.3,182z M55.6,179c-6.8,4.5-13.6,3.5-22.1,1.9L55.6,179z
	 M18.8,10.1c24-0.4,135.9-7.6,146.7-1.2c5.4,8.8,5.3,150.1-0.1,162.4c-7.2,3.3-129,3.4-143.2,1.8L18.8,10.1z M15.1,4.6l-1.6,170.6
	c37.1,30.4,39.5,4.1,66.5,3.9c9.3-0.1,37.8-0.8,45,0.8c18.8,4.2,4,13,34.7,9.4C186,176.8,173.6,53.8,174,24.1
	c0.3-21.4,1-24.1-21.3-24.1c-17.4,0.1-30.2,2.2-45.7,3C85.8,4,31.3-0.2,15.1,4.6z"/>
<path class="st1" d="M57.7,101.3C48,48,137.2,33.5,141.9,88.5C146.2,140.1,68.3,160,57.7,101.3z M51.4,115.2
	c-1.3-2.3-8.5-37.2,4.3-42C41,109,58,101.4,51.4,115.2z M44,116.8c10,9.1,7.2,0.6,16,8c4.8,4.2,20.4,28.2,55.5,14.8
	c62.9-23.9,27-118-38.2-86.5c-6.6,3.2-9.5,6.8-14.3,9.8C56,67.2,33.7,60.2,44,116.8z"/>
<path class="st1" d="M113.6,115.9c-19.8,11.1-39.9-5.7-35.9-27.2C81,71.3,108,64,122,75.9c-0.4,13-7.8,8-11.1,19.2
	C107.6,105.8,113.2,106.1,113.6,115.9z M119.5,119.9c1-11.3-4.1-16.6-2.8-22.3c2.2-9.9,12.1-8.1,11.8-19.7
	c-0.5-19-32.4-15.4-43.3-8.8C50.7,89.8,86.2,145.3,119.5,119.9z"/>
<path class="st1" d="M33.5,28.3C37,19,61.1,19.1,68.2,28L33.5,28.3z M28.5,33.6l44.9,0.9C79,7.1,22.3,9.3,28.5,33.6L28.5,33.6z"/>
<path class="st1" d="M88.7,21.6c8.6-5.3,6.7-4.5,10.7,2.8C91.3,28.5,92.2,29.4,88.7,21.6z M101,31.5c11.3-14.1-2-21.7-12.1-17.9
	C79.3,17.1,78.2,36.3,101,31.5z"/>
<path class="st1" d="M157.4,24.3c0,3,6.4,6,4.6,0C160.2,18.5,157.4,19.2,157.4,24.3z"/>
<path class="st1" d="M157.9,13.6c0.1,3.6,6.3,6.4,4.4,0.2C160.7,8.1,157.9,9.5,157.9,13.6z"/>
<path class="st1" d="M134.1,16.5c0.1,0.9,7,5.4,3.9-1.3C136,10.9,133.2,7.3,134.1,16.5z"/>
<path class="st1" d="M147.2,24.3c0,3,5.8,5.8,4.1,0C149.8,18.8,147.2,19.1,147.2,24.3z"/>
<path class="st1" d="M111.6,16.3c0,3,6.2,4.9,4.5-0.1C114.2,11,111.5,12,111.6,16.3z"/>
<path class="st1" d="M110.3,27.5c-0.1,0.6,5.6,5.4,4.1-1C113.2,21.3,110.9,21.2,110.3,27.5z"/>
<path class="st1" d="M147.8,13.6c0,3,5.7,6.4,3.9,0.2C150.2,8.6,147.7,10.3,147.8,13.6z"/>
<path class="st1" d="M123,16.3c0,2.4,4.8,3.7,3.6-0.4S123,9.2,123,16.3z"/>
<path class="st1" d="M134.2,24.3c0.2,4.7,4.7,6,3.4,0.7C136,18.9,134.2,23.9,134.2,24.3z"/>
<path class="st1" d="M124.1,25.3c-4.4,4.3-2.7,5.4,1.2,1.5C128.6,23.6,128.4,21.1,124.1,25.3z"/>
<path class="st2" d="M44,116.8C33.7,60.2,56,67.2,62.9,63c4.8-3,7.7-6.7,14.3-9.8c65.3-31.5,101.2,62.6,38.2,86.5
	C80.4,153,64.8,129,60,124.8C51.2,117.4,54,125.9,44,116.8z M28.5,33.6C22.3,9.3,79,7.1,73.3,34.5L28.5,33.6z M157.4,24.3
	c0-5.1,2.9-5.8,4.6,0C163.8,30.3,157.4,27.3,157.4,24.3z M147.2,24.3c0-5.2,2.6-5.5,4.1,0C152.9,30.1,147.2,27.3,147.2,24.3z
	 M134.2,24.3c0-0.4,1.9-5.4,3.4,0.7C138.8,30.3,134.3,29,134.2,24.3L134.2,24.3z M125.3,26.8c-3.9,3.9-5.7,2.8-1.2-1.5
	C128.6,21,128.6,23.6,125.3,26.8L125.3,26.8z M110.3,27.5c0.6-6.3,2.9-6.2,4.1-1C115.9,32.9,110.2,28.1,110.3,27.5L110.3,27.5z
	 M101,31.5c-22.8,4.8-21.7-14.4-12.1-17.9C98.9,9.8,112.3,17.4,101,31.5L101,31.5z M123,16.3c0-7,2.5-4.5,3.6-0.4
	S122.9,18.7,123,16.3L123,16.3z M111.6,16.3c-0.1-4.3,2.7-5.3,4.5-0.1C117.7,21.1,111.6,19.3,111.6,16.3z M158,13.6
	c0-4.1,2.8-5.5,4.4,0.2C164.2,20,158,17.2,158,13.6L158,13.6z M147.8,13.6c0-3.3,2.4-5,3.9,0.2C153.5,20,147.8,16.6,147.8,13.6
	L147.8,13.6z M134.1,16.5c-0.9-9.2,1.9-5.6,3.9-1.3C141.1,21.9,134.2,17.4,134.1,16.5L134.1,16.5z M22.2,173.1
	c14.1,1.6,136,1.5,143.2-1.8c5.4-12.3,5.5-153.6,0.1-162.4C154.7,2.4,42.9,9.6,18.8,10.1L22.2,173.1z"/>
<path class="st3" d="M119.5,119.9c-33.3,25.4-68.7-30-34.3-50.7c11-6.6,42.9-10.2,43.3,8.8c0.3,11.6-9.6,9.7-11.8,19.7
	C115.4,103.3,120.5,108.5,119.5,119.9z M57.7,101.3c10.7,58.7,88.5,38.8,84.2-12.8C137.2,33.5,48,48,57.7,101.3z"/>
<path class="st4" d="M113.6,115.9c-0.5-9.9-6-10.1-2.8-20.9c3.4-11.1,10.8-6.2,11.1-19.2C108,64,81,71.3,77.8,88.7
	C73.7,110.2,93.9,127.1,113.6,115.9z"/>
</svg>
