<svg xmlns="http://www.w3.org/2000/svg" viewBox="0 0 220.42 232.53"><defs><style>.a{fill:#fdbe10;}.a,.b{fill-rule:evenodd;}.b{fill:#010100;}</style></defs><path class="a" d="M188.27,26.59c-22.62,7.6-58.93,31.78-47.56,16.87,1.95-2.53,3.94-3.35,6.12-4.77,24.75-16.13,40.08-9,38.3-27.41-21.52-2.12-11,6.1-26.56,15.2l-32,14.28c9-22.08,39.32-11.31,36.8-34.38-29.51,1.5-61.23,33.62-81.44,52,11.22-2.22,48.61-19.68,44.76,2.6-2.1,12.14-44.54,25.71-46.89,26.22,0-7.68-5.53-5,20.58-14.85,11.31-4.28,18.09-5.58,21-16.07-13.6-.57-26.9,4.56-38.72,9-29.87,11.37-70.78,63.61-71.12,76.34,7.6,22.45,50.09,56,80.62,62.61a36.91,36.91,0,0,0,4.25-4.79l65-130.25c20.16-27.49,23.84-21,34.92-34.58-25.14,3.43-31.49,27.64-47.16,26.16C157.91,44.45,182.77,37.45,188.27,26.59Z"/><path class="a" d="M114.6,180.65c11.45-10.12,30.78-23.13,46.74-31.21,26.9-13.58,49.58-11.51,53.32-26.1-19-3.69-29.65,7.79-47.82,11.45,4.08-10.43-4.76-1.9,8.56-8.93,6.44-3.4,26.48-7.85,33.11-13.61-12.9-13.46-34.61,13.69-45.58,5.36,15.31-13.15,39.18-12.42,47-19.42-26.13-10.06-34.24,5.9-50.68,11.06,1.61-14.63,18.56-15,32.17-20.64,5.1-2.1,2.69-.88,5.53-2.81-46.23-7.79-46.23,14.66-54.17,34.25C134.1,141.45,121,159.7,114.6,180.65Z"/><path class="a" d="M86.76,214.1c-3.34-10.06,5.5-.25-21.28-13.69C30.3,182.75,22.59,165.77,6.52,150c-4.6,21.09,37.81,45.07,54.11,55.28,4,2.49,7.11,5,11.39,7.4C81.18,217.79,80.27,217.59,86.76,214.1Z"/><path class="a" d="M52.24,224.28c3.77-9.73-5-22.57-16.33-26.65a121.57,121.57,0,0,0,4.45,17.12C44,225,42.37,224.25,52.24,224.28Z"/><path class="a" d="M58,213.82c.4,2.12,7.37,7.48,3.74.11C60.49,211.38,56.8,207.35,58,213.82Z"/><path class="a" d="M188.27,26.59c4.37,1.61,2.7,1.81,2.7-3.43C182.38,23.16,190.65,22,188.27,26.59Z"/><path class="b" d="M58,213.82c-1.22-6.47,2.47-2.44,3.74.11C65.39,221.3,58.42,215.94,58,213.82ZM35.91,197.63c11.37,4.08,20.1,16.92,16.33,26.65-9.87,0-8.22.68-11.88-9.53A121.57,121.57,0,0,1,35.91,197.63Zm29.57,2.78C92.26,213.85,83.42,204,86.76,214.1c-6.49,3.49-5.58,3.69-14.74-1.44-4.28-2.41-7.42-4.91-11.39-7.4C44.33,195.05,1.92,171.07,6.52,150,22.59,165.77,30.3,182.75,65.48,200.41Zm49.12-19.76c6.43-21,19.5-39.2,28.15-60.6,7.94-19.59,7.94-42,54.17-34.25-2.84,1.93-.43.71-5.53,2.81-13.61,5.59-30.56,6-32.17,20.64,16.44-5.16,24.55-21.12,50.68-11.06-7.79,7-31.66,6.27-47,19.42,11,8.33,32.68-18.82,45.58-5.36-6.63,5.76-26.67,10.21-33.11,13.61-13.32,7-4.48-1.5-8.56,8.93,18.17-3.66,28.86-15.14,47.82-11.45-3.74,14.59-26.42,12.52-53.32,26.1C145.38,157.52,126.05,170.53,114.6,180.65ZM188.27,26.59c2.38-4.56-5.89-3.43,2.7-3.43C191,28.4,192.64,28.2,188.27,26.59Zm0,0c-5.5,10.86-30.36,17.86-39.14,34.21,15.67,1.48,22-22.73,47.16-26.16-11.08,13.58-14.76,7.09-34.92,34.58l-65,130.25a36.91,36.91,0,0,1-4.25,4.79c-30.53-6.57-73-40.16-80.62-62.61.34-12.73,41.25-65,71.12-76.34,11.82-4.48,25.12-9.61,38.72-9-2.91,10.49-9.69,11.79-21,16.07C74.26,82.2,79.82,79.51,79.79,87.19c2.35-.51,44.79-14.08,46.89-26.22,3.85-22.28-33.54-4.82-44.76-2.6,20.21-18.37,51.93-50.49,81.44-52,2.52,23.07-27.84,12.3-36.8,34.38l32-14.28c15.56-9.1,5-17.32,26.56-15.2,1.78,18.4-13.55,11.28-38.3,27.41-2.18,1.42-4.17,2.24-6.12,4.77C129.34,58.37,165.65,34.19,188.27,26.59ZM41.35,232.53c14.77-.34,12.45-4.34,22.48-9.9,12.39-6.86,7.06.54,23,1.87l24.44-31.69C122.91,182.3,130.16,176,144,166.73c38.75-26,76.45-23.33,76.45-41.1,0-9.3-5.33-4.08-5.33-13.38,0-14,6.77-10.46-5.76-23.55-17-17.75-31-9.7-45-8.51,4.08-15.25,27.41-34.27,40.11-42.77L197.66,25c-.66-2.27-1-9-6-14.91s-6.26-5.87-13.55-6.43c-11.28-.88,4.09,1.92-7.34-.26C161.37,1.59,173,0,161.63,0,128.18,0,88,46.49,64.63,66.05,44.75,82.66,26.75,101.2,13,124c-31.8,52.86,2.41,33.81,19.93,87.5a89.32,89.32,0,0,0,3.57,9.78C39.48,228.33,39.11,224.08,41.35,232.53Z"/></svg>