<?xml version="1.0" encoding="utf-8"?>
<!-- Generator: Adobe Illustrator 24.1.2, SVG Export Plug-In . SVG Version: 6.00 Build 0)  -->
<svg version="1.1" id="Слой_1" xmlns="http://www.w3.org/2000/svg" xmlns:xlink="http://www.w3.org/1999/xlink" x="0px" y="0px"
	 viewBox="0 0 232.5 232.5" style="enable-background:new 0 0 232.5 232.5;" xml:space="preserve">
<style type="text/css">
	.st0{fill-rule:evenodd;clip-rule:evenodd;fill:#FDBE10;}
	.st1{fill-rule:evenodd;clip-rule:evenodd;fill:#010100;}
</style>
<path class="st0" d="M194.3,26.6c-22.6,7.6-58.9,31.8-47.6,16.9c1.9-2.5,3.9-3.3,6.1-4.8c24.8-16.1,40.1-9,38.3-27.4
	c-21.5-2.1-11,6.1-26.6,15.2l-32,14.3c9-22.1,39.3-11.3,36.8-34.4C139.9,7.9,108.2,40,88,58.4c11.2-2.2,48.6-19.7,44.8,2.6
	c-2.1,12.1-44.5,25.7-46.9,26.2c0-7.7-5.5-5,20.6-14.8c11.3-4.3,18.1-5.6,21-16.1c-13.6-0.6-26.9,4.6-38.7,9
	c-29.9,11.4-70.8,63.6-71.1,76.3c7.6,22.4,50.1,56,80.6,62.6c1.6-1.5,3-3.1,4.3-4.8l65-130.3c20.2-27.5,23.8-21,34.9-34.6
	c-25.1,3.4-31.5,27.6-47.2,26.2C164,44.5,188.8,37.5,194.3,26.6z"/>
<path class="st0" d="M120.7,180.6c11.4-10.1,30.8-23.1,46.7-31.2c26.9-13.6,49.6-11.5,53.3-26.1c-19-3.7-29.6,7.8-47.8,11.5
	c4.1-10.4-4.8-1.9,8.6-8.9c6.4-3.4,26.5-7.8,33.1-13.6c-12.9-13.5-34.6,13.7-45.6,5.4c15.3-13.2,39.2-12.4,47-19.4
	c-26.1-10.1-34.2,5.9-50.7,11.1c1.6-14.6,18.6-15,32.2-20.6c5.1-2.1,2.7-0.9,5.5-2.8c-46.2-7.8-46.2,14.7-54.2,34.3
	C140.2,141.4,127.1,159.7,120.7,180.6z"/>
<path class="st0" d="M92.8,214.1c-3.3-10.1,5.5-0.3-21.3-13.7c-35.2-17.7-42.9-34.6-59-50.4c-4.6,21.1,37.8,45.1,54.1,55.3
	c4,2.5,7.1,5,11.4,7.4C87.2,217.8,86.3,217.6,92.8,214.1z"/>
<path class="st0" d="M58.3,224.3c3.8-9.7-5-22.6-16.3-26.6c1.1,5.8,2.6,11.5,4.5,17.1C50.1,225,48.4,224.3,58.3,224.3z"/>
<path class="st0" d="M64.1,213.8c0.4,2.1,7.4,7.5,3.7,0.1C66.5,211.4,62.9,207.4,64.1,213.8z"/>
<path class="st0" d="M194.3,26.6c4.4,1.6,2.7,1.8,2.7-3.4C188.4,23.2,196.7,22,194.3,26.6z"/>
<path class="st1" d="M64.1,213.8c-1.2-6.5,2.5-2.4,3.7,0.1C71.4,221.3,64.5,215.9,64.1,213.8z M42,197.6
	c11.4,4.1,20.1,16.9,16.3,26.6c-9.9,0-8.2,0.7-11.9-9.5C44.5,209.2,43,203.4,42,197.6z M71.5,200.4c26.8,13.4,17.9,3.6,21.3,13.7
	c-6.5,3.5-5.6,3.7-14.7-1.4c-4.3-2.4-7.4-4.9-11.4-7.4C50.4,195.1,8,171.1,12.6,150C28.6,165.8,36.4,182.8,71.5,200.4z M120.7,180.7
	c6.4-21,19.5-39.2,28.2-60.6c7.9-19.6,7.9-42,54.2-34.3c-2.8,1.9-0.4,0.7-5.5,2.8c-13.6,5.6-30.6,6-32.2,20.6
	c16.4-5.2,24.6-21.1,50.7-11.1c-7.8,7-31.7,6.3-47,19.4c11,8.3,32.7-18.8,45.6-5.4c-6.6,5.8-26.7,10.2-33.1,13.6
	c-13.3,7-4.5-1.5-8.6,8.9c18.2-3.7,28.9-15.1,47.8-11.4c-3.7,14.6-26.4,12.5-53.3,26.1C151.4,157.5,132.1,170.5,120.7,180.7
	L120.7,180.7z M194.3,26.6c2.4-4.6-5.9-3.4,2.7-3.4C197.1,28.4,198.7,28.2,194.3,26.6z M194.3,26.6c-5.5,10.9-30.4,17.9-39.1,34.2
	c15.7,1.5,22-22.7,47.2-26.2c-11.1,13.6-14.8,7.1-34.9,34.6l-65,130.3c-1.3,1.7-2.7,3.3-4.3,4.8c-30.5-6.6-73-40.2-80.6-62.6
	c0.3-12.7,41.3-65,71.1-76.3c11.8-4.5,25.1-9.6,38.7-9c-2.9,10.5-9.7,11.8-21,16.1c-26.1,9.8-20.5,7.1-20.6,14.8
	c2.3-0.5,44.8-14.1,46.9-26.2c3.9-22.3-33.5-4.8-44.8-2.6c20.2-18.4,51.9-50.5,81.4-52c2.5,23.1-27.8,12.3-36.8,34.4l32-14.3
	c15.6-9.1,5-17.3,26.6-15.2c1.8,18.4-13.6,11.3-38.3,27.4c-2.2,1.4-4.2,2.2-6.1,4.8C135.4,58.4,171.7,34.2,194.3,26.6z M47.4,232.5
	c14.8-0.3,12.5-4.3,22.5-9.9c12.4-6.9,7.1,0.5,23,1.9l24.4-31.7c11.6-10.5,18.9-16.8,32.7-26.1c38.8-26,76.4-23.3,76.4-41.1
	c0-9.3-5.3-4.1-5.3-13.4c0-14,6.8-10.5-5.8-23.6c-17-17.8-31-9.7-45-8.5c4.1-15.3,27.4-34.3,40.1-42.8L203.7,25c-0.7-2.3-1-9-6-14.9
	s-6.3-5.9-13.6-6.4c-11.3-0.9,4.1,1.9-7.3-0.3c-9.4-1.8,2.2-3.4-9.1-3.4c-33.5,0-73.6,46.5-97,66.1C50.8,82.7,32.8,101.2,19.1,124
	c-31.8,52.9,2.4,33.8,19.9,87.5c1,3.3,2.2,6.6,3.6,9.8C45.5,228.3,45.2,224.1,47.4,232.5z"/>
</svg>
