<?xml version="1.0" encoding="utf-8"?>
<!-- Generator: Adobe Illustrator 24.1.2, SVG Export Plug-In . SVG Version: 6.00 Build 0)  -->
<svg version="1.1" id="Слой_1" xmlns="http://www.w3.org/2000/svg" xmlns:xlink="http://www.w3.org/1999/xlink" x="0px" y="0px"
	 viewBox="0 0 230.7 230.7" style="enable-background:new 0 0 230.7 230.7;" xml:space="preserve">
<style type="text/css">
	.st0{fill-rule:evenodd;clip-rule:evenodd;fill:#F38320;}
	.st1{fill-rule:evenodd;clip-rule:evenodd;fill:#010100;}
	.st2{fill-rule:evenodd;clip-rule:evenodd;fill:#FDBE10;}
</style>
<path class="st0" d="M135.4,125.4l41.4-0.1c11.3-16.8,5.9-22.6,6.1-43.3l-51-1.2C138.9,101.7,136.5,100.3,135.4,125.4z"/>
<path class="st0" d="M51.5,125l33.7-0.2c0.8-10.8-2.2-24.4-0.7-41.3c-25.2,3.8-26.8,0.3-48-3.5C37.9,123.2,41.7,96.8,51.5,125z"/>
<path class="st1" d="M9,191.5c-2.1-13-1.1-38.8-0.9-52.9c0.4-21.2,4.5-29.7,25.5-29.2c11.6,12.4,12.7,12,13.2,34.6
	c0.4,17.7,2.6,29.5-2.1,47.5L9,191.5z M52.7,130.5l123.7,1.1c3,14.4,2.5,39.9-0.4,55.1l-122.3,1.4L52.7,130.5z M185.5,188.6
	c-2.5-10.8-1.5-40-1.3-52.7c0.3-21.6,4.1-30,25.6-29.1c19.7,8.9,14.3,71.5,10.7,81.9L185.5,188.6z M51.5,125
	c-9.9-28.2-13.7-1.8-15-44.9c21.2,3.7,22.7,7.3,48,3.5c-1.5,16.9,1.6,30.4,0.7,41.3L51.5,125z M135.4,125.4
	c1.1-25.1,3.5-23.7-3.4-44.7l51,1.2c-0.2,20.7,5.1,26.5-6.1,43.3L135.4,125.4z M21.8,103.3c-0.4-0.5-0.7-1.1-0.9-1.6L19,95.8
	c-0.2-1.5-0.3-8.8-0.3-10.4c1.8-46.8,44.5-46.2,91.3-45.8c58.9,0.5,98.6-8.6,99,56.5c-4.3,8.6-5.9,1.4-18.7,7l-1.6-27
	c-5.6-1-55.2-1.3-65.9-1.4c2.5,21.9,9-0.6,5.8,50.6c-38.8,0-32.3,2.1-37-8.4c-5.6-12.4-0.7-27.2-0.5-39.7
	c-13.4-0.3-19.4,3.5-33.2,1.3C49.1,77,39.9,72.6,32.8,74l-2.3,8.8c-0.4,3.7,0.4,7.5,0,10.7C29.2,105.5,32.5,101.6,21.8,103.3z
	 M0.4,141.4c0,24-2,36,2.7,56.1l40.7,1c13.8-0.9-4.8,0.1,10.5-3.1c11.2-2.3,44.8-0.6,58.4-0.6c38.6,0,80.6-4.7,112.2,2.7
	c8.1-34.5,5.4-18.8,5.4-61.4c0-9-2.1-15.7-5.5-21.3c-6.8-11.4-6.1-1.6-8-18.7c-7.7-66.7-27.2-60.1-77.5-61.5
	c-28.5-0.8-87.9-11.1-115.7,17.8C12.6,63.8,12.3,77,11.2,96.1C9.8,122.6,0.4,110.3,0.4,141.4z"/>
<path class="st1" d="M17.8,137c3.5,2.3,6.3,4.4,17.1,1.9c5.9-1.4,2.3-0.5,5.3-2.8c-5-3.2-0.9-2.7-10.4-2.7
	C21.3,133.4,21.4,131.9,17.8,137z"/>
<path class="st1" d="M193.4,133.5c6.3,3.6,5.2,2.4,17.8,1.1c-1.4-2.7,2.9-5.1-8-5.6C198.5,128.7,194,129.9,193.4,133.5z"/>
<path class="st2" d="M21.8,103.3c10.7-1.6,7.4,2.2,8.6-9.8c0.3-3.2-0.4-6.9,0-10.7l2.3-8.8c7.1-1.4,16.3,3,25.2,4.4
	c13.8,2.2,19.7-1.5,33.1-1.3c-0.2,12.5-5,27.4,0.5,39.7c4.7,10.4-1.7,8.4,37,8.4c3.2-51.2-3.3-28.7-5.8-50.6
	c10.7,0.1,60.2,0.4,65.9,1.4l1.6,27c12.8-5.6,14.4,1.5,18.7-7c-0.4-65.1-40.1-56-99-56.5c-46.8-0.4-89.4-0.9-91.3,45.8
	c0,1.6,0.1,9,0.3,10.4l1.9,5.9C21.1,102.2,21.4,102.8,21.8,103.3z"/>
<path class="st2" d="M53.7,188.1l122.3-1.4c2.9-15.2,3.4-40.7,0.4-55.1l-123.7-1.1L53.7,188.1z"/>
<path class="st2" d="M211.3,134.6c-12.6,1.4-11.5,2.5-17.8-1.1c0.5-3.6,5.1-4.8,9.9-4.5C214.1,129.5,209.9,131.9,211.3,134.6z
	 M185.5,188.6l35.1,0.1c3.5-10.4,8.9-73-10.7-81.9c-21.6-0.8-25.3,7.5-25.6,29.1C184,148.7,183,177.8,185.5,188.6z"/>
<path class="st2" d="M34.9,138.9c-10.8,2.5-13.6,0.4-17.1-1.9c3.7-5.1,3.5-3.6,12-3.6c9.5,0,5.4-0.5,10.4,2.7
	C37.1,138.4,40.8,137.5,34.9,138.9z M9,191.5h35.7c4.7-17.9,2.5-29.7,2.1-47.5c-0.5-22.6-1.6-22.2-13.2-34.6
	c-21-0.5-25.1,8-25.5,29.2C7.9,152.8,6.9,178.5,9,191.5z"/>
</svg>
