<svg xmlns="http://www.w3.org/2000/svg" viewBox="0 0 230.7 166.4"><defs><style>.a{fill:#f38320;}.a,.b,.c{fill-rule:evenodd;}.b{fill:#010100;}.c{fill:#fdbe10;}</style></defs><path class="a" d="M135.39,93.24l41.41-.08c11.26-16.81,5.9-22.62,6.13-43.35l-51-1.24C138.85,69.54,136.52,68.15,135.39,93.24Z"/><path class="a" d="M51.54,92.82l33.7-.2c.83-10.83-2.21-24.41-.73-41.27-25.23,3.82-26.76.28-48-3.46C37.88,91,41.67,64.61,51.54,92.82Z"/><path class="b" d="M9,159.35c-2.07-13-1.13-38.75-.91-52.9.4-21.17,4.48-29.65,25.49-29.17,11.59,12.42,12.67,12,13.21,34.56.39,17.74,2.6,29.53-2.13,47.48Zm43.71-61,123.68,1.14c3,14.37,2.52,39.94-.4,55.1L53.67,155.94Zm132.8,58.14c-2.49-10.83-1.47-40-1.27-52.69.34-21.63,4.05-30,25.6-29.12,19.67,8.93,14.28,71.52,10.74,81.9Zm-134-63.66c-9.87-28.21-13.66-1.82-15-44.93,21.21,3.74,22.74,7.28,48,3.46-1.48,16.86,1.56,30.44.73,41.27Zm83.85.42c1.13-25.09,3.46-23.7-3.43-44.67l51,1.24c-.23,20.73,5.13,26.54-6.13,43.35ZM21.8,71.13a6.77,6.77,0,0,1-.87-1.64L19,63.62c-.23-1.45-.34-8.79-.29-10.43C20.53,6.44,63.16,7,110,7.35c58.9.46,98.62-8.59,99,56.47-4.31,8.56-5.87,1.39-18.68,7l-1.56-27c-5.64-1-55.19-1.27-65.87-1.36,2.46,21.91,9-.59,5.81,50.57-38.75,0-32.35,2.07-37-8.36-5.59-12.36-.71-27.24-.54-39.74C77.73,44.68,71.78,48.4,58,46.21c-8.9-1.41-18.14-5.72-25.25-4.36l-2.33,8.84c-.4,3.72.37,7.49,0,10.66C29.17,73.31,32.49,69.49,21.8,71.13ZM.43,109.26c0,24-2,36,2.67,56.12l40.67,1c13.78-.9-4.84.09,10.52-3.06,11.22-2.27,44.84-.62,58.39-.62,38.61,0,80.56-4.71,112.23,2.66,8.05-34.52,5.35-18.79,5.35-61.45,0-9-2.12-15.65-5.5-21.26-6.83-11.43-6.09-1.62-8-18.68C209.09-2.77,189.56,3.92,139.3,2.45,110.78,1.6,51.4-8.64,23.65,20.22,12.59,31.67,12.25,44.85,11.23,63.93,9.78,90.46.43,78.16.43,109.26Z"/><path class="b" d="M17.78,104.81c3.51,2.26,6.32,4.42,17.09,1.9,5.93-1.39,2.27-.49,5.33-2.78-5-3.21-.91-2.69-10.37-2.69C21.27,101.26,21.44,99.7,17.78,104.81Z"/><path class="b" d="M193.44,101.35c6.29,3.57,5.22,2.44,17.83,1.05-1.39-2.67,2.86-5.05-8-5.59C198.54,96.59,194,97.75,193.44,101.35Z"/><path class="c" d="M21.8,71.13c10.69-1.64,7.37,2.18,8.65-9.78.34-3.17-.43-6.94,0-10.66l2.33-8.84C39.86,40.49,49.1,44.8,58,46.21c13.78,2.19,19.73-1.53,33.14-1.27-.17,12.5-5,27.38.54,39.74,4.7,10.43-1.7,8.36,37,8.36,3.23-51.16-3.35-28.66-5.81-50.57,10.68.09,60.23.4,65.87,1.36l1.56,27c12.81-5.64,14.37,1.53,18.68-7-.42-65.06-40.14-56-99-56.47C63.16,7,20.53,6.44,18.71,53.19c-.05,1.64.06,9,.29,10.43l1.93,5.87A6.77,6.77,0,0,0,21.8,71.13Z"/><path class="c" d="M53.67,155.94,176,154.58c2.92-15.16,3.4-40.73.4-55.1L52.7,98.34Z"/><path class="c" d="M211.27,102.4c-12.61,1.39-11.54,2.52-17.83-1.05.51-3.6,5.1-4.76,9.87-4.54C214.13,97.35,209.88,99.73,211.27,102.4ZM185.5,156.48l35.07.09c3.54-10.38,8.93-73-10.74-81.9-21.55-.85-25.26,7.49-25.6,29.12C184,116.51,183,145.65,185.5,156.48Z"/><path class="c" d="M34.87,106.71c-10.77,2.52-13.58.36-17.09-1.9,3.66-5.11,3.49-3.55,12-3.57,9.46,0,5.41-.52,10.37,2.69C37.14,106.22,40.8,105.32,34.87,106.71ZM9,159.35l35.66,0c4.73-17.95,2.52-29.74,2.13-47.48C46.24,89.3,45.16,89.7,33.57,77.28c-21-.48-25.09,8-25.49,29.17C7.86,120.6,6.92,146.39,9,159.35Z"/></svg>