<svg xmlns="http://www.w3.org/2000/svg" viewBox="0 0 242.48 237.07"><defs><style>.a{fill:#fbbd10;}.a,.b,.c,.d{fill-rule:evenodd;}.b{fill:#14b5b8;}.c{fill:#010202;}.d{fill:#d5e4e4;}</style></defs><path class="a" d="M147.1,15.92c29,17.12,20.27-10.55,22.11,81.32l13,.71L179.9,9.17C168.08,6,152,3.93,147.1,15.92Z"/><path class="a" d="M117.48,199.52l29.08,1.41,6.49,12.31c-4,8.13-9.75,11.17-15.08,15.28,20.36-.88,30.84-9.78,30.45-30.36-7.17-2.92-17.24-4.65-24.07-3.12C135.62,197,123,197.9,117.48,199.52Z"/><path class="a" d="M132.28,232.2c-10-6.18-53.1-1.47-32.52-30.59-20.8-.31-10.54,19.11-4.7,23.22C105.15,232,120.77,230,132.28,232.2Z"/><path class="b" d="M50.38,115.87c12.56-6.86,113.11-5.81,129.86.65,46,17.74,17.12,78.21-21.43,57.32-12.22-6.61-28.12-27-38.75-30.56-16.61-5.64-29.28,13.26-41.22,22C36.35,196.46,15.63,134.77,50.38,115.87Zm61.06,36c23.25,5.22,20.52,31.64,44.59,37.59,23.36,5.78,51,.94,61.43-21.71,9.49-20.67,7.06-47-12.45-60.52-6.49-4.51-149.55-4.59-156.55-3.23C2.59,113,5,192,65.46,190.81,97.3,190.19,87.74,161.31,111.44,151.92Z"/><path class="b" d="M144.32,206.49c-6.37-.93-62.13-5.24-40.76,12.1C111.1,224.72,150.3,230,144.32,206.49Z"/><path class="b" d="M230.89,150.87c8.2-8.7,6.24-16.61-1.78-24.4C226.93,131.09,228.34,146.25,230.89,150.87Z"/><path class="b" d="M10.67,154.16l1.59-21.6C5.28,136.87,8.09,148.13,10.67,154.16Z"/><path class="c" d="M103.56,218.59c-21.37-17.34,34.39-13,40.76-12.1C150.3,230,111.1,224.72,103.56,218.59Zm28.72,13.61c-11.51-2.24-27.13-.25-37.22-7.37-5.84-4.11-16.1-23.53,4.7-23.22C79.18,230.73,122.24,226,132.28,232.2Zm-14.8-32.68c5.5-1.62,18.14-2.53,26.87-4.48,6.83-1.53,16.9.2,24.07,3.12.39,20.58-10.09,29.48-30.45,30.36,5.33-4.11,11.09-7.15,15.08-15.28l-6.49-12.31Zm-6-47.6c-23.7,9.39-14.14,38.27-46,38.89C5,192,2.59,113,48.46,104.05c7-1.36,150.06-1.28,156.55,3.23,19.51,13.52,21.94,39.85,12.45,60.52-10.41,22.65-38.07,27.49-61.43,21.71C132,183.56,134.69,157.14,111.44,151.92Zm117.67-25.45c8,7.79,10,15.7,1.78,24.4C228.34,146.25,226.93,131.09,229.11,126.47ZM10.67,154.16c-2.58-6-5.39-17.29,1.59-21.6ZM182.17,98l-13-.71C167.37,5.37,176.07,33,147.1,15.92c4.88-12,21-9.92,32.8-6.75ZM139.62,16.06c8.28,11,13,6.26,22.68,13.29L163,98c-33.4,0-66.79.2-100.12,0-40.09-.22-33.34,14.69-50.55,26.48-28.8,19.73,1.25,40.5,6.47,48.44C35.44,198.18,71.5,204.42,88,189.82c9.36-8.25,11.76-23,20.86-30.47,15.51,1.9,21.55,20.38,33.59,31-12.89,0-24.15,2.07-38.63,2.44-35.92.91-32.26,50.57,30.75,43.6,24-2.67,39.07-12.42,41.67-37.9,31.16-3.18,38.72-10.46,49-33.14,8-17.72,4.42-.85,14-14.26,4.56-6.4,3.8-13.52,1.33-20.27-4.14-11.31-7.45-8.3-15.67-12.64-15-7.91-4.68-20.27-36.23-20.21,0-15.34.34-31,.11-46.29-.17-10.91-2.26-11.79-2.77-20.52-.71-12,3.06-11.43,2-22.37C174.82-4.46,145.43-3.27,139.62,16.06Z"/><path class="c" d="M106.34,138.29C89.67,144.16,84.43,156,70.23,164.42c-18.57,11-31.92.37-31.47-20.29.57-25.2,16.67-25.34,36.88-25.66,29.17-.42,95.67-5.47,113.64,9.56,12.67,10.6,11,30.84-2.15,40.39C157.28,190.08,138.31,127,106.34,138.29Zm-56-22.42c-34.75,18.9-14,80.59,28.46,49.43,11.94-8.76,24.61-27.66,41.22-22,10.63,3.6,26.53,23.95,38.75,30.56,38.55,20.89,67.43-39.58,21.43-57.32C163.49,110.06,62.94,109,50.38,115.87Z"/><path class="d" d="M106.34,138.29c32-11.25,50.94,51.79,80.79,30.13,13.18-9.55,14.82-29.79,2.15-40.39-18-15-84.47-10-113.64-9.56-20.21.32-36.31.46-36.88,25.66-.45,20.66,12.9,31.24,31.47,20.29C84.43,156,89.67,144.16,106.34,138.29Z"/></svg>