<svg xmlns="http://www.w3.org/2000/svg" viewBox="0 0 189.7 234.16"><defs><style>.a{fill:#126f71;}.a,.b,.c,.d{fill-rule:evenodd;}.b{fill:#ee4823;}.c{fill:#010101;}.d{fill:#bbb;}</style></defs><path class="a" d="M166.39,203.76C189.74,188.12,185,117,176.25,98.23c-8.62,3.86-5.3.91-3.69,13.13,4.34,33,12.39,82.4-26.84,89.85l-12.5,4.31C141,215.81,162.19,206.57,166.39,203.76Z"/><path class="a" d="M173.56,74.76c-10.95,21.35-15.48-3.94-15.11,20.44,13.12.82,12.67-2.24,20.32-9l-.68-25.45-15.9-2.16C166.75,66,171.29,59.62,173.56,74.76Z"/><path class="a" d="M83.73,100.24c-10.46.68-13,3.92-16,11.37,10.49-.57,25.34.65,33.45-3.43C97.79,102.48,94.84,99.51,83.73,100.24Z"/><path class="a" d="M172.76,53.61c3.46-3.65,4.77-6.49,3-14.28-1.59-7.26-3-7-6.89-10.46Z"/><path class="a" d="M96.71,96.08c8.33-3.09,3.71.31,9-7.77C98.69,91.46,100,89.81,96.71,96.08Z"/><path class="b" d="M125.76,213.94c4.2-15.16,18.85-84.7,14.23-98-6.54-2.64-72.51,1.59-99.18,1-17.35-.4-6-1.67-10.88,3.12-4.65,7.37,7.79,79.82,10.11,93.46C70,210.6,95.75,213.12,125.76,213.94Z"/><path class="b" d="M12.38,17.13l142.67-2.44C141.61,2.42,104.93,8,83.64,7.66,63.29,7.35,23.35,3.55,12.38,17.13Z"/><path class="b" d="M137.16,225.93c-9.81-10.2-38.61-7.28-56.1-7.82-18.68-.57-41-2.55-52.78,8.19Z"/><path class="c" d="M28.28,226.3c11.79-10.74,34.1-8.76,52.78-8.19,17.49.54,46.29-2.38,56.1,7.82Zm97.48-12.36c-30-.82-55.81-3.34-85.72-.42-2.32-13.64-14.76-86.09-10.11-93.46,4.87-4.79-6.47-3.52,10.88-3.12,26.67.57,92.64-3.66,99.18-1C144.61,129.24,130,198.78,125.76,213.94Zm32.49-113.47c3.15,2.38-2.89,1.67,7.71,2.58,0,22.2,10.18,66-5.7,84.36-6,6.92-10.29,8.25-22.59,8.25,0-24.41,10.29-47.14,10.29-72,0-15-5.3-2.07-.43-13.52.12-.26,4.37-5.5,4.37-5.5C156,101,152.55,102.54,158.25,100.47Zm18-2.24c8.73,18.79,13.49,89.89-9.86,105.53-4.2,2.81-25.43,12.05-33.17,1.76l12.5-4.31c39.23-7.45,31.18-56.86,26.84-89.85C171,99.14,167.63,102.09,176.25,98.23Zm-75.12,10c-8.11,4.08-23,2.86-33.45,3.43,3.09-7.45,5.59-10.69,16-11.37C94.84,99.51,97.79,102.48,101.13,108.18Zm-4.42-12.1c3.29-6.27,2-4.62,9-7.77C100.42,96.39,105,93,96.71,96.08Zm64.12-21.32c2.72-2.75,9.75,4.08,2.86,1.33C163.64,76.06,156.52,79.07,160.83,74.76Zm12.73,0c-2.27-15.14-6.81-8.73-11.37-16.13l15.9,2.16.68,25.45c-7.65,6.72-7.2,9.78-20.32,9C158.08,70.82,162.61,96.11,173.56,74.76Zm2.24-35.43c1.73,7.79.42,10.63-3,14.28l-3.85-24.74C172.85,32.33,174.21,32.07,175.8,39.33ZM7.05,23.85c11.62-1.33,147.68-3.34,150.21-2.07,10.63,5.36-2.16,44.79-4.17,60.63-5.3,41.84-44.84,24.47-45.84,23.22-5.86-12.95,17.15-23.5,20.92-41.75-11.82,3.17-25.54,18.42-34.83,25.73C77.21,102.28,80.47,84.48,60.6,108.8c-4.68,5.73-42.72,10-47.46-22.45C10.22,66.26,5.29,44,7.05,23.85Zm5.33-6.72c11-13.58,50.91-9.78,71.26-9.47,21.29.32,58-5.24,71.41,7Zm12.1,96.21c-7.68,16,7.71,78.09,7.71,102.9-8.9,2.38-7.91,1.41-10.29,10.29,9.84,13.43,37.56,5,59.16,5.13,22,.11,49,1.64,66.9-2.55-2.1-7.86-4.85-8.14-10.29-12.87,19.22,0,30.27-3.55,39.34-14.66,18.88-23.1,12.42-69.76,7.57-96.74-4.14-23,2-17.83,2-30.08,0-7.65-2.58-9.5-4-16.53-1.68-8.13-.17-14.11-1.62-21.54-1.53-7.88-3.74-8.73-9.3-13.86-.56-.48-2.21-1.87-2.72-2.41l-2.44-2.72C158.65,8.09,153.74.18,127.69,1.23c-36,1.45-57-5-102.27,2.44C8.35,6.47.87,13.05.05,31.59c-.6,13.92,4.51,33.22,6,46.17C8.1,95.88,9,109.2,24.48,113.34Z"/><path class="c" d="M31.14,51.6c3.12,3.8-.11,5,14,8-1.7-5.15.68-4.7-5.3-8.24C31.37,46.39,31.29,51.54,31.14,51.6Z"/><path class="c" d="M130.47,72.18c.14.09-2.86,4.88,8.79,1.84,8.08-2.09,4.36-3.06,5.58-4.42C138.72,66.34,136,68.07,130.47,72.18Z"/><path class="c" d="M116.58,55.51c7.94-2.77,9.44-3.68,12.7-11C118.11,45.73,119.24,46.64,116.58,55.51Z"/><path class="c" d="M22.36,74.76c2.07,1.62-4.31,2.44,7.23,3.23,8,.57,3.37-.08,6.74-2.49C30.24,71.67,29.76,70.14,22.36,74.76Z"/><path class="c" d="M19.58,97.89c2.55,1.62-4.08,2.58,7.17,2.35,10.8-.19.57.54,5.41-2.35-4.45-3.54,7.09-3.4-7.37-3C14.59,95.25,22.73,95.51,19.58,97.89Z"/><path class="c" d="M51.41,37.37c1.33,7.77-3.48,1.33,2.44,7.82,2.52,2.75,2.24,1.82,6.35,3.49C58.9,40.69,57.82,39.27,51.41,37.37Z"/><path class="c" d="M97.16,41.62c2.75-1.44,5.56-2.52,7-10.34-2.63,1-5,.11-7.85,4.79C90.59,45.34,96,39.7,97.16,41.62Z"/><path class="c" d="M137,96.84c6.92-1.64,3.77-2.49,5.5-4.7-8.73-2.67-7.77-1.87-12.13,3.57C133,96.59,133,97.81,137,96.84Z"/><path class="c" d="M75.93,38.87c5.78-4.36,5-3.48,2.58-10.43C71.11,32.27,72.5,32,75.93,38.87Z"/><path class="d" d="M19.58,97.89c3.15-2.38-5-2.64,5.21-3,14.46-.45,2.92-.59,7.37,3-4.84,2.89,5.39,2.16-5.41,2.35C15.5,100.47,22.13,99.51,19.58,97.89Zm122.91-5.75c-1.73,2.21,1.42,3.06-5.5,4.7-4,1-4-.25-6.63-1.13C134.72,90.27,133.76,89.47,142.49,92.14ZM22.36,74.76c7.4-4.62,7.88-3.09,14,.74C33,77.91,37.55,78.56,29.59,78,18.05,77.2,24.43,76.38,22.36,74.76Zm108.11-2.58c5.53-4.11,8.25-5.84,14.37-2.58-1.22,1.36,2.5,2.33-5.58,4.42C127.61,77.06,130.61,72.27,130.47,72.18ZM31.14,51.6c.15-.06.23-5.21,8.71-.25,6,3.54,3.6,3.09,5.3,8.24C31,56.65,34.26,55.4,31.14,51.6Zm85.44,3.91c2.66-8.87,1.53-9.78,12.7-11C126,51.83,124.52,52.74,116.58,55.51ZM51.41,37.37c6.41,1.9,7.49,3.32,8.79,11.31-4.11-1.67-3.83-.74-6.35-3.49C47.93,38.7,52.74,45.14,51.41,37.37Zm45.75,4.25c-1.16-1.92-6.57,3.72-.85-5.55,2.87-4.68,5.22-3.77,7.85-4.79C102.72,39.1,99.91,40.18,97.16,41.62ZM78.51,28.44c2.44,7,3.2,6.07-2.58,10.43C72.5,32,71.11,32.27,78.51,28.44ZM7.05,23.85C5.29,44,10.22,66.26,13.14,86.35c4.74,32.4,42.78,28.18,47.46,22.45,19.87-24.32,16.61-6.52,32.74-19.19,9.29-7.31,23-22.56,34.83-25.73-3.77,18.25-26.78,28.8-20.92,41.75,1,1.25,40.54,18.62,45.84-23.22,2-15.84,14.8-55.27,4.17-60.63C154.73,20.51,18.67,22.52,7.05,23.85Z"/></svg>