<svg xmlns="http://www.w3.org/2000/svg" viewBox="0 0 206.51 234.18"><defs><style>.a{fill:#231f1f;}.a,.b,.c,.d,.e,.f,.g,.h{fill-rule:evenodd;}.b{fill:#bbb;}.c{fill:#222325;}.d{fill:#1e4282;}.e{fill:#febf10;}.f{fill:#221f20;}.g{fill:#231e20;}.h{fill:#ef4823;}</style></defs><path class="a" d="M2.66,147.2c7.94,3.52,13.41-.56,18.71-8C12.59,135.38,8.19,138.81,2.66,147.2Z"/><path class="a" d="M106.89,165.91c-5.89-9-9.12-8.53-18.7-13.35C89.43,163.64,95.56,165.69,106.89,165.91Z"/><path class="b" d="M7.31,96.43c5.76,14.43,62.62,50.46,104.29,26.2-.48-28-19.67-31.18-10.12-61,7.51-23.5,16.5-41-16.67-47.4-30.5-5.87-25,23.16-36.68,42.09C37.81,73.11,14.85,80.39,7.31,96.43Z"/><path class="b" d="M74.64,219.2c30.24.57,76.56-3.17,106-8.95-.2-15.25-1.9-20.73-9.21-33.57C140.54,170.25,94.34,197.4,74.64,219.2Z"/><path class="c" d="M56.15,210.93c4.85,7.79,4.37,1.33,0,9.21C52.7,213.82,49.69,218.44,56.15,210.93Zm18.49,8.27c19.7-21.8,65.9-48.95,96.8-42.52,7.31,12.84,9,18.32,9.21,33.57C151.2,216,104.88,219.77,74.64,219.2Zm-8.76-82.54c-3.83,14.46-32.12,14.65-30.53-11.4ZM7.31,96.43c7.54-16,30.5-23.32,40.82-40.11,11.65-18.93,6.18-48,36.68-42.09C118,20.64,109,38.13,101.48,61.63c-9.55,29.82,9.64,33,10.12,61C69.93,146.89,13.07,110.86,7.31,96.43Zm145.93,73.22c-3.68-24.4,74.61-88.72-4.19-144.82-25.63-18.23-29.6-.93-49.61-11.42C127.11-12,182.55,27.84,193.58,55.08c22.25,55.05-15.31,72.59-25.4,114.15ZM0,96.43C6.46,109.3,15.28,116,28.94,120.93c-.2,13.38-4.87,4.93,1,17.46,8.73,18.45,31.15,23.24,43.94-1.42,11.68,5,33.93-2.75,43-11.85,3-24.77-13.38-34.16-12.59-49.89.29-5.33,5.7-18.48,7.46-24.72,3.86-13.83,1.11-19,2.47-26.93,20-8.13,46.31,14,56.38,30.53C194.23,93,152.05,148.71,148.11,159c-7.37,19.13-7.94,11.76-26.05,19.41-22.59,9.53-36.48,26.05-56.15,37.82L63.84,206l-16.7.77,1.11,12L37,220.56l1.45,13.18c5.3,1.42,66.73-1.07,79.17-1,8.19,0,57.12-2.58,65.05-7.08,13.24-7.49,3.26-38-9.41-54.4,6.27-11.31-2.15-1.84,13-27.58,18.73-31.95,29.51-56.92,9.81-96.26C182.72,20.81,150.89,0,120.27,0,101,0,104.88,8.28,88.89.68c-10.94,7.68-1.33,5.1-14,7.6-7.34,1.44-10.71,0-16.69,7.34-7.86,9.58-8.28,22.7-12.62,32.8C36.26,70.07,12.42,71.69,0,96.43Z"/><path class="d" d="M99.44,13.41c20,10.49,24-6.81,49.61,11.42,78.8,56.1.51,120.42,4.19,144.82l14.94-.42c10.09-41.56,47.65-59.1,25.4-114.15C182.55,27.84,127.11-12,99.44,13.41Z"/><path class="e" d="M65.88,136.66l-30.53-11.4C33.76,151.31,62.05,151.12,65.88,136.66Z"/><path class="f" d="M63.92,187.51c1.9-2.95,4.2,3.83,1.7-9.3-1-5.21-1.87-6.15-3.91-9.86C55,173.37,56.21,181.22,63.92,187.51Z"/><path class="g" d="M21.37,176.6c1.08.48-1.44,6.15,6.1-1.5,5.58-5.64,3-3.43,4.59-9.19C11.76,172.26,21.26,176.32,21.37,176.6Z"/><path class="h" d="M56.15,220.14c4.37-7.88,4.85-1.42,0-9.21C49.69,218.44,52.7,213.82,56.15,220.14Z"/></svg>