<?xml version="1.0" encoding="utf-8"?>
<!-- Generator: Adobe Illustrator 24.1.2, SVG Export Plug-In . SVG Version: 6.00 Build 0)  -->
<svg version="1.1" id="Слой_1" xmlns="http://www.w3.org/2000/svg" xmlns:xlink="http://www.w3.org/1999/xlink" x="0px" y="0px"
	 viewBox="0 0 234.2 234.2" style="enable-background:new 0 0 234.2 234.2;" xml:space="preserve">
<style type="text/css">
	.st0{fill-rule:evenodd;clip-rule:evenodd;fill:#231F1F;}
	.st1{fill-rule:evenodd;clip-rule:evenodd;fill:#BBBBBB;}
	.st2{fill-rule:evenodd;clip-rule:evenodd;fill:#222325;}
	.st3{fill-rule:evenodd;clip-rule:evenodd;fill:#1E4282;}
	.st4{fill-rule:evenodd;clip-rule:evenodd;fill:#FEBF10;}
	.st5{fill-rule:evenodd;clip-rule:evenodd;fill:#221F20;}
	.st6{fill-rule:evenodd;clip-rule:evenodd;fill:#231E20;}
	.st7{fill-rule:evenodd;clip-rule:evenodd;fill:#EF4823;}
</style>
<path class="st0" d="M16.5,147.2c7.9,3.5,13.4-0.6,18.7-8C26.4,135.4,22,138.8,16.5,147.2z"/>
<path class="st0" d="M120.7,165.9c-5.9-9-9.1-8.5-18.7-13.4C103.3,163.6,109.4,165.7,120.7,165.9z"/>
<path class="st1" d="M21.1,96.4c5.8,14.4,62.6,50.5,104.3,26.2c-0.5-28-19.7-31.2-10.1-61c7.5-23.5,16.5-41-16.7-47.4
	C68.1,8.4,73.6,37.4,62,56.3C51.6,73.1,28.7,80.4,21.1,96.4z"/>
<path class="st1" d="M88.5,219.2c30.2,0.6,76.6-3.2,106-8.9c-0.2-15.3-1.9-20.7-9.2-33.6C154.4,170.3,108.2,197.4,88.5,219.2z"/>
<path class="st2" d="M70,210.9c4.8,7.8,4.4,1.3,0,9.2C66.5,213.8,63.5,218.4,70,210.9z M88.5,219.2c19.7-21.8,65.9-48.9,96.8-42.5
	c7.3,12.8,9,18.3,9.2,33.6C165,216,118.7,219.8,88.5,219.2z M79.7,136.7c-3.8,14.5-32.1,14.6-30.5-11.4L79.7,136.7z M21.1,96.4
	c7.5-16,30.5-23.3,40.8-40.1c11.6-18.9,6.2-48,36.7-42.1c33.2,6.4,24.2,23.9,16.7,47.4c-9.6,29.8,9.6,33,10.1,61
	C83.8,146.9,26.9,110.9,21.1,96.4z M167.1,169.6c-3.7-24.4,74.6-88.7-4.2-144.8c-25.6-18.2-29.6-0.9-49.6-11.4
	c27.7-25.4,83.1,14.4,94.1,41.7c22.3,55.1-15.3,72.6-25.4,114.2L167.1,169.6z M13.8,96.4c6.5,12.9,15.3,19.6,28.9,24.5
	c-0.2,13.4-4.9,4.9,1,17.5c8.7,18.4,31.2,23.2,43.9-1.4c11.7,5,33.9-2.8,43-11.8c3-24.8-13.4-34.2-12.6-49.9
	c0.3-5.3,5.7-18.5,7.5-24.7c3.9-13.8,1.1-19,2.5-26.9c20-8.1,46.3,14,56.4,30.5c23.6,38.9-18.5,94.6-22.5,104.9
	c-7.4,19.1-7.9,11.8-26.1,19.4c-22.6,9.5-36.5,26.1-56.2,37.8L77.7,206L61,206.8l1.1,12l-11.3,1.8l1.5,13.2c5.3,1.4,66.7-1.1,79.2-1
	c8.2,0,57.1-2.6,65.1-7.1c13.2-7.5,3.3-38-9.4-54.4c6.3-11.3-2.1-1.8,13-27.6c18.7-31.9,29.5-56.9,9.8-96.3
	C196.6,20.8,164.7,0,134.1,0c-19.3,0-15.4,8.3-31.4,0.7c-10.9,7.7-1.3,5.1-14,7.6C81.4,9.7,78,8.3,72,15.6
	c-7.9,9.6-8.3,22.7-12.6,32.8C50.1,70.1,26.3,71.7,13.8,96.4z"/>
<path class="st3" d="M113.3,13.4c20,10.5,24-6.8,49.6,11.4c78.8,56.1,0.5,120.4,4.2,144.8l14.9-0.4c10.1-41.6,47.7-59.1,25.4-114.2
	C196.4,27.8,140.9-12,113.3,13.4z"/>
<path class="st4" d="M79.7,136.7l-30.5-11.4C47.6,151.3,75.9,151.1,79.7,136.7z"/>
<path class="st5" d="M77.8,187.5c1.9-2.9,4.2,3.8,1.7-9.3c-1-5.2-1.9-6.1-3.9-9.9C68.8,173.4,70,181.2,77.8,187.5z"/>
<path class="st6" d="M35.2,176.6c1.1,0.5-1.4,6.1,6.1-1.5c5.6-5.6,3-3.4,4.6-9.2C25.6,172.3,35.1,176.3,35.2,176.6z"/>
<path class="st7" d="M70,220.1c4.4-7.9,4.8-1.4,0-9.2C63.5,218.4,66.5,213.8,70,220.1z"/>
</svg>
