<svg xmlns="http://www.w3.org/2000/svg" viewBox="0 0 217.63 207.62"><defs><style>.a{fill:#bbb;}.a,.b,.c,.d{fill-rule:evenodd;}.c{fill:#fcbe10;}.d{fill:#127274;}</style></defs><path class="a" d="M128.53,116.54l5.61,11.57c3.85,6.15,2.55,4.36,7.09,8.84,6.37,6.35,8.78,10.43,18.31,12.76C168.27,123.15,155.34,111.53,128.53,116.54Z"/><path class="a" d="M23.64,40.46c5.05-8.05,6.38-19-5.89-21.66C15.37,23.08,13.92,25,15,32.5,16.56,43,14.86,38.87,23.64,40.46Z"/><path class="a" d="M153.7,50.16l-1-2.64L142.19,47C155.26,45.9,147.8,46.36,153.7,50.16Z"/><path class="a" d="M158.74,41.42l-.22.15Z"/><path class="a" d="M190.83,42.33l-.45-.57Z"/><path class="a" d="M193.67,59.76l-.8.94Z"/><path class="a" d="M206.62,94.83l-.11.23Z"/><path class="a" d="M161.29,167.14l-.68.91Z"/><path class="b" d="M128.53,116.54c26.81-5,39.74,6.61,31,33.17C150,147.38,147.6,143.3,141.23,137c-4.54-4.48-3.24-2.69-7.09-8.84ZM50.86,8.74l14.06,1c3.62,13.67,3.14,87.74.34,102.22L49.75,94.21ZM43.54,47.89c-6.8-7.49-6.09-23.42-1-30.13C46.72,25.92,45.33,38.73,43.54,47.89ZM15,32.5c-1.08-7.46.37-9.42,2.75-13.7C30,21.47,28.69,32.41,23.64,40.46,14.86,38.87,16.56,43,15,32.5ZM6.15,30.37c-4.76-4.85,2-1.73,2.07-1.76C11.91,26.23,9.1,33.35,6.15,30.37Zm184.68,12-.45-.57,2.49,18.94.8-.94,12.84,35.3.11-.23c4.45,36.2,4.25,66.44,2.07,103-14.37,3.88-34,5.41-48.56.43-.9-16.11,6.1-10.15,1.16-31.13l-.68.91-.79-8.79c13.24-18.17,14.4-44.16-10.86-48.73-25.45-4.59-51.53,6.66-76.19.68L73.11,9.93C96.55,9.9,189,3.38,203.45,9.87,208,23.11,197.41,28.5,190.83,42.33ZM47.37,2.9C41,10.41,37.22,10.78,33.11,18.52L10.75,14c-2.33,1-24.92,16.3,3.34,30.48,8.31,4.19,13.32,2.83,19.22-.65L44.76,56.62c-2.95,25.74-9.55,35,11.31,55.39,12.05,11.73,11.54,6.52,26,5.84,12-.57,25.43.17,37.71-.09,12.13,14.43,12,20,29,35.35,4.57,4.11,4.82,7.71,7.4,19.3,3.6,16.27-5.27,11.09-3.88,28.07,14.46,9.55,48.7,9.55,63.1-.17,9.38-119.8-13.75-125.38-17.95-147.09-3.2-16.67,10.83-21.66,15.88-39.06C205.2-3.08,199.36.21,181.14.32,165.72.41,152-.61,137.37,2,118.69,5.4,69,3.21,47.37,2.9Z"/><path class="b" d="M99.7,71.56c12.21-9.39,15.39-4.68,31.12-4.57,31.38.23,19.73-5.58,23.19,3.23ZM142.19,47l10.52.48,1,2.64c-15,1.55-43,7.11-54.77-1.48Zm16.55-5.62-.22.15-64,2.12c-4.17,14.69-2.83,12.42,9.55,17l-9.89,4.65,2,13L160.67,75l-2.32-15.67L122.2,60.5,160,53.27Z"/><path class="b" d="M93.57,31.56c12.82-6.21,46.41-8,60.72-3.63C147.18,35.05,104.83,33.77,93.57,31.56Zm-5.92-1.84c4.37,15.16,19.81,8.19,34.75,8,13.61-.2,26.22,2.24,37.19-3.57l-.53-13.89c-13.7-.93-26.11-1.19-39.86.45C87.45,24.53,92.55,20.7,87.65,29.72Z"/><path class="c" d="M158.52,41.57l.22-.15L160,53.27,122.2,60.5l36.15-1.13L160.67,75,96.18,78.33l-2-13,9.89-4.65c-12.38-4.53-13.72-2.26-9.55-17ZM87.65,29.72c4.9-9-.2-5.19,31.55-9,13.75-1.64,26.16-1.38,39.86-.45l.53,13.89c-11,5.81-23.58,3.37-37.19,3.57C107.46,37.91,92,44.88,87.65,29.72Zm73,138.33.68-.91c4.94,21-2.06,15-1.16,31.13,14.6,5,34.19,3.45,48.56-.43,2.18-36.57,2.38-66.81-2.07-103l-.11.23-12.84-35.3-.8.94-2.49-18.94.45.57C197.41,28.5,208,23.11,203.45,9.87,189,3.38,96.55,9.9,73.11,9.93l-.34,101.28c24.66,6,50.74-5.27,76.19-.68,25.26,4.57,24.1,30.56,10.86,48.73Z"/><path class="c" d="M93.57,31.56c11.26,2.21,53.61,3.49,60.72-3.63C140,23.57,106.39,25.35,93.57,31.56Z"/><path class="c" d="M153.7,50.16c-5.9-3.8,1.56-4.26-11.51-3.12L98.93,48.68C110.67,57.27,138.7,51.71,153.7,50.16Z"/><path class="c" d="M99.7,71.56,154,70.22c-3.46-8.81,8.19-3-23.19-3.23C115.09,66.88,111.91,62.17,99.7,71.56Z"/><path class="c" d="M43.54,47.89c1.79-9.16,3.18-22-1-30.13C37.45,24.47,36.74,40.4,43.54,47.89Z"/><path class="c" d="M6.15,30.37c2.95,3,5.76-4.14,2.07-1.76C8.2,28.64,1.39,25.52,6.15,30.37Z"/><path class="d" d="M49.75,94.21l15.51,17.71c2.8-14.48,3.28-88.55-.34-102.22l-14.06-1Z"/></svg>