<svg xmlns="http://www.w3.org/2000/svg" viewBox="0 0 201.69 241.07"><defs><style>.a{fill:#010202;}.a,.b,.c,.d,.e,.f{fill-rule:evenodd;}.b{fill:#117072;}.c{fill:#ef4823;}.d{fill:#fdbe10;}.e{fill:#70c397;}.f{fill:#bababa;}</style></defs><path class="a" d="M90.82,222.41c5.56,0,17.12-.85,21.77-.36,10.18,1,9.33-.8,9.24,12.55l-30.55,1.17ZM16.19,153.53c29.87-2.46,22.7-.05,23.89,7.34-1.13.77-2.83,5.22-14.45,1.28C16.41,159,18,155.8,16.19,153.53Zm151.79,11-.31-11.65,20.15-4.37a13.56,13.56,0,0,1,5.67,1.68C187.6,159.68,179.49,162.57,168,164.53ZM43,37.94c8.19-17,38.15-17.24,58.45-17.55,83.59-1.22,50.37,32.65,56.64,100.35,7.14,77.21,10.09,93.88-56.55,95.89-28.21.88-47.2-3-53.61-26.28C43.31,173.35,43,63.33,43,37.94Zm-4.45,72.34C25,108.63,20.44,107.75,15.11,96.73l22.68,0ZM192.76,94.06c-3.72,12.45-14.06,14.71-29.54,15.85l-.17-13.64ZM37.42,40.63V46c-3.74,2.61,3.71,2.24-8,3.06-7.91.54-15.51-3.18-20.84-7.8C23.56,39.78,30.19,36.12,37.42,40.63Zm153.21-7.74c-3.17,13.63-9.84,17.6-25,19.16L163,35.19ZM49,22C61.68,7.55,81,8.51,101.57,7.43c19.24-1,42.26-.9,51.61,14.57C112.25,9.25,90.17,12,49,22ZM34.75,32.61c-16.27,0-19.5,2.66-34.75,2.66C1.45,52.68,20.92,56.64,37.42,56.64V91.4H8c.68,30.84,32.06,16.89,32.06,34.75v21.37H16c-14.42,0-6.43,12.62-.85,16.7s16.9,6.69,24.89,7.34c0,33.11,12.79,50.8,45.44,50.8v18.71H128.3c0-38.13,6.94-9.81,28.94-32.55,7.79-8.05,11.14-21.4,11.14-37,25.62-5.95,53-29.39,13.35-29.39-16.3,0-16,13-16-26.71,9.41,0,13.18-.42,20.27-3.8,5-2.35,11-6.2,13.13-11.59,6.52-16.87-21-11.34-36.09-11.34l3.35-29.34c18.48-1.67,30.95-11.65,31.4-32.14H163C154.2-10.62,77.87-.16,59.75,6.84,42.52,13.47,42.35,18.23,34.75,32.61Z"/><path class="a" d="M83.14,187.58c-2.64-20.13,3.66-32.46,23.75-33.08,21.6-.68,26.51,13.91,24,34.1C111.09,203.48,99.58,199.94,83.14,187.58Zm-7.2-5.3c4.82,30.89,71.15,30.81,61.57-11.88C129.2,133.29,70.19,145.45,75.94,182.28Z"/><path class="a" d="M126.14,132.75C75.37,161,54,88.34,118.2,96.92,129,110,132,113.19,126.14,132.75ZM97.82,89.67c-38.35,8-33.3,61.17,14.09,54.71C150.09,139.19,139.38,81,97.82,89.67Z"/><path class="a" d="M75.23,65.32C73.9,24.05,117.89,28.18,124.38,50c5.05,17-3.37,26-17.74,27.72C88.72,79.86,84.36,74.5,75.23,65.32ZM94.88,29.57c-39.35,8.25-34.39,60.1,14.62,53.69C144.17,78.7,137.59,20.62,94.88,29.57Z"/><path class="b" d="M75.94,182.28c-5.75-36.83,53.26-49,61.57-11.88C147.09,213.09,80.76,213.17,75.94,182.28ZM97.82,89.67c41.56-8.7,52.27,49.52,14.09,54.71C64.52,150.84,59.47,97.69,97.82,89.67Zm-2.94-60.1c42.71-8.95,49.29,49.13,14.62,53.69C60.49,89.67,55.53,37.82,94.88,29.57ZM43,37.94C43,63.33,43.31,173.35,48,190.35c6.41,23.3,25.4,27.16,53.61,26.28,66.64-2,63.69-18.68,56.55-95.89C151.85,53,185.07,19.17,101.48,20.39,81.18,20.7,51.22,20.9,43,37.94Z"/><path class="b" d="M112.59,222.05c-4.65-.49-16.21.31-21.77.36l.46,13.36,30.55-1.17C121.92,221.25,122.77,223.07,112.59,222.05Z"/><path class="b" d="M163,35.19l2.64,16.86c15.13-1.56,21.8-5.53,25-19.16Z"/><path class="b" d="M163.05,96.27l.17,13.64c15.48-1.14,25.82-3.4,29.54-15.85Z"/><path class="b" d="M168,164.53c11.51-2,19.62-4.85,25.51-14.34a13.56,13.56,0,0,0-5.67-1.68l-20.15,4.37Z"/><path class="b" d="M38.58,110.28l-.79-13.53-22.68,0C20.44,107.75,25,108.63,38.58,110.28Z"/><path class="b" d="M8.56,41.22c5.33,4.62,12.93,8.34,20.84,7.8,11.73-.82,4.28-.45,8-3.06V40.63C30.19,36.12,23.56,39.78,8.56,41.22Z"/><path class="b" d="M16.19,153.53c1.81,2.27.22,5.47,9.44,8.62,11.62,3.94,13.32-.51,14.45-1.28C38.89,153.48,46.06,151.07,16.19,153.53Z"/><path class="c" d="M75.23,65.32c9.13,9.18,13.49,14.54,31.41,12.41C121,76,129.43,67,124.38,50,117.89,28.18,73.9,24.05,75.23,65.32Z"/><path class="d" d="M126.14,132.75C132,113.19,129,110,118.2,96.92,54,88.34,75.37,161,126.14,132.75Z"/><path class="e" d="M83.14,187.58c16.44,12.36,28,15.9,47.74,1,2.52-20.19-2.39-34.78-24-34.1C86.8,155.12,80.5,167.45,83.14,187.58Z"/><path class="f" d="M49,22c41.13-10,63.21-12.73,104.14,0C143.83,6.53,120.81,6.41,101.57,7.43,81,8.51,61.68,7.55,49,22Z"/></svg>