<?xml version="1.0" encoding="utf-8"?>
<!-- Generator: Adobe Illustrator 24.1.2, SVG Export Plug-In . SVG Version: 6.00 Build 0)  -->
<svg version="1.1" id="Слой_1" xmlns="http://www.w3.org/2000/svg" xmlns:xlink="http://www.w3.org/1999/xlink" x="0px" y="0px"
	 viewBox="0 0 241.1 241.1" style="enable-background:new 0 0 241.1 241.1;" xml:space="preserve">
<style type="text/css">
	.st0{fill-rule:evenodd;clip-rule:evenodd;fill:#010202;}
	.st1{fill-rule:evenodd;clip-rule:evenodd;fill:#117072;}
	.st2{fill-rule:evenodd;clip-rule:evenodd;fill:#EF4823;}
	.st3{fill-rule:evenodd;clip-rule:evenodd;fill:#FDBE10;}
	.st4{fill-rule:evenodd;clip-rule:evenodd;fill:#70C397;}
	.st5{fill-rule:evenodd;clip-rule:evenodd;fill:#BABABA;}
</style>
<path class="st0" d="M110.5,222.4c5.6,0,17.1-0.9,21.8-0.4c10.2,1,9.3-0.8,9.2,12.6l-30.5,1.2L110.5,222.4z M35.9,153.5
	c29.9-2.5,22.7-0.1,23.9,7.3c-1.1,0.8-2.8,5.2-14.5,1.3C36.1,159,37.7,155.8,35.9,153.5z M187.7,164.5l-0.3-11.6l20.1-4.4
	c2,0.1,3.9,0.7,5.7,1.7C207.3,159.7,199.2,162.6,187.7,164.5L187.7,164.5z M62.7,37.9c8.2-17,38.2-17.2,58.5-17.5
	c83.6-1.2,50.4,32.7,56.6,100.3c7.1,77.2,10.1,93.9-56.6,95.9c-28.2,0.9-47.2-3-53.6-26.3C63,173.4,62.7,63.3,62.7,37.9z
	 M58.2,110.3c-13.5-1.7-18.1-2.5-23.4-13.5h22.7L58.2,110.3z M212.4,94.1c-3.7,12.4-14.1,14.7-29.5,15.8l-0.2-13.6L212.4,94.1z
	 M57.1,40.6V46c-3.7,2.6,3.7,2.2-8,3.1c-7.9,0.5-15.5-3.2-20.8-7.8C43.3,39.8,49.9,36.1,57.1,40.6z M210.3,32.9
	c-3.2,13.6-9.8,17.6-25,19.2l-2.6-16.9L210.3,32.9z M68.7,22c12.7-14.4,32-13.5,52.6-14.6c19.2-1,42.3-0.9,51.6,14.6
	C131.9,9.3,109.9,12,68.7,22z M54.4,32.6c-16.3,0-19.5,2.7-34.8,2.7c1.5,17.4,20.9,21.4,37.4,21.4v34.8H27.7
	c0.7,30.8,32.1,16.9,32.1,34.8v21.4H35.7c-14.4,0-6.4,12.6-0.8,16.7s16.9,6.7,24.9,7.3c0,33.1,12.8,50.8,45.4,50.8v18.7H148
	c0-38.1,6.9-9.8,28.9-32.6c7.8-8.1,11.1-21.4,11.1-37c25.6-5.9,53-29.4,13.4-29.4c-16.3,0-16,13-16-26.7c9.4,0,13.2-0.4,20.3-3.8
	c5-2.3,11-6.2,13.1-11.6c6.5-16.9-21-11.3-36.1-11.3l3.4-29.3c18.5-1.7,30.9-11.6,31.4-32.1h-34.8C173.9-10.6,97.6-0.2,79.4,6.8
	C62.2,13.5,62,18.2,54.4,32.6z"/>
<path class="st0" d="M102.8,187.6c-2.6-20.1,3.7-32.5,23.8-33.1c21.6-0.7,26.5,13.9,24,34.1C130.8,203.5,119.3,199.9,102.8,187.6z
	 M95.6,182.3c4.8,30.9,71.1,30.8,61.6-11.9C148.9,133.3,89.9,145.4,95.6,182.3z"/>
<path class="st0" d="M145.8,132.8c-50.8,28.3-72.1-44.4-7.9-35.8C148.7,110,151.7,113.2,145.8,132.8z M117.5,89.7
	c-38.3,8-33.3,61.2,14.1,54.7C169.8,139.2,159.1,81,117.5,89.7z"/>
<path class="st0" d="M94.9,65.3C93.6,24,137.6,28.2,144.1,50c5.1,17-3.4,26-17.7,27.7C108.4,79.9,104.1,74.5,94.9,65.3z M114.6,29.6
	c-39.3,8.3-34.4,60.1,14.6,53.7C163.9,78.7,157.3,20.6,114.6,29.6z"/>
<path class="st1" d="M95.6,182.3c-5.8-36.8,53.3-49,61.6-11.9C166.8,213.1,100.5,213.2,95.6,182.3z M117.5,89.7
	c41.6-8.7,52.3,49.5,14.1,54.7C84.2,150.8,79.2,97.7,117.5,89.7z M114.6,29.6c42.7-9,49.3,49.1,14.6,53.7
	C80.2,89.7,75.2,37.8,114.6,29.6z M62.7,37.9c0,25.4,0.3,135.4,5,152.4c6.4,23.3,25.4,27.2,53.6,26.3c66.6-2,63.7-18.7,56.6-95.9
	C171.5,53,204.8,19.2,121.2,20.4C100.9,20.7,70.9,20.9,62.7,37.9z"/>
<path class="st1" d="M132.3,222.1c-4.7-0.5-16.2,0.3-21.8,0.4l0.5,13.4l30.5-1.2C141.6,221.3,142.5,223.1,132.3,222.1z"/>
<path class="st1" d="M182.7,35.2l2.6,16.9c15.1-1.6,21.8-5.5,25-19.2L182.7,35.2z"/>
<path class="st1" d="M182.7,96.3l0.2,13.6c15.5-1.1,25.8-3.4,29.5-15.8L182.7,96.3z"/>
<path class="st1" d="M187.7,164.5c11.5-2,19.6-4.9,25.5-14.3c-1.7-1-3.7-1.5-5.7-1.7l-20.1,4.4L187.7,164.5z"/>
<path class="st1" d="M58.3,110.3l-0.8-13.5H34.8C40.1,107.8,44.7,108.6,58.3,110.3z"/>
<path class="st1" d="M28.3,41.2c5.3,4.6,12.9,8.3,20.8,7.8c11.7-0.8,4.3-0.5,8-3.1v-5.3C49.9,36.1,43.3,39.8,28.3,41.2z"/>
<path class="st1" d="M35.9,153.5c1.8,2.3,0.2,5.5,9.4,8.6c11.6,3.9,13.3-0.5,14.5-1.3C58.6,153.5,65.8,151.1,35.9,153.5z"/>
<path class="st2" d="M94.9,65.3c9.1,9.2,13.5,14.5,31.4,12.4C140.7,76,149.1,67,144.1,50C137.6,28.2,93.6,24,94.9,65.3z"/>
<path class="st3" d="M145.8,132.8c5.9-19.6,2.9-22.8-7.9-35.8C73.7,88.3,95.1,161,145.8,132.8z"/>
<path class="st4" d="M102.8,187.6c16.4,12.4,28,15.9,47.7,1c2.5-20.2-2.4-34.8-24-34.1C106.5,155.1,100.2,167.4,102.8,187.6z"/>
<path class="st5" d="M68.7,22c41.1-10,63.2-12.7,104.1,0c-9.3-15.5-32.3-15.6-51.6-14.6C100.7,8.5,81.4,7.6,68.7,22z"/>
</svg>
