<svg xmlns="http://www.w3.org/2000/svg" viewBox="0 0 247.52 245.46"><defs><style>.a,.b,.c,.d{fill-rule:evenodd;}.b{fill:#bbb;}.c{fill:#fcbe10;}.d{fill:#c46528;}</style></defs><path class="a" d="M50.48,202.19l-4.56-12.87c6.86-10.17,20.32-27.52,30.81-31.8l5.53,7.68C74.32,180,59.47,181,57.63,199.67c10.26-4.25,18.62-20.72,30.16-27.1,11.68,7.43,25.08,15.62,31.46,27.13-7.11,24.91-84.44,47.79-102.19,35.88C6.74,228.7,5.92,184.19,8.84,171.69c3.55-15.05,16.3-38.78,30.64-44C49.89,131.67,60,145.1,68.23,153.55,63.07,162.14,19.59,197.57,50.48,202.19ZM79.6,151.45c8.5-12.53,88.89-91.25,98.56-95.64,8.3,8.56-5.48,18.09-14.4,27.58-24.3,25.83-49.61,53.75-76.17,77.3ZM186.66,52.64c-12-3.75-20.55-1.34-21.52-18.71-.59-11,6.55-19.65,13.61-26.19C199.7,4.9,232,25.79,239.92,44.5,230.14,67.66,194.68,81.44,186.66,52.64Zm-19.3,1.9L95,124.27c-8.42,8.36-14.6,17.74-22.48,24.26-9.3-9.18-21.83-28.12-35.66-26.27C13.41,128.69,4.19,163.07.4,184.84c-1.73,10,2.66,30.19,4.53,41.5,6.69,40.23,87.62,6.35,106.3-5.67,34.64-22.28-.71-38.89-18.48-52.75,2.55-9.47,11.68-15.67,22.28-26.28,9.61-9.61,15.05-14.08,25.37-22.73,15.53-13,32.23-40,45.89-50.31,19.25,5.21,37.53,17.51,61.23-22.09-7.65-17.06-5.84-16.72-22-27.41-30.84-20.41-47.71-29.65-63.1-1.05C154.68,32.48,158.34,41.55,167.36,54.54Z"/><path class="a" d="M184.53,29l36,19.16c-2.63,2.27,3.8,0-3.77,3.06C202.22,57,183,45.75,184.53,29Zm2.13,23.67c20,5.35,28.69,12.84,46.09-5.3-10-8.4-13.63-9.16-26.93-11.29l-4.08-9.12c-14.29.87-11.62-4.26-15.53-8.65-3.63-4.11-.32-1.39-4.88-3C171.27,36.11,178.58,36.71,186.66,52.64Z"/><path class="b" d="M50.48,202.19c-30.89-4.62,12.59-40.05,17.75-48.64C60,145.1,49.89,131.67,39.48,127.73c-14.34,5.18-27.09,28.91-30.64,44-2.92,12.5-2.1,57,8.22,63.89,17.75,11.91,95.08-11,102.19-35.88-6.38-11.51-19.78-19.7-31.46-27.13-11.54,6.38-19.9,22.85-30.16,27.1C59.47,181,74.32,180,82.26,165.2l-5.53-7.68c-10.49,4.28-24,21.63-30.81,31.8Z"/><path class="c" d="M186.66,52.64c-8.08-15.93-15.39-16.53-5.33-37.39,4.56,1.64,1.25-1.08,4.88,3,3.91,4.39,1.24,9.52,15.53,8.65l4.08,9.12c13.3,2.13,16.92,2.89,26.93,11.29C215.35,65.48,206.67,58,186.66,52.64Zm0,0c8,28.8,43.48,15,53.26-8.14C232,25.79,199.7,4.9,178.75,7.74c-7.06,6.54-14.2,15.16-13.61,26.19C166.11,51.3,174.61,48.89,186.66,52.64Z"/><path class="d" d="M79.6,151.45l8,9.24c26.56-23.55,51.87-51.47,76.17-77.3,8.92-9.49,22.7-19,14.4-27.58C168.49,60.2,88.1,138.92,79.6,151.45Z"/></svg>