<svg xmlns="http://www.w3.org/2000/svg" viewBox="0 0 230.45 214.92"><defs><style>.a{fill:#126f71;}.a,.b,.c,.d,.e,.f,.g,.h,.i{fill-rule:evenodd;}.b{fill:#127072;}.c{fill:#010101;}.d{fill:#127173;}.e{fill:#010202;}.f{fill:#14b3b5;}.g{fill:#d3e2e2;}.h{fill:#084e50;}.i{fill:#109799;}</style></defs><path class="a" d="M135,19.23c9.16,9.47,42.29,4.34,51.93-3.15-2.27-14.4-9.66-10-23-7.37C153.89,10.67,141.27,10.84,135,19.23Z"/><path class="a" d="M175.26,139.48c5.53,13.29,38.24,8.53,48.64,2.18l-2.35-12C211.18,131,180.62,134.46,175.26,139.48Z"/><path class="b" d="M20.6,17l4.76,9.53c13.47,3.37,44.88,5.84,54-4.59-2.87-6.92.22-6.61-11.82-8C53.29,12.23,26.55,8.88,20.6,17Z"/><path class="b" d="M110.49,35.25c5.47-18.06,2.15-3.43,8.39-16.36C106.61,15.74,104,12.68,94,21.9c5.13,12.89,7.85,2.15,12.73,21.26Z"/><path class="c" d="M185.21,200.53l-3-5.61,5.75,3.29c9.95-2,7.91-1.59,15.25-8.7l.77-15.42C234.67,201.1,194.54,219.64,185.21,200.53Zm2.61-9.49c1.56-9.64,1.84-10.6,10.34-13.95C197.77,188.15,198.22,188.52,187.82,191ZM204,174.09l-5.28-7.43Zm18.51,16.18c-2.1-7.68-15.34-28.63-24.3-32.31-5.35,5-8.22,13.89-13.63,21.12C154.85,218.73,221.61,229.73,222.46,190.27Z"/><path class="c" d="M135,19.23c6.32-8.39,18.94-8.56,28.94-10.52,13.33-2.6,20.72-7,23,7.37C177.24,23.57,144.11,28.7,135,19.23Zm-6-5.36,1.9,13.52c14.23,6,45.73.52,59.56-2.83,5-20.81,3.4-30-32.06-21.29C144.45,6.67,139.2,4.8,128.91,13.87Z"/><path class="d" d="M133.25,64.22l7.23,41.67c58.53,4.11,30,13.32,47.22,22.93l25.63-3.26c1.67-11.79-3-52-12-58.62C189.72,58.35,149.18,63.65,133.25,64.22Z"/><path class="d" d="M9.46,73.46C5.66,85.25,3.71,102.77,13,111.24c15.25,5.08,56.57-.19,74.43-2.55l-4.82-37.3C66.18,73,19.13,68.78,9.46,73.46Z"/><path class="d" d="M90.59,69.06c-2.27,11.06.4,31.41,6.12,41,11.57,6.92,24.32,4.82,34.36-2.78,3-17.32,1.08-29.93-7.12-45.15C109.33,68.53,105.64,65.75,90.59,69.06Z"/><path class="e" d="M175.26,139.48c5.36-5,35.92-8.45,46.29-9.78l2.35,12C213.5,148,180.79,152.77,175.26,139.48Zm-165.8-66c9.67-4.68,56.72-.43,73.16-2.07l4.82,37.3c-17.86,2.36-59.18,7.63-74.43,2.55C3.71,102.77,5.66,85.25,9.46,73.46Zm81.13-4.4c15-3.31,18.74-.53,33.36-6.91,8.2,15.22,10.12,27.83,7.12,45.15-10,7.6-22.79,9.7-34.36,2.78C91,100.47,88.32,80.12,90.59,69.06Zm42.66-4.84c15.93-.57,56.47-5.87,68.09,2.72,9,6.66,13.66,46.83,12,58.62l-25.63,3.26C170.44,119.21,199,110,140.48,105.89Zm-23-12.93c-11.6,1-14.83,7.09-21.41,13.38-19.9,0-27.12,3.6-46,.54C24.17,62.2,15,63.28.62,72.66c0,18.06-5.25,40.85,14.82,46.66,9.7,2.84,47.65-.79,58.43-2.83,25.73-4.85,26.5,12,54,.56,15-6.2,39.74-8,49.18,6.41-2.5,9.19-2.44,5.44-8.25,13.13l2.15,13.74c14.89,6.35,46.12,3.32,59.53-2.83V128.79l-10.69-8c0-77-23.92-64.38-72.22-64.18C129.68,56.65,125.31,61.78,110.21,51.29Z"/><path class="e" d="M106.75,43.16C101.87,24.05,99.15,34.79,94,21.9c10-9.22,12.59-6.16,24.86-3-6.24,12.93-2.92-1.7-8.39,16.36ZM79.34,21.9c-9.1,10.43-40.51,8-54,4.59L20.6,17c5.95-8.08,32.69-4.73,46.92-3.09C79.56,15.29,76.47,15,79.34,21.9Zm30.87,29.39,8.07-2.47c-.08-17.46-1.84-10.54,8.93-28.94C116,4.8,99.24,7.52,88.12,18.52c-.31-.37-.79-1.56-.9-1.19s-.8-1-1-1.25C74.38,3.1,32.65,1.77,14,11.21c0,39.09,64,23.19,74.8,16,9.73,14.8,5.79-.54,12.48,19.62Z"/><path class="f" d="M187.93,198.21l-2.72,2.32c9.33,19.11,49.46.57,18.74-26.44l-.77,15.42C195.84,196.62,197.88,196.2,187.93,198.21Z"/><path class="g" d="M187.82,191c10.4-2.52,10-2.89,10.34-13.95C189.66,180.44,189.38,181.4,187.82,191Z"/><polygon class="h" points="185.21 200.53 187.93 198.21 182.18 194.92 185.21 200.53"/><path class="i" d="M204,174.09l-5.28-7.43Z"/></svg>