<?xml version="1.0" encoding="utf-8"?>
<!-- Generator: Adobe Illustrator 24.1.2, SVG Export Plug-In . SVG Version: 6.00 Build 0)  -->
<svg version="1.1" id="Слой_1" xmlns="http://www.w3.org/2000/svg" xmlns:xlink="http://www.w3.org/1999/xlink" x="0px" y="0px"
	 viewBox="0 0 242.7 242.7" style="enable-background:new 0 0 242.7 242.7;" xml:space="preserve">
<style type="text/css">
	.st0{fill-rule:evenodd;clip-rule:evenodd;fill:#73CACD;}
	.st1{fill-rule:evenodd;clip-rule:evenodd;fill:#127173;}
	.st2{fill-rule:evenodd;clip-rule:evenodd;fill:#ED4723;}
	.st3{fill-rule:evenodd;clip-rule:evenodd;}
	.st4{fill-rule:evenodd;clip-rule:evenodd;fill:#FCBE10;}
	.st5{fill-rule:evenodd;clip-rule:evenodd;fill:#040300;}
	.st6{fill-rule:evenodd;clip-rule:evenodd;fill:#6FC4C6;}
	.st7{fill-rule:evenodd;clip-rule:evenodd;fill:#010303;}
	.st8{fill-rule:evenodd;clip-rule:evenodd;fill:#E94722;}
	.st9{fill-rule:evenodd;clip-rule:evenodd;fill:#6FC5C8;}
	.st10{fill-rule:evenodd;clip-rule:evenodd;fill:#6EC2C5;}
</style>
<path class="st0" d="M27.9,128.9L52,130c2.9-12,4.1-24.1,1.2-34.2C40.4,98.2,30.9,117.2,27.9,128.9z"/>
<path class="st0" d="M6.8,173.5c3.2-3.8,2.3,1,3.4-5.7c0.8-4.6,0.1-3.2-0.4-7.4C5.9,166.5,7.1,164.5,6.8,173.5z"/>
<path class="st1" d="M177.3,198.6c-6.1-10.3,5.8-21.9,20.1-14.6C205.5,198.9,190.1,204.3,177.3,198.6z M161.3,194.7
	c5.5,27.2,54.2,22.3,52.2-5.1C211.5,163.1,154.4,160.6,161.3,194.7L161.3,194.7z"/>
<path class="st1" d="M65.6,198.1c-9.2-17.8,27.9-27.1,20.2,0C76.2,201.7,75.1,203.4,65.6,198.1z M50.4,178.5
	c-2.6,17.1,0.9,28.2,15.4,33c13.7,4.5,27.1-1.5,32.3-9.4C114.2,177.6,80.3,160.5,50.4,178.5z"/>
<path class="st2" d="M22.9,134.5c-3.8-11.3,6.9-25.6,12.8-34.6c21.1-32.6,35.1,13.1,19.3,35.9L22.9,134.5z M39.5,190.5
	c0.4-0.7,0.8-2.5,1-2.1c0.6,1.6,1.8-10,8.7-16.2c4.4-4,11.1-5.4,16.8-9.5l1.1-79.8C45,81.7,35,80.4,26.6,98.7
	c-38.9,85.3,6.1,47.5-13.4,77.9c-2.7,4.3-11.4,7.8,1.5,13.3C21.8,192.9,32,191.6,39.5,190.5L39.5,190.5z"/>
<path class="st2" d="M98.5,169.7c2.7,4.8,4.6,7.2,6.8,12.7l49.8-0.8c2.9-7.6,0.5-5,6.4-10.7l-49.8-1.6L98.5,169.7z"/>
<path class="st3" d="M50.4,178.5c30-17.9,63.9-0.8,47.6,23.6c-5.2,7.9-18.6,13.9-32.3,9.4C51.3,206.6,47.8,195.6,50.4,178.5z
	 M161.4,194.7c-6.9-34,50.2-31.6,52.2-5.1C215.6,216.9,166.8,221.9,161.4,194.7L161.4,194.7z M98.5,169.7l13.3-0.4l49.8,1.6
	c-5.9,5.6-3.5,3.1-6.4,10.7l-49.8,0.8C103.1,176.9,101.2,174.5,98.5,169.7L98.5,169.7z M10.2,167.8c-1.1,6.7-0.3,2-3.4,5.7
	c0.3-9-0.9-7,3-13.1C10.3,164.6,11,163.2,10.2,167.8z M209.3,169.4c10.3-0.9,15.3-2.6,23.2,0.6l2.7,11.5l-16.6-0.1
	C213.6,175.6,212.6,174.4,209.3,169.4z M117.1,111.8c25.7,6,48.2,29.8,89.1,47.1l-110.5,3.6C104.3,146.3,109.2,128.3,117.1,111.8z
	 M39.5,190.5c-7.5,1.2-17.7,2.4-24.8-0.6c-12.9-5.5-4.2-9-1.5-13.3c19.5-30.4-25.5,7.4,13.4-77.9C35,80.4,45,81.7,67.1,82.8
	l-1.2,79.8c-5.8,4.1-12.4,5.4-16.8,9.5c-6.8,6.2-8,17.9-8.7,16.2C40.3,187.9,39.9,189.8,39.5,190.5z M100.9,119.7
	c5-16,2.3-11.1,8.2-12.7c2.5,5.6-15.4,53.4-25.8,57.4L100.9,119.7z M93.7,92.5c10.3-16.6,36.3-49,50.2-61
	c17,5.9,61.2,30.5,66.2,46.2c8.1,25.2-4,18.9,15.1,40.8c12,13.8,13.1,19.1,6,40.6c-23.4-0.5-55.2-22.4-70-32.6
	C142.7,113.7,115,103.2,93.7,92.5z M85,95.8c10,2.6,3.5,2.7,13.4,5.3c-0.3,12-15,51-24.1,61.5V77.1c-24.4,0-38.7-7.1-50.8,13.3
	l-17.8,41c-3,8.9-7.7,41.2-4.8,51.1c5.4,18.9,21.8,14.9,44.1,14.9c2.4,28.9,60.9,31.4,64.1-8h45.4c0.9,40.6,63.6,38.7,66.8,0
	c12.8,0,11.1-1.8,21.4-2.7c0-14.3-4-16.7-4.4-24.4c-0.4-8.5,4.4-11,4.4-23.7c0-14.5-14.3-23.2-20.4-33
	c-13.4-21.6,15.1-31.4-43.7-63.2c-8.7-4.8-25.9-16.4-34.8-18.8c-6.3,4.3-11.8,9.6-16.4,15.6c-4.7,6-9.7,11.7-15,17.1L85,95.8z"/>
<path class="st3" d="M68.9,191c3.3-3.8,8.1-4.2,12.8-1.6c-2.3,5,3.4,3.8-5,5.4C64.8,197.1,69.8,191.8,68.9,191z M65.6,198.1
	c9.5,5.2,10.6,3.6,20.2,0C93.5,171,56.4,180.3,65.6,198.1z"/>
<path class="st4" d="M93.7,92.5c21.3,10.8,49,21.3,67.5,34.1c14.8,10.2,46.7,32.1,70.1,32.6c7-21.5,5.9-26.8-6-40.6
	c-19.1-21.9-7-15.6-15.1-40.8c-5-15.8-49.2-40.3-66.2-46.2C130,43.5,104,75.8,93.7,92.5z"/>
<path class="st5" d="M27.9,128.9c3-11.7,12.5-30.6,25.2-33.1c3,10.1,1.7,22.3-1.2,34.2L27.9,128.9z M22.9,134.5l32,1.3
	c15.9-22.8,1.8-68.5-19.3-35.9C29.8,108.9,19,123.1,22.9,134.5z"/>
<path class="st6" d="M83.3,164.4c10.5-4,28.3-51.8,25.8-57.4c-5.9,1.6-3.2-3.4-8.2,12.7L83.3,164.4z"/>
<path class="st7" d="M180.9,194.9c3.2-6.9,5.9-9.4,12.5-5.5C189.7,197.5,194.6,194.8,180.9,194.9z M177.3,198.6
	c12.8,5.7,28.1,0.3,20.1-14.6C183.1,176.7,171.3,188.4,177.3,198.6L177.3,198.6z"/>
<path class="st8" d="M209.3,169.4c3.3,5,4.3,6.2,9.4,12l16.6,0.1l-2.7-11.5C224.6,166.8,219.6,168.5,209.3,169.4z"/>
<path class="st9" d="M68.9,191c0.9,0.9-4.1,6.1,7.8,3.8c8.4-1.6,2.7-0.5,5-5.4C77,186.7,72.3,187.1,68.9,191z"/>
<path class="st10" d="M180.9,194.9c13.6,0,8.7,2.6,12.5-5.5C186.8,185.5,184.1,187.9,180.9,194.9z"/>
</svg>
