<svg xmlns="http://www.w3.org/2000/svg" viewBox="0 0 242.73 195.47"><defs><style>.a{fill:#73cacd;}.a,.b,.c,.d,.e,.f,.g,.h,.i,.j,.k{fill-rule:evenodd;}.b{fill:#127173;}.c{fill:#ed4723;}.e{fill:#fcbe10;}.f{fill:#040300;}.g{fill:#6fc4c6;}.h{fill:#010303;}.i{fill:#e94722;}.j{fill:#6fc5c8;}.k{fill:#6ec2c5;}</style></defs><path class="a" d="M27.92,105.25,52,106.36c2.89-12,4.14-24.1,1.16-34.22C40.39,74.61,30.9,93.57,27.92,105.25Z"/><path class="a" d="M6.77,149.9c3.18-3.75,2.3,1,3.43-5.7.77-4.62.12-3.18-.45-7.43C5.9,142.87,7.09,140.88,6.77,149.9Z"/><path class="b" d="M177.33,175c-6.06-10.26,5.76-21.88,20.07-14.62C205.48,175.24,190.12,180.65,177.33,175Zm-16-3.94c5.5,27.22,54.23,22.25,52.16-5.13C211.49,139.49,154.43,137,161.32,171Z"/><path class="b" d="M65.59,174.5c-9.15-17.83,27.87-27.13,20.24,0C76.19,178.07,75.09,179.74,65.59,174.5ZM50.37,154.83c-2.61,17.12.94,28.2,15.36,33,13.7,4.54,27.08-1.53,32.26-9.38C114.24,154,80.33,136.91,50.37,154.83Z"/><path class="c" d="M22.85,110.83c-3.8-11.31,6.91-25.59,12.78-34.63,21.09-32.57,35.15,13.12,19.25,35.88Zm16.64,56c.39-.68.79-2.52,1-2.13.62,1.62,1.84-10,8.65-16.24,4.42-4,11.08-5.39,16.83-9.47L67.1,59.22C45,58.08,35,56.75,26.62,75.06c-38.87,85.32,6.15,47.45-13.38,77.87-2.72,4.25-11.4,7.77,1.47,13.27C21.83,169.23,32,168,39.49,166.82Z"/><path class="c" d="M98.5,146.07c2.67,4.82,4.62,7.23,6.81,12.7l49.8-.82c2.95-7.6.51-5,6.44-10.69l-49.78-1.62Z"/><path class="d" d="M50.37,154.83c30-17.92,63.87-.82,47.62,23.61-5.18,7.85-18.56,13.92-32.26,9.38C51.31,183,47.76,172,50.37,154.83Zm111,16.21c-6.89-34,50.17-31.55,52.16-5.13C215.55,193.29,166.82,198.26,161.32,171Zm-62.82-25,13.27-.43,49.78,1.62c-5.93,5.64-3.49,3.09-6.44,10.69l-49.8.82C103.12,153.3,101.17,150.89,98.5,146.07ZM10.2,144.2c-1.13,6.69-.25,2-3.43,5.7.32-9-.87-7,3-13.13C10.32,141,11,139.58,10.2,144.2Zm199.11,1.59c10.32-.88,15.31-2.58,23.22.56l2.74,11.51-16.61-.06C213.65,152,212.57,150.77,209.31,145.79ZM117.13,88.21c25.65,6,48.19,29.8,89.12,47.14L95.75,139C104.34,122.71,109.22,104.66,117.13,88.21ZM39.49,166.82C32,168,21.83,169.23,14.71,166.2c-12.87-5.5-4.19-9-1.47-13.27,19.53-30.42-25.49,7.45,13.38-77.87C35,56.75,45,58.08,67.1,59.22L65.93,139c-5.75,4.08-12.41,5.45-16.83,9.47-6.81,6.24-8,17.86-8.65,16.24C40.28,164.3,39.88,166.14,39.49,166.82Zm61.42-70.73c5-16,2.33-11.08,8.19-12.67,2.5,5.59-15.36,53.35-25.85,57.35Zm-7.2-27.26c10.26-16.64,36.26-49,50.15-61,17,5.93,61.2,30.47,66.24,46.24,8.11,25.2-4,18.93,15.11,40.81,12,13.78,13.07,19.11,6,40.62C207.86,135,176,113.07,161.18,102.9,142.67,90.11,115,79.6,93.71,68.83ZM85,72.17C95,74.81,88.5,74.86,98.42,77.5c-.29,12-15,51-24.07,61.48V53.46c-24.4,0-38.69-7.09-50.79,13.35l-17.83,41C2.72,116.7-2,149,.88,158.88,6.32,177.82,22.65,173.74,45,173.74c2.41,28.94,60.86,31.43,64.14-8h45.44c.91,40.62,63.59,38.72,66.82,0,12.75,0,11.08-1.81,21.37-2.69,0-14.31-4-16.72-4.42-24.41-.43-8.47,4.42-11,4.42-23.69,0-14.46-14.29-23.19-20.41-33-13.41-21.57,15.11-31.38-43.74-63.18C169.91,14,152.7,2.38,143.86,0a70.39,70.39,0,0,0-16.44,15.65,196.75,196.75,0,0,1-15,17.06Z"/><path class="d" d="M68.94,167.33c3.31-3.83,8.1-4.22,12.81-1.62-2.32,5,3.43,3.8-5,5.45C64.8,173.45,69.84,168.18,68.94,167.33Zm-3.35,7.17c9.5,5.24,10.6,3.57,20.24,0C93.46,147.37,56.44,156.67,65.59,174.5Z"/><path class="e" d="M93.71,68.83c21.29,10.77,49,21.28,67.47,34.07C176,113.07,207.86,135,231.25,135.52c7-21.51,5.95-26.84-6-40.62-19.1-21.88-7-15.61-15.11-40.81-5-15.77-49.21-40.31-66.24-46.24C130,19.87,104,52.19,93.71,68.83Z"/><path class="f" d="M27.92,105.25c3-11.68,12.47-30.64,25.23-33.11,3,10.12,1.73,22.25-1.16,34.22Zm-5.07,5.58,32,1.25c15.9-22.76,1.84-68.45-19.25-35.88C29.76,85.24,19.05,99.52,22.85,110.83Z"/><path class="g" d="M83.25,140.77c10.49-4,28.35-51.76,25.85-57.35-5.86,1.59-3.2-3.37-8.19,12.67Z"/><path class="h" d="M180.93,171.24c3.18-6.94,5.9-9.38,12.48-5.53C189.67,173.88,194.57,171.21,180.93,171.24Zm-3.6,3.74c12.79,5.67,28.15.26,20.07-14.62C183.09,153.1,171.27,164.72,177.33,175Z"/><path class="i" d="M209.31,145.79c3.26,5,4.34,6.23,9.35,12l16.61.06-2.74-11.51C224.62,143.21,219.63,144.91,209.31,145.79Z"/><path class="j" d="M68.94,167.33c.9.85-4.14,6.12,7.79,3.83,8.45-1.65,2.7-.49,5-5.45C77,163.11,72.25,163.5,68.94,167.33Z"/><path class="k" d="M180.93,171.24c13.64,0,8.74,2.64,12.48-5.53C186.83,161.86,184.11,164.3,180.93,171.24Z"/></svg>