<svg xmlns="http://www.w3.org/2000/svg" viewBox="0 0 193.04 245.43"><defs><style>.a{fill:#b7b7b7;}.a,.b,.c{fill-rule:evenodd;}.b{fill:#030303;}.c{fill:#d5e4e4;}</style></defs><path class="a" d="M72.94,72c-18-46.4,48.08-62.59,76.82-31.61C186.1,79.65,108.57,96.26,72.94,72ZM59.05,23.56C57.83,35.63,55.39,38.27,47.8,45.44L61.43,61.63l-9.32,8.56c31.18,19.16,51.87,20,87.5,24.18,3.49-2.53,6.35-5.25,9.24-7.4,8.17-6.1,5.87-2.16,10.69-5.28,11.54-7.45-6.86-.42,17-14.59,1.08-18.91.45-10.29,7.79-24.33l-20.12-9L159,17.72,139,19,128.33,8c-32.26,7.05-16.58.85-42.41.22C70.87,20.47,82,23.75,59.05,23.56Z"/><path class="a" d="M102.56,31.27C87.37,34.07,68.86,49,76.91,65c5.21,10.43,40.73,13.74,51.73,12.5C174.9,72.34,144.09,23.58,102.56,31.27Z"/><path class="a" d="M9.22,114.12c19.67,5.9,55.07,5.79,76.7,6,17.07.17,61.29,4.06,69.25-13.18C142.64,92.07,30.19,88.16,9.22,114.12Z"/><path class="a" d="M153.05,120.33c-102.48,9.89-82.66-.48-146.1,1,14.54,16.38,127.22,15.08,140.34,6.75C157.24,121.78,151.09,125.26,153.05,120.33Z"/><path class="a" d="M133.15,228.3c-26.11-1-97.15,13.81-115.77-8.1C18.32,255.15,113,233.52,133.15,228.3Z"/><path class="b" d="M17.38,220.2C36,242.11,107,227.28,133.15,228.3,113,233.52,18.32,255.15,17.38,220.2Zm-3.57-86.6C51.09,138,118,147.2,152.31,132c2.69,13.32,7.91,69.53,3.09,78.46C138.59,230.77,45.67,230.06,23,218Zm139.24-13.27c-2,4.93,4.19,1.45-5.76,7.8-13.12,8.33-125.8,9.63-140.34-6.75C70.39,119.85,50.57,130.22,153.05,120.33ZM9.22,114.12c21-26,133.42-22.05,146-7.2-8,17.24-52.18,13.35-69.25,13.18C64.29,119.91,28.89,120,9.22,114.12ZM59.05,23.56c22.9.19,11.82-3.09,26.87-15.37C111.75,8.82,96.07,15,128.33,8L139,19l20-1.27,5.22,16.1,20.12,9c-7.34,14-6.71,5.42-7.79,24.33-23.84,14.17-5.44,7.14-17,14.59-4.82,3.12-2.52-.82-10.69,5.28-2.89,2.15-5.75,4.87-9.24,7.4-35.63-4.17-56.32-5-87.5-24.18l9.32-8.56L47.8,45.44C55.39,38.27,57.83,35.63,59.05,23.56ZM51.17,16l-.2,18-12.75,6c1.38,7.12,7.54,14.26,12.5,19.62-6,8.61-5.39,2.58-4.2,14.42L72.46,86.91C45.33,89.83,16,91.39.4,114.94c-2.21,7.52,5.3,10.72,8.11,34.64,1.42,12.19,2.75,26,4.65,38.1,4.16,26.22-17.66,46.69,19.84,55,33.36,7.4,116.84.57,135.75-28.85-3.43-12.59-5.33-3.43-5.47-21.23-.25-31.44-9-60.1,3.26-80.34l-14.6-17c-.23-.17-.82-.66-1.19-1,6.95-7.06,7.29-4.79,16.24-7.79,8-21.86,5.19-3.15,15.14-16.95C191.23,53.66,171,72,193,43c-7-10.6-11.65-9.66-23.81-14.06l-4.73-16c-12.27-4.14-12.64.93-24.44-.2-5.41-7.46-3.17-2-3.37-12.7C119.6,0,124,3.91,112.43,5.36,100.24,6.89,95.39.77,88.5,1c-7.2.23-11,7-16.1,12.42C65.74,20.55,63.78,16.07,51.17,16Z"/><path class="b" d="M102.56,31.27c41.53-7.69,72.34,41.07,26.08,46.26-11,1.24-46.52-2.07-51.73-12.5C68.86,49,87.37,34.07,102.56,31.27ZM72.94,72c35.63,24.23,113.16,7.62,76.82-31.61C121,9.44,54.94,25.63,72.94,72Z"/><path class="c" d="M23,218c22.68,12.1,115.6,12.81,132.41-7.46,4.82-8.93-.4-65.14-3.09-78.46C118,147.2,51.09,138,13.81,133.6Z"/></svg>