<svg xmlns="http://www.w3.org/2000/svg" viewBox="0 0 196.83 234.39"><defs><style>.a{fill:#f5841f;}.a,.b,.c,.d,.e,.f{fill-rule:evenodd;}.b{fill:#010000;}.c{fill:#127173;}.d{fill:#ea4622;}.e{fill:#060401;}.f{fill:#d5e3e3;}</style></defs><path class="a" d="M89.31,80.19C81.28,52,120.8,37.84,128.48,66,135.77,92.58,97.72,109.79,89.31,80.19Zm27.21,80.22,14.09,19.14,17.91-10.83c-5.5-23.5-23.1-22.71-10.34-54,8.61-21.2,21.11-32.94,10.6-58.31-37.14-89.69-176.09-40.05-136,61.09C37.12,178.81,100.25,159.62,116.52,160.41Z"/><path class="b" d="M136.16,187.65c4.2-6.91,20.87-18.51,28.6-21.2,10.92,3.4,21.8,14.4,23.13,26.19-7.9-5-11.56-18.76-21.45-19.5.76,11.57,37.87,40.22,15.62,52.58C166.12,234.6,138.66,199.81,136.16,187.65ZM80.38,0h21.11c17.07,1.81,33.57,8.14,46.83,19.42,24.41,20.78,30.31,52.72,15.88,81.27-7.15,14.14-15.93,28.8-11.82,45.61,4.33,17.71,17.34,10.12,31.21,24.94,25.62,27.44,11.33,76.82-19.48,59.59-27.49-15.37-33-44.48-50.88-64.07-34.19,3-57.66,9.64-86.51-17.71C3.61,127.19-4.32,94.71,2.2,64.29,10.33,26.59,44.38,3.77,80.38,0Zm61.71,141.85c-9.07-30.11,24.09-41.76,14.71-80.11C148.58,28.23,131,26.65,110.93,9.33c26.08,1.41,49.78,27.41,53.72,52.55,2.81,17.83-1.44,27.95-9.52,43C147.19,119.79,146.14,133.71,142.09,141.85Zm-25.57,18.56c-16.27-.79-79.4,18.4-103.72-42.94-40.11-101.14,98.84-150.78,136-61.09,10.51,25.37-2,37.11-10.6,58.31-12.76,31.32,4.84,30.53,10.34,54l-17.91,10.83Z"/><path class="c" d="M136.16,187.65c2.5,12.16,30,46.95,45.9,38.07,22.25-12.36-14.86-41-15.62-52.58,9.89.74,13.55,14.46,21.45,19.5-1.33-11.79-12.21-22.79-23.13-26.19C157,169.14,140.36,180.74,136.16,187.65Z"/><path class="d" d="M142.09,141.85c4-8.14,5.1-22.06,13-36.94,8.08-15.08,12.33-25.2,9.52-43C160.71,36.74,137,10.74,110.93,9.33c20,17.32,37.65,18.9,45.87,52.41C166.18,100.09,133,111.74,142.09,141.85Z"/><path class="e" d="M106.29,90.23c-21.63-11.37-10-35.32,4.84-33.37C125.53,58.76,130.75,83.62,106.29,90.23Zm-17-10c8.41,29.6,46.46,12.39,39.17-14.2C120.8,37.84,81.28,52,89.31,80.19Z"/><path class="f" d="M106.29,90.23c24.46-6.61,19.24-31.47,4.84-33.37C96.28,54.91,84.66,78.86,106.29,90.23Z"/></svg>