<svg xmlns="http://www.w3.org/2000/svg" viewBox="0 0 203.36 239.81"><defs><style>.a{fill:#b8b8b8;}.a,.b,.c,.d{fill-rule:evenodd;}.b{fill:#040404;}.c{fill:#ec4722;}.d{fill:#d5e3e3;}</style></defs><path class="a" d="M87.82,34.75c4.87,6.38-3.09,1.87,6.83,7.15l28.23,11.76c7.71,3.94,27.64,15.56,34.56,13.44,6-10.29,1.84-40-3.09-52.79C144.88,14.34,93.66,29.14,87.82,34.75Z"/><path class="a" d="M54.06,50.34l27.29,2c.06-15,4.79-43.23-16.44-41C45.67,13.29,51.93,36.23,54.06,50.34Z"/><path class="a" d="M46.4,68.29c16.7-7.74,29.54-6.49,46.35.42C91.64,53.69,59.27,55.56,45.5,57Z"/><path class="a" d="M32.71,37.45c8.34,4.22,6.44,3.82,13.49.22l-.79-8.22C36.34,30.1,34.84,29.31,32.71,37.45Z"/><path class="b" d="M7.23,226.91c13.07-6.71,98.47-.17,122.63-1.3-1.71,10.52-36.29,6.89-57.46,6.92S13.92,235.87,7.23,226.91ZM121,219.8,15.11,216.45c-4.11-30.19-7-66.16.2-94.5C21.09,99.21,39,71.63,64.43,69.28,132.43,63,121,176.66,121,219.8ZM46.4,68.29,45.5,57c13.77-1.42,46.14-3.29,47.25,11.73C75.94,61.8,63.1,60.55,46.4,68.29ZM87.82,34.75c5.84-5.61,57.06-20.41,66.53-20.44,4.93,12.76,9.07,42.5,3.09,52.79-6.92,2.12-26.85-9.5-34.56-13.44L94.65,41.9C84.73,36.62,92.69,41.13,87.82,34.75ZM54.06,50.34c-2.13-14.11-8.39-37.05,10.85-39,21.23-2.24,16.5,26,16.44,41ZM46.2,37.67c-7.05,3.6-5.15,4-13.49-.22,2.13-8.14,3.63-7.35,12.7-8Zm-21.91-.25c7.49,11.39,7.26,7.45,20.92,8.47-1.84,11.23-2.78,2.81-6.32,11.43C37,62,37.67,68.17,37,74.15,18.4,93,12.16,103.44,7.06,129.77c-4.48,23.07,1.19,81.3,1.19,81.35-3.74,9.78-.68,1.25-8.25,10.46.57,13,6.46,17.89,19.22,18.23l37.13-1.95c78.52,0,76.48,8.16,83.09-16.28-13.72-10.63-7,3.75-10.92-7.76-5.16-31.1,7.06-125.1-28.94-139.44C98,42.38,95.5,66.59,88.44,48.1c23,2,55.11,31.89,75.74,25,5.39-16.19,3.35-51.34-6.94-64.38-16.78-1.95-49.81,14.88-71.49,15.37C85.27-2,58.71-.57,46.54,16.89,38.07,29.11,29.23,19.19,24.29,37.42Z"/><path class="b" d="M33.45,131.61a13.86,13.86,0,0,1,2.24-1.05c8.5-2.6,50.65-1.81,59.13,2.61l4.87,51.42-59.78,5.13ZM99,191.76c7.48-1.33.53,1.14,7.05-3l-5.64-59.39c-11.28-8.7-57.23-7.34-72.71-5.66-.87,10.54,3.8,60,7.12,68.42,10.26,6.13,23.13,2.33,35.18,1Z"/><path class="b" d="M59.87,173c-7.63-11.46-5.36-17.46,4.73-24.81,6,8.71,13.07,16.87,7.31,25.46-7.62-5.44-1.7-2.07-8.75-11.71Zm19.33,2.49c2.47-12.44-6.18-29.62-12.1-39.29C31,163.5,58.73,193.8,79.2,175.52Z"/><path class="b" d="M203.36,74.83c-2.24-8.24-15.71-13.74-24.07-16C180.62,70.64,191.31,74.58,203.36,74.83Z"/><path class="b" d="M179.29,10.69c11.37,5.07,2.47,2.6,12.08-1,6.89-2.67,9.69-1.28,12-9.64C192.9.31,185.19,1.7,179.29,10.69Z"/><path class="b" d="M171.27,32.06l32.09,5.36C198.09,23,184.62,30.87,171.27,32.06Z"/><path class="c" d="M27.69,123.68c15.48-1.68,61.43-3,72.71,5.66L106,188.73c-6.52,4.17.43,1.7-7.05,3l-29,1.31c-12,1.36-24.92,5.16-35.18-1C31.49,183.66,26.82,134.22,27.69,123.68ZM121,219.8C121,176.66,132.43,63,64.43,69.28,39,71.63,21.09,99.21,15.31,122c-7.23,28.34-4.31,64.31-.2,94.5Z"/><path class="c" d="M7.23,226.91c6.69,9,43.94,5.64,65.17,5.62s55.75,3.6,57.46-6.92C105.7,226.74,20.3,220.2,7.23,226.91Z"/><path class="c" d="M59.87,173,63.16,162c7,9.64,1.13,6.27,8.75,11.71,5.76-8.59-1.33-16.75-7.31-25.46C54.51,155.57,52.24,161.57,59.87,173Z"/><path class="d" d="M79.2,175.52C58.73,193.8,31,163.5,67.1,136.23,73,145.9,81.67,163.08,79.2,175.52ZM33.45,131.61l6.46,58.11,59.78-5.13-4.87-51.42c-8.48-4.42-50.63-5.21-59.13-2.61A13.86,13.86,0,0,0,33.45,131.61Z"/></svg>