<svg xmlns="http://www.w3.org/2000/svg" viewBox="0 0 223.31 216.85"><defs><style>.a{fill:#13abaf;}.a,.b,.c{fill-rule:evenodd;}.b{fill:#030303;}.c{fill:#bbb;}</style></defs><path class="a" d="M149.07,202.39c23.84-3.65,50.68-26,60.55-47.48,13.12-28.54.14-68.62-.57-100.17l-14.68-6.81C212.65,113.87,215.09,168.41,149.07,202.39Z"/><path class="a" d="M70.66,147.34c-8.73-19.19-21.51-18.48-23.55-51-2.44-39.46,16.44-47.22,7-63.52C31.57,58.25,32.17,137,70.66,147.34Z"/><path class="a" d="M200.4,45.58c2.24-2.38,11,4.48-2.43-17.66-5.59-9.18-4.88-10.46-14.8-14.6C185.52,18,199.47,44.45,200.4,45.58Z"/><path class="a" d="M70.66,147.34l4.51,2.1Z"/><path class="b" d="M70.66,147.34l4.51,2.1Zm78.41,55c66-34,63.58-88.52,45.3-154.46l14.68,6.81c.71,31.55,13.69,71.63.57,100.17C199.75,176.37,172.91,198.74,149.07,202.39Zm-78.41-55C32.17,137,31.57,58.25,54.16,32.77c9.39,16.3-9.49,24.06-7,63.52C49.15,128.86,61.93,128.15,70.66,147.34ZM166.78,8.48c7.2,4.16,15.06,12.61,19.51,20.43,7,12.25.56,14.18,3.77,28.21,6,26.05,11.62,40.14,9.1,68.62-3.63,41.19-35.38,70.5-75.09,77.28-40.54,6.89-86.74-6.89-107.49-41.84C-11.29,114.32,25.31,62,11.9,34.92L25.79,10.57,51.13,25.06C17.2,75.26,26.67,161.4,103,160.44c32.71-.42,55.92-16.41,64.51-47.76C178.26,73.53,153.6,42,148.1,26.33Zm33.62,37.1c-.93-1.13-14.88-27.61-17.23-32.26,9.92,4.14,9.21,5.42,14.8,14.6C211.37,50.06,202.64,43.2,200.4,45.58Zm-196.52-8c9.32,12.36,3.23,18.28.82,32.57C-5.85,132-4.23,185.22,69.87,206.82c30,8.73,41.16,14.57,74.21,5.38,42.15-11.71,82.4-48.5,79-91.64-.43-5.47-2-11.14-2.67-18.91-2.94-32.51-7.71-105-53.37-99-9.21,2.5-21.26,15.82-26.7,24,12.84,25.6,29.14,51.08,21.43,80.25-9.05,34.24-27.56,44.13-61.77,48.27-27.13-20.52-38.58-13.4-45.89-55.7C49,69.79,64.85,46.54,64.6,40.11c-.15-3.29-4.14-11.37-4.88-20.95C48.07,17.09,32.88,6.63,22.76,0Z"/><path class="b" d="M138,173.71c2.29,2.35-3.8,2.6,5.69,4.14,8.82,1.41,9-6.55,8.59-10.66C143.31,165.88,143.51,166.31,138,173.71Z"/><path class="b" d="M182.63,85.07c8.39-8.34,5.67-13.18-5.3-15.71C175.34,78.21,174.44,79.46,182.63,85.07Z"/><path class="b" d="M98.64,184.48c-5.7-7.63-3.18-5.93-14.17-5.78.36,4.45-2.21,8,6.12,10C99.4,190.83,98.5,184.65,98.64,184.48Z"/><path class="b" d="M174.35,126.31c-3.12,10.32,2.58,8.65,7.37,10.26,3.72-8,4.25-5.47.88-12.72C172.11,122.68,179,123.22,174.35,126.31Z"/><path class="b" d="M38.06,153.81C35.2,163.9,38,163.9,47.9,166,46.77,157.63,47.67,153.86,38.06,153.81Z"/><path class="b" d="M162.62,26.73c2.09,9.55,2.27,8.87,11.59,7.34C173.62,25.09,171.52,21.32,162.62,26.73Z"/><path class="b" d="M20.09,77.9c8.53-3.58,10-5.47,5.33-13.78C17.34,67.83,16,70,20.09,77.9Z"/><path class="b" d="M25.42,128.69c3.77-6.94,3.91-3,.77-12C14.76,116,15.33,124.27,25.42,128.69Z"/><path class="b" d="M23.8,33.85c9.3,1,8.34,2.41,11.85-7C27.55,23.5,25.82,24.18,23.8,33.85Z"/><path class="c" d="M84.47,178.7c11-.15,8.47-1.85,14.17,5.78-.14.17.76,6.35-8,4.19C82.26,186.66,84.83,183.15,84.47,178.7Zm53.49-5c5.55-7.4,5.35-7.83,14.28-6.52.4,4.11.23,12.07-8.59,10.66C134.16,176.31,140.25,176.06,138,173.71ZM47.9,166c-9.92-2.07-12.7-2.07-9.84-12.16C47.67,153.86,46.77,157.63,47.9,166Zm133.82-29.4c-4.79-1.61-10.49.06-7.37-10.26,4.62-3.09-2.24-3.63,8.25-2.46C186,131.1,185.44,128.58,181.72,136.57ZM26.19,116.65c3.14,9,3,5.1-.77,12C15.33,124.27,14.76,116,26.19,116.65ZM177.33,69.36c11,2.53,13.69,7.37,5.3,15.71C174.44,79.46,175.34,78.21,177.33,69.36ZM20.09,77.9C16,70,17.34,67.83,25.42,64.12,30.1,72.43,28.62,74.32,20.09,77.9ZM174.21,34.07c-9.32,1.53-9.5,2.21-11.59-7.34C171.52,21.32,173.62,25.09,174.21,34.07ZM23.8,33.85c2-9.67,3.75-10.35,11.85-7C32.14,36.26,33.1,34.87,23.8,33.85Zm124.3-7.52c5.5,15.62,30.16,47.2,19.39,86.35C158.9,144,135.69,160,103,160.44c-76.31,1-85.78-85.18-51.85-135.38L25.79,10.57,11.9,34.92c13.41,27.1-23.19,79.4,4.68,126.26,20.75,34.95,67,48.73,107.49,41.84,39.71-6.78,71.46-36.09,75.09-77.28,2.52-28.48-3.12-42.57-9.1-68.62-3.21-14,3.26-16-3.77-28.21C181.84,21.09,174,12.64,166.78,8.48Z"/></svg>