<svg xmlns="http://www.w3.org/2000/svg" viewBox="0 0 149.43 201.25"><defs><style>.a{fill:#74cace;}.a,.b,.c,.d,.e{fill-rule:evenodd;}.b{fill:#000101;}.c{fill:#d4e4e4;}.d{fill:#050707;}.e{fill:#050505;}</style></defs><path class="a" d="M16.37,111.22l12.3-4.65,8.2,9.58,9.92-9.07c9.83,4.73,10.34,6.15,14.68,15.73L70.68,107c12.76-.37,10.12-1.79,18.6,7,5.38-18.14,12.1-24.52,30.81-15.73L107.36,58.83,28.67,59.94Z"/><path class="a" d="M111.64,189.4l29.26-12.05c2-17.35-14.86-84.81-37.14-76-13.6,12-6.52,26.33-2.77,43.31C104,158.19,107.59,176.56,111.64,189.4Z"/><path class="a" d="M68.13,193.68l35.92-1c-.6-18.74-10.75-72-27-80.25C60,124.29,67.82,173.21,68.13,193.68Z"/><path class="a" d="M30.74,187.22c9.64,5.07,18.88,5.35,30.87,5.89-.73-17.91.29-68.85-14-78.49C35.48,121.74,31.48,171.46,30.74,187.22Z"/><path class="a" d="M26.07,43.05C28.36,59,45.57,53.82,61,53.9c13.26.06,32.45,1.33,44.5-3.34L104.9,40.1C100.65,37.89,36.72,37.21,26.07,43.05Z"/><path class="a" d="M8,171.43,20,184.52c4.05-3.63,3.4,4.65,6.44-15.76,1-6.43,2.24-12.1,3.17-18.68,1.76-12.41,4.31-26.59-3.34-36.76C13.65,121.57,8.8,156.52,8,171.43Z"/><path class="b" d="M30.74,187.22c.74-15.76,4.74-65.48,16.9-72.6,14.26,9.64,13.24,60.58,14,78.49C49.62,192.57,40.38,192.29,30.74,187.22Zm37.39,6.46c-.31-20.47-8.13-69.39,8.9-81.24,16.27,8.25,26.42,61.51,27,80.25ZM8,171.43c.76-14.91,5.61-49.86,18.2-58.11,7.65,10.17,5.1,24.35,3.34,36.76-.93,6.58-2.21,12.25-3.17,18.68-3,20.41-2.39,12.13-6.44,15.76Zm103.6,18c-4-12.84-7.68-31.21-10.65-44.76-3.75-17-10.83-31.35,2.77-43.31,22.28-8.79,39.12,58.67,37.14,76Zm-83-129.46,78.69-1.11,12.73,39.49c-18.71-8.79-25.43-2.41-30.81,15.73-8.48-8.84-5.84-7.42-18.6-7l-9.21,15.81c-4.34-9.58-4.85-11-14.68-15.73l-9.92,9.07-8.2-9.58-12.3,4.65ZM104.9,40.1l.62,10.46C93.47,55.23,74.28,54,61,53.9,45.57,53.82,28.36,59,26.07,43.05,36.72,37.21,100.65,37.89,104.9,40.1ZM33.66,33.63c2-21.23,11-23,30.53-28l5.44,8.42,9.78-5.53c11.68,7.23,17.07,8.16,16.44,24.55ZM18,42.76c2.23,18.43,5.35,17-.26,37.16L1,154.14C-2.2,167.6,2.57,176.78,12.15,185.4c31.77,28.49,130.33,14.77,137.28-11.22-2.18-18.15-13.27-51.31-19.28-69.37-3.57-10.68-6.74-21.57-10.68-32.09-14.4-38.57,1.87-13.4-7.51-32.37C101.33,18.78,91.6-.64,63.65,0,31.54.75,33.41,22.47,18,42.76Z"/><path class="c" d="M71.08,24.31c6.09-8.31,1.36-6.18,10.15-2.89C76.21,28.73,79.47,28.76,71.08,24.31Zm-20.35-8C56,8.21,52.6,9,60.08,14,56.82,21.9,57.16,21.64,50.73,16.29ZM33.66,33.63l62.19-.56c.63-16.39-4.76-17.32-16.44-24.55l-9.78,5.53L64.19,5.63C44.63,10.67,35.65,12.4,33.66,33.63Z"/><path class="d" d="M50.73,16.29c6.43,5.35,6.09,5.61,9.35-2.27C52.6,9,56,8.21,50.73,16.29Z"/><path class="e" d="M81.23,21.42c-8.79-3.29-4.06-5.42-10.15,2.89C79.47,28.76,76.21,28.73,81.23,21.42Z"/></svg>