<svg xmlns="http://www.w3.org/2000/svg" viewBox="0 0 162.94 232.97"><defs><style>.a{fill:#d4e4e4;}.a,.b,.c{fill-rule:evenodd;}.b{fill:#020100;}.c{fill:#ed4822;}</style></defs><path class="a" d="M39.94,146.75c-.28,20.64,15,33.14,34.75,33.51,32.43-18,18.68-60.27-13.35-59.36Z"/><path class="a" d="M28.32,172.32c-58.37,40.56,28,80.25,36.48,27.61-8-2.92-19-3.06-24.58-7.26C32.51,186.92,33.79,180.14,28.32,172.32Z"/><path class="a" d="M87.28,182.52c-17.41,5-23.84,8.42-39.4-5.78-5.13-4.71-10.41-9.89-12.59-16.92-3.57-11.48,1.7-14.88-.62-21.57-11.62,6.43-.91-.37-8.11,9.18-3,4-4.11,3.8-7.43,7.74,6,11.42,8,6.77,14.49,14.48,4.73,5.59,4.42,11.57,9.89,19.17,7.29,1.64,11.79.65,18.4,3.48C64.71,193.49,79.85,208.71,87.28,182.52Z"/><path class="a" d="M56.1,113.56l-3.66-24.3L36.68,86C39.54,97,47.31,107.26,56.1,113.56Z"/><path class="a" d="M98.11,139.89c6,8.11,21.6,8.25,32.17,7.34l-5.07-10.17Z"/><path class="a" d="M94.2,132.8l23.32-.34c-3.23-8.47-1.64-6-9.35-10.74Z"/><path class="a" d="M39.94,108c-2.52-6.75-3.23-6.69-6.63-12.84-5.5-10-.88-8.9-10.8-8.08C21.86,95.39,32.4,103.1,39.94,108Z"/><path class="a" d="M133.51,47.65c8.31-11,3.15-12.93-7.94-12.25C125.43,45,124.7,44.73,133.51,47.65Z"/><path class="a" d="M102.36,73.87c7.82.31,8.81.28,11.2-8.25C103.49,58,97.63,65.11,102.36,73.87Z"/><path class="a" d="M62.45,64.43C69.36,74,75.8,71.52,76.39,60,69.25,58.9,67.35,57.06,62.45,64.43Z"/><path class="a" d="M120.27,99.5l4.51,7.65c9.36-3.06,9.89-3.54,6.18-10.69C126.77,94.45,126,92.32,120.27,99.5Z"/><path class="a" d="M121.8,11.59c11.74,2.61,12.56,5.53,18.12-3.26C132.92,5.07,127.16,3.8,121.8,11.59Z"/><path class="a" d="M29.76,57.23l8.17,9.16c6.63-6.72,5.5-1.65,2.89-10.63C35.43,53.77,36.34,50.74,29.76,57.23Z"/><path class="a" d="M87.76,126.4l16.64-7.23L98.11,113C91,118.66,90.74,117.86,87.76,126.4Z"/><path class="a" d="M130.25,155.54l-19.59-2.75C119.59,160.64,125.66,167.64,130.25,155.54Z"/><polygon class="a" points="80.45 39.06 94.59 40.05 98.79 28.18 80.45 39.06"/><path class="a" d="M63.24,112.2c2.5-8.76,5.07-10.1.91-17.81-3.72,1.51-4.74-5.78-4.37,6C59.9,104,62,109.33,63.24,112.2Z"/><path class="a" d="M95.16,103.8c-.26-11.73-3.71-11.65-14.09-9Z"/><path class="a" d="M79.29,118c10.06-3.06,15.59-6.21,5.75-13Z"/><path class="a" d="M153,85.49l-.88-15.42a7.46,7.46,0,0,0-4.57,7.6C148.14,87.76,152.93,85.44,153,85.49Z"/><path class="a" d="M152.14,141.34l3.45-14.15C144.94,131.47,145.39,135.41,152.14,141.34Z"/><path class="a" d="M72,114.55c5.16-6.07,6.55-8,2.66-14.91C71.21,104.63,68.94,108.79,72,114.55Z"/><path class="a" d="M111.23,162.23,99.5,154.35C103.61,161.94,101.48,160,111.23,162.23Z"/><path class="a" d="M42.72,119.88l-10.26-7.94c1.64,3.86-1.19,2.18,3.11,5.16C40.2,120.25,39.69,119,42.72,119.88Z"/><path class="b" d="M28.32,172.32c5.47,7.82,4.19,14.6,11.9,20.35,5.62,4.2,16.53,4.34,24.58,7.26C56.27,252.57-30,212.88,28.32,172.32Zm82.91-10.09c-9.75-2.24-7.62-.29-11.73-7.88ZM61.34,120.9c32-.91,45.78,41.36,13.35,59.36-19.75-.37-35-12.87-34.75-33.51Zm68.91,34.64c-4.59,12.1-10.66,5.1-19.59-2.75Zm-5-18.48,5.07,10.17c-10.57.91-26.22.77-32.17-7.34ZM87.28,182.52c-7.43,26.19-22.57,11-25.37,9.78-6.61-2.83-11.11-1.84-18.4-3.48-5.47-7.6-5.16-13.58-9.89-19.17-6.52-7.71-8.53-3.06-14.49-14.48,3.32-3.94,4.4-3.74,7.43-7.74,7.2-9.55-3.51-2.75,8.11-9.18,2.32,6.69-3,10.09.62,21.57,2.18,7,7.46,12.21,12.59,16.92C63.44,190.94,69.87,187.57,87.28,182.52Zm64.86-41.18c-6.75-5.93-7.2-9.87,3.45-14.15Zm-44-19.62c7.71,4.71,6.12,2.27,9.35,10.74l-23.32.34ZM87.76,126.4c3-8.54,3.23-7.74,10.35-13.44l6.29,6.21Zm-45-6.52c-3-.85-2.52.37-7.15-2.78-4.3-3-1.47-1.3-3.11-5.16ZM85,105c9.84,6.74,4.31,9.89-5.75,13Zm-13,9.55c-3.09-5.76-.82-9.92,2.66-14.91C78.58,106.5,77.19,108.48,72,114.55Zm-8.79-2.35C62,109.33,59.9,104,59.78,100.4c-.37-11.79.65-4.5,4.37-6C68.31,102.1,65.74,103.44,63.24,112.2ZM81.07,94.85c10.38-2.7,13.83-2.78,14.09,9Zm-47.76.34c3.4,6.15,4.11,6.09,6.63,12.84C32.4,103.1,21.86,95.39,22.51,87.11,32.43,86.29,27.81,85.21,33.31,95.19ZM56.1,113.56C47.31,107.26,39.54,97,36.68,86l15.76,3.23Zm91.44-35.89a7.46,7.46,0,0,1,4.57-7.6L153,85.49C152.93,85.44,148.14,87.76,147.54,77.67ZM37.93,66.39l-8.17-9.16c6.58-6.49,5.67-3.46,11.06-1.47C43.43,64.74,44.56,59.67,37.93,66.39ZM98.79,28.18l-4.2,11.87-14.14-1ZM72.23,40.76c8,3.8,14,10,23.61,4.88,9.41-5,8.79-14.18,6.49-22.88l12.53-9.61c20.64,12.16,17.6,5.64,33.73,1.48,7.66,17.6,4.62,26.33,3.91,44.64-7.73,8.39-16.49,15-7.71,28.58,9.87,15.25,11.68-.91,12.87,30.24-15.62,9.58-25,9-7.23,32.49L136.8,162.2c2.81-28.83-14.2-37.79-34.36-53.15C100,79.34,89.83,86.94,71.91,91.53c-19.1-9.24-35.65-15.08-56.35-8,.82-10.61.6-14.15,8.48-20.92,10.54,8.92,8.39,13.52,22.79,6.06,1.78-7.71.14-12.78-1-19.27ZM139.92,8.33c-5.56,8.79-6.38,5.87-18.12,3.26C127.16,3.8,132.92,5.07,139.92,8.33ZM42,133.71c-8.73-4.2-12.53-3.74-17.57,3.32-9.67,13.46-18.46,18.37-2.89,31.4C12.64,181.53,4.14,181.87,0,200.75c0,6.41,27.92,62,69.31,10.63,6.74-8.42,8-4.93,15.5-11.23,17.21-14.4.74-19,11.91-33.5,17.63-.4,66.16,27,66.22-54.11,0-13.55-2.36-18.06-2.81-29.29-.45-11,.08-23.64.11-34.83C160.3,23.24,161.8,15.85,141.82,0,112.71,1.25,111.8,6.94,90,23.64,63.64,43.82-1,43.91,9.3,89.63,16.64,122.09,40.08,121.89,42,133.71Z"/><path class="b" d="M125.57,35.4c11.09-.68,16.25,1.22,7.94,12.25C124.7,44.73,125.43,45,125.57,35.4Zm12.51,17.49c12.16-16.46-.15-30.16-14.83-23.1C114.69,33.9,115.26,55.28,138.08,52.89Z"/><path class="b" d="M76.39,60c-.59,11.54-7,14-13.94,4.45C67.35,57.06,69.25,58.9,76.39,60ZM56.21,64.46l5.73,9.69c16,3.52,27.55-5.75,18.82-18.48C73.9,45.64,59.64,56,56.21,64.46Z"/><path class="b" d="M102.36,73.87c-4.73-8.76,1.13-15.87,11.2-8.25C111.17,74.15,110.18,74.18,102.36,73.87ZM94.65,74c14.14,14.49,31.78.94,20.86-15.87C100.89,53.29,92.72,58.59,94.65,74Z"/><path class="b" d="M131,96.46c3.71,7.15,3.18,7.63-6.18,10.69l-4.51-7.65C126,92.32,126.77,94.45,131,96.46Zm-15.67-2.77c-1.14,16.15,5.58,21.74,21.11,16.41l1.68-19.56C127.45,87.45,122.6,88,115.29,93.69Z"/><path class="c" d="M115.29,93.69c7.31-5.7,12.16-6.24,22.79-3.15L136.4,110.1C120.87,115.43,114.15,109.84,115.29,93.69ZM94.65,74c-1.93-15.42,6.24-20.72,20.86-15.87C126.43,75,108.79,88.5,94.65,74ZM56.21,64.46C59.64,56,73.9,45.64,80.76,55.67c8.73,12.73-2.84,22-18.82,18.48Zm81.87-11.57c-22.82,2.39-23.39-19-14.83-23.1C137.93,22.73,150.24,36.43,138.08,52.89ZM102.33,22.76c2.3,8.7,2.92,17.83-6.49,22.88-9.58,5.16-15.62-1.08-23.61-4.88L45.84,49.44c1.13,6.49,2.77,11.56,1,19.27C32.43,76.17,34.58,71.57,24,62.65,16.16,69.42,16.38,73,15.56,83.57c20.7-7.12,37.25-1.28,56.35,8,17.92-4.59,28.07-12.19,30.53,17.52,20.16,15.36,37.17,24.32,34.36,53.15l13.63-11.62c-17.77-23.53-8.39-22.91,7.23-32.49-1.19-31.15-3-15-12.87-30.24-8.78-13.58,0-20.19,7.71-28.58.71-18.31,3.75-27-3.91-44.64-16.13,4.16-13.09,10.68-33.73-1.48Z"/></svg>