<svg xmlns="http://www.w3.org/2000/svg" viewBox="0 0 147.32 232.53"><defs><style>.a{fill:#010404;}.a,.b,.c{fill-rule:evenodd;}.b{fill:#14b6b9;}.c{fill:#73cbce;}</style></defs><path class="a" d="M46.89,50.43c10.94-2,60.66-.51,69.81,3.88,18,8.59,22.34,36.8,23.39,55.33,2.69,47.06,3.82,86-42.61,108.2C49.92,240.6,12.87,212,7.11,163.64c-2.63-22.13.37-47.28,4.68-68.91C18.06,63.27,7.51,57.66,46.89,50.43Zm17.26-7.66c-17,0-47.57,2.64-54.51,20.33C2.61,81,0,137.34,0,160.36c0,34.55,28.15,72.17,64.15,72.17,42.38,0,82.85-33.79,82.85-77.5,0-26.51,6-102.31-34.75-109.59-23.64-4.22-35.69,2.13-40.39-7.71L63.92,18.48c6.27-8.36,10.21-11,5.56-18.48-6.13,2.69-3.55.71-6.66,6.75C52.89,26.08,63,29.14,64.15,42.77Z"/><path class="a" d="M64.12,94.28c6.8-6.09,6.26-5,17.77-2.92l-.79,21.09c-7.23,2.55-4.51,2.81-11.88-1.36l9.64-4.37c-8.9-5.44-3.49-1.55-12.53-5.69l15.19-4.6C72.65,91.93,74.92,93.29,64.12,94.28ZM77.53,82.86c.14-6.69,1.53,0,1.56,0C80.56,83.45,77.41,88.55,77.53,82.86Zm2.15,42.06c23-18.88-3.85-58.53-4.42-65.7,39.06-2.3,49.78,7.14,54.51,46,3.69,30.33-1.87,57-34,65.37C69.62,177.45,34.47,184.71,22,154.35c-8-19.56-6.16-73.9,9-88.64L69,60C68.09,74.1,55.08,72.79,58.76,98.82,60.58,111.66,65.62,125.35,79.68,124.92ZM134,141.65c7.43-27.19,1.79-82.15-32.59-88.13C83,50.34,60.24,54.85,41.9,57.43,20.24,60.52,16.1,73,13.35,91.9,9,121.8,7.48,177.62,48.08,181.73,80.36,185,124.41,176.74,134,141.65Z"/><path class="b" d="M134,141.65c-9.58,35.09-53.63,43.31-85.91,40.08C7.48,177.62,9,121.8,13.35,91.9,16.1,73,20.24,60.52,41.9,57.43c18.34-2.58,41.13-7.09,59.5-3.91C135.78,59.5,141.42,114.46,134,141.65ZM46.89,50.43c-39.38,7.23-28.83,12.84-35.1,44.3-4.31,21.63-7.31,46.78-4.68,68.91,5.76,48.31,42.81,77,90.37,54.2,46.43-22.22,45.3-61.14,42.61-108.2C139,91.11,134.67,62.9,116.7,54.31,107.55,49.92,57.83,48.44,46.89,50.43Z"/><path class="b" d="M64.12,94.28c10.8-1,8.53-2.35,17.4,2.15L66.33,101c9,4.14,3.63.25,12.53,5.69l-9.64,4.37c7.37,4.17,4.65,3.91,11.88,1.36l.79-21.09C70.38,89.23,70.92,88.19,64.12,94.28Z"/><path class="b" d="M77.53,82.86c-.12,5.69,3,.59,1.56,0C79.06,82.86,77.67,76.17,77.53,82.86Z"/><path class="c" d="M79.68,124.92c-14.06.43-19.1-13.26-20.92-26.1C55.08,72.79,68.09,74.1,69,60L31,65.71c-15.17,14.74-17,69.08-9,88.64,12.44,30.36,47.59,23.1,73.72,16.27,32.15-8.39,37.71-35,34-65.37-4.73-38.89-15.45-48.33-54.51-46C75.83,66.39,102.73,106,79.68,124.92Z"/></svg>