<svg xmlns="http://www.w3.org/2000/svg" viewBox="0 0 210.1 240.72"><defs><style>.a{fill:#fbbc10;}.a,.b,.c{fill-rule:evenodd;}.b{fill:#bbb;}.c{fill:#020200;}</style></defs><path class="a" d="M155,192.42c2.58,8.33,4.56,9,9.55,14.62,8,9.07,9.72,13.81,4.22,18.2-9,2.89-6.6,1.11-13.8-5.9C140.26,205,143.83,204.26,129.8,191c-7.66-7.23-8.39-7.68-6.8-20.07l14.82-1.16c-3.29-10.12-1.3-8.93,6.18-12.65l3-.05c1.11-.94,9.36,1.44,4.37-8.11,4.93-7.71,10.15-11.79,22.56.43,5.93,5.84,10.32,13,16.3,18.56-6.23-17.32-17-34.75-35-31.38-29.6,5.5,3-13-42,19.45,10.38,25.31-5.67,16.69,8.54,34.84,15.19,19.39,34.35,51.64,60,39.14,8.08-3.91,20.5-18.22,20-31-2.15,3.43-.74,1.9-6,5.5-6.72-4.22-5.28-5.07-11.91-9.58,4.57,13.69,9.33,16.75-3.8,23.78-8.56-5-5.18-4.59-11.7-12.92Z"/><path class="a" d="M141.17,117.07c-4.57-1-47.6,17.26-43.83,42.15,9.7-4.56,17.69-12,25.34-18L141.39,125C148.25,113.36,142.1,118.6,141.17,117.07Z"/><path class="a" d="M197.29,195.65c-2.24-12.93-26.13-44.93-38.55-47.6-2.52,14,7.6,17.44,15.53,25.09C181.62,180.26,187.2,190.35,197.29,195.65Z"/><path class="a" d="M182.47,211.32c-2.9-15.39-9.13-16.66-15.48-28.17-6.07-11-6.32-22.88-24.32-19.14l32,40.82C179.46,210.33,178.27,208.57,182.47,211.32Z"/><path class="a" d="M158.83,212.17c-6-10.48-18.29-32.85-29.66-37.5-.79,14.26,9,14.43,18.71,27.38C155.2,211.75,149.78,207.3,158.83,212.17Z"/><path class="a" d="M155,192.42l-4.93-8.68c.62,5.22-1.79,1.76.7,4.82C153.67,192.13,152.9,190.89,155,192.42Z"/><path class="b" d="M104.23,130.28l9.1-6.72c-4.17-7,.08-.65-5.33-7L66.87,66.76c-3.69-4.28-24.12-25.37-24.58-26.22-5.89-11,2.13-7.94-6.49-20.3C33.87,17.49,28.26,10.52,25,6.49,17.74,11.57,10.91,16.36,5.64,24,7.43,27.61,12,35.77,14.71,38.81,31,56.75,18.37,26.16,55.79,75.12,64.77,86.91,95.05,124.19,104.23,130.28Z"/><path class="b" d="M151.37,149c5,9.55-3.26,7.17-4.37,8.11l-3,.05,6.6-1.33Z"/><path class="c" d="M197.29,195.65c-10.09-5.3-15.67-15.39-23-22.51-7.93-7.65-18.05-11-15.53-25.09C171.16,150.72,195.05,182.72,197.29,195.65Zm-14.82,15.67c-4.2-2.75-3-1-7.83-6.49l-32-40.82c18-3.74,18.25,8.11,24.32,19.14C173.34,194.66,179.57,195.93,182.47,211.32ZM155,192.42c-2.1-1.53-1.33-.29-4.23-3.86-2.49-3.06-.08.4-.7-4.82Zm3.83,19.75c-9.05-4.87-3.63-.42-11-10.12-9.72-13-19.5-13.12-18.71-27.38C140.54,179.32,152.84,201.69,158.83,212.17ZM155,192.42l13.41,13.32c6.52,8.33,3.14,7.88,11.7,12.92,13.13-7,8.37-10.09,3.8-23.78,6.63,4.51,5.19,5.36,11.91,9.58,5.21-3.6,3.8-2.07,6-5.5.54,12.82-11.88,27.13-20,31-25.68,12.5-44.84-19.75-60-39.14-14.21-18.15,1.84-9.53-8.54-34.84,45-32.49,12.36-14,42-19.45,18-3.37,28.8,14.06,35,31.38-6-5.58-10.37-12.72-16.3-18.56-12.41-12.22-17.63-8.14-22.56-.43l-.77,6.83-6.6,1.33c-7.48,3.72-9.47,2.53-6.18,12.65L123,170.93c-1.59,12.39-.86,12.84,6.8,20.07,14,13.26,10.46,14,25.17,28.34,7.2,7,4.85,8.79,13.8,5.9,5.5-4.39,3.83-9.13-4.22-18.2C159.56,201.43,157.58,200.75,155,192.42Zm-13.83-75.35c.93,1.53,7.08-3.71.22,7.88l-18.71,16.3c-7.65,6-15.64,13.41-25.34,18C93.57,134.33,136.6,116.11,141.17,117.07Zm-36.94,13.21c-9.18-6.09-39.46-43.37-48.44-55.16C18.37,26.16,31,56.75,14.71,38.81,12,35.77,7.43,27.61,5.64,24,10.91,16.36,17.74,11.57,25,6.49c3.26,4,8.87,11,10.8,13.75,8.62,12.36.6,9.3,6.49,20.3.46.85,20.89,21.94,24.58,26.22L108,116.56c5.41,6.35,1.16,0,5.33,7Zm-5.33,3.35c-24.43,46.17,5.16,25.82,10.72,31.66,7.65,8-16.16-.37,14.88,39,14.62,18.56,46,62,77.21,16.15,8.31-12.21,11.17-22.08,5.28-37.07-4.2-10.69-12.14-23.39-18.26-32.63-16.36-24.72-21-24.58-41.73-19.76,0,0,12.25-21.37-5.35-21.37-12.62,0-10.66,5.16-21.38,8-10.77-7.23-17.37-17-25.88-27.58C85.72,79.26,78.15,69.28,68.83,59.44c-5.79-6.06-7-9.61-12.17-14.6-10.29-9.89-8.78.46-10.43-14-.08-.71,1.82-1.64-1.13-9.1-.79-2-13-21.74-21-21.74C18,0,0,19.11,0,21.37,0,30,2.72,32.74,6.75,38.69c14.37,21.15,13.66,3.55,30.19,23.25l35.91,44.27C82.23,116.33,88.1,126.4,98.9,133.63Z"/></svg>