<?xml version="1.0" encoding="utf-8"?>
<!-- Generator: Adobe Illustrator 24.1.2, SVG Export Plug-In . SVG Version: 6.00 Build 0)  -->
<svg version="1.1" id="Слой_1" xmlns="http://www.w3.org/2000/svg" xmlns:xlink="http://www.w3.org/1999/xlink" x="0px" y="0px"
	 viewBox="0 0 235.9 235.9" style="enable-background:new 0 0 235.9 235.9;" xml:space="preserve">
<style type="text/css">
	.st0{fill-rule:evenodd;clip-rule:evenodd;fill:#12A8AB;}
	.st1{fill-rule:evenodd;clip-rule:evenodd;fill:#090A0A;}
	.st2{fill-rule:evenodd;clip-rule:evenodd;fill:#D6E5E5;}
</style>
<path class="st0" d="M93.7,6.8c-8.5,15,6.6,18.3,2.2,34.5c-3.2,11.8-14.3,13-18,28c12.8,7.3,38.3,7,49.9-4
	c3.9-17.7-5.6-11.8-17-25.4C109.3,24.8,125.3-3.5,93.7,6.8z"/>
<path class="st0" d="M109.8,80l5.4,15.4c6.9-8.4-1.7-4.8,3.3-16.4c5.1,7.6,2.5,8.4,8,14c0.4-10.2-2-8.8,2.7-15l4.1,13
	c13.6-9.2,13.6-17.8,3-28.7C123.4,77.5,124.7,72.5,109.8,80z"/>
<path class="st0" d="M110.2,97.2l-4.1-16.1c-0.3-0.7-0.7-1.4-1-2C102.2,87.1,102.8,91.8,110.2,97.2z"/>
<path class="st0" d="M93.4,97.6l-6.1-12.4C85.4,99.6,82.7,98.7,93.4,97.6z"/>
<path class="st0" d="M101.8,98.2l-4-12.4c-1.5,1.7-5.1-4.6-2.2,6.4C98.7,103.7,98.1,97.1,101.8,98.2z"/>
<path class="st0" d="M72.8,74.7c4.4,7.5,8.4,5.3,16.5,4.8L72.8,74.7z"/>
<path class="st0" d="M70.4,94.7l0.8-14.5C66.3,86.5,64.7,86.7,70.4,94.7z"/>
<path class="st0" d="M77.2,98.8c3.7-4.1,7.1-3.7,1.2-12.3L77.2,98.8z"/>
<path class="st1" d="M59.5,95.1c20.6,9.3,25.9,13.1,52,7.4c24.9-5.5,24.5-4.1,38.8-21.9c25.3,14.7,28.2,55.1,32.2,82.6
	c5.5,37.9-1.8,58.6-43.4,65.7c-25.4,4.3-76.3-0.6-80.8-31.9c-2.4-16.5-0.8-36.6-2.7-54.1C52.1,111.6,48.4,124.1,59.5,95.1z
	 M93.4,97.6c-10.7,1.1-8,2-6.1-12.4L93.4,97.6z M70.4,94.6c-5.7-7.9-4.1-8.1,0.8-14.5L70.4,94.6z M78.4,86.4
	c5.9,8.7,2.4,8.2-1.2,12.3L78.4,86.4z M101.8,98.2c-3.6-1.1-3.1,5.5-6.2-6.1c-2.9-10.9,0.6-4.7,2.2-6.4L101.8,98.2z M110.2,97.2
	c-7.5-5.4-8-10.1-5.1-18.1c0.4,0.6,0.7,1.3,1,2L110.2,97.2z M109.8,80c14.8-7.5,13.5-2.5,26.4-17.9c10.6,10.9,10.6,19.6-3,28.7
	L129.1,78c-4.6,6.2-2.2,4.8-2.7,15c-5.5-5.6-2.9-6.4-8-14c-4.9,11.6,3.7,8-3.2,16.4L109.8,80z M72.8,74.7l16.5,4.8
	C81.1,80,77.1,82.2,72.8,74.7z M77.9,69.3c3.6-15,14.8-16.2,18-28c4.4-16.3-10.7-19.5-2.3-34.6c31.6-10.2,15.7,18,17.2,33.2
	c11.3,13.6,20.9,7.7,17,25.4C116.3,76.3,90.7,76.6,77.9,69.3z M115.8,2.5C105.4,0,85.2-4.8,84.8,13.1c-0.3,14.1,14.1,18.7,1.1,34.2
	C77.8,56.8,68.7,62,64.2,73.9c-3.8,10.2-0.7,7-7.1,16.9c-14.1,21.5-12.1,20.3-7.7,61c1.4,12.8,1.1,37.5,3.3,47.5
	c10,47.1,111.1,47,132.7,9c12.4-21.9-3.9-101.6-17.1-119.3c-4.4-5.9-6.9-7.4-12.4-11.6c-10.5-8-5.2-6-11.7-15
	c-3.9-5.5-23.3-18.3-26-22.3C108.3,25.7,127.6,28,115.8,2.5z"/>
<path class="st1" d="M68.1,154.6c8.8,5,23.9,11.9,32.3,8.3c-6.2-7.1-16-6.1-27.1-11.6c0,0,5.2-1.2,5.2-1.2c3.8-1.4,2.5-0.6,5.4-2.6
	l-13.5-5.2L68.1,154.6z"/>
<path class="st1" d="M64.3,114.8c11,8.2,29,14.7,41,8c-8.1-5.6-11.2-1.7-22.3-4.7C71.3,115,73.4,110.2,64.3,114.8z"/>
<path class="st1" d="M72.5,197.6c7.1,5.1,24.4,11.1,33.2,8c-6.3-6.7-5.2-3.9-15.5-6.6C79.5,196.3,80.2,193.8,72.5,197.6z"/>
<path class="st1" d="M65.1,125.5c6.4,4.1,17.3,8.5,23.4,3.7c-5.5-4.4-3.7-3.5-11.7-5.3C64.9,121.2,69.8,122.4,65.1,125.5z"/>
<path class="st1" d="M69,162.9c5,5.1,12,7.7,19.1,7.1C82.9,163.2,76.5,158.6,69,162.9z"/>
<path class="st1" d="M67,133.5c5.3,4.4,12.4,9,18.4,5.4C79.6,132.6,73.8,130.2,67,133.5z"/>
<path class="st1" d="M86.5,182c-4.4-9.3-5.4-8.2-16.1-9.4C75.3,180.1,76.4,179.9,86.5,182z"/>
<path class="st1" d="M88.4,189.6l-15-8.5c1.2,5.2-2.7,4.1,5.4,8.7C87,194.6,87,190.6,88.4,189.6z"/>
<path class="st2" d="M72.5,197.6c7.7-3.9,7-1.3,17.7,1.4c10.3,2.6,9.2-0.1,15.5,6.6C96.9,208.7,79.6,202.7,72.5,197.6z M88.4,189.6
	c-1.4,0.9-1.4,4.9-9.7,0.2c-8-4.6-4.2-3.5-5.4-8.7L88.4,189.6z M86.5,182c-10.1-2-11.2-1.9-16.1-9.4C81.1,173.8,82.1,172.7,86.5,182
	z M69,162.9c7.5-4.3,13.9,0.3,19.1,7.1C81,170.5,74,167.9,69,162.9z M70.3,142.3l13.5,5.2c-2.9,2-1.6,1.2-5.4,2.6
	c0,0-5.2,1.1-5.2,1.2c11.1,5.5,21,4.5,27.1,11.6c-8.3,3.5-23.4-3.3-32.3-8.3L70.3,142.3z M67,133.5c6.8-3.3,12.6-0.9,18.4,5.4
	C79.4,142.5,72.2,137.9,67,133.5z M65.1,125.5c4.7-3.1-0.3-4.3,11.8-1.6c7.9,1.8,6.1,0.9,11.7,5.3C82.4,133.9,71.5,129.5,65.1,125.5
	L65.1,125.5z M64.3,114.8c9.1-4.6,7.1,0.2,18.7,3.3c11.1,3,14.1-0.9,22.3,4.7C93.3,129.5,75.2,123,64.3,114.8L64.3,114.8z
	 M59.5,95.1c-11.1,29-7.4,16.5-4,47.7c1.9,17.5,0.3,37.6,2.7,54.1c4.6,31.3,55.4,36.3,80.8,31.9c41.6-7.1,48.9-27.8,43.4-65.7
	c-4-27.5-6.8-67.9-32.2-82.6C136,98.3,136.4,97,111.5,102.4C85.4,108.2,80.1,104.4,59.5,95.1L59.5,95.1z"/>
</svg>
