<svg xmlns="http://www.w3.org/2000/svg" viewBox="0 0 143.6 235.87"><defs><style>.a{fill:#12a8ab;}.a,.b,.c{fill-rule:evenodd;}.b{fill:#090a0a;}.c{fill:#d6e5e5;}</style></defs><path class="a" d="M47.52,6.78c-8.45,15,6.63,18.25,2.24,34.55-3.18,11.82-14.35,13-18,28,12.81,7.29,38.35,7,49.91-4,3.89-17.71-5.64-11.82-17-25.43C63.19,24.75,79.12-3.45,47.52,6.78Z"/><path class="a" d="M63.7,80l5.39,15.36C76,87,67.44,90.57,72.35,79c5.13,7.57,2.52,8.4,8,14,.43-10.23-2-8.79,2.67-15l4.08,13c13.58-9.15,13.6-17.83,3-28.74C77.25,77.5,78.53,72.54,63.7,80Z"/><path class="a" d="M64.1,97.2,60,81.08a19.6,19.6,0,0,0-1.05-2C56.11,87.06,56.62,91.82,64.1,97.2Z"/><path class="a" d="M47.26,97.63,41.2,85.19C39.3,99.59,36.6,98.74,47.26,97.63Z"/><path class="a" d="M55.62,98.17l-4-12.45c-1.53,1.68-5.1-4.56-2.16,6.38C52.56,103.67,52,97.06,55.62,98.17Z"/><path class="a" d="M26.63,74.7C31,82.18,35,80,43.1,79.46Z"/><path class="a" d="M24.24,94.65l.83-14.48C20.13,86.52,18.58,86.74,24.24,94.65Z"/><path class="a" d="M31.05,98.76c3.65-4.13,7.08-3.68,1.22-12.33Z"/><path class="b" d="M13.36,95.08c20.61,9.35,25.94,13.12,52,7.37C90.24,97,89.84,98.34,104.13,80.51c25.34,14.65,28.17,55.08,32.17,82.57,5.5,37.87-1.82,58.62-43.4,65.68-25.43,4.31-76.25-.65-80.84-31.95-2.41-16.49-.77-36.56-2.7-54.05C5.93,111.55,2.3,124.05,13.36,95.08Zm33.9,2.55c-10.66,1.11-8,2-6.06-12.44Zm-23-3c-5.66-7.91-4.11-8.13.83-14.48Zm8-8.22c5.86,8.65,2.43,8.2-1.22,12.33ZM55.62,98.17c-3.6-1.11-3.06,5.5-6.18-6.07-2.94-10.94.63-4.7,2.16-6.38Zm8.48-1c-7.48-5.38-8-10.14-5.13-18.08a19.6,19.6,0,0,1,1.05,2ZM63.7,80c14.83-7.49,13.55-2.53,26.39-17.86,10.63,10.91,10.61,19.59-3,28.74L83,78c-4.62,6.23-2.24,4.79-2.67,15-5.5-5.55-2.89-6.38-8-14C67.44,90.57,76,87,69.09,95.39ZM26.63,74.7,43.1,79.46C35,80,31,82.18,26.63,74.7Zm5.16-5.36c3.62-15.05,14.79-16.19,18-28C54.15,25,39.07,21.83,47.52,6.78c31.6-10.23,15.67,18,17.2,33.16,11.34,13.61,20.87,7.72,17,25.43C70.14,76.29,44.6,76.63,31.79,69.34ZM69.68,2.53C59.25,0,39.07-4.81,38.62,13.1c-.34,14.12,14.14,18.74,1.07,34.19C31.62,56.84,22.54,62,18.09,73.88c-3.82,10.17-.68,7-7.14,16.92-14.06,21.54-12.1,20.32-7.71,61,1.39,12.75,1.13,37.5,3.26,47.51,10,47.14,111.12,47,132.69,9C151.58,186.44,135.25,106.7,122.13,89c-4.37-5.87-6.95-7.45-12.42-11.62-10.52-8-5.22-6-11.71-15-3.94-5.48-23.3-18.32-26-22.31C62.17,25.71,81.48,28,69.68,2.53Z"/><path class="b" d="M21.92,154.55c8.84,5,23.95,11.85,32.29,8.33-6.15-7.08-16-6.09-27.1-11.62,0,0,5.19-1.16,5.21-1.16,3.8-1.39,2.47-.57,5.39-2.61l-13.55-5.24Z"/><path class="b" d="M18.12,114.78c11,8.22,29,14.74,41,8-8.13-5.61-11.17-1.7-22.25-4.68C25.18,115,27.22,110.22,18.12,114.78Z"/><path class="b" d="M26.37,197.64c7.12,5.1,24.44,11.05,33.17,8-6.3-6.69-5.19-3.94-15.48-6.58C33.32,196.33,34.08,193.78,26.37,197.64Z"/><path class="b" d="M19,125.47c6.41,4.05,17.26,8.47,23.42,3.71-5.53-4.42-3.72-3.54-11.66-5.3C18.75,121.21,23.68,122.4,19,125.47Z"/><path class="b" d="M22.86,162.88A24.1,24.1,0,0,0,41.93,170C36.75,163.22,30.4,158.6,22.86,162.88Z"/><path class="b" d="M20.84,133.49c5.25,4.45,12.39,9,18.4,5.36C33.43,132.58,27.67,130.23,20.84,133.49Z"/><path class="b" d="M40.35,182c-4.37-9.27-5.42-8.16-16.13-9.35C29.12,180.09,30.28,179.92,40.35,182Z"/><path class="b" d="M42.24,189.64l-15-8.47c1.17,5.21-2.66,4.11,5.36,8.7C40.83,194.57,40.83,190.58,42.24,189.64Z"/><path class="c" d="M26.37,197.64c7.71-3.86,7-1.31,17.69,1.44,10.29,2.64,9.18-.11,15.48,6.58C50.81,208.69,33.49,202.74,26.37,197.64Zm15.87-8c-1.41.94-1.41,4.93-9.69.23-8-4.59-4.19-3.49-5.36-8.7ZM40.35,182c-10.07-2-11.23-1.87-16.13-9.35C34.93,173.8,36,172.69,40.35,182ZM22.86,162.88c7.54-4.28,13.89.34,19.07,7.09A24.1,24.1,0,0,1,22.86,162.88Zm1.3-20.63,13.55,5.24c-2.92,2-1.59,1.22-5.39,2.61,0,0-5.21,1.13-5.21,1.16,11.14,5.53,21,4.54,27.1,11.62-8.34,3.52-23.45-3.31-32.29-8.33Zm-3.32-8.76c6.83-3.26,12.59-.91,18.4,5.36C33.23,142.47,26.09,137.94,20.84,133.49Zm-1.84-8c4.68-3.07-.25-4.26,11.76-1.59,7.94,1.76,6.13.88,11.66,5.3C36.26,133.94,25.41,129.52,19,125.47Zm-.88-10.69c9.1-4.56,7.06.17,18.71,3.34,11.08,3,14.12-.93,22.25,4.68C47.15,129.52,29.09,123,18.12,114.78Zm-4.76-19.7c-11.06,29-7.43,16.47-4,47.68,1.93,17.49.29,37.56,2.7,54.05,4.59,31.3,55.41,36.26,80.84,31.95,41.58-7.06,48.9-27.81,43.4-65.68-4-27.49-6.83-67.92-32.17-82.57C89.84,98.34,90.24,97,65.4,102.45,39.3,108.2,34,104.43,13.36,95.08Z"/></svg>