<svg xmlns="http://www.w3.org/2000/svg" viewBox="0 0 184.84 239.17"><defs><style>.a{fill:#d4e3e3;}.a,.b,.c,.d{fill-rule:evenodd;}.b{fill:#020202;}.c{fill:#74cbce;}.d{fill:#ec4723;}</style></defs><path class="a" d="M92.74,149.33c-8.25,5-4.85,3.43-10.77-.06C88.26,145,85.23,144.77,92.74,149.33Zm1.27,28c-8.24,7.45-3.34,4.22-9.29,1.1C89,174.73,85.09,172.15,94,177.34Zm-1-9.76c-9.47,5.39-2,3.75-9.61.32C92.88,160.5,87.44,164.07,93,167.58Zm-.06-10c-4.31,3.37-.28,8-9.72.45C91,151.43,88.06,154.83,92.91,157.58Zm-2.64-19.16c-2.69,5.78.26,2.49-5.35,5.13-2.41-4.31-2.81-13.78,7.34-14.83C92.09,130.73,91.15,136.57,90.27,138.42ZM95,198.06c-4,6.18-1.78,5.95-9.58,1.61C91,193.75,89.56,194.8,95,198.06Zm.29-11.29c-5.56,6-3.91,5.45-10.23,2.16C90.81,182.72,88.09,183.46,95.32,186.77ZM107.08,112c-7,4.22.43,6.46-9.41-.06C105.69,105.93,101,108.77,107.08,112Zm-1.47-15.6c-1.33,4.54,1,7.54-7.63,4.63C101.13,94.14,95.35,97.09,105.61,96.43Zm-6.27-8.67c7.91-4.11,1.51-3.23,8.56,0C100.56,90.62,107,91.56,99.34,87.76Zm9.19-23.7c-7.29,9.16-11.31,23.53-20.27,32.35-13,12.81-17.74,13.09-22.48,33.73-6,26.33,1.84,70.69,17.26,92.12,3.75-6.43,4.2-8,2.75-15.81l7.35-1.36c5,11.48-4.62,3.82,3.79,9.72,6.67-32.06-5.58-59.39,2.13-97.2l9.55,10.66c-5.41,6.38-4.82,3.34.09,10.29l-7.23,3.6,7.51,3.63-7.09,6.66,8,3.43L102,162c12.67,6,2.72-1.62,8.87,10.69.82-19.62.48-38.7.82-58.28C112,99.47,120.63,74.41,108.53,64.06Z"/><path class="a" d="M136.9,146.89c-5.55,27.1-9.21,10.77-19.19,23.7,8.25,6.46,23.93,10.35,35.58,12.19l-1.76-28.12Z"/><path class="a" d="M126.5,96.66c-3.49,5-2.35,4-3.2,8.36-1.45,7.46-1.82,2.61-.91,7.32,3,15.76,4.22,10.54-4.34,15l7.8,2.67-8,7,7.48,3.34-7.65,5.08,6.91,3.37c-7.59,8.14-7.68,7,3.29,8.62C131,149.05,132.4,101,126.5,96.66Z"/><path class="b" d="M22.3,48.87C17,122.77,13.62,107.15,26,184.05c2.1,13,7,30.65,8,42.13-18.85-4.74-14.25-17-17.57-35.12C12.23,168.07-6,57.09,22.3,48.87Zm77.92-38.33c20.64,99.05-59.47,68.38-40,166.12,4.34,21.77,13.52,36.76,17.6,55.44l-35.43-1.9C21.56,165,22.07,106.24,29.16,42.8,40.75,36.26,90.56,11.08,100.22,10.54Zm8.31,53.52c12.1,10.35,3.43,35.41,3.17,50.35-.34,19.58,0,38.66-.82,58.28-6.15-12.31,3.8-4.71-8.87-10.69l7.91-6.12-8-3.43,7.09-6.66-7.51-3.63,7.23-3.6c-4.91-6.95-5.5-3.91-.09-10.29l-9.55-10.66c-7.71,37.81,4.54,65.14-2.13,97.2-8.41-5.9,1.19,1.76-3.79-9.72l-7.35,1.36c1.45,7.82,1,9.38-2.75,15.81-15.42-21.43-23.3-65.79-17.26-92.12,4.74-20.64,9.5-20.92,22.48-33.73C97.22,87.59,101.24,73.22,108.53,64.06Zm14.77,41c.85-4.31-.29-3.34,3.2-8.36,5.9,4.34,4.48,52.39,1.36,60.75-11-1.65-10.88-.48-3.29-8.62l-6.91-3.37,7.65-5.08L117.83,137l8-7-7.8-2.67c8.56-4.45,7.32.77,4.34-15C121.48,107.63,121.85,112.48,123.3,105Zm28.23,49.64,1.76,28.12c-11.65-1.84-27.33-5.73-35.58-12.19,10-12.93,13.64,3.4,19.19-23.7Zm8.22,3.37c8.31,4.91,6.07,17.46,3.49,25.91C157,176.94,157.82,163.08,159.75,158ZM135.68,138.5l-.08-42.07-15.22-12.1L123,71.57C117.83,65.14,111.19,58.79,109,53c0-20.84,4.11-36.71-9-53L8.92,46.26C-5.68,86.66.56,135.13,7.13,176.2c4.54,28.55,3.23,46.29,18,54.2,16.78,9,43.54,11.62,60.74,5.24l.51-6.26c15.56-7.26,16.3-4.22,17.32-21.35.8-13,1.9-20.46,11.57-29,5.61,2.47,20.83,6.55,27.49,8.59,11.8,3.63,17.49,5.81,27-1.73l.73-28.71-29.76-15.73C135.29,138.81,138.23,140.26,135.68,138.5Z"/><path class="b" d="M168.82,58.31c1.81-21.94-.68-25.31-4.76-5.9l-3,9.07c7.94.91,12.5,5.84,20.47,9.41C185.12,73,190.42,71.86,168.82,58.31Z"/><path class="b" d="M72.9,48.53c8.61,2.75,12.7,3,13-7.63C76.86,37.93,72.7,37.9,72.9,48.53Z"/><path class="b" d="M84.92,143.55c5.61-2.64,2.66.65,5.35-5.13.88-1.85,1.82-7.69,2-9.7C82.11,129.77,82.51,139.24,84.92,143.55Z"/><path class="b" d="M83.19,158c9.44,7.54,5.41,2.92,9.72-.45C88.06,154.83,91,151.43,83.19,158Z"/><path class="b" d="M85.09,188.93c6.32,3.29,4.67,3.88,10.23-2.16C88.09,183.46,90.81,182.72,85.09,188.93Z"/><path class="b" d="M85.45,199.67c7.8,4.34,5.59,4.57,9.58-1.61C89.56,194.8,91,193.75,85.45,199.67Z"/><path class="b" d="M82,149.27c5.92,3.49,2.52,5.1,10.77.06C85.23,144.77,88.26,145,82,149.27Z"/><path class="b" d="M84.72,178.44c6,3.12,1,6.35,9.29-1.1C85.09,172.15,89,174.73,84.72,178.44Z"/><path class="b" d="M98,101.06c8.68,2.91,6.3-.09,7.63-4.63C95.35,97.09,101.13,94.14,98,101.06Z"/><path class="b" d="M83.36,167.9c7.62,3.43.14,5.07,9.61-.32C87.44,164.07,92.88,160.5,83.36,167.9Z"/><path class="b" d="M97.67,112c9.84,6.52,2.38,4.28,9.41.06C101,108.77,105.69,105.93,97.67,112Z"/><path class="b" d="M99.34,87.76c7.66,3.8,1.22,2.86,8.56,0C100.85,84.53,107.25,83.65,99.34,87.76Z"/><path class="c" d="M85.91,40.9c-.31,10.63-4.4,10.38-13,7.63C72.7,37.9,76.86,37.93,85.91,40.9ZM60.17,176.66c-19.42-97.74,60.69-67.07,40.05-166.12-9.66.54-59.47,25.72-71.06,32.26C22.07,106.24,21.56,165,42.34,230.2l35.43,1.9C73.69,213.42,64.51,198.43,60.17,176.66Z"/><path class="c" d="M159.75,158c-1.93,5.05-2.72,18.91,3.49,25.91C165.82,175.49,168.06,162.94,159.75,158Z"/><path class="d" d="M22.3,48.87C-6,57.09,12.23,168.07,16.46,191.06c3.32,18.08-1.28,30.38,17.57,35.12-1-11.48-5.92-29.14-8-42.13C13.62,107.15,17,122.77,22.3,48.87Z"/></svg>