<?xml version="1.0" encoding="utf-8"?>
<!-- Generator: Adobe Illustrator 24.1.2, SVG Export Plug-In . SVG Version: 6.00 Build 0)  -->
<svg version="1.1" id="Слой_1" xmlns="http://www.w3.org/2000/svg" xmlns:xlink="http://www.w3.org/1999/xlink" x="0px" y="0px"
	 viewBox="0 0 224.7 224.7" style="enable-background:new 0 0 224.7 224.7;" xml:space="preserve">
<style type="text/css">
	.st0{fill-rule:evenodd;clip-rule:evenodd;fill:#BBBBBB;}
	.st1{fill-rule:evenodd;clip-rule:evenodd;fill:#14B5B8;}
	.st2{fill-rule:evenodd;clip-rule:evenodd;fill:#010303;}
	.st3{fill-rule:evenodd;clip-rule:evenodd;fill:#127173;}
</style>
<path class="st0" d="M103.7,104.3c1.3-12,4.6-13.2,13.7-18.8c21.3,1.2,28.1,13.6,11,29C114.3,116.3,110.2,117.3,103.7,104.3z
	 M118.6,74.4c-39.5,11.1-28.4,65.3,9.7,56.8C161.1,123.8,151,65.3,118.6,74.4z"/>
<path class="st0" d="M112.4,107.1c11.9,6.4,18.1,2,18.2-10.7C118.7,87.2,106.6,95.3,112.4,107.1z"/>
<path class="st0" d="M153.6,81.8c6-0.5,31.2-9.8,24.5-18.8C170.1,66.2,153.8,72,153.6,81.8z"/>
<path class="st0" d="M89.4,86C83.8,75,70.6,69.8,59,69.5C62.4,80,78.7,83.6,89.4,86z"/>
<path class="st0" d="M173.3,145.7c-3.7-7.3-15.1-19.2-23.1-22.1C143.4,136.1,162.5,141,173.3,145.7z"/>
<path class="st0" d="M117.1,63.4c6.2-7.8,5.5-25,0.5-33.5C112.1,36.7,113.1,56,117.1,63.4z"/>
<path class="st0" d="M68.8,150.1c9.7-4.4,25.4-11.9,23.5-23C83.6,129.2,73.6,142.4,68.8,150.1z"/>
<path class="st0" d="M123.3,184c5.1-8.4-0.5-26.3-2.7-37C114.9,155.5,119.9,177.9,123.3,184z"/>
<path class="st0" d="M173,209.8c7.6,6.2,17,7.1,21-2.8C188.4,206.2,172.9,206.6,173,209.8z"/>
<path class="st0" d="M51.2,213.8c7,5,14.9,5,21.1-2.7C62.9,211.2,58.2,209.5,51.2,213.8z"/>
<path class="st0" d="M37,149.7c5.6-6.8,6.1-11.1,0.5-18.6C32.8,139,34.6,140,37,149.7z"/>
<path class="st0" d="M34.8,74.7c4.3-6.2,4.7-5.7,0-12.9C31.3,68.1,30.7,66.4,34.8,74.7z"/>
<path class="st1" d="M35.7,50.8c7,17.1,12.5,6.7,3.8,31.2C36,92,38,110.3,38.8,121.9C60,152,33.9,146.9,47,169.4
	c16,9.8,47,7,65.7,6.4l0.3-38.2l-11.6-5.5c-7,8.9-27.6,32.4-39.3,20.3c1.5-12.7,20.2-25.7,28.5-34.5c-5.6-11.4-3.8-12.7-2.8-24.5
	c-14.1-6.8-43.4-11.1-32.6-30.4c14.8-1.8,31.8,8.3,41,18.6c5.2-4.1,10.2-8.5,14.9-13.3l-3-26.7c-12.5-3.7-27.8-1.7-41.1-1.7
	C49.8,39.7,39.9,35.2,35.7,50.8z"/>
<path class="st1" d="M124,65.9L145.1,76c8.7-8.9,25.9-20.9,40.3-18.1c4.9,21.7-16.3,22.5-32.1,32.7c3.3,9.4,2.6,14.8-1.2,24.2
	c10.8,12.8,27.1,18.5,29.8,35.2c-14.2,4.5-32.8-7.3-41-18.2l-14.8,6.9l5.3,36.1c62.6-6.3,60.7,14,61.2-70.5
	c0.4-62.5,3.1-75.1-66-66.1C127.4,49.7,129.8,55.6,124,65.9z"/>
<path class="st2" d="M120.6,147c2.2,10.7,7.8,28.6,2.7,37C119.9,177.9,114.9,155.5,120.6,147z M36.9,149.8
	c-2.3-9.8-4.1-10.8,0.6-18.7C43,138.7,42.6,142.9,36.9,149.8L36.9,149.8z M68.7,150.1c4.8-7.7,14.8-20.8,23.5-23.1
	C94.2,138.2,78.5,145.6,68.7,150.1L68.7,150.1z M150.2,123.7c8.1,3,19.4,14.8,23.1,22.1C162.5,141,143.4,136.1,150.2,123.7
	L150.2,123.7z M118.6,74.4c32.4-9.1,42.5,49.4,9.7,56.8C90.2,139.8,79,85.5,118.6,74.4z M89.4,86c-10.7-2.4-27-6-30.4-16.5
	C70.6,69.8,83.8,75,89.4,86z M34.8,61.8c4.7,7.2,4.3,6.7,0,12.9C30.7,66.4,31.3,68.1,34.8,61.8z M153.6,81.8
	C153.8,72,170.1,66.2,178,63C184.7,72,159.5,81.3,153.6,81.8z M117.2,63.4c-4-7.3-5-26.7,0.5-33.5C122.6,38.4,123.4,55.5,117.2,63.4
	L117.2,63.4z M38.8,121.8C38,110.3,36,92,39.5,82.1c8.7-24.5,3.2-14.1-3.8-31.2c4.2-15.7,14.1-11.2,31.2-11.1
	c13.3,0,28.6-2,41.1,1.7l3,26.7c-4.7,4.7-9.6,9.2-14.8,13.3c-9.2-10.3-26.2-20.4-41-18.6C44.4,82.2,73.6,86.5,87.8,93.3
	c-1,11.8-2.8,13.1,2.8,24.5c-8.4,8.8-27,21.9-28.5,34.5c11.7,12.1,32.3-11.4,39.3-20.3l11.6,5.5l-0.3,38.2
	C94,176.4,63,179.2,47,169.4C33.9,146.9,60,152,38.8,121.8z M145.1,76L124,65.9c5.8-10.3,3.4-16.2,2.5-27.7c69.1-9,66.4,3.6,66,66.1
	c-0.5,84.5,1.4,64.2-61.2,70.5l-5.3-36.1l14.8-6.9c8.2,10.9,26.8,22.8,41,18.2c-2.6-16.7-19-22.4-29.8-35.2
	c3.8-9.4,4.5-14.8,1.2-24.2c15.8-10.2,37-11,32.1-32.7C170.9,55.1,153.8,67.2,145.1,76z M101.7,33.6c-18.3,0-49-2.4-65.4,2.7
	c-15.8,10-4.1,43.2-4,73.3c0.1,14.2-3.7,18.9-3.4,29.4c0.3,11.6,4.1,12.5,7.9,22.1c4.6,11.7,1.5,13.3,14.8,17.3
	c17.7,5.3,39.5,3.4,58.1,3.3l15.4,9.1c16.6-8.3-1.1-10.8,30-10.3c54.4,0.8,43.3-32.2,43.4-81.6c0.2-67-3.7-70.8-48.8-67.6
	c-28.5,2-19-4.8-34.7-7.7C103.3,30.2,111.8,30.5,101.7,33.6z"/>
<path class="st2" d="M51.2,213.8c7-4.4,11.7-2.7,21.1-2.7C66,218.9,58.2,218.9,51.2,213.8z M194,207c-4,9.9-13.4,9-21,2.8
	C172.9,206.6,188.4,206.2,194,207z M94.2,9.9c26.5-3.5,66.8-5.6,92.9,0.7c16.5,4,15.3,18.8,17.1,33.9c5.6,47.5,3.8,48.6,4.6,94.4
	c0.9,54.2,12.8,59.1-29.7,61.8c-41.4,2.6-98.6,11.2-138.8,2.4c-20.2-4.4-18.4-13.9-19-32.2c-0.5-15-2.2-30.1-2.8-45.4
	C13.6-2.1,3.3,22,94.2,9.9z M55.9,224.7c4.9-0.6,13.2-2.3,17.2-4.7c10.3-6.3-0.7-5.3,12.5-8.9c25.2,0,54.3,3.4,77.7-2.9
	c4.3,7.1,2.5,8.6,12.7,11.6c20.8,6.1,23.2-10.8,28.2-15.7c17.4-16.7,12.3-0.3,12.4-49.2c0-13.9,1-32.1,0-45.4
	c-0.7-9-2.4-8.5-2.8-18.6c-0.3-7.7,0.7-16.6,0.1-24.2c-0.6-8.7-2.1-8.7-2.7-18.7C208.8,3.8,197.4-0.3,144.4,0
	c-25,0.1-108.5,5.6-122,14.3C-0.8,29.2,9.9,65.4,10.8,88.1c0.5,13.7-1.6,32.1,0.5,45c2.6,16.6,0.6,27.7,2.3,43.1
	c4.3,39.6,20.7,27.8,30.1,36.7C49.3,218.2,41.9,216.3,55.9,224.7z"/>
<path class="st2" d="M112.4,107.1c-5.8-11.8,6.3-19.9,18.2-10.7C130.5,109.1,124.3,113.5,112.4,107.1z M103.7,104.3
	c6.5,13,10.5,11.9,24.7,10.2c17.1-15.4,10.4-27.8-11-29C108.4,91.2,105.1,92.3,103.7,104.3z"/>
<path class="st3" d="M101.7,33.6c10.1-3.1,1.6-3.4,13.3-9.9c15.6,2.9,6.2,9.6,34.7,7.7c45-3.2,49,0.5,48.8,67.6
	c-0.1,49.4,11,82.4-43.4,81.6c-31.1-0.4-13.5,2-30,10.3l-15.5-9.1c-18.5,0.1-40.4,2-58.1-3.3c-13.3-4-10.2-5.5-14.8-17.3
	c-3.8-9.6-7.6-10.5-7.8-22.1c-0.3-10.5,3.5-15.2,3.4-29.4c-0.1-30.1-11.7-63.4,4-73.3C52.7,31.1,83.4,33.6,101.7,33.6z M94.2,9.9
	C3.3,22,13.6-2.1,18.4,125.6c0.6,15.4,2.4,30.4,2.8,45.4c0.6,18.3-1.2,27.8,19,32.2c40.3,8.8,97.5,0.2,138.8-2.4
	c42.5-2.7,30.6-7.6,29.7-61.8c-0.8-45.8,1-46.9-4.6-94.4c-1.8-15.2-0.6-29.9-17.1-33.9C161,4.3,120.7,6.4,94.2,9.9z"/>
</svg>
