<svg xmlns="http://www.w3.org/2000/svg" viewBox="0 0 209.62 224.74"><defs><style>.a{fill:#bbb;}.a,.b,.c,.d{fill-rule:evenodd;}.b{fill:#14b5b8;}.c{fill:#010303;}.d{fill:#127173;}</style></defs><path class="a" d="M96.17,104.33c1.34-12,4.63-13.15,13.7-18.77,21.34,1.22,28.09,13.61,11,29C106.69,116.26,102.67,117.28,96.17,104.33ZM111,74.45c-39.54,11.08-28.38,65.34,9.69,56.78C153.55,123.83,143.43,65.32,111,74.45Z"/><path class="a" d="M104.85,107.08c11.93,6.38,18.08,2,18.2-10.69C111.14,87.21,99.07,95.29,104.85,107.08Z"/><path class="a" d="M146,81.85c6-.51,31.18-9.81,24.46-18.82C162.53,66.23,146.21,72,146,81.85Z"/><path class="a" d="M81.8,86C76.28,75,63,69.83,51.42,69.46,54.82,80,71.12,83.58,81.8,86Z"/><path class="a" d="M165.79,145.74c-3.74-7.28-15.08-19.16-23.13-22.11C135.89,136.08,154.91,141,165.79,145.74Z"/><path class="a" d="M109.55,63.37c6.24-7.85,5.47-25,.51-33.45C104.51,36.69,105.53,56,109.55,63.37Z"/><path class="a" d="M61.2,150.05c9.72-4.42,25.39-11.85,23.47-23C76,129.24,66,142.43,61.2,150.05Z"/><path class="a" d="M115.71,184c5.15-8.44-.51-26.27-2.67-37C107.31,155.46,112.3,177.94,115.71,184Z"/><path class="a" d="M165.45,209.75c7.63,6.21,17,7.14,21-2.78C180.82,206.23,165.31,206.55,165.45,209.75Z"/><path class="a" d="M43.62,213.83c7,5,14.85,5,21.09-2.66C55.36,211.17,50.65,209.46,43.62,213.83Z"/><path class="a" d="M29.39,149.74c5.58-6.83,6.09-11.08.51-18.62C25.28,139,27,140,29.39,149.74Z"/><path class="a" d="M27.24,74.65c4.3-6.21,4.67-5.67,0-12.87C23.75,68.1,23.13,66.37,27.24,74.65Z"/><path class="b" d="M28.14,50.84c7,17.12,12.53,6.74,3.8,31.21-3.54,9.92-1.5,28.2-.68,39.8,21.2,30.18-4.9,25.08,8.16,47.56,16,9.78,47,7,65.68,6.35l.32-38.21-11.63-5.47c-7,8.9-27.61,32.4-39.31,20.27C56,139.7,74.66,126.61,83,117.82c-5.64-11.45-3.82-12.7-2.83-24.55C66.07,86.5,36.82,82.16,47.56,62.86c14.77-1.82,31.81,8.27,41,18.59a152.37,152.37,0,0,0,14.88-13.29l-3-26.7c-12.53-3.69-27.84-1.68-41.1-1.73C42.2,39.67,32.31,35.19,28.14,50.84Z"/><path class="b" d="M116.47,65.89,137.53,76c8.73-8.87,25.85-20.92,40.25-18.09,4.94,21.74-16.3,22.54-32.06,32.69,3.29,9.38,2.56,14.77-1.21,24.15,10.8,12.81,27.15,18.48,29.76,35.2-14.17,4.54-32.77-7.28-41-18.22l-14.85,6.91,5.33,36.12c62.64-6.32,60.71,14,61.22-70.53.37-62.45,3.12-75.09-66-66.07C119.84,49.65,122.28,55.6,116.47,65.89Z"/><path class="c" d="M113,147c2.16,10.72,7.82,28.55,2.67,37C112.3,177.94,107.31,155.46,113,147Zm-83.65,2.78C27,140,25.28,139,29.9,131.12,35.48,138.66,35,142.91,29.39,149.74Zm31.81.31C66,142.43,76,129.24,84.67,127,86.59,138.2,70.92,145.63,61.2,150.05Zm81.46-26.42c8.05,3,19.39,14.83,23.13,22.11C154.91,141,135.89,136.08,142.66,123.63ZM111,74.45c32.43-9.13,42.55,49.38,9.69,56.78C82.62,139.79,71.46,85.53,111,74.45ZM81.8,86c-10.68-2.38-27-6-30.38-16.5C63,69.83,76.28,75,81.8,86ZM27.24,61.78c4.67,7.2,4.3,6.66,0,12.87C23.13,66.37,23.75,68.1,27.24,61.78ZM146,81.85C146.21,72,162.53,66.23,170.41,63,177.13,72,151.93,81.34,146,81.85Zm-36.4-18.48c-4-7.34-5-26.68.51-33.45C115,38.37,115.79,55.52,109.55,63.37ZM31.26,121.85c-.82-11.6-2.86-29.88.68-39.8,8.73-24.47,3.18-14.09-3.8-31.21C32.31,35.19,42.2,39.67,59.3,39.73c13.26.05,28.57-2,41.1,1.73l3,26.7A152.37,152.37,0,0,1,88.55,81.45C79.37,71.13,62.33,61,47.56,62.86,36.82,82.16,66.07,86.5,80.19,93.27c-1,11.85-2.81,13.1,2.83,24.55-8.36,8.79-27,21.88-28.54,34.53,11.7,12.13,32.34-11.37,39.31-20.27l11.63,5.47-.32,38.21c-18.68.62-49.63,3.43-65.68-6.35C26.36,146.93,52.46,152,31.26,121.85ZM137.53,76,116.47,65.89c5.81-10.29,3.37-16.24,2.52-27.69,69.11-9,66.36,3.62,66,66.07-.51,84.5,1.42,64.21-61.22,70.53l-5.33-36.12,14.85-6.91c8.22,10.94,26.82,22.76,41,18.22-2.61-16.72-19-22.39-29.76-35.2,3.77-9.38,4.5-14.77,1.21-24.15,15.76-10.15,37-11,32.06-32.69C163.38,55.12,146.26,67.17,137.53,76ZM94.11,33.58c-18.29,0-49-2.44-65.4,2.74-15.76,10-4.11,43.2-4,73.34.06,14.23-3.68,18.88-3.43,29.39.29,11.62,4.08,12.5,7.85,22.11,4.57,11.74,1.45,13.3,14.8,17.27,17.69,5.27,39.54,3.43,58.08,3.31l15.37,9.07c16.58-8.3-1.11-10.77,30-10.32,54.43.77,43.26-32.23,43.4-81.58.2-67-3.71-70.75-48.75-67.57-28.55,2-19-4.79-34.7-7.66C95.72,30.23,104.22,30.49,94.11,33.58Z"/><path class="c" d="M43.62,213.83c7-4.37,11.74-2.66,21.09-2.66C58.47,218.85,50.62,218.85,43.62,213.83ZM186.43,207c-4,9.92-13.35,9-21,2.78C165.31,206.55,180.82,206.23,186.43,207ZM86.68,9.91c26.5-3.52,66.78-5.62,92.89.7,16.47,4,15.28,18.77,17.06,33.94,5.59,47.5,3.8,48.61,4.57,94.45.88,54.22,12.78,59.1-29.74,61.79C130.11,203.43,72.9,212,32.62,203.2c-20.18-4.42-18.37-13.89-19-32.23-.48-15-2.24-30.05-2.84-45.41C6.06-2.14-4.23,22,86.68,9.91ZM48.38,224.74c4.88-.56,13.18-2.26,17.15-4.67,10.35-6.27-.73-5.28,12.47-8.9,25.18,0,54.34,3.43,77.73-2.9,4.28,7.06,2.47,8.56,12.67,11.6,20.78,6.15,23.16-10.77,28.23-15.68C214,187.5,208.88,203.91,209,155c0-13.86,1-32.12,0-45.44-.66-9-2.39-8.48-2.78-18.59-.31-7.66.68-16.64.11-24.18-.65-8.68-2.15-8.74-2.69-18.68C201.2,3.75,189.89-.27,136.82,0c-25,.14-108.51,5.62-122,14.32C-8.4,29.24,2.38,65.38,3.28,88.11c.54,13.67-1.56,32.06.46,45,2.6,16.58.59,27.72,2.29,43.14,4.34,39.6,20.72,27.75,30.14,36.68C41.75,218.22,34.29,216.27,48.38,224.74Z"/><path class="c" d="M104.85,107.08c-5.78-11.79,6.29-19.87,18.2-10.69C122.93,109.09,116.78,113.46,104.85,107.08Zm-8.68-2.75c6.5,13,10.52,11.93,24.67,10.23,17.12-15.39,10.37-27.78-11-29C100.8,91.18,97.51,92.28,96.17,104.33Z"/><path class="d" d="M94.11,33.58c10.11-3.09,1.61-3.35,13.29-9.9,15.65,2.87,6.15,9.64,34.7,7.66,45-3.18,49,.53,48.75,67.57-.14,49.35,11,82.35-43.4,81.58-31.15-.45-13.46,2-30,10.32L102,181.74c-18.54.12-40.39,2-58.08-3.31-13.35-4-10.23-5.53-14.8-17.27-3.77-9.61-7.56-10.49-7.85-22.11-.25-10.51,3.49-15.16,3.43-29.39C24.6,79.52,13,46.3,28.71,36.32,45.12,31.14,75.82,33.58,94.11,33.58ZM86.68,9.91C-4.23,22,6.06-2.14,10.82,125.56c.6,15.36,2.36,30.44,2.84,45.41.59,18.34-1.22,27.81,19,32.23,40.28,8.82,97.49.23,138.84-2.41C214,198.1,202.08,193.22,201.2,139c-.77-45.84,1-46.95-4.57-94.45-1.78-15.17-.59-29.94-17.06-33.94C153.46,4.29,113.18,6.39,86.68,9.91Z"/></svg>