<svg xmlns="http://www.w3.org/2000/svg" viewBox="0 0 213.47 230.6"><defs><style>.a{fill:#c16327;}.a,.b,.c,.d,.e,.f,.g,.h{fill-rule:evenodd;}.b{fill:#fdbe10;}.c{fill:#74cbce;}.e{fill:#c46528;}.f{fill:#020303;}.g{fill:#120904;}.h{fill:#ba6026;}</style></defs><path class="a" d="M115.14,222.75c12.56-3.66,7.66-37.11,0-44.25-3.34,4.82-2,0-3.28,6.6C111.54,186.69,111.86,216.23,115.14,222.75Z"/><path class="a" d="M9.55,87.65c25.63,5.67,21.29-1.39,22.37-4-3.43-3.12.31-5.55-12.67-2.78C14.57,81.86,11,83.82,9.55,87.65Z"/><path class="a" d="M186.58,81c4.73,8.42,9.92,6.6,20.63,3.82-1.33-3.68.26-4.13-7.14-6C188.39,75.74,191,78,186.58,81Z"/><path class="b" d="M42.94,33.31c7.23,17.23,38.5,16.72,56.16,18,56.38,4,63.81-32.15,33.59-33l1.67,11.25c-52.58,8.53-25.57,5.19-62.08.14L71.15,17.06C55.73,21.18,49.27,18.23,42.94,33.31Z"/><path class="b" d="M78,22.05c17.83,11,30.22,5.81,49.77,2C120.1.77,86.74,3.2,78,22.05Z"/><path class="c" d="M106.75,109.79c9-3.89,10.69-2.78,15.79,5.89-2.83,10.8-6.18,12.81-16.3,8.85C102,115,102.13,117,106.75,109.79Zm-2.24-10.32c-6.2-12.5,5.76-20.41,15.23-10.06C119.17,99.38,114.12,104.63,104.51,99.47ZM40.31,78.18c-4.37,8.5-3.09,14.74-1.76,24l14.94,4.67c1.9,34.3-11.93,59.31,27.18,64.29,19,2.44,68.6,2.3,85.33-4.53,6.71-19.93,2.43-33.22,1.9-53.72l10.91-5.13L179.57,76c-31.83-10-44.1-4.71-64.8-.91C93,79.12,59.64,67.21,40.31,78.18Z"/><path class="d" d="M115.14,222.75c-3.28-6.52-3.6-36.06-3.28-37.65,1.24-6.63-.06-1.78,3.28-6.6C122.8,185.64,127.7,219.09,115.14,222.75ZM40.31,78.18c19.33-11,52.64.94,74.46-3.06,20.7-3.8,33-9.13,64.8.91l-.76,31.77-10.91,5.13c.53,20.5,4.81,33.79-1.9,53.72-16.73,6.83-66.31,7-85.33,4.53-39.11-5-25.28-30-27.18-64.29l-14.94-4.67C37.22,92.92,35.94,86.68,40.31,78.18Zm-8.39,5.44c-1.08,2.64,3.26,9.7-22.37,4,1.42-3.83,5-5.79,9.7-6.81C32.23,78.07,28.49,80.5,31.92,83.62Zm175.29,1.16c-10.71,2.78-15.9,4.6-20.63-3.82,4.42-2.92,1.81-5.22,13.49-2.18C207.47,80.65,205.88,81.1,207.21,84.78ZM127.56,57.2C122.2,74.61,89.63,75,83.37,56.55ZM78,22.05c8.7-18.85,42.06-21.28,49.77,2C108.26,27.86,95.87,33.05,78,22.05ZM42.94,33.31c6.33-15.08,12.79-12.13,28.21-16.25l1.13,12.56c36.51,5.05,9.5,8.39,62.08-.14l-1.67-11.25c30.22.9,22.79,37-33.59,33.05C81.44,50,50.17,50.54,42.94,33.31Zm-5.3-3.15c0,21.06,19.25,23.19,37,24.52L80,67.78c-33.93-.91-16.75-1-43.37,4.16C21.4,74.92,10.94,71.52,0,86.06c8.7,13.15,15,7.4,31.83,8.7l1.42,13.92,15,2c0,11.51,0,16.25-1.7,27.56-5.41,37,26.11,41.64,57.86,41.58,0,12.16,2.69,14.6,2.75,26.65.05,14.91-3.69,16.66,7.93,24.12,22.65-6.12,10.72-36.45,10.69-53.43,49.15,0,55.33,2.63,47.88-59,12.21-9.44,13.58-6.12,13.6-26.51,9.58,2.33,17.35,2.9,26-3.37,2.06-21-20.22-15.14-30.65-17.18-23.07-4.48,2.89-6.18-48.84-6.18.43-18,4.68-6.88,16.87-20.55,8.93-10,6.83-14.85,2.75-25.79-11.94-5.9-20.33-6.27-28.77-11.31C97.11-9.13,95,6.52,62.7,12.47,51.17,14.6,40.85,18.34,37.64,30.16Z"/><path class="e" d="M127.56,57.2l-44.19-.65C89.63,75,122.2,74.61,127.56,57.2Z"/><path class="f" d="M112.37,113.27c6.06,8.54,4.45,1.56-.06,8C106,114.8,108.91,118.38,112.37,113.27Zm-5.62-3.48c-4.62,7.22-4.79,5.24-.51,14.74,10.12,4,13.47,2,16.3-8.85C117.44,107,115.71,105.9,106.75,109.79Z"/><path class="g" d="M104.51,99.47c9.61,5.16,14.66-.09,15.23-10.06C110.27,79.06,98.31,87,104.51,99.47Z"/><path class="h" d="M112.31,121.32c4.51-6.49,6.12.49.06-8C108.91,118.38,106,114.8,112.31,121.32Z"/></svg>