<svg xmlns="http://www.w3.org/2000/svg" viewBox="0 0 163.31 203.84"><defs><style>.a{fill:#040404;}.a,.b,.c,.d{fill-rule:evenodd;}.c{fill:#b8b8b8;}.d{fill:#090909;}</style></defs><path class="a" d="M139.44,189.31c6.52-7.59,7.09-21.8,3.72-31.55C137.46,165.25,136.5,179.65,139.44,189.31Z"/><path class="a" d="M129.86,181.66c6-6.55,6.75-16.5,2.55-25.23C127,161.7,126.26,174.15,129.86,181.66Z"/><path class="b" d="M52.73,78.36C78.7,62,41.48,39.25,38.7,20,50.07,32.9,57.92,58.78,76.06,54.78c7.85-16.67-7.25-34.07-14.88-48.42,10.26,4.43,21.94,29,27.41,40.88,9,19.62,3.57,23.5-2.66,39.83,16,36.19,39.28,38.75,59.44,64.43,28.26,36-8.93,62.73-29.45,32.43C101.74,163,95.05,120.37,76.63,99.57,64.58,85.93,57.81,96.73,42.78,80,36.07,72.44,21.3,50.13,16.31,41,26.74,52.82,36.29,74.76,52.73,78.36ZM67.19,98.92c8.19,10.74,11.39,15.84,17.86,29,15.08,30.52,26.05,93.6,63.86,71.26C199.43,169.36,101.35,110,94.52,91.29c-2.1-12.39,8.1-25,3.11-40.17C93.64,38.88,77,12.52,68.78,1.77c-8.59-2.24-9-2.63-17,.46,6.58,13.46,24.8,34.15,18.54,46.71C52.79,41.34,54.75,10.39,29.06,12,27.79,38,56.22,42.08,54.77,71.31,40.18,70.06,40,59.68,31.19,49.25c-5.36-6.35-17.77-22-21.88-28.68-12,7.51-12.16,9.86-1.93,22C26.57,65.52,33.68,94.49,67.19,98.92Z"/><path class="c" d="M139.44,189.31c-2.94-9.66-2-24.06,3.72-31.55C146.53,167.51,146,181.72,139.44,189.31Zm-9.58-7.65c-3.6-7.51-2.89-20,2.55-25.23C136.61,165.16,135.82,175.11,129.86,181.66Zm-10.51-12.25c-3.4-7.82-2.64-11.93,4.14-16.95C124.7,160.14,124.53,164,119.35,169.41Zm-66.62-91c-16.44-3.6-26-25.54-36.42-37.39,5,9.16,19.76,31.47,26.47,39,15,16.78,21.8,6,33.85,19.62,18.42,20.8,25.11,63.46,39.29,84.36,20.52,30.3,57.71,3.57,29.45-32.43-20.16-25.68-43.43-28.24-59.44-64.43,6.23-16.33,11.65-20.21,2.66-39.83C83.12,35.31,71.44,10.79,61.18,6.36c7.63,14.35,22.73,31.75,14.88,48.42-18.14,4-26-21.88-37.36-34.81C41.48,39.25,78.7,62,52.73,78.36Z"/><path class="d" d="M119.35,169.41c5.18-5.38,5.35-9.27,4.14-16.95C116.71,157.48,116,161.59,119.35,169.41Z"/></svg>