<?xml version="1.0" encoding="utf-8"?>
<!-- Generator: Adobe Illustrator 24.1.2, SVG Export Plug-In . SVG Version: 6.00 Build 0)  -->
<svg version="1.1" id="Слой_1" xmlns="http://www.w3.org/2000/svg" xmlns:xlink="http://www.w3.org/1999/xlink" x="0px" y="0px"
	 viewBox="0 0 203.8 203.8" style="enable-background:new 0 0 203.8 203.8;" xml:space="preserve">
<style type="text/css">
	.st0{fill-rule:evenodd;clip-rule:evenodd;fill:#040404;}
	.st1{fill-rule:evenodd;clip-rule:evenodd;}
	.st2{fill-rule:evenodd;clip-rule:evenodd;fill:#B8B8B8;}
	.st3{fill-rule:evenodd;clip-rule:evenodd;fill:#090909;}
</style>
<path class="st0" d="M159.7,189.3c6.5-7.6,7.1-21.8,3.7-31.6C157.7,165.3,156.8,179.6,159.7,189.3z"/>
<path class="st0" d="M150.1,181.7c6-6.6,6.8-16.5,2.6-25.2C147.3,161.7,146.5,174.1,150.1,181.7z"/>
<path class="st1" d="M73,78.4C99,62,61.7,39.3,59,20c11.4,12.9,19.2,38.8,37.4,34.8c7.8-16.7-7.3-34.1-14.9-48.4
	c10.3,4.4,21.9,29,27.4,40.9c9,19.6,3.6,23.5-2.7,39.8c16,36.2,39.3,38.8,59.4,64.4c28.3,36-8.9,62.7-29.4,32.4
	C122,163,115.3,120.4,96.9,99.6C84.8,85.9,78.1,96.7,63,80c-6.7-7.6-21.5-29.9-26.5-39C47,52.8,56.6,74.8,73,78.4z M87.5,98.9
	c8.2,10.7,11.4,15.8,17.9,29c15.1,30.5,26.1,93.6,63.9,71.3c50.5-29.8-47.6-89.2-54.4-107.9c-2.1-12.4,8.1-25,3.1-40.2
	c-4-12.2-20.6-38.6-28.8-49.4c-8.6-2.2-9-2.6-17,0.5c6.6,13.5,24.8,34.2,18.5,46.7C73.1,41.3,75,10.4,49.3,12
	C48.1,38,76.5,42.1,75,71.3c-14.6-1.3-14.8-11.6-23.6-22.1c-5.4-6.3-17.8-22-21.9-28.7c-12,7.5-12.2,9.9-1.9,22
	C46.8,65.5,53.9,94.5,87.5,98.9z"/>
<path class="st2" d="M159.7,189.3c-2.9-9.7-2-24.1,3.7-31.6C166.8,167.5,166.3,181.7,159.7,189.3z M150.1,181.7
	c-3.6-7.5-2.9-20,2.6-25.2C156.9,165.2,156.1,175.1,150.1,181.7z M139.6,169.4c-3.4-7.8-2.6-11.9,4.1-16.9
	C145,160.1,144.8,164,139.6,169.4z M73,78.4C56.6,74.8,47,52.9,36.6,41c5,9.2,19.8,31.5,26.5,39c15,16.8,21.8,6,33.8,19.6
	c18.4,20.8,25.1,63.5,39.3,84.4c20.5,30.3,57.7,3.6,29.4-32.4c-20.2-25.7-43.4-28.2-59.4-64.4c6.2-16.3,11.7-20.2,2.7-39.8
	c-5.5-12-17.1-36.5-27.4-41c7.6,14.4,22.7,31.8,14.9,48.4c-18.1,4-26-21.9-37.4-34.8C61.7,39.3,99,62,73,78.4L73,78.4z"/>
<path class="st3" d="M139.6,169.4c5.2-5.4,5.3-9.3,4.1-16.9C137,157.5,136.3,161.6,139.6,169.4z"/>
</svg>
