<svg xmlns="http://www.w3.org/2000/svg" viewBox="0 0 132.64 252.33"><defs><style>.a{fill:#b5b5b5;}.a,.b,.c,.d{fill-rule:evenodd;}.b{fill:#39b07a;}.c{fill:#71c397;}.d{fill:#030403;}</style></defs><path class="a" d="M18.72,161.87c2.41,1.56-5,7.31,17-3.91,13.27-6.72,44.7-20,48.53-29.77Z"/><path class="a" d="M26.49,207.19c12.24-2.69,42.66-15.5,50.31-24.49C66.09,185.51,31,198.72,26.49,207.19Z"/><path class="a" d="M36.72,58.06c6.27,2.78,5.93,2.13,14.34-2.43C55.8,53,61.89,50,65.66,47.46,56.65,48,44.4,52.54,36.72,58.06Z"/><path class="a" d="M53.76,239.65c6.55,3.43,22.05-5.87,25-12.53Z"/><path class="a" d="M31.22,112.77c7,5-1.87,6,10.66.74,6.27-2.64,7.8-3.6,12-7.68Z"/><path class="a" d="M37.52,30.45l11.59-6.29C40.66,23.51,39.7,22.86,37.52,30.45Z"/><path class="a" d="M81,39.16c-.2.22-.71.22-.74.51l-.31,0C81,38.84,83.1,37.23,81,39.16Z"/><path class="b" d="M14,23.31l14.85,4.2c19.76-16.1,23.76-9.22,72.82-13-.25-.34,2.67-6.57-19-7.88C65.66,5.68,23.94,16.73,14,23.31Z"/><path class="b" d="M9.14,32.52,6.84,46.7,25.1,50l.45-16.21C16.57,31.62,17.39,30.28,9.14,32.52Z"/><path class="b" d="M87.94,36c6-5.67,6.72-7.71,7.43-14.83l-14.8-.62Z"/><path class="b" d="M113.12,25l12.41-1.24c-1.78-10,2.27-4.94-6.94-10.63Z"/><path class="c" d="M15.72,174.74c-.29,11.88-.8,15.25,6.43,23.44L96.05,166l-6.94-28.52Z"/><path class="c" d="M50.27,233.64c25-12.13,50.15-19.08,47.93-52.95-2.26.62-63.18,30.87-66.61,33.53Z"/><path class="c" d="M21.64,150.53c11.74-.65,48.11-22.08,60.38-28.77l-3.86-18.48C65.75,107,53.7,114,42.65,119.26,23.77,128.33,25.72,130.32,21.64,150.53Z"/><path class="c" d="M43.72,80.29l-8,22.08c9-1,17.4-4.59,25.4-7.34C73,91,76,90.46,72.58,79,62.72,73.88,54.3,76.4,43.72,80.29Z"/><path class="c" d="M32.13,50.18c12.76-1.56,39.74-9.78,45-22.31C62.55,19,64.44,22,52.11,29.89,36.24,40.06,30,33.74,32.13,50.18Z"/><path class="c" d="M39.84,71.84,71.56,70,82,48.62a178.39,178.39,0,0,0-21.57,8.51c-3.6,1.7-7.12,3.37-10.72,5.13C37.54,68.24,42.79,63.39,39.84,71.84Z"/><path class="d" d="M53.76,239.65l25-12.53C75.81,233.78,60.31,243.08,53.76,239.65Zm-3.49-6L31.59,214.22c3.43-2.66,64.35-32.91,66.61-33.53C100.42,214.56,75.3,221.51,50.27,233.64ZM26.49,207.19c4.48-8.47,39.6-21.68,50.31-24.49C69.15,191.69,38.73,204.5,26.49,207.19Zm62.62-69.67L96.05,166l-73.9,32.14c-7.23-8.19-6.72-11.56-6.43-23.44Zm-4.85-9.33C80.43,137.94,49,151.24,35.73,158c-22,11.22-14.6,5.47-17,3.91ZM21.64,150.53c4.08-20.21,2.13-22.2,21-31.27,11.05-5.3,23.1-12.3,35.51-16L82,121.76C69.75,128.45,33.38,149.88,21.64,150.53Zm32.23-44.7c-4.19,4.08-5.72,5-12,7.68-12.53,5.27-3.71,4.28-10.66-.74ZM43.72,80.29c10.58-3.89,19-6.41,28.86-1.31C76,90.46,73,91,61.13,95c-8,2.75-16.44,6.38-25.4,7.34Zm-3.88-8.45c2.95-8.45-2.3-3.6,9.89-9.58,3.6-1.76,7.12-3.43,10.72-5.13A178.39,178.39,0,0,1,82,48.62L71.56,70ZM36.72,58.06c7.68-5.52,19.93-10,28.94-10.6C61.89,50,55.8,53,51.06,55.63,42.65,60.19,43,60.84,36.72,58.06ZM80.29,39.67c0-.29.54-.29.74-.51,2.07-1.93,0-.32-1,.56ZM9.14,32.52c8.25-2.24,7.43-.9,16.41,1.31L25.1,50,6.84,46.7Zm23,17.66c-2.18-16.44,4.11-10.12,20-20.29C64.44,22,62.55,19,77.17,27.87,71.87,40.4,44.89,48.62,32.13,50.18Zm86.46-37.07c9.21,5.69,5.16.59,6.94,10.63L113.12,25ZM87.94,36,80.57,20.59l14.8.62C94.66,28.33,94,30.37,87.94,36ZM37.52,30.45c2.18-7.59,3.14-6.94,11.59-6.29ZM14,23.31c10-6.58,51.67-17.63,68.62-16.64,21.72,1.31,18.8,7.54,19,7.88-49.06,3.74-53.06-3.14-72.82,13ZM.38,48.94c8,6.29,18.28,8.13,28.23,9.15C38.76,86.3,38.73,73,26.74,108.75c-6.4,19.1-10.85,37-15.3,56.86-5.81,26-1.17,28.49,13.83,50.85,44.33,66,53.49,24.5,65.31,4.26,10.71-18.37,17.18-24.27,13.72-45.73-3.09-18.93-7.48-33.22-13.41-50.88C86.5,111,81.57,82.41,76.72,73.65c8.64-11.28,9.41-27.12,17.71-33.53,11.91-9.18,27.27-4.22,38.19-15.25C134-4.87,77.48-1,59.09,2.11,23.94,8.12-3.59,15.32.38,48.94Z"/></svg>