<?xml version="1.0" encoding="utf-8"?>
<!-- Generator: Adobe Illustrator 24.1.2, SVG Export Plug-In . SVG Version: 6.00 Build 0)  -->
<svg version="1.1" id="Слой_1" xmlns="http://www.w3.org/2000/svg" xmlns:xlink="http://www.w3.org/1999/xlink" x="0px" y="0px"
	 viewBox="0 0 252.3 252.3" style="enable-background:new 0 0 252.3 252.3;" xml:space="preserve">
<style type="text/css">
	.st0{fill-rule:evenodd;clip-rule:evenodd;fill:#B5B5B5;}
	.st1{fill-rule:evenodd;clip-rule:evenodd;fill:#39B07A;}
	.st2{fill-rule:evenodd;clip-rule:evenodd;fill:#71C397;}
	.st3{fill-rule:evenodd;clip-rule:evenodd;fill:#030403;}
</style>
<path class="st0" d="M78.6,161.9c2.4,1.6-5,7.3,17-3.9c13.3-6.7,44.7-20,48.5-29.8L78.6,161.9z"/>
<path class="st0" d="M86.3,207.2c12.2-2.7,42.7-15.5,50.3-24.5C125.9,185.5,90.8,198.7,86.3,207.2z"/>
<path class="st0" d="M96.6,58.1c6.3,2.8,5.9,2.1,14.3-2.4c4.7-2.6,10.8-5.6,14.6-8.2C116.5,48,104.2,52.5,96.6,58.1z"/>
<path class="st0" d="M113.6,239.6c6.6,3.4,22.1-5.9,25-12.5L113.6,239.6z"/>
<path class="st0" d="M91.1,112.8c7,5-1.9,6,10.7,0.7c6.3-2.6,7.8-3.6,12-7.7L91.1,112.8z"/>
<path class="st0" d="M97.4,30.5l11.6-6.3C100.5,23.5,99.5,22.9,97.4,30.5z"/>
<path class="st0" d="M140.8,39.2c-0.2,0.2-0.7,0.2-0.7,0.5h-0.3C140.8,38.8,142.9,37.2,140.8,39.2z"/>
<path class="st1" d="M73.8,23.3l14.8,4.2c19.8-16.1,23.8-9.2,72.8-13c-0.3-0.3,2.7-6.6-19-7.9C125.5,5.7,83.8,16.7,73.8,23.3z"/>
<path class="st1" d="M69,32.5l-2.3,14.2L84.9,50l0.5-16.2C76.4,31.6,77.2,30.3,69,32.5z"/>
<path class="st1" d="M147.8,36c6-5.7,6.7-7.7,7.4-14.8l-14.8-0.6L147.8,36z"/>
<path class="st1" d="M173,25l12.4-1.2c-1.8-10,2.3-4.9-6.9-10.6L173,25z"/>
<path class="st2" d="M75.6,174.7c-0.3,11.9-0.8,15.3,6.4,23.4l73.9-32.2l-6.9-28.5L75.6,174.7z"/>
<path class="st2" d="M110.1,233.6c25-12.1,50.2-19.1,47.9-52.9c-2.3,0.6-63.2,30.9-66.6,33.5L110.1,233.6z"/>
<path class="st2" d="M81.5,150.5c11.7-0.6,48.1-22.1,60.4-28.8l-3.9-18.5c-12.4,3.7-24.5,10.7-35.5,16
	C83.6,128.3,85.6,130.3,81.5,150.5z"/>
<path class="st2" d="M103.6,80.3l-8,22.1c9-1,17.4-4.6,25.4-7.3c11.9-4,14.9-4.6,11.5-16C122.6,73.9,114.1,76.4,103.6,80.3z"/>
<path class="st2" d="M92,50.2c12.8-1.6,39.7-9.8,45-22.3c-14.6-8.9-12.7-5.9-25,2C96.1,40.1,89.8,33.7,92,50.2z"/>
<path class="st2" d="M99.7,71.8l31.7-1.8l10.4-21.4c-7.4,2.4-14.6,5.2-21.6,8.5c-3.6,1.7-7.1,3.4-10.7,5.1
	C97.4,68.2,102.6,63.4,99.7,71.8z"/>
<path class="st3" d="M113.6,239.6l25-12.5C135.7,233.8,120.2,243.1,113.6,239.6z M110.1,233.6l-18.7-19.4
	c3.4-2.7,64.4-32.9,66.6-33.5C160.3,214.6,135.1,221.5,110.1,233.6L110.1,233.6z M86.3,207.2c4.5-8.5,39.6-21.7,50.3-24.5
	C129,191.7,98.6,204.5,86.3,207.2z M149,137.5l6.9,28.5L82,198.1c-7.2-8.2-6.7-11.6-6.4-23.4L149,137.5z M144.1,128.2
	c-3.8,9.8-35.3,23.1-48.5,29.8c-22,11.2-14.6,5.5-17,3.9L144.1,128.2z M81.5,150.5c4.1-20.2,2.1-22.2,21-31.3
	c11-5.3,23.1-12.3,35.5-16l3.9,18.5C129.6,128.4,93.2,149.9,81.5,150.5z M113.7,105.8c-4.2,4.1-5.7,5-12,7.7
	c-12.5,5.3-3.7,4.3-10.7-0.7L113.7,105.8z M103.6,80.3c10.6-3.9,19-6.4,28.9-1.3c3.4,11.5,0.4,12-11.5,16c-8,2.8-16.4,6.4-25.4,7.3
	L103.6,80.3z M99.7,71.8c3-8.5-2.3-3.6,9.9-9.6c3.6-1.8,7.1-3.4,10.7-5.1c7-3.3,14.2-6.1,21.6-8.5L131.4,70L99.7,71.8z M96.6,58.1
	c7.7-5.5,19.9-10,28.9-10.6c-3.8,2.5-9.9,5.5-14.6,8.2C102.5,60.2,102.8,60.8,96.6,58.1z M140.1,39.7c0-0.3,0.5-0.3,0.7-0.5
	c2.1-1.9,0-0.3-1,0.6L140.1,39.7z M69,32.5c8.3-2.2,7.4-0.9,16.4,1.3L84.9,50l-18.3-3.3L69,32.5z M92,50.2
	c-2.2-16.4,4.1-10.1,20-20.3c12.3-7.9,10.4-10.9,25-2C131.7,40.4,104.7,48.6,92,50.2L92,50.2z M178.4,13.1c9.2,5.7,5.2,0.6,6.9,10.6
	L173,25L178.4,13.1z M147.8,36l-7.4-15.4l14.8,0.6C154.5,28.3,153.8,30.4,147.8,36z M97.4,30.5c2.2-7.6,3.1-6.9,11.6-6.3L97.4,30.5z
	 M73.8,23.3c10-6.6,51.7-17.6,68.6-16.6c21.7,1.3,18.8,7.5,19,7.9c-49.1,3.7-53.1-3.1-72.8,13L73.8,23.3z M60.2,48.9
	c8,6.3,18.3,8.1,28.2,9.1c10.1,28.2,10.1,14.9-1.9,50.7c-6.4,19.1-10.8,37-15.3,56.9c-5.8,26-1.2,28.5,13.8,50.8
	c44.3,66,53.5,24.5,65.3,4.3c10.7-18.4,17.2-24.3,13.7-45.7c-3.1-18.9-7.5-33.2-13.4-50.9c-4.4-13.1-9.3-41.7-14.2-50.5
	c8.6-11.3,9.4-27.1,17.7-33.5c11.9-9.2,27.3-4.2,38.2-15.3C193.8-4.9,137.3-1,118.9,2.1C83.8,8.1,56.3,15.3,60.2,48.9z"/>
</svg>
