<svg xmlns="http://www.w3.org/2000/svg" viewBox="0 0 98.11 235.47"><defs><style>.a{fill:#090b0b;}.a,.b,.c,.d,.e,.f,.g,.h,.i,.j,.k,.l,.m,.n,.o{fill-rule:evenodd;}.b{fill:#111;}.c{fill:#060707;}.d{fill:#0b0c0c;}.e{fill:#ed4723;}.f{fill:#d5e4e4;}.g{fill:#010101;}.h{fill:#040404;}.i{fill:#0d0f0f;}.j{fill:#0a0b0b;}.k{fill:#070808;}.l{fill:#0f1010;}.m{fill:#171818;}.n{fill:#080909;}.o{fill:#131414;}</style></defs><path class="a" d="M22.39,170.5c7.2,5.72,5.22,5.38,12.22,1.39C30.22,167.38,28.74,164.94,22.39,170.5Z"/><path class="a" d="M22.82,141.07c5.86,3.74,1.47,7.4,11.79.29C25.57,135.74,30,137.59,22.82,141.07Z"/><path class="b" d="M22,52.35c7.46,4.36,5.45,4.17,12.31-.11-1.79-1.37,2.21-2.81-5.3-3C16.38,48.89,25.28,49.23,22,52.35Z"/><path class="b" d="M22.53,111.45c7.29,5.44,5.25,4.73,12.42.79C31.12,109.21,24.72,105.3,22.53,111.45Z"/><path class="c" d="M14.82,101.47c6.58,5,8.45,3,17.44,3-1.56-4.2,5-5.44-8-6.35C17.77,97.65,18.05,99.12,14.82,101.47Z"/><path class="c" d="M24.46,91.5c5.93,5.32,3.18,6,9.87.28C28.34,87.81,31.83,87.1,24.46,91.5Z"/><path class="d" d="M16,74c7.88,2.61,12.42,3,18.66-.71-3.38-3.15-1.68-3.86-8.45-4.51C12.07,67.37,17.83,72.93,16,74Z"/><path class="d" d="M17.15,130.87c5.67,6.35,13.21,6.89,17.32-.2C28.91,127.89,22.11,126.59,17.15,130.87Z"/><path class="e" d="M47.65,185.38c9.49-5.87,6.4-25.74,6.8-36.94C55,133.16,59.47,43.25,56.92,35c-2.27-7.4-2.78-4.56-3.91-5.78C48.1,37.72,38.83,171.6,47.65,185.38Z"/><path class="e" d="M43.71,206.5c2.07,13.29-.26,18.42,13.86,20.86l2.69-21.09Z"/><path class="f" d="M24.43,182.83c3.52-2.64-5.24-3.23,7.4-2.61,9.41.45,2.41.62,6.66,2.95C32,186.94,33.22,188.78,24.43,182.83Zm10.18-10.94c-7,4-5,4.33-12.22-1.39C28.74,164.94,30.22,167.38,34.61,171.89Zm-1-10.63c-7.11,4.05-11,5.15-16.47-1.59C21.71,155.73,28.88,156.52,33.56,161.26Zm-8.93-9.76c6.38-4.9,3.69-4.3,10.32,0C29.31,154.82,33,157.06,24.63,151.5Zm-1.81-10.43c7.17-3.48,2.75-5.33,11.79.29C24.29,148.47,28.68,144.81,22.82,141.07Zm11.65-10.4c-4.11,7.09-11.65,6.55-17.32.2C22.11,126.59,28.91,127.89,34.47,130.67Zm-9.95-10.46c7.62-4.65,6.29-4.48,10.15,2.49C27.89,125.57,29,124.6,24.52,120.21Zm10.43-8c-7.17,3.94-5.13,4.65-12.42-.79C24.72,105.3,31.12,109.21,35,112.24ZM14.82,101.47c3.23-2.35,2.95-3.82,9.47-3.37,12.93.91,6.41,2.15,8,6.35C23.27,104.51,21.4,106.43,14.82,101.47Zm9.64-10c7.37-4.4,3.88-3.69,9.87.28C27.64,97.48,30.39,96.82,24.46,91.5Zm16.61,97.9c-6.55-20,1.28-106.69,1.62-137.11.14-15.73-.85-29.36,15.84-28.91,10.92,16.69,3.35,62.3,2.58,83.76s2.84,65.48-6,83.62ZM22.31,83.61c7-5.75,4.9-5,12.36.4C28.88,87.58,30.7,88.75,22.31,83.61ZM16,74c1.82-1-3.94-6.58,10.21-5.22,6.77.65,5.07,1.36,8.45,4.51C28.43,77,23.89,76.56,16,74Zm8-13.78c6.43-3.37,5.38-4.59,10.26,2.13C27.3,66.3,28.63,65.3,24,60.17ZM22,52.35c3.29-3.12-5.61-3.46,7-3.12,7.51.2,3.51,1.64,5.3,3C27.44,56.52,29.45,56.71,22,52.35ZM17.54,41.92c6.38-5.16,13.81-3.91,20,0C31.63,46,24.66,46.88,17.54,41.92Zm69.2,140.91c7.2-15.56,5.38-114.78,1.87-135.07C80.39.47,35.12-8.09,15.79,30.78,3.37,55.67,5.75,129,6,159.36,6.18,192.1,4.11,192,36.34,197.11,53.4,199.86,78.23,201.25,86.74,182.83Z"/><path class="g" d="M43.71,206.5l16.55-.23-2.69,21.09C43.45,224.92,45.78,219.79,43.71,206.5Zm43-23.67c-8.51,18.42-33.34,17-50.4,14.28C4.11,192,6.18,192.1,6,159.36,5.75,129,3.37,55.67,15.79,30.78,35.12-8.09,80.39.47,88.61,47.76,92.12,68.05,93.94,167.27,86.74,182.83ZM35.52,205.42C41.3,221,37,225.91,52.86,235.47l12.76-8.42c1.36-15.28-3.43-18.85,10.66-26,8.3-4.23,15-8.88,19-17.55,4.87-10.52,1.93-58.65,1.93-73.7,0-37,6.66-101.54-39.66-109.25-20-3.29-36.79,9.1-46.43,25.74C-4.25,52.89.85,127,.68,164.57.51,203.29,4.65,194,35.52,205.42Z"/><path class="h" d="M47.65,185.38C38.83,171.6,48.1,37.72,53,29.22c1.13,1.22,1.64-1.62,3.91,5.78,2.55,8.25-1.93,98.16-2.47,113.44C54.05,159.64,57.14,179.51,47.65,185.38Zm-6.58,4,14,1.36c8.87-18.14,5.27-62.3,6-83.62s8.34-67.07-2.58-83.76c-16.69-.45-15.7,13.18-15.84,28.91C42.35,82.71,34.52,169.45,41.07,189.4Z"/><path class="i" d="M17.54,41.92c7.12,5,14.09,4.08,20,0C31.35,38,23.92,36.76,17.54,41.92Z"/><path class="j" d="M17.09,159.67c5.47,6.74,9.36,5.64,16.47,1.59C28.88,156.52,21.71,155.73,17.09,159.67Z"/><path class="k" d="M24.43,182.83c8.79,5.95,7.54,4.11,14.06.34-4.25-2.33,2.75-2.5-6.66-2.95C19.19,179.6,28,180.19,24.43,182.83Z"/><path class="l" d="M22.31,83.61c8.39,5.14,6.57,4,12.36.4C27.21,78.63,29.28,77.86,22.31,83.61Z"/><path class="m" d="M24.52,120.21c4.48,4.39,3.37,5.36,10.15,2.49C30.81,115.73,32.14,115.56,24.52,120.21Z"/><path class="n" d="M24,60.17C28.63,65.3,27.3,66.3,34.3,62.3,29.42,55.58,30.47,56.8,24,60.17Z"/><path class="o" d="M24.63,151.5c8.34,5.56,4.68,3.32,10.32,0C28.32,147.2,31,146.6,24.63,151.5Z"/></svg>