<?xml version="1.0" encoding="utf-8"?>
<!-- Generator: Adobe Illustrator 24.1.2, SVG Export Plug-In . SVG Version: 6.00 Build 0)  -->
<svg version="1.1" id="Слой_1" xmlns="http://www.w3.org/2000/svg" xmlns:xlink="http://www.w3.org/1999/xlink" x="0px" y="0px"
	 viewBox="0 0 235.5 235.5" style="enable-background:new 0 0 235.5 235.5;" xml:space="preserve">
<style type="text/css">
	.st0{fill-rule:evenodd;clip-rule:evenodd;fill:#090B0B;}
	.st1{fill-rule:evenodd;clip-rule:evenodd;fill:#111111;}
	.st2{fill-rule:evenodd;clip-rule:evenodd;fill:#060707;}
	.st3{fill-rule:evenodd;clip-rule:evenodd;fill:#0B0C0C;}
	.st4{fill-rule:evenodd;clip-rule:evenodd;fill:#ED4723;}
	.st5{fill-rule:evenodd;clip-rule:evenodd;fill:#D5E4E4;}
	.st6{fill-rule:evenodd;clip-rule:evenodd;fill:#010101;}
	.st7{fill-rule:evenodd;clip-rule:evenodd;fill:#040404;}
	.st8{fill-rule:evenodd;clip-rule:evenodd;fill:#0D0F0F;}
	.st9{fill-rule:evenodd;clip-rule:evenodd;fill:#0A0B0B;}
	.st10{fill-rule:evenodd;clip-rule:evenodd;fill:#070808;}
	.st11{fill-rule:evenodd;clip-rule:evenodd;fill:#0F1010;}
	.st12{fill-rule:evenodd;clip-rule:evenodd;fill:#171818;}
	.st13{fill-rule:evenodd;clip-rule:evenodd;fill:#080909;}
	.st14{fill-rule:evenodd;clip-rule:evenodd;fill:#131414;}
</style>
<path class="st0" d="M91.1,170.5c7.2,5.7,5.2,5.4,12.2,1.4C98.9,167.4,97.4,164.9,91.1,170.5z"/>
<path class="st0" d="M91.5,141.1c5.9,3.7,1.5,7.4,11.8,0.3C94.3,135.7,98.7,137.6,91.5,141.1z"/>
<path class="st1" d="M90.7,52.3c7.5,4.4,5.4,4.2,12.3-0.1c-1.8-1.4,2.2-2.8-5.3-3C85.1,48.9,94,49.2,90.7,52.3z"/>
<path class="st1" d="M91.2,111.4c7.3,5.4,5.3,4.7,12.4,0.8C99.8,109.2,93.4,105.3,91.2,111.4z"/>
<path class="st2" d="M83.5,101.5c6.6,5,8.4,3,17.4,3c-1.6-4.2,5-5.4-8-6.3C86.4,97.7,86.7,99.1,83.5,101.5z"/>
<path class="st2" d="M93.1,91.5c5.9,5.3,3.2,6,9.9,0.3C97,87.8,100.5,87.1,93.1,91.5z"/>
<path class="st3" d="M84.7,74c7.9,2.6,12.4,3,18.7-0.7c-3.4-3.2-1.7-3.9-8.4-4.5C80.8,67.4,86.5,72.9,84.7,74z"/>
<path class="st3" d="M85.8,130.9c5.7,6.4,13.2,6.9,17.3-0.2C97.6,127.9,90.8,126.6,85.8,130.9z"/>
<path class="st4" d="M116.3,185.4c9.5-5.9,6.4-25.7,6.8-36.9c0.6-15.3,5-105.2,2.5-113.4c-2.3-7.4-2.8-4.6-3.9-5.8
	C116.8,37.7,107.5,171.6,116.3,185.4z"/>
<path class="st4" d="M112.4,206.5c2.1,13.3-0.3,18.4,13.9,20.9l2.7-21.1L112.4,206.5z"/>
<path class="st5" d="M93.1,182.8c3.5-2.6-5.2-3.2,7.4-2.6c9.4,0.4,2.4,0.6,6.7,2.9C100.7,186.9,101.9,188.8,93.1,182.8z
	 M103.3,171.9c-7,4-5,4.3-12.2-1.4C97.4,164.9,98.9,167.4,103.3,171.9z M102.3,161.3c-7.1,4.1-11,5.1-16.5-1.6
	C90.4,155.7,97.6,156.5,102.3,161.3L102.3,161.3z M93.4,151.5c6.4-4.9,3.7-4.3,10.3,0C98,154.8,101.7,157.1,93.4,151.5L93.4,151.5z
	 M91.6,141.1c7.2-3.5,2.8-5.3,11.8,0.3C93,148.5,97.4,144.8,91.6,141.1L91.6,141.1z M103.2,130.7c-4.1,7.1-11.6,6.6-17.3,0.2
	C90.8,126.6,97.6,127.9,103.2,130.7L103.2,130.7z M93.3,120.2c7.6-4.7,6.3-4.5,10.2,2.5C96.6,125.6,97.7,124.6,93.3,120.2
	L93.3,120.2z M103.7,112.2c-7.2,3.9-5.1,4.7-12.4-0.8C93.4,105.3,99.8,109.2,103.7,112.2L103.7,112.2z M83.5,101.5
	c3.2-2.3,2.9-3.8,9.5-3.4c12.9,0.9,6.4,2.2,8,6.3C91.9,104.5,90.1,106.4,83.5,101.5z M93.1,91.5c7.4-4.4,3.9-3.7,9.9,0.3
	C96.3,97.5,99.1,96.8,93.1,91.5L93.1,91.5z M109.8,189.4c-6.6-20,1.3-106.7,1.6-137.1c0.1-15.7-0.8-29.4,15.8-28.9
	c10.9,16.7,3.3,62.3,2.6,83.8c-0.8,21.5,2.8,65.5-6,83.6L109.8,189.4z M91,83.6c7-5.8,4.9-5,12.4,0.4C97.6,87.6,99.4,88.8,91,83.6z
	 M84.7,74c1.8-1-3.9-6.6,10.2-5.2c6.8,0.7,5.1,1.4,8.4,4.5C97.1,77,92.6,76.6,84.7,74z M92.7,60.2c6.4-3.4,5.4-4.6,10.3,2.1
	C96,66.3,97.3,65.3,92.7,60.2L92.7,60.2z M90.7,52.3c3.3-3.1-5.6-3.5,7-3.1c7.5,0.2,3.5,1.6,5.3,3C96.1,56.5,98.1,56.7,90.7,52.3z
	 M86.2,41.9c6.4-5.2,13.8-3.9,20,0C100.3,46,93.3,46.9,86.2,41.9z M155.4,182.8c7.2-15.6,5.4-114.8,1.9-135.1
	c-8.2-47.3-53.5-55.8-72.8-17c-12.4,24.9-10,98.2-9.8,128.6c0.2,32.7-1.9,32.6,30.3,37.8C122.1,199.9,146.9,201.3,155.4,182.8z"/>
<path class="st6" d="M112.4,206.5l16.6-0.2l-2.7,21.1C112.1,224.9,114.5,219.8,112.4,206.5z M155.4,182.8
	c-8.5,18.4-33.3,17-50.4,14.3c-32.2-5.1-30.1-5-30.3-37.8C74.4,129,72.1,55.7,84.5,30.8c19.3-38.9,64.6-30.3,72.8,17
	C160.8,68.1,162.6,167.3,155.4,182.8L155.4,182.8z M104.2,205.4c5.8,15.6,1.5,20.5,17.3,30.1l12.8-8.4c1.4-15.3-3.4-18.9,10.7-26
	c8.3-4.2,15-8.9,19-17.6c4.9-10.5,1.9-58.7,1.9-73.7c0-37,6.7-101.5-39.7-109.3c-20-3.3-36.8,9.1-46.4,25.7
	C64.4,52.9,69.5,127,69.4,164.6C69.2,203.3,73.3,194,104.2,205.4z"/>
<path class="st7" d="M116.3,185.4c-8.8-13.8,0.4-147.7,5.3-156.2c1.1,1.2,1.6-1.6,3.9,5.8c2.6,8.3-1.9,98.2-2.5,113.4
	C122.7,159.6,125.8,179.5,116.3,185.4z M109.8,189.4l14,1.4c8.9-18.1,5.3-62.3,6-83.6s8.3-67.1-2.6-83.8
	c-16.7-0.5-15.7,13.2-15.8,28.9C111,82.7,103.2,169.4,109.8,189.4L109.8,189.4z"/>
<path class="st8" d="M86.2,41.9c7.1,5,14.1,4.1,20,0C100,38,92.6,36.8,86.2,41.9z"/>
<path class="st9" d="M85.8,159.7c5.5,6.7,9.4,5.6,16.5,1.6C97.6,156.5,90.4,155.7,85.8,159.7z"/>
<path class="st10" d="M93.1,182.8c8.8,5.9,7.5,4.1,14.1,0.3c-4.3-2.3,2.8-2.5-6.7-2.9C87.9,179.6,96.7,180.2,93.1,182.8z"/>
<path class="st11" d="M91,83.6c8.4,5.1,6.6,4,12.4,0.4C95.9,78.6,98,77.9,91,83.6z"/>
<path class="st12" d="M93.2,120.2c4.5,4.4,3.4,5.4,10.2,2.5C99.5,115.7,100.8,115.6,93.2,120.2z"/>
<path class="st13" d="M92.7,60.2c4.6,5.1,3.3,6.1,10.3,2.1C98.1,55.6,99.2,56.8,92.7,60.2z"/>
<path class="st14" d="M93.3,151.5c8.3,5.6,4.7,3.3,10.3,0C97,147.2,99.7,146.6,93.3,151.5z"/>
</svg>
