<svg xmlns="http://www.w3.org/2000/svg" viewBox="0 0 232.68 176.74"><defs><style>.a{fill:#be6126;}.a,.b,.c,.d,.e,.f{fill-rule:evenodd;}.b{fill:#d5e6e6;}.c{fill:#020202;}.d{fill:#bbb;}.e{fill:#fdbe10;}.f{fill:#ed4723;}</style></defs><path class="a" d="M213,165.69c-3.88-1.62-173.11-5.14-193.32-5.22,3.17,11.85,4.13,8.3,19.92,7.88l74.92-.57C126.81,167.92,203.62,172.66,213,165.69Z"/><path class="a" d="M141.06,150.15c-19.1,1.33-13.15,2.33-15.61,4.85,5.27,3.2.68,2.07,10.23,2.83,32.65,2.7,24.69,1.51,26.84-6.83C155.55,148.68,150,149.53,141.06,150.15Z"/><path class="a" d="M98.46,157.07c8,.48,9-4.51,10-9.73-5.47-2.18-5.44-1.67-13.46,1.25l-13.38,7.66Z"/><path class="a" d="M113.2,156.27c10.88-.31,2.55,1.9,7.74-5.64,2.8-4.08,3.71-4.9,6.38-8.3l-12.39-.17Z"/><path class="b" d="M183.7,26.67c.28,22.79,2.58,44.65,2.72,66.84.14,21.72-2.33,42.44-2.21,64.83l29.17-.51c-.06-24.6,1.16-114.8-3.6-132.54Z"/><polygon class="b" points="20.08 155.08 45.93 153.87 45.08 29.34 21.05 29.39 20.08 155.08"/><path class="b" d="M8.46,10.77c4.9,18.31,25,12.9,44.87,12.16,36-1.27,127.65-.48,154.72-3.77,12.87-1.59,16.83-1.95,18.34-13.49Z"/><path class="c" d="M19.66,160.47c20.21.08,189.44,3.6,193.32,5.22-9.36,7-86.17,2.23-98.48,2.09l-74.92.57C23.79,168.77,22.83,172.32,19.66,160.47ZM125.45,155c2.46-2.52-3.49-3.52,15.61-4.85,9-.62,14.49-1.47,21.46.85-2.15,8.34,5.81,9.53-26.84,6.83C126.13,157.07,130.72,158.2,125.45,155ZM21.05,29.4l24-.06.85,124.52-25.85,1.22ZM98.46,157.07l-16.81-.82L95,148.59c8-2.92,8-3.43,13.46-1.25C107.47,152.56,106.45,157.55,98.46,157.07Zm14.74-.8,1.73-14.11,12.39.17c-2.67,3.4-3.58,4.22-6.38,8.3C115.75,158.17,124.08,156,113.2,156.27Zm-.06-24.06c-7-5.53-7.48-9.92-2.92-16,11.46,15.19,22.14,6.83,26.54,22.71C127.74,137,119,136.77,113.14,132.21ZM183.7,26.67l26.08-1.38c4.76,17.74,3.54,107.94,3.6,132.54l-29.17.51c-.12-22.39,2.35-43.11,2.21-64.83C186.28,71.32,184,49.46,183.7,26.67ZM103.79,97.4C118.47,86,124.71,73.87,117.62,51.14c30.56,14.31,7.46,49.49,5.67,60.46,13,3,17.35-3.37,21.26.4,4.59,4.42,2.24,17,1.13,23.81-9.29-5.53-4.3-7.26-19.19-14.35-11.48-5.47-8.95-7.9-14.68-16.92-15.45,9.81-13.49,21.69-1.1,33.31-13.95,1.7-25.63-5.78-26.79-20.24-1.65-20.38,12.07-21,18.62-30.7,0,.88-.23,5-.17,5.39C102.82,96.12,102.88,95.67,103.79,97.4ZM111,80.16c-4.25.12,4.68,4.54-1.7-2.92C105.63,73,110.48,75,104.61,73c-4.51,7.57-52.81,44.42-11.31,68.18-.54.45-1.42.34-1.7,1.22L74.34,149.7c-7.54,2.72-11.74,5.24-21.58,5.3L51.09,29.91c18.82-2.3,110.07-5.05,126.37-2.05,1.73,45.36,1.16,85.78,1.16,130.82-13-1.33-9.75-4.62-13.32-14.28l-15.76-1.48c6-17.88,5.41-31.32-5.64-44-5.93,2.81-4.22,5.7-13.52,8,1.13-4.33,29.17-51.7-20.84-66.27C108.55,57.91,119.83,59.53,111,80.16ZM226.39,5.67c-1.51,11.54-5.47,11.9-18.34,13.49C181,22.45,89.3,21.66,53.33,22.93c-19.87.74-40,6.15-44.87-12.16ZM15.6,29.4c-.68,8.36-2.66,9.49-2.66,18.7,0,30.28-3.23,100.24,2.66,125.61q52.14,0,104.23,0c32.4,0,69.56,6.83,98.9,0V24c21-11.11,14.4-24,5.33-24L7.47,5.5C-10.87,9.18,9.59,25.37,15.6,29.4Z"/><path class="d" d="M111,80.16c8.84-20.63-2.44-22.25-1.45-39.51,50,14.57,22,61.94,20.84,66.27,9.3-2.35,7.59-5.24,13.52-8,11,12.73,11.68,26.17,5.64,44l15.76,1.48c3.57,9.66.31,12.95,13.32,14.28,0-45,.57-85.46-1.16-130.82-16.3-3-107.55-.25-126.37,2.05L52.76,155c9.84-.06,14-2.58,21.58-5.3l17.26-7.34c.28-.88,1.16-.77,1.7-1.22C51.8,117.38,100.1,80.53,104.61,73c5.87,2,1,0,4.68,4.28C115.67,84.7,106.74,80.28,111,80.16Z"/><path class="e" d="M103.79,97.4c-.91-1.73-1-1.28-1.42-5.1-.06-.34.2-4.51.17-5.39C96,96.63,82.27,97.23,83.92,117.61c1.16,14.46,12.84,21.94,26.79,20.24-12.39-11.62-14.35-23.5,1.1-33.31,5.73,9,3.2,11.45,14.68,16.92,14.89,7.09,9.9,8.82,19.19,14.35,1.11-6.78,3.46-19.39-1.13-23.81-3.91-3.77-8.3,2.63-21.26-.4,1.79-11,24.89-46.15-5.67-60.46C124.71,73.87,118.47,86,103.79,97.4Z"/><path class="f" d="M136.76,138.93c-4.4-15.88-15.08-7.52-26.54-22.71-4.56,6.07-4.11,10.46,2.92,16C119,136.77,127.74,137,136.76,138.93Z"/></svg>