<svg xmlns="http://www.w3.org/2000/svg" viewBox="0 0 233.05 218.19"><defs><style>.a{fill:#72c9cc;}.a,.b,.c,.d{fill-rule:evenodd;}.b{fill:#010100;}.c{fill:#fcbd10;}.d{fill:#f5841f;}</style></defs><path class="a" d="M36.3,128.69,48,129.8c.93-10.92,3.12-5.56-3.8-11.77C34.94,118.49,35.42,119.85,36.3,128.69Z"/><path class="a" d="M119.19,128.66l11.71,1.17c.9-11,3.09-5.59-3.8-11.83C117.88,118.49,118.28,119.82,119.19,128.66Z"/><path class="a" d="M63.12,128.35c8.87,3,4.11,3.74,12.64-1.3C74,111.94,62,115.68,63.12,128.35Z"/><path class="a" d="M92,129.15l11.54.17C105.41,114.49,90.59,112.45,92,129.15Z"/><path class="a" d="M215.54,211c7.23-6.83,5.64-10.8,1.61-18.48C213.47,200.49,213,202.48,215.54,211Z"/><path class="a" d="M221.07,173.9c5.92-6.54,7.08-9.07,2.18-16.21C218.8,163.93,218.51,165.83,221.07,173.9Z"/><path class="a" d="M217.3,183.88c5.66,2,1.58,2.84,6.74-1.08C217,179.43,220.24,182,217.3,183.88Z"/><path class="a" d="M126.84,19.42c5.33-8.45,4.88-3.75,2.16-9.59Z"/><path class="a" d="M182.29,68.26c1.44,5.07,2.61,2.38,2.78.79S181.55,65.59,182.29,68.26Z"/><path class="b" d="M215.54,211c-2.58-8.56-2.07-10.55,1.61-18.48C221.18,200.24,222.77,204.21,215.54,211ZM224,182.8c-5.16,3.92-1.08,3-6.74,1.08C220.24,182,217,179.43,224,182.8Zm-3-8.9c-2.56-8.07-2.27-10,2.18-16.21C228.15,164.83,227,167.36,221.07,173.9Zm-7.49-14.54c1.56,14.23,3.18,9.78-4.9,13.35C206.89,167.58,208.85,165.77,213.58,159.36ZM206,156.9c-4.09,13.49-22.23,35.57-33.43,43.31-30.95,21.4-154.51,20.3-163.89-43,17.09,1,27.89,4.34,47.9,4.11C94.81,160.89,177.1,165.26,206,156.9ZM6.34,148.79C2,97.43,41.86,81.44,86,81.41c22.36,0,124.66.91,137.05,8.11,5.9,21.91-2.38,40.08-11.85,59C182.88,158,29.84,160.1,6.34,148.79ZM120.75,76c.08-23.78,20.55-21.6,40.05-22,20-.43,36.62,1.3,37,24.86ZM152.21,7.37c1,11.62,2,32.54-5,41.41-6.43-8.81-.17-11.39-4.67-21.17-5.47-12-7.4,2.69-5.56-20.81ZM129,9.83c2.72,5.84,3.17,1.14-2.16,9.59Zm-6.52,16.59,13.83,2.21c1.28,39.09-6.83,5.95-21.63,38.92-5.81,13,1.42,5.07-7.31,8.73,0,0-67.38-10.26-92.58,22.34-21.6,27.92-18.43,67.8,2.29,89.32,24.69,25.56,54.57,30.07,90.29,30,18.62,0,37.87,1.92,54.31-4.45,28.43-11.06,18.6-25.23,46.77-24.78l1.08,27.5c21.68,6.09,17.23-16.25,17.23-21.06,0-10.58.94.08,2.78-9.87,1.62-8.76-.91-4.56-.23-9.55.88-6.27,3.21-4,3.69-11.48.71-10.63-5.61-15.34-15.39-10.69,1.84-15.67,26.53-48.78,6.66-73.9L204,78.77c-2.38-30.47-19.5-30.33-45.44-32.34L158.05,1.9C139.12-1.48,112.39-3.77,122.48,26.42Z"/><path class="b" d="M63.12,128.35C62,115.68,74,111.94,75.76,127.05,67.23,132.09,72,131.36,63.12,128.35Zm-26.82.34c-.88-8.84-1.36-10.2,7.94-10.66,6.92,6.21,4.73.85,3.8,11.77Zm-5.18,2.47c10.91,10,16,6,24.26-4.79,9.3,15.73,20.07,13.21,28.8-1.7-10.86-21.83-23-14-27.75-3l-11-11.42-15.5,7Z"/><path class="b" d="M92,129.15c-1.41-16.7,13.41-14.66,11.54.17Zm-6.29,1.75c11.71,10.92,25.57,6.92,24.35-11.9C97.11,104.63,83.78,111,85.71,130.9Z"/><path class="b" d="M119.19,128.66c-.91-8.84-1.31-10.17,7.91-10.66,6.89,6.24,4.7.88,3.8,11.83Zm1.76,8c10.46-.57,13.18-2.52,17.34-12.3C133.56,107.49,124,108,112,118.91l.56,11.26Z"/><path class="b" d="M182.29,68.26c-.74-2.67,2.92-.66,2.78.79S183.73,73.33,182.29,68.26Zm-7.57-4.85.91,10.69c8.9,4.53,5.72,4.5,14.91.05L193,65.79C186.2,59.36,183.17,58.48,174.72,63.41Z"/><path class="c" d="M85.71,130.9C83.78,111,97.11,104.63,110.06,119,111.28,137.82,97.42,141.82,85.71,130.9ZM121,136.63l-8.37-6.46L112,118.91c12-10.91,21.54-11.42,26.27,5.42C134.13,134.11,131.41,136.06,121,136.63Zm-89.83-5.47-1.19-13.92,15.5-7,11,11.42c4.73-11,16.89-18.85,27.75,3-8.73,14.91-19.5,17.43-28.8,1.7C47.08,137.2,42,141.14,31.12,131.16ZM6.34,148.79c23.5,11.31,176.54,9.16,204.83-.23,9.47-19,17.75-37.13,11.85-59-12.39-7.2-114.69-8.11-137-8.11C41.86,81.44,2,97.43,6.34,148.79Z"/><path class="c" d="M190.54,74.15c-9.19,4.45-6,4.48-14.91-.05l-.91-10.69c8.45-4.93,11.48-4,18.28,2.38ZM120.75,76l77,2.84c-.37-23.56-17-25.29-37-24.86C141.3,54.42,120.83,52.24,120.75,76Z"/><path class="c" d="M147.22,48.78c7-8.87,6-29.79,5-41.41L137,6.8c-1.84,23.5.09,8.85,5.56,20.81C147.05,37.39,140.79,40,147.22,48.78Z"/><path class="d" d="M206,156.9c-28.89,8.36-111.18,4-149.42,4.42-20,.23-30.81-3.09-47.9-4.11,9.38,63.3,132.94,64.4,163.89,43C183.76,192.47,201.9,170.39,206,156.9Z"/></svg>