<svg xmlns="http://www.w3.org/2000/svg" viewBox="0 0 240.97 192.99"><defs><style>.a{fill:#fdbe10;}.a,.b,.c,.d{fill-rule:evenodd;}.b{fill:#010202;}.c{fill:#d3e4e4;}.d{fill:#16b6b7;}</style></defs><path class="a" d="M136.5,158.45C148,160,158.1,160.23,169.09,156c20.1-7.74,6-5.19,26.62-1.93-3.74-10.43-1-4-8.39-11.76l8.36-13.81-13.52,9.59c-22.31-8.82-21.23-11.14-47.85-8.79C138.65,143.59,137.83,143.62,136.5,158.45Z"/><path class="a" d="M120.76,142.29c0-5.22,2.58-5.56,4.06-.06C126.49,148.33,120.76,145.21,120.76,142.29ZM106.48,145c3.37,5.69,8,10.43,15.73,11.87,12.42,2.36,1.81,1,6.89-1,4-8.68,4-13.07-.29-21.57C120.85,131,110.84,136.79,106.48,145Z"/><path class="b" d="M7.18,101.1c34,6.58,31-3.48,57.34-4,19.76-.37,35.55,11,55.9,10,21.89-1.07,32.8-12.86,55.93-9.75,36.17,4.94,21.8,7.63,56.44-4.11C237.41,162.16,188,184.1,126,185.75,68.24,187.25,9.76,166.67,7.18,101.1ZM11,94.67c-7.2-16.19,16-37.82,23-52,59.19,2,111.07,7.37,170.56-2C214.73,57.14,224.65,66,229.7,86.22c-18.94,14.54-28.89,8.87-50.51,5.5-27.22-4.25-32.69,6.72-55.82,8.82s-34.81-9-56.21-9.1C47.2,91.32,29,103.37,11,94.67Zm4.63-69.82C18,14.53,17.58,17.23,27,10.85,39,26.16,42.78,26.64,64.41,27.49c17.69.68,35.8,1.27,53.52,1.3s35.91-.65,53.55-1.56c24.8-1.3,21.57-3.57,38.86-12.58L217,24.06c-13.75,20-75.35,15.7-99.1,16.3C95.9,40.92,26.8,43.08,15.66,24.85ZM35.78,11.44c15.37-8.93,145.87-6.32,164.44,3-15.65,10.63-64.4,8.11-85,8C98.6,22.39,42.41,27.06,35.78,11.44ZM8.34,27.37c7,10.58,7.77,8.08,15.85,13.7l3.09,2.55c-27,35.63-39.63,66.1-11,106.75,34,48.3,120.13,50.8,170.1,31,17.35-6.86,32.21-17.86,42.24-32.57,26.56-38.95,5.16-74.29-17.18-108L222.61,27.8C234.35-5,131.76.64,115.26.64,97.35.64,65.18-1.2,49,1.35,31.67,4.07,10.38,3.87,8.34,27.37Z"/><path class="b" d="M106.48,145c4.36-8.17,14.37-13.92,22.33-10.66,4.28,8.5,4.28,12.89.29,21.57-5.08,2,5.53,3.32-6.89,1C114.47,155.39,109.85,150.65,106.48,145Zm30,13.49c1.33-14.83,2.15-14.86-2.19-29.14,26.62-2.35,25.54,0,47.85,8.79l13.52-9.59-8.36,13.81c7.4,7.79,4.65,1.33,8.39,11.76-20.63-3.26-6.52-5.81-26.62,1.93C158.1,160.23,148,160,136.5,158.45Zm43.08-27.38c-62.05-32.38-122.14,32.59-35,34.72,12.11.28,18-1.33,29.09-5.22,17.48-6.15,14.08,3.26,28.06-1.73,1.56-9.69-.94-11.62-6.61-19.1,7.63-9.16,7.83-7,8.73-19.3C189.73,121.29,189.9,123,179.58,131.07Z"/><path class="b" d="M120.76,142.29c0,2.92,5.73,6,4.06-.06C123.34,136.73,120.76,137.07,120.76,142.29Z"/><path class="c" d="M11,94.67c17.92,8.7,36.17-3.35,56.13-3.23,21.4.11,33.22,11.19,56.21,9.1s28.6-13.07,55.82-8.82c21.62,3.37,31.57,9,50.51-5.5-5-20.27-15-29.08-25.12-45.52-59.49,9.35-111.37,3.94-170.56,2C27,56.85,3.83,78.48,11,94.67Z"/><path class="c" d="M15.66,24.85C26.8,43.08,95.9,40.92,117.93,40.36c23.75-.6,85.35,3.74,99.1-16.3l-6.69-9.41c-17.29,9-14.06,11.28-38.86,12.58-17.64.91-35.92,1.56-53.55,1.56s-35.83-.62-53.52-1.3C42.78,26.64,39,26.16,27,10.85,17.58,17.23,18,14.53,15.66,24.85Z"/><path class="c" d="M35.78,11.44c6.63,15.62,62.82,11,79.48,11,20.56.09,69.31,2.61,85-8C181.65,5.12,51.15,2.51,35.78,11.44Z"/><path class="d" d="M179.58,131.07c10.32-8.08,10.15-9.78,24.32-10.63-.9,12.27-1.1,10.14-8.73,19.3,5.67,7.48,8.17,9.41,6.61,19.1-14,5-10.58-4.42-28.06,1.73-11.06,3.89-17,5.5-29.09,5.22C57.44,163.66,117.53,98.69,179.58,131.07Zm-172.4-30C9.76,166.67,68.24,187.25,126,185.75,188,184.1,237.41,162.16,232.79,93.22c-34.64,11.74-20.27,9-56.44,4.11-23.13-3.11-34,8.68-55.93,9.75-20.35,1-36.14-10.34-55.9-10C38.19,97.62,41.14,107.68,7.18,101.1Z"/></svg>