<?xml version="1.0" encoding="utf-8"?>
<!-- Generator: Adobe Illustrator 24.1.2, SVG Export Plug-In . SVG Version: 6.00 Build 0)  -->
<svg version="1.1" id="Слой_1" xmlns="http://www.w3.org/2000/svg" xmlns:xlink="http://www.w3.org/1999/xlink" x="0px" y="0px"
	 viewBox="0 0 241 241" style="enable-background:new 0 0 241 241;" xml:space="preserve">
<style type="text/css">
	.st0{fill-rule:evenodd;clip-rule:evenodd;fill:#FDBE10;}
	.st1{fill-rule:evenodd;clip-rule:evenodd;fill:#010202;}
	.st2{fill-rule:evenodd;clip-rule:evenodd;fill:#D3E4E4;}
	.st3{fill-rule:evenodd;clip-rule:evenodd;fill:#16B6B7;}
</style>
<path class="st0" d="M136.5,182.4c11.5,1.6,21.6,1.8,32.6-2.4c20.1-7.7,6-5.2,26.6-1.9c-3.7-10.4-1-4-8.4-11.8l8.4-13.8l-13.5,9.6
	c-22.3-8.8-21.2-11.1-47.8-8.8C138.6,167.6,137.8,167.6,136.5,182.4z"/>
<path class="st0" d="M120.8,166.3c0-5.2,2.6-5.6,4.1-0.1C126.5,172.3,120.8,169.2,120.8,166.3z M106.5,169c3.4,5.7,8,10.4,15.7,11.9
	c12.4,2.4,1.8,1,6.9-1c4-8.7,4-13.1-0.3-21.6C120.8,155,110.8,160.8,106.5,169z"/>
<path class="st1" d="M7.2,125.1c34,6.6,31-3.5,57.3-4c19.8-0.4,35.5,11,55.9,10c21.9-1.1,32.8-12.9,55.9-9.8
	c36.2,4.9,21.8,7.6,56.4-4.1c4.6,68.9-44.8,90.9-106.8,92.5C68.2,211.2,9.8,190.7,7.2,125.1z M11,118.7c-7.2-16.2,16-37.8,23-52
	c59.2,2,111.1,7.4,170.6-2c10.2,16.5,20.1,25.3,25.1,45.6c-18.9,14.5-28.9,8.9-50.5,5.5c-27.2-4.3-32.7,6.7-55.8,8.8
	s-34.8-9-56.2-9.1C47.2,115.3,29,127.4,11,118.7z M15.6,48.8c2.4-10.3,1.9-7.6,11.4-14c12,15.3,15.8,15.8,37.4,16.6
	c17.7,0.7,35.8,1.3,53.5,1.3s35.9-0.6,53.6-1.6c24.8-1.3,21.6-3.6,38.9-12.6L217,48c-13.8,20-75.4,15.7-99.1,16.3
	C95.9,64.9,26.8,67.1,15.6,48.8L15.6,48.8z M35.8,35.4c15.4-8.9,145.9-6.3,164.4,3c-15.6,10.6-64.4,8.1-85,8
	C98.6,46.4,42.4,51,35.8,35.4z M8.3,51.4c7,10.6,7.8,8.1,15.9,13.7l3.1,2.5c-27,35.6-39.6,66.1-11,106.7
	c34,48.3,120.1,50.8,170.1,31c17.4-6.9,32.2-17.9,42.2-32.6c26.6-38.9,5.2-74.3-17.2-108l11.2-13c11.7-32.8-90.9-27.2-107.3-27.2
	c-17.9,0-50.1-1.8-66.3,0.7C31.7,28.1,10.4,27.9,8.3,51.4z"/>
<path class="st1" d="M106.5,169c4.4-8.2,14.4-13.9,22.3-10.7c4.3,8.5,4.3,12.9,0.3,21.6c-5.1,2,5.5,3.3-6.9,1
	C114.5,179.4,109.8,174.6,106.5,169z M136.5,182.5c1.3-14.8,2.1-14.9-2.2-29.1c26.6-2.3,25.5,0,47.9,8.8l13.5-9.6l-8.4,13.8
	c7.4,7.8,4.6,1.3,8.4,11.8c-20.6-3.3-6.5-5.8-26.6,1.9C158.1,184.2,148,184,136.5,182.5L136.5,182.5z M179.6,155.1
	c-62.1-32.4-122.1,32.6-35,34.7c12.1,0.3,18-1.3,29.1-5.2c17.5-6.1,14.1,3.3,28.1-1.7c1.6-9.7-0.9-11.6-6.6-19.1
	c7.6-9.2,7.8-7,8.7-19.3C189.7,145.3,189.9,147,179.6,155.1L179.6,155.1z"/>
<path class="st1" d="M120.8,166.3c0,2.9,5.7,6,4.1-0.1C123.3,160.7,120.8,161.1,120.8,166.3z"/>
<path class="st2" d="M11,118.7c17.9,8.7,36.2-3.3,56.1-3.2c21.4,0.1,33.2,11.2,56.2,9.1s28.6-13.1,55.8-8.8
	c21.6,3.4,31.6,9,50.5-5.5c-5-20.3-15-29.1-25.1-45.5C145.1,74,93.2,68.6,34,66.7C27,80.8,3.8,102.5,11,118.7z"/>
<path class="st2" d="M15.7,48.8c11.1,18.2,80.2,16.1,102.3,15.5c23.7-0.6,85.3,3.7,99.1-16.3l-6.7-9.4c-17.3,9-14.1,11.3-38.9,12.6
	c-17.6,0.9-35.9,1.6-53.6,1.6s-35.8-0.6-53.5-1.3C42.8,50.6,39,50.1,27,34.8C17.6,41.2,18,38.5,15.7,48.8z"/>
<path class="st2" d="M35.8,35.4c6.6,15.6,62.8,11,79.5,11c20.6,0.1,69.3,2.6,85-8C181.6,29.1,51.2,26.5,35.8,35.4z"/>
<path class="st3" d="M179.6,155.1c10.3-8.1,10.1-9.8,24.3-10.6c-0.9,12.3-1.1,10.1-8.7,19.3c5.7,7.5,8.2,9.4,6.6,19.1
	c-14,5-10.6-4.4-28.1,1.7c-11.1,3.9-17,5.5-29.1,5.2C57.4,187.6,117.5,122.7,179.6,155.1z M7.2,125.1c2.6,65.6,61.1,86.2,118.8,84.7
	c62-1.6,111.4-23.6,106.8-92.5c-34.6,11.7-20.3,9-56.4,4.1c-23.1-3.1-34,8.7-55.9,9.7c-20.3,1-36.1-10.3-55.9-10
	C38.2,121.6,41.1,131.7,7.2,125.1L7.2,125.1z"/>
</svg>
