<svg xmlns="http://www.w3.org/2000/svg" viewBox="0 0 196.59 230.7"><defs><style>.a{fill:#fcbd10;}.a,.b,.c{fill-rule:evenodd;}.b{fill:#050302;}.c{fill:#c26427;}</style></defs><path class="a" d="M176.41,216.14c-7.46-3.4-6.89-3.68-14.43.23C167.08,222.63,171.73,234.14,176.41,216.14Z"/><path class="a" d="M38.39,216.2c-8.65-3.63-5-4-13.75.06C27.28,219,28.55,232.33,38.39,216.2Z"/><path class="a" d="M124.25,103.72c-1.45-5,3-4.51-6.12-6.07C118.27,105.36,113.93,102.81,124.25,103.72Z"/><path class="a" d="M75.69,103.29c-1.67-4.93,2.21-3.37-6-5.69C69.57,104.57,63.62,103.52,75.69,103.29Z"/><path class="b" d="M162,216.37c7.54-3.91,7-3.63,14.43-.23C171.73,234.14,167.08,222.63,162,216.37Zm-137.34-.11c8.79-4,5.1-3.69,13.75-.06C28.55,232.33,27.28,219,24.64,216.26ZM6.7,10,187.09,7.34l3,198.71L9.81,207.58Zm-6-6.41C-1.95,68.85,4,144,1.59,211.38c9.75,5.36,7.18-.91,13.75,5,0,0,9.21,24.15,25.26,9.72,11.73-10.57-5.36-6,9.35-12.24h98.87c11.71,4.42,7.91,21.68,25.8,15.59,12.22-4.14.51-4.65,14.68-15.22.46-.34,1.19-.68,1.65-1,6.35-4.74,2.72,4.28,5.64-5L194.26,0Z"/><path class="b" d="M105.11,19.84l67.81.23c0,56.13-2.33,113.81,4.14,169.74l-70.19-3.29Zm-4,174.87c15.36-.82,23.41-2.35,39.8-1.25,60.37,4.11,37.44,7.26,37.39-86.57,0-30.07,1.41-63.55-.4-93.2l-76.54.2C94.43,57.06,100,147.43,101.12,194.71Z"/><path class="b" d="M19.76,21.26l67.75.08c0,56.92-1.78,112.94,4.2,169.69l-69.54-2.87ZM18.35,195.51c.22.05,74.66.87,78.12.28,2.15-11.51-3.4-68-3.43-86.2,0-31.44.45-63.07-.06-94.45l-77.78.39c-.82,30.05-2.07,61.57-1,91.36C14.72,123.65,12.9,186.55,18.35,195.51Z"/><path class="b" d="M69.74,97.6c8.16,2.32,4.28.76,6,5.69C63.62,103.52,69.57,104.57,69.74,97.6Zm-4.82,10.54c9.21,2.61,6.66,3.06,15-.79C88.56,85.52,51.77,85.55,64.92,108.14Z"/><path class="b" d="M118.13,97.65c9.09,1.56,4.67,1.11,6.12,6.07C113.93,102.81,118.27,105.36,118.13,97.65Zm-5.7,8.48c7.88,5.36,6.91,4.7,16.27,2.07l2.12-12C118.86,87.48,107.86,90.48,112.43,106.13Z"/><path class="c" d="M112.43,106.13c-4.57-15.65,6.43-18.65,18.39-9.92l-2.12,12C119.34,110.83,120.31,111.49,112.43,106.13Zm-5.56,80.39,70.19,3.29c-6.47-55.93-4.14-113.61-4.14-169.74l-67.81-.23Z"/><path class="c" d="M64.92,108.14c-13.15-22.59,23.64-22.62,15-.79C71.58,111.2,74.13,110.75,64.92,108.14Zm-42.75,80L91.71,191c-6-56.75-4.2-112.77-4.2-169.69l-67.75-.08Z"/><path class="c" d="M18.35,195.51c-5.45-9-3.63-71.86-4.2-88.62-1-29.79.23-61.31,1-91.36L93,15.14c.51,31.38,0,63,.06,94.45,0,18.2,5.58,74.69,3.43,86.2C93,196.38,18.57,195.56,18.35,195.51Zm82.77-.8c-1.08-47.28-6.69-137.65.25-180.82l76.54-.2c1.81,29.65.37,63.13.4,93.2.05,93.83,23,90.68-37.39,86.57C124.53,192.36,116.48,193.89,101.12,194.71ZM9.81,207.58l180.29-1.53-3-198.71L6.7,10Z"/></svg>