<svg xmlns="http://www.w3.org/2000/svg" viewBox="0 0 204.55 194.14"><defs><style>.a{fill:#f1821e;}.a,.b,.c,.d,.e{fill-rule:evenodd;}.b{fill:#116f70;}.c{fill:#d5e4e4;}.d{fill:#020303;}.e{fill:#bbb;}</style></defs><polygon class="a" points="93.66 151 113.39 150.52 113.31 139.89 92.78 138.84 93.66 151"/><path class="a" d="M106.65,57.88c8.36,1.7,10.43,2.84,16.81-1.16C117.76,53.49,109.17,53.21,106.65,57.88Z"/><path class="a" d="M24.21,76.2c5.45,5.75,2.24,5.38,7.83.19C29.23,73.42,28.47,67,24.21,76.2Z"/><path class="a" d="M163,53.52c7.48,5.47,4.08,1.7,7.11.08C165.89,51.28,170.09,48.67,163,53.52Z"/><path class="b" d="M26.51,14.34c-1.76,11.12.09,33.62,4.82,41.9,4.76-8.19-.26-21,2.32-34.38,19.9-3,107.32-10.8,120.5-3.15,7.09,7.62-2.6,23.24,9,25.45l-4-35.77c-21.68-2-43.71,1.62-65,4.14C71.61,15.19,47.2,11.31,26.51,14.34Z"/><path class="b" d="M97.94,115.71l8.62.54c1.16-14.68,3.12-19.08-9.47-21.37C93.18,103,93.32,106.1,97.94,115.71Z"/><path class="b" d="M149,120.44c10.15,4.09,12,.91,7.43-8.64C149.62,113.64,149.22,110,149,120.44Z"/><path class="b" d="M42.78,125l7.91,2.52c2.64-10.57,4.62-4.73-2.78-10.94C42.38,120.73,43.55,117.27,42.78,125Z"/><path class="c" d="M143.84,125c-3.24-12-1-15.22,10.34-21.26l11,8.59-2.07,12.13C154.21,130.25,153.19,129.6,143.84,125Zm1.07-34.89C112,101.42,124.56,162,166.46,146.44,201.12,133.54,186.41,75.8,144.91,90.09Z"/><path class="c" d="M37.48,129.77l-.88-13.83,12.5-6.83C68.43,120.64,58.17,141.34,37.48,129.77Zm.88-34c-32.74,12.08-19.62,71.75,21.23,56.13C96.13,137.91,78.41,81,38.36,95.78Z"/><path class="d" d="M15,176.91C7.06,164.64,8.28,75,8.43,62.11c31.26-1,61.37,5.07,94.67,3.8,31.41-1.19,62.79-3.52,94.17-5.33L193.47,169C158.66,172.89,41.25,187.23,15,176.91ZM123.46,56.72c-6.38,4-8.45,2.86-16.81,1.16C109.17,53.21,117.76,53.49,123.46,56.72ZM163,53.52c7.09-4.85,2.89-2.24,7.11.08C167.08,55.22,170.48,59,163,53.52ZM39.32,27.27c14.06-1.11,103.89-6.12,110-4.05L155.77,56c-11.2-8.9,2.49-7-15.59-8l-7.4,11.57-5.7-11-20.75-.29c-7.71,8.31-2.89,7.35-11.36,10.61-11.46,0-32.43,1.27-42.75,0C36.54,57,38.25,41,39.32,27.27ZM26.51,14.34c20.69-3,45.1.85,67.63-1.81,21.29-2.52,43.32-6.18,65-4.14l4,35.77c-11.56-2.21-1.87-17.83-9-25.45-13.18-7.65-100.6.14-120.5,3.15-2.58,13.4,2.44,26.19-2.32,34.38C26.6,48,24.75,25.46,26.51,14.34Zm-5.67-2.89c-2.15,18.23,2.58,30.45,1.53,44.28L3.12,57c-7.65,25.25,1.19,68.4,1,95.44L5.59,175c5.05,14.2,15.34,6.18,29.85,15.65,12.33,8,12.3.28,22.11-3.49,19,0,29.85-.53,47.79-3,44.36-6,44.14-10.21,61.8,3.43,19.41-11.68,4.5-11.06,31.6-11.26l5.81-122.82-25.88,1.13c-15.25-19.5-7.56-23.24-11.82-43.59C163.54-4.76,142.7.71,136.69,1.79L71,8.19C55.4,8.45,31.9,3.49,20.84,11.45Z"/><path class="d" d="M144.91,90.09c41.5-14.29,56.21,43.45,21.55,56.35C124.56,162,112,101.42,144.91,90.09Zm43.71,41.75c20-50.12-54.9-67.86-66.3-26.84C107.81,157.07,172,173.37,188.62,131.84Z"/><path class="d" d="M38.36,95.78C78.41,81,96.13,137.91,59.59,151.91,18.74,167.53,5.62,107.86,38.36,95.78ZM15.37,133C23.31,178,92,164.89,84.85,115,79.49,77.22,5.05,74.66,15.37,133Z"/><path class="d" d="M69.51,80.25c9.47,5.7,98.59-2,108.94-8-12-7.49-40-.26-55.68,1.19C108.43,74.75,79.29,71.75,69.51,80.25Z"/><path class="d" d="M97.94,115.71c-4.62-9.61-4.76-12.67-.85-20.83,12.59,2.29,10.63,6.69,9.47,21.37Zm-8.47-26c-3.74,9.15-.14,22.19,1.78,31.29l20.27,1.28c3.74-10.29,1.28-22.91-1.5-32.91Z"/><path class="d" d="M92.78,138.84l20.53,1,.08,10.63L93.66,151Zm-3.14,18.4c9.49.76,20.61,1.5,29.08-2.38,3.74-7.51,1.08-11-.25-21.15l-32.26.48Z"/><path class="d" d="M32,76.39c-5.59,5.19-2.38,5.56-7.83-.19C28.47,67,29.23,73.42,32,76.39Zm-10.46-9c-6,8.5-5,8.67-.77,17.38,22.48,2.77,1.9-3.55,24-2.55,8.82.39,1.14,1.84,8.54-1.28.93-10.12-7.2-17.58-13.53-4l-5.75-10Z"/><path class="d" d="M47.91,116.59c7.4,6.21,5.42.37,2.78,10.94L42.78,125C43.55,117.27,42.38,120.73,47.91,116.59ZM37.48,129.77c20.69,11.57,31-9.13,11.62-20.66l-12.5,6.83Z"/><path class="d" d="M156.45,111.8c4.54,9.55,2.72,12.73-7.43,8.64C149.22,110,149.62,113.64,156.45,111.8ZM143.84,125c9.35,4.62,10.37,5.27,19.27-.54l2.07-12.13-11-8.59C142.87,109.76,140.6,113,143.84,125Z"/><path class="e" d="M86.21,134.19l32.26-.48c1.33,10.12,4,13.64.25,21.15-8.47,3.88-19.59,3.14-29.08,2.38ZM15.37,133C5.05,74.66,79.49,77.22,84.85,115,92,164.89,23.31,178,15.37,133Zm173.25-1.19C172,173.37,107.81,157.07,122.32,105,133.72,64,208.64,81.72,188.62,131.84Zm-77.1-9.58L91.25,121c-1.92-9.1-5.52-22.14-1.78-31.29L110,89.35C112.8,99.35,115.26,112,111.52,122.26ZM44.79,82.21c-22.08-1-1.5,5.32-24,2.55-4.22-8.71-5.21-8.88.77-17.38l12.47-.45,5.75,10c6.33-13.55,14.46-6.09,13.53,4C45.93,84.05,53.61,82.6,44.79,82.21Zm24.72-2c9.78-8.5,38.92-5.5,53.26-6.83,15.71-1.45,43.72-8.68,55.68-1.19C168.1,78.24,79,86,69.51,80.25ZM15,176.91c26.25,10.32,143.66-4,178.47-8l3.8-108.37c-31.38,1.81-62.76,4.14-94.17,5.33-33.3,1.27-63.41-4.82-94.67-3.8C8.28,75,7.06,164.64,15,176.91Z"/></svg>