<?xml version="1.0" encoding="utf-8"?>
<!-- Generator: Adobe Illustrator 24.1.2, SVG Export Plug-In . SVG Version: 6.00 Build 0)  -->
<svg version="1.1" id="Слой_1" xmlns="http://www.w3.org/2000/svg" xmlns:xlink="http://www.w3.org/1999/xlink" x="0px" y="0px"
	 viewBox="0 0 204.6 204.6" style="enable-background:new 0 0 204.6 204.6;" xml:space="preserve">
<style type="text/css">
	.st0{fill-rule:evenodd;clip-rule:evenodd;fill:#F1821E;}
	.st1{fill-rule:evenodd;clip-rule:evenodd;fill:#116F70;}
	.st2{fill-rule:evenodd;clip-rule:evenodd;fill:#D5E4E4;}
	.st3{fill-rule:evenodd;clip-rule:evenodd;fill:#020303;}
	.st4{fill-rule:evenodd;clip-rule:evenodd;fill:#BBBBBB;}
</style>
<polygon class="st0" points="93.7,156.2 113.4,155.7 113.3,145.1 92.8,144 "/>
<path class="st0" d="M106.7,63.1c8.4,1.7,10.4,2.8,16.8-1.2C117.8,58.7,109.2,58.4,106.7,63.1z"/>
<path class="st0" d="M24.2,81.4c5.5,5.8,2.2,5.4,7.8,0.2C29.2,78.6,28.5,72.2,24.2,81.4z"/>
<path class="st0" d="M163,58.7c7.5,5.5,4.1,1.7,7.1,0.1C165.9,56.5,170.1,53.9,163,58.7z"/>
<path class="st1" d="M26.5,19.5c-1.8,11.1,0.1,33.6,4.8,41.9c4.8-8.2-0.3-21,2.3-34.4c19.9-3,107.3-10.8,120.5-3.1
	c7.1,7.6-2.6,23.2,9,25.5l-4-35.8c-21.7-2-43.7,1.6-65,4.1C71.6,20.4,47.2,16.5,26.5,19.5z"/>
<path class="st1" d="M97.9,120.9l8.6,0.5c1.2-14.7,3.1-19.1-9.5-21.4C93.2,108.2,93.3,111.3,97.9,120.9z"/>
<path class="st1" d="M149,125.6c10.1,4.1,12,0.9,7.4-8.6C149.6,118.8,149.2,115.2,149,125.6z"/>
<path class="st1" d="M42.8,130.2l7.9,2.5c2.6-10.6,4.6-4.7-2.8-10.9C42.4,125.9,43.5,122.5,42.8,130.2z"/>
<path class="st2" d="M143.8,130.2c-3.2-12-1-15.2,10.3-21.3l11,8.6l-2.1,12.1C154.2,135.5,153.2,134.8,143.8,130.2z M144.9,95.3
	c-32.9,11.3-20.4,71.9,21.6,56.3C201.1,138.7,186.4,81,144.9,95.3L144.9,95.3z"/>
<path class="st2" d="M37.5,135l-0.9-13.8l12.5-6.8C68.4,125.8,58.2,146.5,37.5,135z M38.4,101c-32.7,12.1-19.6,71.8,21.2,56.1
	C96.1,143.1,78.4,86.2,38.4,101L38.4,101z"/>
<path class="st3" d="M15,182.1C7.1,169.8,8.3,80.2,8.4,67.3c31.3-1,61.4,5.1,94.7,3.8c31.4-1.2,62.8-3.5,94.2-5.3l-3.8,108.4
	C158.7,178.1,41.3,192.4,15,182.1z M123.5,61.9c-6.4,4-8.4,2.9-16.8,1.2C109.2,58.4,117.8,58.7,123.5,61.9z M163,58.7
	c7.1-4.8,2.9-2.2,7.1,0.1C167.1,60.4,170.5,64.2,163,58.7z M39.3,32.5c14.1-1.1,103.9-6.1,110-4.1l6.4,32.8c-11.2-8.9,2.5-7-15.6-8
	l-7.4,11.6l-5.7-11l-20.8-0.3c-7.7,8.3-2.9,7.3-11.4,10.6c-11.5,0-32.4,1.3-42.8,0C36.5,62.2,38.3,46.2,39.3,32.5z M26.5,19.5
	c20.7-3,45.1,0.9,67.6-1.8c21.3-2.5,43.3-6.2,65-4.1l4,35.8c-11.6-2.2-1.9-17.8-9-25.5C141,16.3,53.5,24.1,33.6,27.1
	c-2.6,13.4,2.4,26.2-2.3,34.4C26.6,53.2,24.8,30.7,26.5,19.5z M20.8,16.7c-2.1,18.2,2.6,30.5,1.5,44.3L3.1,62.2
	c-7.7,25.3,1.2,68.4,1,95.4l1.5,22.6c5.1,14.2,15.3,6.2,29.9,15.6c12.3,8,12.3,0.3,22.1-3.5c19,0,29.8-0.5,47.8-3
	c44.4-6,44.1-10.2,61.8,3.4c19.4-11.7,4.5-11.1,31.6-11.3l5.8-122.8l-25.9,1.1c-15.3-19.5-7.6-23.2-11.8-43.6
	C163.5,0.4,142.7,5.9,136.7,7L71,13.4C55.4,13.7,31.9,8.7,20.8,16.7z"/>
<path class="st3" d="M144.9,95.3c41.5-14.3,56.2,43.4,21.6,56.4C124.6,167.2,112,106.6,144.9,95.3z M188.6,137
	c20-50.1-54.9-67.9-66.3-26.8C107.8,162.3,172,178.6,188.6,137z"/>
<path class="st3" d="M38.4,101c40.1-14.8,57.8,42.1,21.2,56.1C18.7,172.7,5.6,113.1,38.4,101z M15.4,138.2c7.9,45,76.6,31.9,69.5-18
	C79.5,82.4,5.1,79.9,15.4,138.2z"/>
<path class="st3" d="M69.5,85.5c9.5,5.7,98.6-2,108.9-8c-12-7.5-40-0.3-55.7,1.2C108.4,80,79.3,77,69.5,85.5z"/>
<path class="st3" d="M97.9,120.9c-4.6-9.6-4.8-12.7-0.8-20.8c12.6,2.3,10.6,6.7,9.5,21.4L97.9,120.9z M89.5,94.9
	c-3.7,9.2-0.1,22.2,1.8,31.3l20.3,1.3c3.7-10.3,1.3-22.9-1.5-32.9L89.5,94.9z"/>
<path class="st3" d="M92.8,144l20.5,1l0.1,10.6l-19.7,0.5L92.8,144z M89.6,162.4c9.5,0.8,20.6,1.5,29.1-2.4c3.7-7.5,1.1-11-0.3-21.1
	l-32.3,0.5L89.6,162.4z"/>
<path class="st3" d="M32,81.6c-5.6,5.2-2.4,5.6-7.8-0.2C28.5,72.2,29.2,78.6,32,81.6z M21.5,72.6c-6,8.5-5,8.7-0.8,17.4
	c22.5,2.8,1.9-3.6,24-2.6c8.8,0.4,1.1,1.8,8.5-1.3c0.9-10.1-7.2-17.6-13.5-4l-5.8-10L21.5,72.6z"/>
<path class="st3" d="M47.9,121.8c7.4,6.2,5.4,0.4,2.8,10.9l-7.9-2.5C43.5,122.5,42.4,125.9,47.9,121.8z M37.5,135
	c20.7,11.6,31-9.1,11.6-20.7l-12.5,6.8L37.5,135z"/>
<path class="st3" d="M156.4,117c4.5,9.6,2.7,12.7-7.4,8.6C149.2,115.2,149.6,118.8,156.4,117z M143.8,130.2
	c9.4,4.6,10.4,5.3,19.3-0.5l2.1-12.1l-11-8.6C142.9,115,140.6,118.2,143.8,130.2z"/>
<path class="st4" d="M86.2,139.4l32.3-0.5c1.3,10.1,4,13.6,0.3,21.1c-8.5,3.9-19.6,3.1-29.1,2.4L86.2,139.4z M15.4,138.2
	c-10.3-58.3,64.1-55.8,69.5-18C92,170.1,23.3,183.2,15.4,138.2z M188.6,137c-16.6,41.6-80.8,25.3-66.3-26.8
	C133.7,69.2,208.6,86.9,188.6,137L188.6,137z M111.5,127.4l-20.3-1.2c-1.9-9.1-5.5-22.1-1.8-31.3l20.5-0.4
	C112.8,104.6,115.3,117.2,111.5,127.4L111.5,127.4z M44.8,87.4c-22.1-1-1.5,5.3-24,2.6c-4.2-8.7-5.2-8.9,0.8-17.4L34,72.1l5.8,10
	c6.3-13.6,14.5-6.1,13.5,4C45.9,89.3,53.6,87.8,44.8,87.4z M69.5,85.4c9.8-8.5,38.9-5.5,53.3-6.8c15.7-1.4,43.7-8.7,55.7-1.2
	C168.1,83.4,79,91.2,69.5,85.4L69.5,85.4z M15,182.1c26.3,10.3,143.7-4,178.5-8l3.8-108.4c-31.4,1.8-62.8,4.1-94.2,5.3
	c-33.3,1.3-63.4-4.8-94.7-3.8C8.3,80.2,7.1,169.8,15,182.1z"/>
</svg>
