<svg xmlns="http://www.w3.org/2000/svg" viewBox="0 0 241.93 210.35"><defs><style>.a{fill:#c26327;}.a,.b,.c,.d{fill-rule:evenodd;}.b{fill:#010100;}.c{fill:#d5e4e4;}.d{fill:#74cbce;}</style></defs><path class="a" d="M19.83,157c-8.48-26,2.75-69.62-4.26-88.58-8.7,8.16-4.67,34.75-5.83,47.73-5.5,61.57-17.07,53.61,112.5,50.94,24.83-.51,95.19,7.83,111-9.27,4.2-15.45-.42-26-1.28-41.52-.68-12.53,1.9-26.9-10.43-31.64-8.93,22.57,9,45.07,4.91,74.3C196.54,161.88,39.41,164.63,19.83,157Z"/><path class="a" d="M213.21,203.06c3.91-7.48,3.94-22.93,0-30.18-6.75,3.6-4.62,3-3.72,13.23C210.23,194.11,209.44,199.32,213.21,203.06Z"/><path class="a" d="M28.78,174.26c-3.37,6.5-1.9,23.16,2.7,29.85C36.49,196.74,35.19,181.78,28.78,174.26Z"/><path class="b" d="M28.78,174.26c6.41,7.52,7.71,22.48,2.7,29.85C26.88,197.42,25.41,180.76,28.78,174.26Zm184.43-1.38c3.94,7.25,3.91,22.7,0,30.18-3.77-3.74-3-8.95-3.72-16.95C208.59,175.88,206.46,176.48,213.21,172.88Zm-190.92-44c37.28-.6,73.76-2.18,110.72-2.18,74.84,0,92.5-8.42,88,26.67-29.31,1.48-177.13,4.74-195.47-1.7Zm26.85-8.25L23.31,122.5l.23-40.13c36.17-10,36.54,20.21,52.07,37.95-23.19,5.05-31.26-19.73-49-19.7C30,108.16,41.8,115.87,49.14,120.66ZM19.83,157c19.58,7.63,176.71,4.88,206.56,2,4.11-29.23-13.84-51.73-4.91-74.3,12.33,4.74,9.75,19.11,10.43,31.64.86,15.53,5.48,26.07,1.28,41.52-15.76,17.1-86.12,8.76-110.95,9.27-129.57,2.67-118,10.63-112.5-50.94,1.16-13-2.87-39.57,5.83-47.73C22.58,87.38,11.35,131,19.83,157Zm1,18.09c0,21.4-5.58,34.72,18.71,34.72V175.09c55.64,0,107.29-2.7,163-2.7,0,16.39-2,42,18.71,37.42V175.09c21.54-19,23.53-13,18.22-47.63-3.74-24.4,5.79-48.58-23.58-48.58-5.1,21.26-1.7,23.41,0,42.75-17.63-4.26-11.37.34-25.94-.77-33.36-2.49-99.55.79-99.66.77-5.47-.74-11.68-7-15.2-11.51-5.41-6.92-4.25-11.14-8.3-18.43-7.23-13-23-18.17-38-18.17C12.57,67.37,32.36,62.81,7.41,62.83,6.05,68.5-1.8,149.72.38,158,4.18,172.42,10,170.1,20.79,175.09Z"/><path class="b" d="M149.06,9.37c5.36,2.07,23.21-2.66,34.75-2.66-5.19,10.32-19.61,22.48-16.95,33,8.11,2.7,16,1.87,25.09,1.93,13.49.14,18.08,3.43,21.26-8.19-16,0-25.74,2.69-40.09,2.66,6.67-10.17,21-22.76,17-35.66C190.05.44,154.25-3,149.06,9.37Z"/><path class="b" d="M111.64,46.79,133,44,121.36,62.15c10,3,30.62,7.35,35.72-4.67-6.26-2.41-15.7,0-24.07,0,5.62-8.54,9.47-9.44,6.27-19.62-6.27-1.9-8.79-.65-14.77.26C113.17,39.82,114.5,36.3,111.64,46.79Z"/><path class="b" d="M82.7,74.2c5.19,7.17,2.78,4,12.67,5.36-2.61,5.47-2.86,5,.25,10h18.71c-4.59-10.83,2.16-1.39-10.23-7.12l6-11.11C99.17,70.86,89.76,68.73,82.7,74.2Z"/><path class="c" d="M25.5,151.7c18.34,6.44,166.16,3.18,195.47,1.7,4.54-35.09-13.12-26.67-88-26.67-37,0-73.44,1.58-110.72,2.18Z"/><path class="d" d="M49.14,120.66c-7.34-4.79-19.17-12.5-22.51-20,17.72,0,25.79,24.75,49,19.7-15.53-17.74-15.9-48-52.07-37.95l-.23,40.13Z"/></svg>