<svg xmlns="http://www.w3.org/2000/svg" viewBox="0 0 224.96 188.34"><defs><style>.a{fill:#bbb;}.a,.b,.c,.d,.e{fill-rule:evenodd;}.b{fill:#fdbe10;}.c{fill:#d5e4e4;}.d{fill:#020201;}.e{fill:#127173;}</style></defs><path class="a" d="M25.51,163c-4.76-16.52,2.22-25.05,19-19C54.29,159.58,40.51,167.34,25.51,163ZM8.82,164c6.94,22.45,62.79,26.36,53.6-18.68C56,113.94-1.5,130.52,8.82,164Z"/><path class="a" d="M158.69,110.17c-28.95,13.38-11,48.16,14,36.51C194.57,136.44,184.43,98.29,158.69,110.17Z"/><path class="a" d="M30.59,158c7.79.28,8.13,2.3,11.39-5.9C33.62,143.9,29.34,147.53,30.59,158Z"/><polygon class="a" points="109.05 74.79 103.47 73.88 99.64 76.58 109.05 74.79"/><path class="b" d="M107.63,139.22c.86-8.13-1.78-17.06,1.85-23.89,3.51-6.64,6.35-2.87,10.12-14.77l-66.45.82c-7.34,19.45,2.21,24.66,14.43,38.69Z"/><path class="b" d="M48.59,96.76c29.85-11.51,67.49,12.64,71.77-13.41-17.8-1.5-30.95,2.78-47.62,3.12-16.1.34-31.89-1.5-48.64.4l3.68,36.53,17.55-1.5C45.56,110.88,43.29,106,48.59,96.76Z"/><path class="b" d="M98.14,10.44c20.63,4.11,66,4.77,86.23.74-2.18-2.38,4.56-1.36-5.5-4C177.23,6.76,104.18,7,98.14,10.44Z"/><path class="b" d="M196.61,75.05c2.47-7,2.41-11-3.06-16.59C191.43,68.27,190.43,68.1,196.61,75.05Z"/><path class="c" d="M103.47,73.88l5.58.91C126.37,78,134.11,76.6,148.14,68l-.93-48.27-44.85-1.88C99.36,34.4,82,63.68,91.51,78l10.17-15.67-4.59-9.7c9.72.63,13.35,7,18.37,15.08-7.12,3.72,0,3-10.29.17Z"/><path class="c" d="M154.46,72.55c16.84-4.62,13.18-4.25,30.59-4.51,2-23.41,4.25-23.84-3-48l-28.49-.4Z"/><path class="d" d="M8.82,164C-1.5,130.52,56,113.94,62.42,145.32,71.61,190.36,15.76,186.45,8.82,164ZM126.91,87.29c14.43-11.76,10.18-9.92,26.16-9.18,13.67.62,17.24-8.68,33.68-1.7,14.4,6.09,8.25,14.23,17,23.27,14.09,14.54,12.81.45,14.26,29.88-16.87,16.24-8.11,15.81-9.33,34.38l-10.2,10.66c-10.32-.26-10.29-3.54-20-1-6.61,1.73-12,7.79-17.58,8.3C137,184,133,161,131.33,158.75c-10.63-14.91-17.32-7.59-17.63-32.62-.17-12.62,3.63-8,9-16.36S124.64,97.16,126.91,87.29Zm-19.28,51.93-40,.85c-12.22-14-21.77-19.24-14.43-38.69l66.45-.82c-3.77,11.9-6.61,8.13-10.12,14.77C105.85,122.16,108.49,131.09,107.63,139.22Zm-59-42.46c-5.3,9.24-3,14.12-3.26,25.14l-17.55,1.5L24.1,86.87c16.75-1.9,32.54-.06,48.64-.4,16.67-.34,29.82-4.62,47.62-3.12C116.08,109.4,78.44,85.25,48.59,96.76Zm148-21.71c-6.18-7-5.18-6.78-3.06-16.59C199,64.1,199.08,68,196.61,75.05Zm-43-55.45,28.49.4c7.23,24.2,5,24.63,3,48-17.41.26-13.75-.11-30.59,4.51ZM109.05,74.79l-9.41,1.79,3.83-2.7,1.7-6c10.29,2.87,3.17,3.55,10.29-.17-5-8.13-8.65-14.45-18.37-15.08l4.59,9.7L91.51,78C82,63.68,99.36,34.4,102.36,17.81l44.85,1.88L148.14,68C134.11,76.6,126.37,78,109.05,74.79Zm75.32-63.61c-20.27,4-65.6,3.37-86.23-.74,6-3.43,79.09-3.68,80.73-3.26C188.93,9.82,182.19,8.8,184.37,11.18ZM92,7C89.35,30,98.88,6.59,88.27,40.66c-3,9.64-4,31.47-8.53,36.91-8.47,7.06-31.29-.94-47.14,1-19.16,2.33-13.35,15-15.25,19.93,0,.11-5.27,7.29-6.41,9.18,2.56,9.44,4.4,10.8,11.37,16.28-.08.11-46.63,37.44-5,58C47.48,196.88,70,181.4,70,148c25.85,0,32.09-7.85,40.93,1.82,6,6.54-2.63.48,6.78,6.6,19.19,12.44,9.52,30.95,40.62,31.89,15.17.45,7.28-2.3,17.69-6.6,21.34-8.88,12.44,18.39,44.11-23-16.22-21.06,3.94-16.07,4.87-29.4l-3.26-26.05c-6.38-4.59-13.1-4.33-16.53-13-3.23-8.17-1.58-18.88-1.58-27.81-3.21-11.85-7.57-6.92-11-23.75-2.72-13.44-1.76-20.81-2.81-34.59C179,.21,104.23-3.9,92,7Z"/><path class="d" d="M158.69,110.17c25.74-11.88,35.88,26.27,14,36.51C147.72,158.33,129.74,123.55,158.69,110.17Zm-3.43-5.11C122,120.4,140.91,168.45,175.38,152,203.76,138.46,190.12,89,155.26,105.06Z"/><path class="d" d="M30.59,158c-1.25-10.43,3-14.06,11.39-5.9C38.72,160.26,38.38,158.24,30.59,158ZM25.51,163c15,4.31,28.78-3.45,19-19C27.73,138,20.75,146.51,25.51,163Z"/><path class="e" d="M155.26,105.06c34.86-16.1,48.5,33.4,20.12,46.95C140.91,168.45,122,120.4,155.26,105.06ZM126.91,87.29c-2.27,9.87,1.28,14.09-4.17,22.48s-9.21,3.74-9,16.36c.31,25,7,17.71,17.63,32.62C133,161,137,184,161,181.88c5.62-.51,11-6.57,17.58-8.3,9.67-2.52,9.64.76,20,1l10.2-10.66c1.22-18.57-7.54-18.14,9.33-34.38-1.45-29.43-.17-15.34-14.26-29.88-8.76-9-2.61-17.18-17-23.27-16.44-7-20,2.32-33.68,1.7C137.09,77.37,141.34,75.53,126.91,87.29Z"/></svg>