<svg xmlns="http://www.w3.org/2000/svg" viewBox="0 0 203.1 195.11"><defs><style>.a{fill:#010101;}.a,.b,.c,.d{fill-rule:evenodd;}.b{fill:#bbb;}.c{fill:#b8b8b8;}.d{fill:#14b6b9;}</style></defs><path class="a" d="M167.39,122.94c.82-.45-6.35-5.81,10.31-1.82,10.66,2.56,4.31,2.3,7.06,4.48C173.71,126.31,175.89,127.7,167.39,122.94ZM23.39,87.7c16.47-2.83,36.11-1.41,54-2.6,53.52-3.55,86.43-21.66,110,13.57,8,12,5.92,15.79,5.92,15.76a14.14,14.14,0,0,1-.17,1.76c-14.11,2.3-26.5-6.06-45.55-3.34-12.78,1.84-27.89,7.85-42.63,10.77-49.1,9.72-41.61,10.83-41.61,62.9-17.66,2.3-44.56,1-56.22-8.45ZM0,181.73c18.43,12.33,45.92,13.38,69.48,13.38,0-24-2-36,2.69-56.13l88.19-21.37c1.58,19,18.19,18.85,29.45,10.74,6.29-4.53-.48-4.87,13.29-8.08-.88-10.8-9.81-25.65-15.5-32.59C164,58.88,102.76,77.87,58.82,80.19,10.06,82.77,21.43,60.38,5,154.69,3.34,164.24.26,170.76,0,181.73Z"/><path class="a" d="M72.17,66.67l-46.74.54C33,33.11,44.14,20.58,80.36,16.41c23.22-2.66,75.21-14.2,90.65-6.12-7,21.49-53.26,17.29-81.07,34.21C79.77,50.71,78.86,57.09,72.17,66.67ZM24,74.83c83.22,0,41.72-.76,64.2-21.31,12.42-11.34,46.38-16.07,65.85-22.34,16.64-5.38,17.75-6.8,25-20.49-.42-.49-1-1.93-1.16-1.51S172.06,0,163,0L61,12.87C34.33,21.12,28.89,35.8,20.83,58.56,18.2,66,12.56,74.83,24,74.83Z"/><path class="a" d="M176.71,154.91c5.81,13.16,1.16,12.48-.31,14.77-3.37-5.58-3.6,7.09-2.81-9C174.16,149.5,174,158.8,176.71,154.91Zm-11,13.47c0,10.09,21.4,10.09,21.4,0,0-12.79-7.86-16-10.69-26.73H171C169,150.29,165.69,158.23,165.69,168.38Z"/><path class="b" d="M23.39,87.7,7.11,178.07c11.66,9.44,38.56,10.75,56.22,8.45,0-52.07-7.49-53.18,41.61-62.9,14.74-2.92,29.85-8.93,42.63-10.77,19.05-2.72,31.44,5.64,45.55,3.34a14.14,14.14,0,0,0,.17-1.76s2.13-3.71-5.92-15.76c-23.53-35.23-56.44-17.12-110-13.57C59.5,86.29,39.86,84.87,23.39,87.7Z"/><path class="b" d="M72.17,66.67c6.69-9.58,7.6-16,17.77-22.17C117.75,27.58,164,31.78,171,10.29c-15.44-8.08-67.43,3.46-90.65,6.12C44.14,20.58,33,33.11,25.43,67.21Z"/><path class="c" d="M167.39,122.94c8.5,4.76,6.32,3.37,17.37,2.66-2.75-2.18,3.6-1.92-7.06-4.48C161,117.13,168.21,122.49,167.39,122.94Z"/><path class="d" d="M176.4,169.68c1.47-2.29,6.12-1.61.31-14.77-2.75,3.89-2.55-5.41-3.12,5.76C172.8,176.77,173,164.1,176.4,169.68Z"/></svg>