<?xml version="1.0" encoding="utf-8"?>
<!-- Generator: Adobe Illustrator 24.1.2, SVG Export Plug-In . SVG Version: 6.00 Build 0)  -->
<svg version="1.1" id="Слой_1" xmlns="http://www.w3.org/2000/svg" xmlns:xlink="http://www.w3.org/1999/xlink" x="0px" y="0px"
	 viewBox="0 0 203.1 203.1" style="enable-background:new 0 0 203.1 203.1;" xml:space="preserve">
<style type="text/css">
	.st0{fill-rule:evenodd;clip-rule:evenodd;fill:#010101;}
	.st1{fill-rule:evenodd;clip-rule:evenodd;fill:#BBBBBB;}
	.st2{fill-rule:evenodd;clip-rule:evenodd;fill:#B8B8B8;}
	.st3{fill-rule:evenodd;clip-rule:evenodd;fill:#14B6B9;}
</style>
<path class="st0" d="M167.4,126.9c0.8-0.4-6.4-5.8,10.3-1.8c10.7,2.6,4.3,2.3,7.1,4.5C173.7,130.3,175.9,131.7,167.4,126.9z
	 M23.4,91.7c16.5-2.8,36.1-1.4,54-2.6c53.5-3.6,86.4-21.7,110,13.6c8,12,5.9,15.8,5.9,15.8c0,0.6-0.1,1.2-0.2,1.8
	c-14.1,2.3-26.5-6.1-45.6-3.3c-12.8,1.8-27.9,7.8-42.6,10.8c-49.1,9.7-41.6,10.8-41.6,62.9c-17.7,2.3-44.6,1-56.2-8.4L23.4,91.7z
	 M0,185.7c18.4,12.3,45.9,13.4,69.5,13.4c0-24-2-36,2.7-56.1l88.2-21.4c1.6,19,18.2,18.8,29.4,10.7c6.3-4.5-0.5-4.9,13.3-8.1
	c-0.9-10.8-9.8-25.7-15.5-32.6c-23.6-28.8-84.8-9.8-128.8-7.5C10.1,86.8,21.4,64.4,5,158.7C3.3,168.2,0.3,174.8,0,185.7z"/>
<path class="st0" d="M72.2,70.7l-46.7,0.5C33,37.1,44.1,24.6,80.4,20.4c23.2-2.7,75.2-14.2,90.7-6.1c-7,21.5-53.3,17.3-81.1,34.2
	C79.8,54.7,78.9,61.1,72.2,70.7z M24,78.8c83.2,0,41.7-0.8,64.2-21.3c12.4-11.3,46.4-16.1,65.8-22.3c16.6-5.4,17.8-6.8,25-20.5
	c-0.4-0.5-1-1.9-1.2-1.5S172.1,4,163,4L61,16.9c-26.7,8.3-32.1,22.9-40.2,45.7C18.2,70,12.6,78.8,24,78.8z"/>
<path class="st0" d="M176.7,158.9c5.8,13.2,1.2,12.5-0.3,14.8c-3.4-5.6-3.6,7.1-2.8-9C174.2,153.5,174,162.8,176.7,158.9z
	 M165.7,172.4c0,10.1,21.4,10.1,21.4,0c0-12.8-7.9-16-10.7-26.7H171C169,154.3,165.7,162.2,165.7,172.4L165.7,172.4z"/>
<path class="st1" d="M23.4,91.7L7.1,182.1c11.7,9.4,38.6,10.8,56.2,8.4c0-52.1-7.5-53.2,41.6-62.9c14.7-2.9,29.9-8.9,42.6-10.8
	c19.1-2.7,31.4,5.6,45.6,3.3c0.1-0.6,0.2-1.2,0.2-1.8c0,0,2.1-3.7-5.9-15.8c-23.5-35.2-56.4-17.1-110-13.6
	C59.5,90.3,39.9,88.9,23.4,91.7z"/>
<path class="st1" d="M72.2,70.7c6.7-9.6,7.6-16,17.8-22.2C117.8,31.6,164,35.8,171,14.3c-15.4-8.1-67.4,3.5-90.7,6.1
	C44.1,24.6,33,37.1,25.4,71.2L72.2,70.7z"/>
<path class="st2" d="M167.4,126.9c8.5,4.8,6.3,3.4,17.4,2.7c-2.8-2.2,3.6-1.9-7.1-4.5C161,121.1,168.2,126.5,167.4,126.9z"/>
<path class="st3" d="M176.4,173.7c1.5-2.3,6.1-1.6,0.3-14.8c-2.8,3.9-2.6-5.4-3.1,5.8C172.8,180.8,173,168.1,176.4,173.7z"/>
</svg>
