<?xml version="1.0" encoding="utf-8"?>
<!-- Generator: Adobe Illustrator 24.1.2, SVG Export Plug-In . SVG Version: 6.00 Build 0)  -->
<svg version="1.1" id="Слой_1" xmlns="http://www.w3.org/2000/svg" xmlns:xlink="http://www.w3.org/1999/xlink" x="0px" y="0px"
	 viewBox="0 0 226.6 226.6" style="enable-background:new 0 0 226.6 226.6;" xml:space="preserve">
<style type="text/css">
	.st0{fill-rule:evenodd;clip-rule:evenodd;fill:#EF4823;}
	.st1{fill-rule:evenodd;clip-rule:evenodd;fill:#BBBBBB;}
	.st2{fill-rule:evenodd;clip-rule:evenodd;}
	.st3{fill-rule:evenodd;clip-rule:evenodd;fill:#127173;}
	.st4{fill-rule:evenodd;clip-rule:evenodd;fill:#B9B9B9;}
	.st5{fill-rule:evenodd;clip-rule:evenodd;fill:#020202;}
</style>
<path class="st0" d="M98.2,146.5c9.1-4.5,15.8-19.2,18.5-29.4C109.4,120.4,102.4,137.5,98.2,146.5z"/>
<path class="st0" d="M82.5,134.5l9.5-17C80.9,121.1,78.9,125.4,82.5,134.5z"/>
<path class="st0" d="M130.3,113.9c-5.5-9.3-7.1-6.9-16.7-8.8C118.7,112.4,121.3,113.6,130.3,113.9z"/>
<path class="st0" d="M95.9,134.6c5.9-6.3,4.7-4,4.8-11.8c-3.5,1-1.5-5.2-6.1,3.7C90.4,134.5,94.3,132.3,95.9,134.6z"/>
<path class="st0" d="M117.8,135.5l5.5-10.3c-1.7,0.6-2.9,0.4-4.3,4.1C116.8,135,118.3,131,117.8,135.5z"/>
<path class="st0" d="M147.7,42.9l8.3,0.4c-2.8-2.2,0.4-2.4-3.9-2.1C151.2,41.3,148.3,41.9,147.7,42.9z"/>
<path class="st0" d="M146.2,52.8l9.2-1.4C141.2,49,150.2,50.1,146.2,52.8z"/>
<path class="st1" d="M136.5,49.8c3-13.2,9.3-17.1,22.3-14.5c10.4,10.7,5,21.6-10,25.1L136.5,49.8z M200.6,191l14.2-0.6
	c3.1-24.2,0.8-72.5-11.9-92.5c-6.9-10.9-16.8-18.6-24.2-29.2c-14.3-20.4,0.2-30-6.2-49.9c-14.3-1.8-39.8,14-43,27.2
	c-3.3,13.5,25.6,30.1,37.4,66.6c3.8,11.8,2,20.1,9.7,27.7C201.3,164.8,193.3,156.9,200.6,191L200.6,191z"/>
<path class="st1" d="M59.1,154.9c15.7-28.8-28.3-41.1-45.2-26.6c-9.4,8.1-9.7,25.8,4.6,27.8C23,156.7,55.5,156,59.1,154.9z"/>
<path class="st1" d="M24.5,175.9l-1.5,20c13.1-0.1,12.3-0.2,22.5-6.5c10.9-6.7,9.2-4.6,6.8-15.8L24.5,175.9z"/>
<path class="st1" d="M17.4,167.8c7.2,3.6,28.3,1.2,36.3-3.2c-6.5-3.7-10.5-3.5-19.4-3.3C16.5,161.5,23.6,163.3,17.4,167.8z"/>
<path class="st2" d="M14,207.2c7.5-10,87.4-6.9,103.3-7.3c17.6-0.5,94.3-6.8,103.5-0.2c-5.7,13.6-90.1,10.7-100.9,10.6
	C106.1,210.1,19.4,212.7,14,207.2z M51.5,193.5c11.4-8.9,24.9-16.8,35.1-27.3c24.9-25.6,57.3-41.4,90.3-18.4
	c15.5,10.8,14.1,25.2,16.8,42.8C171.6,194.1,71.7,196.9,51.5,193.5z M52.4,173.5c2.3,11.1,4.1,9.1-6.8,15.8
	c-10.3,6.4-9.4,6.4-22.5,6.5l1.5-20L52.4,173.5z M34.3,161.3c8.9-0.1,12.9-0.3,19.4,3.3c-8,4.4-29.1,6.8-36.3,3.2
	C23.6,163.3,16.5,161.5,34.3,161.3z M59.1,154.9c-3.5,1.1-36,1.8-40.7,1.2c-14.3-2-14-19.7-4.6-27.8C30.8,113.7,74.8,126,59.1,154.9
	L59.1,154.9z M117.8,135.5c0.4-4.5-1-0.5,1.2-6.2c1.4-3.7,2.6-3.5,4.3-4.1L117.8,135.5z M95.9,134.6c-1.6-2.3-5.4-0.1-1.3-8.1
	c4.6-8.9,2.6-2.7,6.1-3.7C100.6,130.7,101.8,128.3,95.9,134.6z M82.5,134.5c-3.6-9.1-1.7-13.5,9.5-17L82.5,134.5z M98.2,146.5
	c4.2-9,11.2-26.1,18.5-29.4C114,127.3,107.3,142,98.2,146.5L98.2,146.5z M130.3,114c-9-0.3-11.6-1.5-16.7-8.8
	C123.3,107,124.8,104.6,130.3,114L130.3,114z M200.6,191c-7.3-34,0.6-26.2-24.1-50.8c-7.7-7.6-5.8-15.8-9.7-27.7
	C155,76,126.2,59.4,129.4,45.9c3.2-13.2,28.8-29,43-27.2c6.4,19.9-8.1,29.5,6.2,49.9c7.4,10.6,17.4,18.3,24.3,29.2
	c12.8,20,15,68.3,11.9,92.5L200.6,191z M165.3,132.8c-13.5-1.2-22.5-6-37-0.5c2.4-13.7,7.9-10.1,9.6-19.8
	c-6.3-11.6-16.4-16.8-29.9-12.8c-8.5,19.6,5.8,4.6-2.6,16.9c-9.6-2.6-8.4-14.7-22.4-4.8c-9.2,6.5-10.1,17.6-6.9,27.4l16.5,2.2
	c-4.6,7.4-8.5,12-13.3,20.6c-4.4,7.9-11.8,14-20.4,16.1c-2.1-23.4,19-22.7,7.5-45.2C52.6,105-5.7,113.2,0.4,145
	c1.1,5.9,18.1,31.2,15.3,46.5c-4,10.2-12.5,8.4-5.4,24h109.6c25,0,90.3,2.5,106.4-8.5c1.5-19.3-2.9-7.4-4.8-23.6
	c-0.9-7.4,0-21.3,0-29.4c0.1-17.8-2.5-35.6-8.4-50.4s-15.4-21.5-25-33.8c-20-25.7-3.8-25.3-6.8-46.5c-4.7-32.8-64.6,6.3-58.3,31
	C126.8,69,151.8,76,165.3,132.8L165.3,132.8z"/>
<path class="st3" d="M51.5,193.5c20.2,3.4,120.1,0.6,142.2-2.9c-2.7-17.6-1.3-32-16.8-42.8c-33.1-23-65.4-7.2-90.3,18.4
	C76.4,176.7,62.9,184.5,51.5,193.5z"/>
<path class="st4" d="M14,207.2c5.5,5.5,92.2,2.9,106,3.1c10.7,0.1,95.2,2.9,100.9-10.6c-9.2-6.6-85.9-0.2-103.5,0.2
	C101.4,200.3,21.5,197.2,14,207.2z"/>
<path class="st5" d="M146.2,52.8c4-2.7-5.1-3.8,9.2-1.4L146.2,52.8z M156,43.3l-8.3-0.4c0.7-1.1,3.5-1.6,4.4-1.7
	C156.4,40.9,153.2,41.2,156,43.3z M136.5,49.8l12.3,10.6c15-3.6,20.4-14.4,10-25.1C145.8,32.6,139.5,36.5,136.5,49.8z"/>
</svg>
