<svg xmlns="http://www.w3.org/2000/svg" viewBox="0 0 226.62 205.04"><defs><style>.a{fill:#ef4823;}.a,.b,.c,.d,.e,.f{fill-rule:evenodd;}.b{fill:#bbb;}.d{fill:#127173;}.e{fill:#b9b9b9;}.f{fill:#020202;}</style></defs><path class="a" d="M98.19,135.68c9.07-4.5,15.76-19.16,18.54-29.39C109.39,109.6,102.36,126.72,98.19,135.68Z"/><path class="a" d="M82.52,123.72l9.46-17C80.87,110.26,78.92,114.59,82.52,123.72Z"/><path class="a" d="M130.31,103.14c-5.47-9.35-7.06-6.92-16.7-8.84C118.74,101.64,121.35,102.83,130.31,103.14Z"/><path class="a" d="M95.9,123.83c5.86-6.29,4.67-4,4.79-11.82-3.46,1-1.51-5.18-6.1,3.69C90.45,123.75,94.34,121.54,95.9,123.83Z"/><path class="a" d="M117.84,124.68l5.49-10.26c-1.72.6-2.86.4-4.28,4.06C116.82,124.2,118.29,120.21,117.84,124.68Z"/><path class="a" d="M147.68,32.13l8.31.4c-2.78-2.15.37-2.41-3.94-2.1C151.17,30.49,148.34,31.06,147.68,32.13Z"/><path class="a" d="M146.24,42.05l9.18-1.36C141.16,38.23,150.24,39.33,146.24,42.05Z"/><path class="b" d="M136.49,39c3-13.23,9.3-17.12,22.31-14.51,10.37,10.74,5,21.57-10,25.14Zm64.12,141.17,14.23-.65c3.06-24.21.82-72.48-11.94-92.5C196,76.13,186.09,68.42,178.67,57.79c-14.26-20.44.22-30-6.21-49.89-14.26-1.85-39.83,14-43,27.18-3.26,13.52,25.6,30.08,37.44,66.59,3.83,11.85,2,20.07,9.67,27.69C201.26,154,193.27,146.09,200.61,180.13Z"/><path class="b" d="M59.07,144.07c15.74-28.83-28.29-41.13-45.21-26.61-9.41,8.05-9.69,25.76,4.56,27.78C23,145.86,55.53,145.18,59.07,144.07Z"/><path class="b" d="M24.55,165.08l-1.45,20c13.13-.14,12.25-.17,22.51-6.52,10.94-6.74,9.18-4.65,6.83-15.79Z"/><path class="b" d="M17.35,157c7.23,3.6,28.29,1.24,36.34-3.21-6.49-3.68-10.46-3.48-19.39-3.34C16.5,150.73,23.61,152.49,17.35,157Z"/><path class="c" d="M14,196.4c7.54-10,87.44-6.89,103.29-7.28,17.63-.46,94.34-6.84,103.52-.23-5.67,13.55-90.14,10.69-100.86,10.6C106.1,199.35,19.42,201.9,14,196.4ZM51.5,182.68c11.4-8.93,24.92-16.81,35.1-27.27,24.94-25.62,57.26-41.38,90.34-18.4,15.5,10.78,14.09,25.18,16.78,42.78C171.61,183.28,71.74,186.08,51.5,182.68Zm.94-19.93c2.35,11.14,4.11,9.05-6.83,15.79-10.26,6.35-9.38,6.38-22.51,6.52l1.45-20ZM34.3,150.48c8.93-.14,12.9-.34,19.39,3.34-8,4.45-29.11,6.81-36.34,3.21C23.61,152.49,16.5,150.73,34.3,150.48Zm24.77-6.41c-3.54,1.11-36,1.79-40.65,1.17-14.25-2-14-19.73-4.56-27.78C30.78,102.94,74.81,115.24,59.07,144.07Zm58.77-19.39c.45-4.47-1-.48,1.21-6.2,1.42-3.66,2.56-3.46,4.28-4.06Zm-21.94-.85c-1.56-2.29-5.45-.08-1.31-8.13,4.59-8.87,2.64-2.67,6.1-3.69C100.57,119.86,101.76,117.54,95.9,123.83Zm-13.38-.11c-3.6-9.13-1.65-13.46,9.46-17Zm15.67,12c4.17-9,11.2-26.08,18.54-29.39C114,116.52,107.26,131.18,98.19,135.68Zm32.12-32.54c-9-.31-11.57-1.5-16.7-8.84C123.25,96.22,124.84,93.79,130.31,103.14Zm70.3,77c-7.34-34,.65-26.16-24.07-50.77-7.68-7.62-5.84-15.84-9.67-27.69C155,65.16,126.17,48.6,129.43,35.08c3.2-13.18,28.77-29,43-27.18,6.43,19.9-8.05,29.45,6.21,49.89C186.09,68.42,196,76.13,202.9,87c12.76,20,15,68.29,11.94,92.5Zm-35.27-58.2c-13.52-1.19-22.5-6-37-.48,2.38-13.69,7.88-10.12,9.64-19.81-6.32-11.57-16.44-16.75-29.88-12.84-8.53,19.56,5.84,4.56-2.58,16.86-9.61-2.6-8.36-14.71-22.42-4.79-9.18,6.47-10.06,17.63-6.92,27.36l16.53,2.18c-4.59,7.45-8.53,12-13.27,20.55-4.36,7.91-11.76,14-20.38,16.13-2.09-23.36,19-22.71,7.54-45.24C52.61,94.24-5.7,102.43.45,134.24c1.14,5.95,18.14,31.23,15.25,46.54-4,10.18-12.47,8.45-5.38,24H119.9c24.95,0,90.26,2.52,106.42-8.5,1.5-19.28-2.92-7.43-4.82-23.62-.88-7.45,0-21.31,0-29.42.08-17.83-2.47-35.6-8.37-50.43s-15.44-21.51-25-33.81c-20-25.74-3.77-25.29-6.8-46.46-4.73-32.83-64.6,6.34-58.28,31C126.85,58.24,151.82,65.21,165.34,121.93Z"/><path class="d" d="M51.5,182.68c20.24,3.4,120.11.6,142.22-2.89-2.69-17.6-1.28-32-16.78-42.78-33.08-23-65.4-7.22-90.34,18.4C76.42,165.87,62.9,173.75,51.5,182.68Z"/><path class="e" d="M14,196.4c5.47,5.5,92.15,2.95,106,3.09,10.72.09,95.19,2.95,100.86-10.6-9.18-6.61-85.89-.23-103.52.23C101.39,189.51,21.49,186.42,14,196.4Z"/><path class="f" d="M146.24,42.05c4-2.72-5.08-3.82,9.18-1.36ZM156,32.53l-8.31-.4c.66-1.07,3.49-1.64,4.37-1.7C156.36,30.12,153.21,30.38,156,32.53ZM136.49,39l12.3,10.63c15-3.57,20.38-14.4,10-25.14C145.79,21.84,139.52,25.73,136.49,39Z"/></svg>