<svg xmlns="http://www.w3.org/2000/svg" viewBox="0 0 203.13 241.92"><defs><style>.a{fill:#bbb;}.a,.b,.c{fill-rule:evenodd;}.b{fill:#c46528;}</style></defs><path class="a" d="M122.94,144.34l-60.83,36c6,13.38,53.29,54.57,73.92,53.18L154.54,167C146.24,159.65,132.63,151.12,122.94,144.34Z"/><path class="a" d="M146,106.73c-7.94,7.34-17.63,15.56-20.92,28.17,5.5,9.19,27.44,24.27,37.93,27.39,8.13-5.33,19.78-19,22.9-31.3C171.18,123.71,167,115.12,146,106.73Z"/><path class="b" d="M7.8,38.7c12.41,15.53,20.63,7,57.43,41.69,20.12,19,30.5,29.2,55,45.27,4.43-3.26,13.64-15.13,16.22-20.15-6.72-9.64-22.82-21-33.54-30.7-13.57-12.3-20.6-17.92-32.11-32.17-6.61-8.2-23.08-33-29.4-34.9C30.53,4.51,11.2,30.64,7.8,38.7Z"/><path class="b" d="M192.44,140.49c-7,4.76-17.94,17.57-19.75,24.86,8.84,1.39,8.59-2.44,14.65-8.9C191.76,151.74,198.54,146.55,192.44,140.49Z"/><path class="c" d="M7.8,38.7c3.4-8.06,22.73-34.19,33.64-31,6.32,1.87,22.79,26.7,29.4,34.9C82.35,56.89,89.38,62.51,103,74.81c10.72,9.72,26.82,21.06,33.54,30.7-2.58,5-11.79,16.89-16.22,20.15-24.54-16.07-34.92-26.27-55-45.27C28.43,45.73,20.21,54.23,7.8,38.7ZM122.94,144.34c9.69,6.78,23.3,15.31,31.6,22.62L136,233.49c-20.63,1.39-67.91-39.8-73.92-53.18ZM146,106.73c20.92,8.39,25.14,17,39.91,24.26-3.12,12.3-14.77,26-22.9,31.3-10.49-3.12-32.43-18.2-37.93-27.39C128.41,122.29,138.1,114.07,146,106.73Zm26.65,58.62c1.81-7.29,12.78-20.1,19.75-24.86,6.1,6.06-.68,11.25-5.1,16C181.28,162.91,181.53,166.74,172.69,165.35ZM0,41.36C5.27,46.92,7.63,48.47,15.14,53c6.72,4,10.6,6.58,16.92,9.78,28.29,14.43,45.69,43.49,72.74,60.92,8.53,5.5,10.09,3.74,12.81,13.92-6.24,9.3-17.24,14-28.52,19.61-10.15,5-22.59,12.7-33,15.14,0,23.58,16.07,31.52,30.16,42,64.51,48,51.45,25.12,61.91-6.06,4.16-12.45,11-25,12.16-38.61,18.08,1.5,13.72,9.49,31.52-8.56,7.14-7.23,8.67-7.06,11.25-18.14-5.36-5.67-6-5.39-11.76-12.31-4.62-5.52-7.37-7.28-12.62-11.42-10.15-8-17.71-14.32-30.95-19.08-16.41-5.89-21-12-38.89-28.68C88.33,52.3,97.65,66.08,71.8,33.71,51.36,8.11,45.44-14.2,20.61,11.17,13.15,18.8,2.55,30.39,0,41.36Z"/></svg>