<?xml version="1.0" encoding="utf-8"?>
<!-- Generator: Adobe Illustrator 24.1.2, SVG Export Plug-In . SVG Version: 6.00 Build 0)  -->
<svg version="1.1" id="Слой_1" xmlns="http://www.w3.org/2000/svg" xmlns:xlink="http://www.w3.org/1999/xlink" x="0px" y="0px"
	 viewBox="0 0 209.1 209.1" style="enable-background:new 0 0 209.1 209.1;" xml:space="preserve">
<style type="text/css">
	.st0{fill-rule:evenodd;clip-rule:evenodd;fill:#F4841F;}
	.st1{fill-rule:evenodd;clip-rule:evenodd;fill:#FDBE10;}
	.st2{fill-rule:evenodd;clip-rule:evenodd;fill:#010000;}
</style>
<path class="st0" d="M117.7,177.2c16.9,7.1,44.4-10,45.1-28.9C150.8,147.6,113.4,159.5,117.7,177.2z"/>
<path class="st0" d="M131.1,150.1l29.2-10l10.6,8.8l2.2-11.8c-7.8,0.1-16,2.6-24,4.1C140.8,142.7,137.3,144.6,131.1,150.1z"/>
<path class="st0" d="M113,163.2c-6,8.3-12,17.9,2.2,20.9C107.8,175.5,109.8,173.7,113,163.2z"/>
<path class="st0" d="M128.7,93.8c-3,2.5,4.4,8.8,1.8,3.2C130.5,96.8,133.5,89.7,128.7,93.8z"/>
<path class="st0" d="M164.2,96.8c-0.2,0.3,1,0.9,0.6,0.9c-0.1,0,0.3,0.4,0.3,0.4S167.4,91.9,164.2,96.8z"/>
<path class="st0" d="M131.1,150.1l-4.5,1.1L131.1,150.1z"/>
<path class="st1" d="M173.2,25.7c-15.1,20.2,17.4,23,11.4,48.9C156.6,90.9,62,39.9,21.1,81.9c-17.6,18.1-21,48.5,1.8,64.7
	c16.2,11.4,60.8,11.5,82.2,13.7c12.9-13.8,26.2-16.5,39.5-26.4c-29.3-33.1-90.7,0-95-37.7c24.3-34.6,127,17.1,153.8-16.1
	C202.5,49.7,172.7,61.9,173.2,25.7z"/>
<path class="st2" d="M113,163.2c-3.3,10.5-5.2,12.3,2.2,20.9C101.1,181.1,107,171.5,113,163.2z M131.1,150.1l-4.5,1.1L131.1,150.1z
	 M128.7,93.8c4.8-4,1.8,3.1,1.8,3.2C133.1,102.6,125.7,96.3,128.7,93.8z M162.8,148.3c-0.6,18.9-28.2,35.9-45.1,28.9
	C113.4,159.5,150.8,147.6,162.8,148.3L162.8,148.3z M164.8,97.7c0.4,0-0.8-0.6-0.6-0.9L164.8,97.7z M131.1,150.1
	c6.1-5.4,9.7-7.3,18-8.9c7.9-1.5,16.1-4,24-4.1l-2.2,11.8l-10.6-8.8L131.1,150.1z M173.2,25.7c-0.5,36.2,29.3,24,30.1,54.3
	C176.6,113.3,73.9,61.6,49.5,96.2c4.4,37.7,65.8,4.7,95,37.7c-13.3,9.9-26.6,12.6-39.5,26.4c-21.4-2.2-66.1-2.3-82.2-13.7
	C0.1,130.5,3.5,100,21.1,81.9c40.9-42.1,135.5,8.9,163.6-7.3C190.6,48.8,158.1,46,173.2,25.7z M185.3,16.3
	c-14,0.3-25.9,7.3-21.9,21.8c4.7,17.5,19.2,20.6,14.6,32.3c-22,8.7-124.2-36.8-163.1,7.9c-22,25.3-26.7,74.8,37.4,84.4l47.6,3.2
	l2.8,21l13.4,5.9c22.2-13.3,67.3-24,63.3-58.3c-13.2-10.4-10.8-3.2-25.3-1.4c-46-45.4-93.7-3.7-96.9-39.4c42-0.9,7.3-4,63.7,0.5
	l5.9,12.5c8.5-1.3,7.5-0.4,11.3-7.4c6.2,8.4,12.6,14.3,18.7,0c3.4,4.5,4,6.1,10.2,8l6.7-7.9l8.8,8.4c7.8-6.1,7.1-9.3,12.2-12.8
	c6.6-4.6,5.4-1.2,14.1-10c2-16.8-1.9-24.5-15.3-34C172.7,36.5,180.8,32.6,185.3,16.3z"/>
</svg>
