<?xml version="1.0" encoding="utf-8"?>
<!-- Generator: Adobe Illustrator 24.1.2, SVG Export Plug-In . SVG Version: 6.00 Build 0)  -->
<svg version="1.1" id="Слой_1" xmlns="http://www.w3.org/2000/svg" xmlns:xlink="http://www.w3.org/1999/xlink" x="0px" y="0px"
	 viewBox="0 0 234.9 234.9" style="enable-background:new 0 0 234.9 234.9;" xml:space="preserve">
<style type="text/css">
	.st0{fill-rule:evenodd;clip-rule:evenodd;fill:#73CBCD;}
	.st1{fill-rule:evenodd;clip-rule:evenodd;}
	.st2{fill-rule:evenodd;clip-rule:evenodd;fill:#020202;}
	.st3{fill-rule:evenodd;clip-rule:evenodd;fill:#14B5B8;}
	.st4{fill-rule:evenodd;clip-rule:evenodd;fill:#ED4723;}
	.st5{fill-rule:evenodd;clip-rule:evenodd;fill:#72C8CB;}
</style>
<path class="st0" d="M140.9,89.9c3.4-3.4,9-1.8,14.1-2.3c28.7-2.9,5.4,29.4-1.7,29.8C141.7,113.4,138.9,105.3,140.9,89.9z
	 M106.7,29.8l9.8,1.6c13.8,2.5-7.3-2.4,4.3,0.8c0.7,0.2,1.4,0.5,2.1,0.7s1.4,0.7,2,0.9c0.7,0.2,1.3,0.6,1.9,1L116.4,37
	c-12.5,2.4-5.6-4.2-10,5c2.4,5.7-0.3,5.5,20.8,3.9C119,64.8,109,40,103.7,61.6c9.2,4.4,20.5-0.6,18.9,13.1
	c-11.8,4.1-1.4,1.8-7.6-1.6c-0.4-0.2-1-0.8-1.4-1.1l-3.1-2c-8.7-3-10.2,2-12.5,7c6.3,4,23.6,7.3,16.5,14.2
	c-8.1,7.9-8.1-16.2-24.3-4.3c2.8,11.1,14.9,7.6,9.3,19c-0.6,0.5-0.9,7.8-7.8-1.7l-4.5-10.4l-9.8,4.9c4,10.1,17.5,16.3-0.8,19.3
	l-3.3-13.6C51,113.5,14,152.4,62.6,152.4c33.7,0,71.9-7.5,98.4-19.3c40.8-18.2,3.6-38.1,5.3-91.1l1.6-25.3
	C132.8,36.6,115.5,16.1,106.7,29.8z"/>
<path class="st0" d="M14.4,165.4c-30,75.7,125.3,11.9,150.4,5.9c12.1-2.9,18-1.6,20.6-15.4c-11,2.6-30.4,12-41.5,16.6
	c-16.6,6.8-25.6,11.4-44.6,14.6c-12.4,2.1-41,4.5-53.4,3.5C20.8,188.6,24,181.6,14.4,165.4z"/>
<path class="st0" d="M67.5,184.3c1.8-2.8,1.5,0.1,2.4-5.1c1.3-7.5,1-16.3-2.4-21.3c-7.9,2.3-6.7-1.6-6.3,11.6
	C61.7,186.2,64.8,183.2,67.5,184.3z"/>
<path class="st1" d="M61.3,169.4c-0.4-13.1-1.6-9.2,6.3-11.6c3.4,5,3.7,13.8,2.4,21.3c-0.9,5.2-0.6,2.3-2.4,5.1
	C64.8,183.2,61.7,186.2,61.3,169.4z M14.4,165.4c9.6,16.2,6.4,23.2,31.6,25.2c12.4,1,41-1.4,53.4-3.5c19-3.2,28-7.7,44.6-14.6
	c11.1-4.6,30.5-14,41.5-16.6c-2.6,13.8-8.6,12.6-20.6,15.4C139.7,177.2-15.6,241.1,14.4,165.4L14.4,165.4z M77.4,184.2
	c-1-11.9-2.4-6.5-2.4-27c16.6,0,48.7-4.8,64-9.5c7.4-2.2,10.7-4.5,19.3-5.2c0,9.7,0.8,9.9,2.4,17.1c-12.7,3-25.2,10.5-38.9,15.1
	C94.6,183.8,85.6,180.3,77.4,184.2L77.4,184.2z M164.9,150.5c-4.5-15.7,5.4-15.2,8.3-16.1c0,12.3,2.6,15.8-4.5,22.6
	C165.7,153.8,167.4,159.5,164.9,150.5L164.9,150.5z M106.7,29.8c8.8-13.6,26.1,6.8,61.2-13.1L166.3,42c-1.7,53,35.5,72.9-5.2,91.1
	c-26.5,11.8-64.7,19.3-98.4,19.3c-48.6,0-11.6-38.9,10.8-48.2l3.3,13.6c18.3-3,4.8-9.2,0.8-19.3l9.8-4.9l4.4,10.5
	c6.9,9.6,7.3,2.3,7.8,1.7c5.6-11.4-6.5-7.9-9.3-19c16.2-11.9,16.2,12.3,24.3,4.3c7.1-6.9-10.2-10.2-16.5-14.2
	c2.3-5,3.8-9.9,12.5-6.9l3.1,2c0.4,0.3,1,0.8,1.4,1.1c6.1,3.4-4.2,5.7,7.6,1.6c1.6-13.7-9.7-8.7-18.9-13.1
	C109,40.1,119,64.9,127.1,46c-21,1.6-18.4,1.9-20.8-3.9c4.4-9.2-2.5-2.6,10-5l10.4-2.3c-0.6-0.4-1.2-0.8-1.9-1
	c-0.5-0.2-1.3-0.7-2-0.9s-1.3-0.5-2.1-0.7c-11.7-3.2,9.5,1.7-4.3-0.8L106.7,29.8z M108.7,20c5.3-3.9,44.4-15.6,57.1-13.1
	C158,25.5,128.8,20.1,108.7,20L108.7,20z M101.8,15.1c0,93.1-41,74.5-65.3,111.3c-10.8,16.4-4.4,30.9,18.8,30.9
	c0,19-1.8,18.5,2.4,27c-43.9,0-30.6-13.9-39.2-31.9c-18.3,12.3-28.1,56.4,29.4,56.4c27.5,0,64.5-14.5,86.1-21.7
	c7.3-2.4,12.4-4.4,20.3-6.7c13.5-3.8,32.8-5.3,36.8-17.3c3-9.2-2.9-12.9-13.3-13.1c0-22,7.3-20.6,7.3-41.7c0-26.6-12.3-10.3-12.3-76
	c0-13.6,2.4-14.5,2.4-27c-11.4-3.1-8.6-10.8-45.3,1.3C119.3,10.1,111,10.7,101.8,15.1L101.8,15.1z"/>
<path class="st2" d="M156.4,98.8c3.1-6.2-1.3-3.9,5.8-6.9c0.5,11.3-2.4,16.2-11.4,18.8c-5.1-7.4-5.1-7.4-5-17.5
	C156.4,97.4,145.4,94.3,156.4,98.8z M140.9,89.9c-2,15.4,0.7,23.5,12.4,27.4c7.1-0.4,30.4-32.7,1.7-29.8
	C149.9,88.1,144.3,86.5,140.9,89.9z"/>
<path class="st3" d="M108.8,20c20.1,0.1,49.3,5.6,57.1-13.1C153.2,4.4,114.1,16.1,108.8,20z"/>
<path class="st4" d="M156.4,98.8c-11-4.6-0.1-1.4-10.6-5.6c0,10.1,0,10.1,5,17.5c9-2.7,11.9-7.6,11.4-18.8
	C155.1,94.9,159.6,92.7,156.4,98.8z"/>
<path class="st5" d="M168.5,157c7.1-6.8,4.5-10.3,4.5-22.6c-2.9,0.9-12.8,0.4-8.3,16.1C167.4,159.5,165.7,153.8,168.5,157z"/>
<path class="st0" d="M179.6,116.1c3.4-3.4,9-1.8,14.1-2.3c28.7-2.9,5.4,29.4-1.7,29.8C180.4,139.6,177.6,131.5,179.6,116.1z
	 M145.5,56l9.8,1.5c13.8,2.5-7.3-2.4,4.4,0.8c0.7,0.2,1.4,0.5,2,0.7s1.5,0.7,2,0.8c0.7,0.3,1.3,0.6,1.9,1l-10.4,2.4
	c-12.6,2.4-5.6-4.2-10.1,5c2.4,5.7-0.3,5.5,20.8,3.8c-8.1,18.9-18.1-5.8-23.4,15.8c9.2,4.4,20.5-0.6,18.9,13.1
	c-11.8,4.1-1.4,1.8-7.6-1.7c-0.4-0.2-0.9-0.8-1.4-1.1l-3.1-2c-8.6-3-10.1,1.9-12.5,6.9c6.3,4,23.6,7.3,16.5,14.2
	c-8.1,7.9-8.1-16.2-24.3-4.3c2.8,11.1,14.9,7.6,9.3,19c-0.6,0.6-0.9,7.8-7.8-1.7l-4.5-10.5l-9.8,4.9c4,10.1,17.5,16.3-0.8,19.2
	l-3.3-13.6c-22.3,9.2-59.4,48.2-10.8,48.2c33.7,0,71.9-7.5,98.4-19.3c40.7-18.2,3.5-38.1,5.2-91.1l1.6-25.3
	C171.5,62.7,154.2,42.3,145.5,56z"/>
<path class="st0" d="M53.1,191.5c-30,75.7,125.3,11.9,150.4,5.9c12.1-2.9,18-1.6,20.7-15.4c-11,2.6-30.4,12-41.5,16.6
	c-16.6,6.8-25.6,11.4-44.6,14.6c-12.4,2.1-41,4.5-53.4,3.5C59.5,214.8,62.7,207.7,53.1,191.5z"/>
<path class="st0" d="M106.3,210.4c1.8-2.8,1.5,0.1,2.4-5.1c1.3-7.5,1-16.3-2.4-21.3c-7.9,2.3-6.7-1.6-6.3,11.6
	C100.4,212.4,103.5,209.3,106.3,210.4z"/>
<path class="st1" d="M100,195.6c-0.4-13.1-1.6-9.2,6.3-11.6c3.4,5,3.7,13.8,2.4,21.3c-0.9,5.2-0.5,2.4-2.4,5.1
	C103.5,209.3,100.4,212.4,100,195.6z M53.1,191.6c9.6,16.2,6.4,23.2,31.6,25.2c12.4,1,41-1.4,53.4-3.5c19-3.2,28-7.7,44.6-14.6
	c11.1-4.6,30.5-14,41.5-16.6c-2.7,13.8-8.6,12.6-20.7,15.4C178.4,203.4,23.1,267.3,53.1,191.6L53.1,191.6z M116.1,210.4
	c-1-11.9-2.4-6.5-2.4-27c16.6,0,48.7-4.8,64.1-9.5c7.3-2.2,10.7-4.5,19.3-5.2c0,9.7,0.8,9.9,2.5,17.1c-12.7,2.9-25.2,10.5-38.9,15
	C133.3,210,124.3,206.4,116.1,210.4L116.1,210.4z M203.5,176.7c-4.6-15.6,5.4-15.2,8.2-16.1c0,12.3,2.6,15.8-4.5,22.6
	C204.5,179.9,206.1,185.7,203.5,176.7L203.5,176.7z M145.5,56c8.7-13.6,26.1,6.8,61.1-13.1L205,68.2c-1.7,53,35.6,72.9-5.2,91.1
	c-26.5,11.8-64.7,19.3-98.5,19.3c-48.6,0-11.6-38.9,10.8-48.2l3.3,13.6c18.3-2.9,4.8-9.1,0.8-19.2l9.8-4.9l4.5,10.5
	c6.9,9.5,7.3,2.3,7.8,1.7c5.6-11.4-6.5-7.9-9.3-19c16.2-11.9,16.2,12.3,24.3,4.3c7.1-6.9-10.2-10.3-16.5-14.2
	c2.3-5,3.8-9.9,12.5-6.9l3.1,2c0.5,0.3,1,0.8,1.4,1.1c6.1,3.4-4.2,5.7,7.6,1.7c1.6-13.7-9.7-8.7-18.9-13.1
	c5.3-21.6,15.3,3.2,23.4-15.8c-21,1.6-18.4,1.9-20.8-3.8c4.4-9.2-2.5-2.6,10.1-5l10.4-2.4c-0.6-0.4-1.2-0.7-1.9-1
	c-0.5-0.2-1.3-0.7-2-0.8s-1.3-0.5-2-0.7c-11.7-3.2,9.4,1.7-4.4-0.8L145.5,56z M147.5,46.2c5.3-3.9,44.4-15.6,57.1-13.1
	C196.8,51.7,167.6,46.3,147.5,46.2L147.5,46.2z M140.6,41.3c0,93.1-41,74.5-65.3,111.3C64.5,169,70.8,183.5,94,183.5
	c0,19-1.8,18.4,2.4,27c-43.9,0-30.6-13.9-39.2-31.9c-18.3,12.2-28.1,56.3,29.4,56.3c27.4,0,64.5-14.5,86.1-21.8
	c7.3-2.4,12.4-4.4,20.3-6.7c13.4-3.8,32.8-5.3,36.8-17.3c3-9.2-2.9-12.9-13.3-13.1c0-22,7.3-20.6,7.3-41.7c0-26.6-12.3-10.3-12.3-76
	c0-13.6,2.4-14.5,2.4-27c-11.4-3-8.6-10.8-45.3,1.3C158,36.3,149.7,36.8,140.6,41.3L140.6,41.3z"/>
<path class="st2" d="M195.2,125c3.1-6.2-1.3-3.9,5.8-6.9c0.4,11.3-2.4,16.1-11.4,18.8c-5.1-7.4-5.1-7.4-5.1-17.5
	C195.1,123.6,184.1,120.4,195.2,125z M179.6,116.1c-2,15.4,0.8,23.5,12.4,27.4c7.1-0.4,30.4-32.7,1.7-29.8
	C188.7,114.3,183,112.7,179.6,116.1z"/>
<path class="st3" d="M147.5,46.1c20.1,0.2,49.2,5.6,57.1-13.2C191.9,30.5,152.8,42.2,147.5,46.1z"/>
<path class="st4" d="M195.2,125c-11-4.6-0.1-1.4-10.6-5.6c0,10.1,0,10.1,5.1,17.5c9-2.7,11.9-7.6,11.4-18.8
	C193.9,121.1,198.3,118.8,195.2,125z"/>
<path class="st5" d="M207.3,183.2c7.1-6.8,4.5-10.3,4.5-22.6c-2.9,0.9-12.8,0.4-8.2,16.1C206.1,185.7,204.5,179.9,207.3,183.2z"/>
</svg>
