<?xml version="1.0" encoding="utf-8"?>
<!-- Generator: Adobe Illustrator 24.1.2, SVG Export Plug-In . SVG Version: 6.00 Build 0)  -->
<svg version="1.1" id="Слой_1" xmlns="http://www.w3.org/2000/svg" xmlns:xlink="http://www.w3.org/1999/xlink" x="0px" y="0px"
	 viewBox="0 0 230.7 230.7" style="enable-background:new 0 0 230.7 230.7;" xml:space="preserve">
<style type="text/css">
	.st0{fill-rule:evenodd;clip-rule:evenodd;fill:#74CBCE;}
	.st1{fill-rule:evenodd;clip-rule:evenodd;fill:#D5E4E4;}
	.st2{fill-rule:evenodd;clip-rule:evenodd;}
	.st3{fill-rule:evenodd;clip-rule:evenodd;fill:#FBBE94;}
</style>
<path class="st0" d="M125.5,7.3c15.1,7.3,28.2,18.1,38.2,31.5c13.8,18.8,13.5,29.8,17.5,52c13.5-8.2,22.8-7.7,38.7-5.1
	C226.3,32.1,168.1,6.4,125.5,7.3z"/>
<path class="st0" d="M53.7,87c32.4-5.8,22.6,1.4,46.1,6.4l-0.2-81.4c-12.8,8-22.6,13.4-31.3,29.8C61.4,54.9,53.5,74.8,53.7,87z"/>
<path class="st1" d="M106,93.2c27.1-23.2,41.1-9.1,68.9-5.1c-3.7-23.6-5.8-34.3-21.4-52c-12-13.7-29.4-26.3-47.9-27.7L106,93.2z"/>
<path class="st1" d="M86.3,10.7c-39.3,8.1-72.5,44.4-74.5,76.6c13-6.1,20.8-7.3,34.9-3.6C68.7,17.8,56.3,49.2,86.3,10.7z"/>
<path class="st2" d="M112.2,224.7l-3.8-8.3l-8.7,4.8l6.4-14.6l-14-1.6c22.5-12.8,15.2-19.4,22.8-23.6c4.3,3.9,4.7,13.6,9.4,22.2
	c-0.3,0.1-0.8-0.2-0.9,0.1C121.9,209.5,116.7,186.3,112.2,224.7z M142.4,176.9l-0.7,2.4l-2-1.5L142.4,176.9z M145.1,174.2l-2.7,2.7
	L145.1,174.2z M11.4,94.1c1.9-1.3,1.2-1.6,4.9-3.1c8.6-3.5,17.1-2.6,26.5-1.5c4.4,6.1,13,32.7,21,45.8c6.1,10,22.7,35.3,25.1,44.3
	C63.3,166.7,12.6,125.6,11.4,94.1z M145.1,174.2c1.2-4.5,24-40.1,29.4-50.7c3.2-6.4,9.4-25.6,11.9-28.2c2.7-2.7,14.4-8.4,23.9-5.2
	c10.3,3.4,3.6,1.6,6.9,4C215.5,112.8,162.3,165.5,145.1,174.2z M125.4,184.5l-3-8.5l-14.4-4c-2.2-22.2-4.9-47.4-2.3-69.2
	c26.3-26.4,41-13.4,71.5-6C171.5,121.9,143,166.9,125.4,184.5z M56,93.1c10.9-3.6,38.6-1.6,41,11.6c0,12.8-1,27.1,1,39
	c1.4,8.2,4.4,27.7,3.8,35.4C93.6,176.5,50.6,104.8,56,93.1z M53.7,87c-0.1-12.2,7.7-32.1,14.6-45.3C77,25.3,86.8,20,99.6,11.9
	l0.2,81.4C76.2,88.4,86,81.2,53.7,87L53.7,87z M106,93.2l-0.5-84.8c18.6,1.5,36,14.1,47.9,27.7c15.6,17.7,17.7,28.5,21.4,52
	C147.1,84.2,133.1,70.1,106,93.2L106,93.2z M86.3,10.7c-29.9,38.6-17.6,7.1-39.6,73c-14.1-3.7-21.9-2.5-34.9,3.6
	C13.8,55.1,46.9,18.8,86.3,10.7z M125.5,7.3c42.7-0.9,100.9,24.8,94.4,78.3c-15.9-2.6-25.2-3.1-38.7,5.1c-4-22.2-3.7-33.3-17.5-52
	C153.6,25.4,140.5,14.6,125.5,7.3z M96.9,193.1l-13.1,11.5c5.1,8.9,2,4.4,10.6,9.2c-4,9.7-4.2,5.1-1,14.8l22.5,1.9l2.9-15.5
	c11.3,3.1,3.6,2.9,10.6-0.9l-0.8-18.7c18.3-16.1,92.5-67.1,98.1-102.2C240.5,8.4,117.9-27.4,42.4,23.4C25.3,34.9,7.5,65.9,3.5,86.3
	C-6.2,135.2,92.3,188.6,96.9,193.1z"/>
<path class="st3" d="M112.2,224.7c4.4-38.3,9.7-15.2,11.3-20.9c0.1-0.3,0.7,0,0.9-0.1c-4.7-8.7-5.2-18.3-9.4-22.3
	c-7.7,4.3-0.3,10.8-22.8,23.6l14,1.6l-6.4,14.5l8.7-4.8L112.2,224.7z"/>
</svg>
