<?xml version="1.0" encoding="utf-8"?>
<!-- Generator: Adobe Illustrator 24.1.2, SVG Export Plug-In . SVG Version: 6.00 Build 0)  -->
<svg version="1.1" id="Слой_1" xmlns="http://www.w3.org/2000/svg" xmlns:xlink="http://www.w3.org/1999/xlink" x="0px" y="0px"
	 viewBox="0 0 248.6 248.6" style="enable-background:new 0 0 248.6 248.6;" xml:space="preserve">
<style type="text/css">
	.st0{fill-rule:evenodd;clip-rule:evenodd;fill:#14B4B7;}
	.st1{fill-rule:evenodd;clip-rule:evenodd;fill:#030303;}
	.st2{fill-rule:evenodd;clip-rule:evenodd;fill:#000202;}
	.st3{fill-rule:evenodd;clip-rule:evenodd;fill:#BBBBBB;}
	.st4{fill-rule:evenodd;clip-rule:evenodd;fill:#FBBD10;}
	.st5{fill-rule:evenodd;clip-rule:evenodd;fill:#D5E3E3;}
</style>
<path class="st0" d="M123,159.3c-4.6-8.6-7.7-18.1-2.3-26.3c8.4,11.2-4.7,7.3,10.5,10.3c5.4-11.9-5.3-5.4,6.2-11.1
	c7.7,27.8,2.8,18.9,0.8,21.9c-3.7-1,1.4-3.3-10-5.2C124.7,156.1,128.4,152.1,123,159.3z M111.2,132.3l2.1,27
	c8.2,3.3,26.8,1.1,34.7-2.4c1.8-8-0.9-20.4-5.1-28.6L111.2,132.3z"/>
<path class="st0" d="M53.3,36.5c8,17.4,47.9,7.9,62.8,2.8C108.5,34.8,58.5,26.9,53.3,36.5z"/>
<path class="st0" d="M184.6,35.3c19.4,2.4,37.9,5.1,57.1,1.4C229.7,25.3,197.3,29.6,184.6,35.3z"/>
<path class="st0" d="M137.1,64.3c10.4-0.4,9.2,0.5,3.9-9.2L137.1,64.3z"/>
<path class="st1" d="M142.9,128.5c4.2,8.3,6.8,20.6,5.1,28.6c-7.9,3.4-26.5,5.6-34.7,2.4l-2.1-27L142.9,128.5z M106.6,126
	c-2.5,9.5-1.3,29.8,3.1,38.5c10.1,5.6,34.9,3.8,44-4.2c2.9-11.7-0.8-29.2-7.9-37.3C133.3,120.4,118.8,121.8,106.6,126z"/>
<path class="st1" d="M168.5,129.1c-11.7-8.9-16.8-24.9-4-35.1c9.4,2,35.8,26,39.2,35.9L168.5,129.1z M170.8,86.9
	c-27.9,2.3-23,35.9-5.4,47.7c13.4,1.4,29.4,3.1,42-0.9C216.1,116.2,179.6,99.2,170.8,86.9L170.8,86.9z"/>
<path class="st2" d="M82.1,212.6c15.3-8.2,117.5,4.5,161.9-11.1c-5.2,16.9-16.3,13.6-32.8,14.2C185.3,216.6,94.9,225.1,82.1,212.6z
	 M248.6,191.7v11.2c-0.5,2.5-1.4,4.9-2.7,7c-9,17.9-49.3,13-66.9,13.3c-11.2,0.2-12,2.1-21.3,2.8c-19.4,1.4-33.7-2.8-50.7-2.8
	c-14.6,0.1-36.9,4.1-30.5-17.6l18.9-2.7c7.3-31.7,9.4-18.6-10.6-53.8c-17.7-2.1-21.8,2.2-36.7,2.2c-6,0-13-1.8-16-1.8
	c-3.2,0-9.7,1.6-16,1.6c0-41.3-4.3-19.8-16-42.8c5.7-8.6,6.9-8.8,16-13.4c8.4,5.6,10.6,10.4,16,18.7c51.6,0,43.2-6.1,64.1-21.4
	c32.6-23.9,10.2-6,22-20.7c9.9-12.4,14.9-4.1,15.4-27.4c-14.2,3.4-30,3.9-44.4,6.4c-16.4,2.9-28.4,5-41.5-7.3l3-15.2
	c9.1-4.2,44.4-0.8,55.1,1c40.9,7.3,60.3,1.3,103.3-5.7c16.5-2.7,39.2-1.9,39.6,18.1c-43.8,10.5-93.9-10.2-100.9,6
	c-0.4,13.8,5.1,15.7,16.3,19.8c6.3,17.1,12.6,12.3,27.5,23.3c15.5,11.5,35.3,35,42.8,53.4c8,19.6,2.8,18.9-6.4,33.4l8.1,13.5
	c5.6-7.6,0.4-5.6,9.3-7.1C246.9,186.2,248,188.9,248.6,191.7z M104.2,201.9l5.6-21.3l55.8-2.9c17-0.7,40.4,6.8,53.4-0.1l13.8,18.7
	c-12.5,9-46.7,8.3-61.7,8.3L104.2,201.9z M170.8,86.9c24.5,6.3,62.7,49.9,58.6,77.3c-14.7,14.1-37.5,7.9-58.4,8
	c-18.1,0.1-49.3,2.4-65.7-0.9c-9.9-15.2-5.1-27.8-27.7-29c-8.8-0.4-48.1,0.5-53.9,2.8c-3.7-27.2-1.7-17.4-16-36.7l5.6-5.5
	c19.6,8.8,5.9,21.4,38.5,16.9c21.9-3,24.3-0.7,40.6-15.3C111.2,87.7,147.3,66.6,170.8,86.9L170.8,86.9z M140.9,55.1
	c5.4,9.7,6.5,8.8-3.9,9.2L140.9,55.1z M116.1,39.1c-14.9,5.2-54.8,14.7-62.8-2.8C58.5,26.9,108.5,34.8,116.1,39.1L116.1,39.1z
	 M184.6,35.3c12.7-5.7,45.2-10,57.1,1.4C222.4,40.4,203.9,37.8,184.6,35.3z"/>
<path class="st2" d="M123,159.3c5.4-7.2,1.7-3.3,5.3-10.4c11.3,2,6.3,4.3,10,5.2c2-3.1,6.9,5.8-0.8-21.9c-11.5,5.6-0.8-0.9-6.2,11.1
	c-15.2-3-2.2,0.9-10.5-10.3C115.3,141.3,118.5,150.7,123,159.3z"/>
<path class="st3" d="M106.6,126c12.2-4.2,26.7-5.6,39.2-3c7.1,8,10.8,25.6,7.9,37.3c-9.1,7.9-33.9,9.8-44,4.2
	C105.3,155.8,104.1,135.5,106.6,126z M170.8,86.9c8.8,12.3,45.3,29.3,36.7,46.9c-12.7,3.9-28.6,2.3-42,0.9
	C147.8,122.8,143,89.3,170.8,86.9z M170.8,86.9c-23.6-20.3-59.7,0.8-78.5,17.6c-16.3,14.6-18.7,12.2-40.6,15.3
	c-32.6,4.6-18.9-8-38.5-16.9l-5.6,5.5c14.4,19.2,12.3,9.5,16,36.7c5.8-2.3,45.2-3.3,53.9-2.8c22.5,1.2,17.8,13.8,27.7,29.1
	c16.4,3.3,47.6,1.1,65.7,0.9c20.9-0.1,43.6,6.1,58.4-8C233.6,136.8,195.4,93.2,170.8,86.9z"/>
<path class="st4" d="M82.1,212.6c12.8,12.5,103.2,4.1,129.1,3.1c16.5-0.6,27.5,2.8,32.8-14.2C199.6,217.1,97.4,204.3,82.1,212.6z"/>
<path class="st5" d="M168.5,129.1l35.2,0.8C200.4,120,174,96,164.6,94C151.7,104.2,156.8,120.2,168.5,129.1z"/>
</svg>
