<?xml version="1.0" encoding="utf-8"?>
<!-- Generator: Adobe Illustrator 24.1.2, SVG Export Plug-In . SVG Version: 6.00 Build 0)  -->
<svg version="1.1" id="Слой_1" xmlns="http://www.w3.org/2000/svg" xmlns:xlink="http://www.w3.org/1999/xlink" x="0px" y="0px"
	 viewBox="0 0 216 216" style="enable-background:new 0 0 216 216;" xml:space="preserve">
<style type="text/css">
	.st0{fill-rule:evenodd;clip-rule:evenodd;fill:#BBBBBB;}
	.st1{fill-rule:evenodd;clip-rule:evenodd;fill:#000101;}
	.st2{fill-rule:evenodd;clip-rule:evenodd;fill:#116E6F;}
	.st3{fill-rule:evenodd;clip-rule:evenodd;fill:#116D6F;}
	.st4{fill-rule:evenodd;clip-rule:evenodd;fill:#116C6D;}
	.st5{fill-rule:evenodd;clip-rule:evenodd;fill:#14B2B5;}
	.st6{fill-rule:evenodd;clip-rule:evenodd;fill:#126F71;}
	.st7{fill-rule:evenodd;clip-rule:evenodd;fill:#B6B6B6;}
	.st8{fill-rule:evenodd;clip-rule:evenodd;fill:#666666;}
</style>
<path class="st0" d="M74.4,65.6c4,21.3,15,30.9,28.3,44.2c14.3,0.2,92-30.6,100.7-39C194,53.7,177,16.4,161.2,7L74.4,65.6z"/>
<path class="st0" d="M53.4,89.1c6.4,22.9,17.6,30.4,38.1,19.2c-0.3-0.8-19-29.2-21.8-33L53.4,89.1z"/>
<path class="st1" d="M52,137c4.7,13.8,18.5,57.2,10.3,67.9c-6.5-8.2-4.8-23.8-7.5-35.1C50.6,151,47.3,147.5,52,137z M79.9,163.7
	c6.7,12.5,25.6,32.7,27.3,40.6c-14.3-12.7-53-64-56.7-82.3C64,127.7,72.9,150.4,79.9,163.7L79.9,163.7z M11.2,208.3
	c1.1-18.3,15.8-45.7,23-66c3.6-10.2,1.7-12.9,9.5-17.4c-3.5,14.8-8.1,31.4-13.5,45.5C24.3,185.7,19.9,203.5,11.2,208.3z M14.4,124.9
	c2.3-7.5,4.8-7.3,13-7.7C24.2,125.3,23.5,124.6,14.4,124.9z M38.6,118.6c-6.7-4.8-6.9-2.8-6.8-10.1c10.1-5.5,14.5-4.9,19.5,6.9
	L38.6,118.6z M53.7,105.8c-10-3.9-5.5-3-7.3-7.2C52.2,99.7,52,94,53.7,105.8L53.7,105.8z M69.7,75.2c2.7,3.8,21.5,32.3,21.8,33
	c-20.4,11.2-31.7,3.7-38-19.2L69.7,75.2z M161.2,7c15.8,9.4,32.8,46.7,42.1,63.8c-8.7,8.4-86.4,39.2-100.7,39
	C89.4,96.4,78.4,86.8,74.4,65.6L161.2,7z M177.6,12.6c19.5,8,27.5,28.5,28.3,49.9L177.6,12.6z M30.3,127.8
	C29.8,153,3.5,183.1,3.6,216c19.5,0,22.6-12.4,33-44.5c4.4-13.4,3-14.3,9.8-17c0,6.9,6.4,51.1,10.6,54.1
	c24.2,17.6,10.7-33.7,11.3-40.3c8.7,10.1,27.1,47.3,45.8,40.4c3.4-11.7-19.4-32.9-26.4-44.7c-9.6-16.2-17.3-30.9-27.8-47
	c17,4,9.6,6.3,27.3,0.7c14.8-4.7,13,1.9,29.8-2.2c18.1-4.4,35.6-16.6,54.8-22.9c21.5-7,41.9-10.3,40.7-36.9
	c-0.9-19.4-12.6-39-29-48.9c-24.9-15.1-31-2.3-51.4,11.4c-29.9,19.9-64.3,41-84.4,70.7c-7.7,11.4-37.1,22.4-41.5,36.1
	C16.5,139,18.7,131.2,30.3,127.8z"/>
<path class="st2" d="M11.2,208.3c8.7-4.8,13.2-22.6,19-37.9c5.4-14.1,10-30.7,13.5-45.5c-7.8,4.4-6,7.2-9.5,17.4
	C27,162.6,12.3,189.9,11.2,208.3z"/>
<path class="st3" d="M107.3,204.3c-1.8-7.8-20.7-28-27.3-40.6c-7.1-13.2-15.9-36-29.3-41.7C54.3,140.3,92.9,191.6,107.3,204.3z"/>
<path class="st4" d="M62.4,204.9c8.2-10.7-5.6-54.1-10.3-67.9c-4.8,10.5-1.4,14,2.9,32.8C57.6,181.1,55.9,196.7,62.4,204.9z"/>
<path class="st5" d="M205.8,62.5c-0.8-21.4-8.7-41.9-28.3-49.9L205.8,62.5z"/>
<path class="st6" d="M31.7,108.5c-0.1,7.3,0.1,5.2,6.8,10.1l12.7-3.2C46.2,103.7,41.8,103,31.7,108.5z"/>
<path class="st7" d="M14.4,124.9c9.1-0.3,9.8,0.3,13-7.7C19.2,117.7,16.6,117.5,14.4,124.9z"/>
<path class="st8" d="M53.7,105.8c-1.7-11.8-1.5-6.1-7.3-7.2C48.2,102.7,43.7,101.8,53.7,105.8z"/>
</svg>
