<?xml version="1.0" encoding="utf-8"?>
<!-- Generator: Adobe Illustrator 24.1.2, SVG Export Plug-In . SVG Version: 6.00 Build 0)  -->
<svg version="1.1" id="Слой_1" xmlns="http://www.w3.org/2000/svg" xmlns:xlink="http://www.w3.org/1999/xlink" x="0px" y="0px"
	 viewBox="0 0 214.2 214.2" style="enable-background:new 0 0 214.2 214.2;" xml:space="preserve">
<style type="text/css">
	.st0{fill-rule:evenodd;clip-rule:evenodd;fill:#11696C;}
	.st1{fill-rule:evenodd;clip-rule:evenodd;fill:#020303;}
	.st2{fill-rule:evenodd;clip-rule:evenodd;fill:#010101;}
	.st3{fill-rule:evenodd;clip-rule:evenodd;fill:#ED4823;}
	.st4{fill-rule:evenodd;clip-rule:evenodd;fill:#74CBCE;}
</style>
<path class="st0" d="M107.1,28.3c4-5.6,7.3-18.6-5.3-22.7c-2,5.3-2.1,4.3-1.5,11.6C101.4,30.3,100.2,26.5,107.1,28.3z"/>
<path class="st0" d="M91.1,28.8c5.8-2.2,4.8,3.8,4.8-9.4c0-8.9-0.7-9.4-4.9-14.1C86.6,12.5,85.5,23.2,91.1,28.8z"/>
<path class="st0" d="M125.7,24.7c9.1-7.2,7.7-11.6-2-15.8C122.6,18.3,121.7,17.2,125.7,24.7z"/>
<path class="st0" d="M103.9,52.7l2-17.2c-5.7-0.2-6.4-7.2-6.4,6.2C99.5,49.7,101.6,50,103.9,52.7z"/>
<path class="st0" d="M80.4,27.5c3.7-7.1,2.7-10.3,2.3-19.9C71.9,21.1,80.1,27.1,80.4,27.5z"/>
<path class="st0" d="M117.3,27c2.8-4.8,1.1-16.4-1.9-21.7c-0.3,0.5-0.8,0.7-0.8,1.4l-0.7,7.3C114.5,21.8,114.4,22,117.3,27z"/>
<path class="st0" d="M131.9,174.6c7.9-1.4-0.4-8.4-0.6-8.6L131.9,174.6z"/>
<path class="st0" d="M104.4,86.1c7.8-2,0.6-8.8,0.6-8.9L104.4,86.1z"/>
<path class="st0" d="M101.9,86.1l-0.4-8.7C96.5,82.4,97.3,82.2,101.9,86.1z"/>
<path class="st0" d="M84.7,83.7l-4.2-0.6L81,87C85.8,87,84.7,88.2,84.7,83.7z"/>
<polygon class="st0" points="123,85.7 120.4,82 116.6,85 "/>
<polygon class="st0" points="121.5,89 115.5,87.6 117.9,91.8 "/>
<polygon class="st0" points="104.9,77.2 104.9,74.5 101.3,74.6 101.5,77.3 "/>
<polygon class="st0" points="66.7,104.7 68.1,99.6 64,101.7 "/>
<path class="st0" d="M117.8,176.2c1.6-12.6,1-3.7-2-7L117.8,176.2z"/>
<polygon class="st0" points="108.4,141.1 102.3,141.6 104.2,144.3 "/>
<path class="st0" d="M111.8,177.7l0.8-6.4C108.3,176.2,108.4,171.1,111.8,177.7z"/>
<path class="st0" d="M75.9,109.9c4-5.7,3.6-0.9-0.5-5.8L75.9,109.9z"/>
<path class="st0" d="M117.8,179.5l-5.9,0.6C117.8,183.6,113.1,183.6,117.8,179.5z"/>
<polygon class="st0" points="157.2,143.1 152.6,144.6 154.7,147.1 "/>
<polygon class="st0" points="88,90.5 83.7,90.4 85.3,93.7 "/>
<polygon class="st0" points="136.2,95.7 131.8,95.3 133.7,98.5 "/>
<path class="st0" d="M153.1,125.8c3.6-4.8,3.5-0.8,0-5.4V125.8z"/>
<path class="st0" d="M91.2,160c-3.6-2.1-0.1-3.9-5,1.5L91.2,160z"/>
<path class="st0" d="M96.3,131l0.3-4.8C92.9,130.2,93,126.7,96.3,131z"/>
<path class="st0" d="M83.7,90.4c0.2-4.5,1.4-3.7-2.6-3.7L83.7,90.4z"/>
<path class="st0" d="M151.4,139.7l-3.1-2.6C148.3,141.1,147.3,140.1,151.4,139.7z"/>
<path class="st0" d="M50.3,113.7c-3.8,0-2.7-0.8-2.3,3.3L50.3,113.7z"/>
<path class="st0" d="M131.9,174.6l-3.1-1C130.3,176.2,127.1,178.6,131.9,174.6z"/>
<path class="st0" d="M155.8,171.7l-2.5,2.9C157.1,174.7,156.1,175.6,155.8,171.7z"/>
<polygon class="st0" points="80.5,83.1 79.8,80.2 77.5,82.9 "/>
<path class="st0" d="M61.6,96.3l-2.5,2.9C62.8,99.2,62,100.1,61.6,96.3z"/>
<path class="st0" d="M85.7,168.4l-3.4,0.3C85,171.9,83.1,171.7,85.7,168.4z"/>
<path class="st0" d="M160.9,114.1c0.4-3.7,1.2-2.8-2.5-2.8L160.9,114.1z"/>
<path class="st0" d="M84.7,77.3c-3.6-0.5-2.6-1.2-2.6,2.5L84.7,77.3z"/>
<path class="st0" d="M146.3,155.5l-2.8-2.5C143.5,156.7,142.6,155.9,146.3,155.5z"/>
<path class="st0" d="M147.4,141.5l-0.5-3.4C143.9,141.1,144.2,139.1,147.4,141.5z"/>
<path class="st0" d="M69.5,22.2l3.6-8.1L69.5,22.2z"/>
<path class="st0" d="M92.5,75.7l-3.4,2.1L92.5,75.7z"/>
<path class="st0" d="M150.4,144.1l-3-2.6L150.4,144.1z"/>
<path class="st0" d="M99.2,114.6l-2.1-4L99.2,114.6z"/>
<path class="st0" d="M119.8,77.8l-3.4-2.1L119.8,77.8z"/>
<path class="st0" d="M56.3,149.8l-2.7-2.3L56.3,149.8z"/>
<path class="st0" d="M133.3,83.5l0.5,2L133.3,83.5z"/>
<path class="st0" d="M77.6,149.8l-2.6,2.8L77.6,149.8z"/>
<path class="st0" d="M72.7,85.9l-2.8,2.5L72.7,85.9z"/>
<path class="st0" d="M165.6,151.9l-2,4L165.6,151.9z"/>
<path class="st0" d="M138.6,157.9l-2.1-2.3L138.6,157.9z"/>
<path class="st0" d="M141.5,112.6v-3.8V112.6z"/>
<path class="st0" d="M88.1,88.6l-2.8-2.5L88.1,88.6z"/>
<path class="st0" d="M162.8,159.9l-2.4,2.6L162.8,159.9z"/>
<path class="st0" d="M91.3,163.9l-2.8,2.2L91.3,163.9z"/>
<path class="st0" d="M158.3,108.8l-2.6-2.5L158.3,108.8z"/>
<path class="st0" d="M69.9,88.5l-3.3,2L69.9,88.5z"/>
<path class="st0" d="M66.6,90.5l-2.9,2.6L66.6,90.5z"/>
<path class="st0" d="M158.1,168.9l-2.3,2.9L158.1,168.9z"/>
<path class="st0" d="M152.4,109.9l-2.7-2.6L152.4,109.9z"/>
<path class="st0" d="M128.8,173.6l-0.3-5.1L128.8,173.6z"/>
<path class="st0" d="M139.5,91.8l-2.4,2.8L139.5,91.8z"/>
<path class="st0" d="M63.7,93.1l-2.1,3.3L63.7,93.1z"/>
<path class="st0" d="M153.3,100.7l-3.1-2.4L153.3,100.7z"/>
<path class="st0" d="M84.6,177.1l-2.6-2.7L84.6,177.1z"/>
<path class="st0" d="M98,177.7l0.4-5.3L98,177.7z"/>
<path class="st0" d="M104.3,173.8l-2,3.4L104.3,173.8z"/>
<path class="st0" d="M75.4,104.1l-2.7-2.6L75.4,104.1z"/>
<path class="st0" d="M109.8,104.5l-2.8-5.1L109.8,104.5z"/>
<path class="st0" d="M62.6,115.5l-3.3,2.6L62.6,115.5z"/>
<path class="st0" d="M153.3,174.7l-2.7,2.4L153.3,174.7z"/>
<path class="st0" d="M102.3,177.1l-4.4,0.6L102.3,177.1z"/>
<path class="st0" d="M162.7,121.3l-2.2-3.1L162.7,121.3z"/>
<path class="st0" d="M69.3,107.5l-2.6-2.8L69.3,107.5z"/>
<path class="st0" d="M165.7,131.5l-1.9-4.6L165.7,131.5z"/>
<path class="st0" d="M144.7,179.4l-2.5,2.5L144.7,179.4z"/>
<path class="st0" d="M101.7,184.5l-3.3-2.2L101.7,184.5z"/>
<path class="st0" d="M138.9,181.9l-3,2.3L138.9,181.9z"/>
<path class="st0" d="M112.7,187.1l-4.9-2.8L112.7,187.1z"/>
<path class="st0" d="M130,184.2l-5.4,2.5L130,184.2z"/>
<path class="st0" d="M55.9,103.6l-2.8,2.4L55.9,103.6z"/>
<path class="st0" d="M50.7,139.6l-2.3-3L50.7,139.6z"/>
<path class="st0" d="M59.3,136.7l-2.4,3.9L59.3,136.7z"/>
<path class="st0" d="M76.6,171.9l-2.5-3L76.6,171.9z"/>
<path class="st1" d="M131.8,95.3l4.4,0.4l0.9-1.1l2.4-2.8c3.7-4,4.1,0.2,10.6,6.6l3.1,2.4l2.4,5.6l2.6,2.5l0.1,2.6
	c3.7,0,2.9-0.9,2.5,2.8l-0.4,4.1l2.2,3.1l1.2,5.6l1.9,4.6l-0.1,20.3l-2,4l-0.8,4l-2.4,2.6l-2.2,6.4l-2.3,2.9c0.3,3.9,1.3,3-2.5,2.9
	l-2.7,2.4l-5.9,2.3l-2.5,2.5H139l-3,2.3h-6l-5.4,2.5l-11.9,0.4l-4.9-2.8l-6.1,0.1l-3.3-2.2l-13.7-5.1l-2.6-2.7l-5.5-2.5l-2.5-3
	l-17.8-19.2l-2.7-2.3l-2.9-7.8l-2.3-3l-0.3-19.7c-0.5-4.1-1.5-3.3,2.3-3.3l2.8-7.7l2.8-2.4l3.2-4.4l2.5-2.9l2.1-3.3l2.9-2.6l3.3-2
	l2.8-2.5l4.8-3.1l2.3-2.7l2.2-0.4c0-3.7-1-3,2.6-2.5l4.5,0.6l3.3-2.1l8.8-1.1l3.6-0.1l11.4,1.2l3.4,2.1l13.5,5.7l0.5,2L131.8,95.3z
	 M43.3,136.4c7.3,26.3,43.2,53,70.1,55.5c89.8,8.4,65.4-126.8-11.6-123.1C73.1,70.3,34.8,105.7,43.3,136.4z"/>
<path class="st1" d="M110.7,136.6c-12.1-1.3-6.7,1.4-9.3-8.4C111.1,123.3,113.9,125.6,110.7,136.6z M103.4,102.5l-0.4,8.7
	L103.4,102.5z M97.2,110.6l2.1,4l-2.6,11.7l-0.3,4.7c0.6,8.7,0,7,6,10.6l6.1-0.5c18.6-4.9,7.1-15.3,1.1-23l0.3-13.6l-2.8-5.1
	l-4.6-11.3l-6.3,1.9L97.2,110.6z"/>
<polygon class="st1" points="66.7,104.7 69.3,107.4 75.9,109.9 75.4,104.1 72.7,101.5 68.1,99.6 "/>
<path class="st1" d="M98.3,172.4l-0.4,5.3l4.4-0.6l2-3.4c0.4-12.9,0-4.9-2.5-8.2L98.3,172.4z"/>
<path class="st1" d="M138.6,157.9l11.1,2.8l-3.4-5.2c-3.7,0.3-2.8,1.2-2.8-2.5c-10.2-1.1-4.3-0.3-7.1,2.6L138.6,157.9z"/>
<polygon class="st1" points="153.1,125.8 153.1,120.4 143.9,120.4 143.9,125.7 "/>
<path class="st1" d="M82.2,168.7l3.4-0.3l2.9-2.3l2.8-2.2l-0.1-3.9l-5,1.5C80.6,166.5,81.6,163.4,82.2,168.7z"/>
<polygon class="st1" points="111.8,177.7 111.9,180.2 117.8,179.5 117.8,176.2 115.8,169.2 112.7,171.4 "/>
<path class="st1" d="M141.5,112.6c10.5,0,4.9,1.5,10.9-2.7l-2.7-2.6l-8.1,1.5L141.5,112.6z"/>
<path class="st1" d="M56.9,140.6c9.2,2.5,7.2,1.8,12.6-1.7l-10.2-2.1L56.9,140.6z"/>
<path class="st1" d="M59.3,118.1c2.5,1.8-3.5,3.3,5.2,2.3c6.5-0.7,2-0.2,5.2-2.6l-7.1-2.3L59.3,118.1z"/>
<polygon class="st1" points="75,152.6 77.6,149.8 76.5,143.9 70.2,150.3 "/>
<path class="st1" d="M147.4,141.5l3,2.6l2.3,0.5l4.6-1.5l-5.8-3.4c-4,0.4-3.1,1.4-3.1-2.6l-1.4,0.9L147.4,141.5z"/>
<polygon class="st1" points="101.9,86.1 102.4,88.2 104.4,86.1 104.9,77.2 101.5,77.3 "/>
<path class="st1" d="M45.5,91c-6.7,0-5.7-1.8-4,4.4C46.2,95.4,44.5,96.4,45.5,91z"/>
<polygon class="st1" points="121.5,89 123,85.7 116.6,85 115.5,87.6 "/>
<path class="st1" d="M66,196.6c0-4.5,0.9-2.8-4.3-3.9C61.7,199.3,60,198.4,66,196.6z"/>
<path class="st1" d="M169.9,92.7c1.9-6,2.9-4.4-3.5-4.4C167.1,93.7,165.5,92.7,169.9,92.7z"/>
<path class="st1" d="M172.5,98.1c1.9-6,2.9-4.4-3.4-4.4C169.8,99,168.1,98.1,172.5,98.1z"/>
<path class="st1" d="M34.3,125.8c-6.1,0-5.1-1.5-3.4,4.3C35.5,130.1,33.9,131.1,34.3,125.8z"/>
<path class="st1" d="M139.2,63.7c0-6.3,1.5-5.3-4.4-3.3C134.8,64.7,133.9,63,139.2,63.7z"/>
<path class="st1" d="M177.8,111.5c2-6,3.1-4.5-3.2-4.5C175.2,112.4,173.5,111.5,177.8,111.5z"/>
<path class="st1" d="M167.7,190.9c-4.6,0-3.4-1.2-3.4,3.5C170,195.5,168.9,196.7,167.7,190.9z"/>
<path class="st1" d="M81,87l0.2-0.3c4,0,2.8-0.8,2.6,3.7l4.3,0.1l0.1-1.9l-2.8-2.5l-0.6-2.5C84.7,88.2,85.8,87,81,87z"/>
<path class="st1" d="M93.4,57.9c-6.4-2.1-4.9-3.5-4.9,3.1L93.4,57.9z"/>
<path class="st1" d="M90.6,207l-4.8-3C85.7,210.4,84.4,209.1,90.6,207z"/>
<path class="st2" d="M30.9,130.1c-1.7-5.8-2.7-4.3,3.4-4.3c0.2-17.4,5.1-17.4,7.3-30.4c-1.7-6.2-2.7-4.4,4-4.4
	c0.8-0.2,33.9-24.9,42.9-30c0-6.5-1.4-5.2,4.9-3.1c10,1.2,34.3,3.3,41.4,2.4c5.9-1.9,4.4-3,4.4,3.3c4.1,4.9,9.6,6.7,15.2,12
	c5.4,5.1,7.3,11,12,12.6c6.4,0,5.4-1.6,3.5,4.4l-0.8,1c6.3,0,5.3-1.6,3.4,4.4l2.1,9c6.2,0,5.1-1.5,3.2,4.5
	c-0.7,15.6,5.8,28.9,3.3,46.3c-2.4,16.9-9.8,20.5-13.3,33.1c1.1,5.8,2.3,4.6-3.4,3.5c-11.5,3.1-14.5,9.6-32.6,12.5
	c-13.9,2.2-27.8-1.3-41.2,0.1c-6.2,2.1-4.8,3.4-4.8-2.9l-19.7-7.4c-6,1.8-4.3,2.7-4.3-3.9c-1.6-4.4-15.8-17.3-20.4-24.8
	C33.8,155.7,33.2,144,30.9,130.1z M103.9,52.7c-2.3-2.6-4.4-3-4.4-11c0-13.4,0.7-6.3,6.4-6.2L103.9,52.7z M91.1,28.8
	c-5.5-5.6-4.4-16.3,0-23.5C95.3,10,96,10.5,96,19.4C95.9,32.6,96.9,26.6,91.1,28.8z M80.4,27.5c-0.3-0.5-8.5-6.4,2.3-19.9
	C83,17.3,84.1,20.4,80.4,27.5z M125.7,24.7c-4-7.5-3-6.4-2-15.8C133.4,13.1,134.8,17.5,125.7,24.7z M73,14.1l-3.6,8.1L73,14.1z
	 M101.8,5.6c12.6,4.1,9.4,17.2,5.3,22.7c-7-1.8-5.7,2-6.8-11.1C99.7,9.9,99.8,10.9,101.8,5.6z M117.3,27c-2.9-5-2.8-5.2-3.5-13
	l0.7-7.2c0-0.7,0.5-0.9,0.8-1.4C118.5,10.6,120.1,22.3,117.3,27z M64.4,10.8c0,30.1,13,16.1,28.7,27.4l0.8,12.7
	c-1.9,1.6-1.4,1.6-4.6,3.5l-19.6,9.8C-5.5,107.6,22,210,112.4,214.1c49.6,2.2,82.3-31.7,74.4-82.5c-5.1-32.6-18.4-58-47.6-72.7
	c-13.4-6.8-18.3-3.1-28.8-11.3l3.2-13.8c2.7-0.8,27.9-3.9,23.1-20.5C125-2.2,120.9,0.1,101.8,0.1C81.5,0.2,78.7-1.9,64.4,10.8z"/>
<path class="st2" d="M128.8,173.6l3.1,1l-0.6-8.6c-4.2-0.1-3.6-1.2-2.8,2.6L128.8,173.6z"/>
<path class="st3" d="M43.3,136.4c-8.5-30.8,29.8-66.2,58.4-67.6c77-3.7,101.4,131.5,11.6,123.1C86.5,189.5,50.6,162.8,43.3,136.4z
	 M88.4,61c-9,5.2-42.2,29.8-42.9,30c-1,5.4,0.7,4.4-4,4.4c-2.1,13-7.1,13-7.3,30.4c-0.4,5.3,1.2,4.3-3.4,4.3
	c2.3,13.9,2.9,25.6,10.4,37.9c4.6,7.5,18.8,20.4,20.4,24.8c5.2,1.1,4.3-0.6,4.3,3.9l19.7,7.3l4.8,3c13.4-1.4,27.3,2.1,41.2-0.1
	c18.1-2.9,21-9.4,32.6-12.5c0-4.6-1.2-3.5,3.4-3.5c3.6-12.6,10.9-16.2,13.3-33.1c2.5-17.4-3.9-30.7-3.3-46.3c-4.3,0-2.6,0.8-3.2-4.5
	l-2.1-9c-4.4,0-2.8,0.9-3.4-4.4l0.8-1c-4.4,0-2.8,0.9-3.5-4.4c-4.6-1.6-6.6-7.5-12-12.6c-5.6-5.3-11.1-7.2-15.2-12
	c-5.3-0.7-4.4,1-4.4-3.3c-7.2,0.9-31.4-1.3-41.4-2.4L88.4,61z"/>
<path class="st3" d="M103,111.1l0.4-8.7L103,111.1z"/>
<path class="st4" d="M112.7,171.4l3.2-2.2c3,3.3,3.6-5.6,2,7v3.3c-4.7,4.1,0,4-5.9,0.6l-0.1-2.5
	C108.4,171.1,108.3,176.2,112.7,171.4z M98.3,172.4l3.5-6.8c2.5,3.3,2.9-4.7,2.5,8.2l-2,3.4l-4.4,0.6L98.3,172.4z M128.5,168.5
	c-0.7-3.8-1.4-2.7,2.8-2.6c0.2,0.2,8.5,7.2,0.6,8.6c-4.8,4-1.7,1.6-3.1-1L128.5,168.5z M85.7,168.4c-2.6,3.3-0.6,3.5-3.4,0.3
	c-0.6-5.4-1.7-2.2,3.9-7.3c5-5.4,1.4-3.6,5-1.5l0.1,3.9l-2.8,2.2L85.7,168.4z M143.5,153l2.8,2.5l3.4,5.2l-11.1-2.8l-2.2-2.3
	C139.2,152.8,133.4,152,143.5,153z M77.6,149.7l-2.6,2.8l-4.8-2.3l6.3-6.4L77.6,149.7z M146.9,138.1l1.4-0.9l3.1,2.6l5.8,3.4l-2.6,4
	l-2-2.5l-2.3-0.5l-3-2.6C144.2,139.1,143.9,141.1,146.9,138.1L146.9,138.1z M59.3,136.7l10.2,2.1c-5.4,3.5-3.4,4.2-12.6,1.7
	L59.3,136.7z M153.1,120.3c3.5,4.6,3.6,0.7,0,5.4l-9.2-0.1v-5.3L153.1,120.3z M62.6,115.5l7.1,2.3c-3.2,2.5,1.3,2-5.2,2.6
	c-8.7,1-2.6-0.6-5.2-2.3L62.6,115.5z M102.4,88.2l4.6,11.3l2.8,5.1l-0.3,13.6c6,7.8,17.5,18.2-1.1,23l-4.2,3.2l-1.9-2.7
	c-6-3.6-5.4-1.9-6-10.6c-3.4-4.4-3.4-0.9,0.3-4.8l2.6-11.7l-2.1-4l-0.9-20.5L102.4,88.2z M141.5,108.8l8.1-1.5l2.7,2.6
	c-6,4.2-0.4,2.7-10.9,2.7L141.5,108.8z M68.1,99.6l4.6,1.9l2.7,2.6c4.1,4.9,4.5,0.1,0.5,5.8l-6.6-2.4l-2.6-2.8l-2.7-3L68.1,99.6z
	 M81,87l-0.4-3.8l4.2,0.6l0.6,2.5l2.8,2.5L88,90.5l-2.7,3.2l-1.6-3.3l-2.6-3.7L81,87z M115.5,87.7l1.1-2.7l3.8-3l2.6,3.7l-1.6,3.3
	l-3.5,2.8L115.5,87.7z M89.2,77.8l-4.5-0.6l-2.6,2.5l-2.2,0.4l0.7,2.9l-3-0.2l-4.8,3.1l-2.8,2.5l-3.3,2L63.7,93l-2.1,3.3
	c0.4,3.8,1.2,2.9-2.5,2.9l-3.2,4.4l-2.8,2.4l-2.8,7.6l-2.3,3.3l0.3,19.7l2.3,3l2.9,7.8l2.7,2.3L74.1,169l2.5,3l5.5,2.5l2.6,2.7
	l13.8,5.1l3.3,2.2l6.1-0.1l4.9,2.8l11.9-0.4l5.4-2.5h6l3-2.3h3.2l2.5-2.5l5.9-2.3l2.7-2.4l2.5-2.9l2.3-2.9l2.2-6.4l2.4-2.6l0.8-4
	l2-4l0.1-20.3l-1.9-4.6l-1.2-5.6l-2.2-3.1l0.4-4.1l-2.5-2.8l-0.1-2.6l-2.6-2.5l-2.4-5.6l-3.1-2.5c-6.5-6.3-7-10.6-10.6-6.6l-2.4,2.8
	l-0.9,1.1l-2.5,2.8l-1.9-3.2l2-9.8l-0.5-2l-13.6-5.7l-3.4-2.1l-11.4-1.2v2.6c0,0.1,7.3,7-0.6,8.9l-1.9,2.1l-0.6-2.1
	c-4.6-3.9-5.4-3.6-0.4-8.7l-0.2-2.7l-8.8,1.1L89.2,77.8z"/>
<path class="st4" d="M110.7,136.6c3.3-11,0.4-13.4-9.3-8.4C104,138.1,98.6,135.3,110.7,136.6z"/>
</svg>
