<?xml version="1.0" encoding="utf-8"?>
<!-- Generator: Adobe Illustrator 24.1.2, SVG Export Plug-In . SVG Version: 6.00 Build 0)  -->
<svg version="1.1" id="Слой_1" xmlns="http://www.w3.org/2000/svg" xmlns:xlink="http://www.w3.org/1999/xlink" x="0px" y="0px"
	 viewBox="0 0 224.3 224.3" style="enable-background:new 0 0 224.3 224.3;" xml:space="preserve">
<style type="text/css">
	.st0{fill-rule:evenodd;clip-rule:evenodd;fill:#FCBD10;}
	.st1{fill-rule:evenodd;clip-rule:evenodd;fill:#116E6F;}
	.st2{fill-rule:evenodd;clip-rule:evenodd;fill:#14B5B8;}
	.st3{fill-rule:evenodd;clip-rule:evenodd;fill:#000101;}
	.st4{fill-rule:evenodd;clip-rule:evenodd;fill:#1E4283;}
	.st5{fill-rule:evenodd;clip-rule:evenodd;fill:#BABABA;}
	.st6{fill-rule:evenodd;clip-rule:evenodd;fill:#73CACD;}
	.st7{fill-rule:evenodd;clip-rule:evenodd;fill:#D6E5E5;}
</style>
<path class="st0" d="M186.4,158.2c10-17.6,17.7-38.1-0.6-53.5L186.4,158.2z"/>
<path class="st0" d="M189.5,194.2c10.8,3.8,17.6,2.6,29.1,0.2l-10.6-8.8l-9.5,4.3l-6.4-6.6L189.5,194.2z"/>
<path class="st1" d="M18.3,176.4c-8.9-45,58.8-51,67.5-13.9C95.4,203.1,26.7,218.7,18.3,176.4z M40.6,130.6
	c-56.3,16.6-34.6,87.5,24.6,75.9C121.7,195.3,92.2,115.3,40.6,130.6L40.6,130.6z"/>
<path class="st1" d="M116.8,184c-5.3,8.3-4.4,7.6-1.1,17.7c13.5,7.4,24.2,4.4,24.7-12.1C132.8,181.6,126.4,179.8,116.8,184z"/>
<path class="st1" d="M160.7,192.3c0-4.8,2.2-4.4,3.4-0.2S160.7,194.8,160.7,192.3z M150.9,197.2c9,10.1,20.1,10.1,26.9-2.3
	C176,178.2,148.5,171.5,150.9,197.2z"/>
<path class="st1" d="M102.4,175.1l-3.2,12.2c15.7,0.5,18.4-24.5,45.3-1.4l7.9-9.3c9.8-0.7,21.9-1.3,27.4,6.9l-0.7-11.6L102.4,175.1z
	"/>
<path class="st1" d="M45.7,79.6c-4-6.9-3.7-6.9-11-9.2L33.8,80L45.7,79.6z"/>
<path class="st1" d="M46.1,171.8l6.9,0.8C47.4,162.2,47.5,171.1,46.1,171.8z"/>
<path class="st2" d="M101.3,169.4c15.3-0.1,66.6-1.8,78.4-6.4l-2-75.9c-19-3.3-28.3-0.2-45.1,1.2c-25.1,1.9-20.2,0.1-39.9-7.5
	l3.7,68.2C97.1,155.2,100.2,162,101.3,169.4z"/>
<path class="st2" d="M18.5,47.9c11.4-1.1,39.3-5.3,48.1-1.2c3.8,9,4.3,27.5-0.3,36c-11.4,6.6-34.9,4.8-47.3,0.9
	C18.1,72.1,15.4,58.6,18.5,47.9z M8.7,42.6l6.7,3.5c3.4,24.7-2,59.1,2.9,87.4c37.5-13.3,35.2-19.4,71,4.8L86.4,80l-12.3-4.2
	c-0.9-13.5-1.8-23.9,0.2-36.1L8.7,42.6z"/>
<path class="st3" d="M140.4,189.6c-0.6,16.5-11.2,19.4-24.8,12.1c-3.3-10-4.2-9.3,1.1-17.7C126.4,179.8,132.8,181.6,140.4,189.6z
	 M207.9,185.6l10.6,8.8c-11.5,2.4-18.3,3.6-29.1-0.2l2.7-10.8l6.4,6.6L207.9,185.6z M150.9,197.2c-2.4-25.7,25.1-19,26.9-2.3
	C171,207.3,159.9,207.3,150.9,197.2L150.9,197.2z M40.6,130.6c51.6-15.3,81.1,64.7,24.6,75.9C6,218.1-15.8,147.2,40.6,130.6z
	 M179.1,171.9l0.7,11.6c-5.6-8.2-17.7-7.5-27.4-6.9l-7.9,9.3c-26.9-23.1-29.6,1.9-45.3,1.4l3.2-12.2L179.1,171.9z M185.8,104.6
	c18.3,15.4,10.6,36,0.6,53.5L185.8,104.6z M179.7,163.1c-11.7,4.5-63.1,6.3-78.4,6.3c-1.2-7.5-4.3-14.2-4.9-20.4l-3.7-68.2
	c19.7,7.6,14.8,9.4,39.9,7.5c16.8-1.3,26.1-4.4,45.1-1.2L179.7,163.1z M137.9,60l37.9-0.2c-3.9,16.1-13.9,11.5-30.7,11.3L137.9,60z
	 M74.3,39.7c-2,12.2-1.1,22.7-0.2,36.1L86.4,80l2.9,58.3c-35.9-24.1-33.6-18-71-4.8c-4.9-28.2,0.4-62.7-2.9-87.4l-6.8-3.5L74.3,39.7
	z M0,36.8c0.4,20.1,3.1,1.4,7.7,17.9c0,14.2,0.8,75.6,5.5,84.1c-11.9,15.4-12.9,18.4-8.8,38.9c7,34.8,39.1,40.1,66.1,34.1
	c22.2-4.9,15.3-18.7,35.9-16.3l11,14.3c20,2,16.2-0.1,29.5-9.5c12,11.9,20.6,16.8,36.6-3.4c11.6,8.9,25.2,5.5,40.8,5.5
	c0-24.4-11.3-16-36.1-35.7c29.1-38,11.8-57.5-12.7-89.2c3.4-6.1,9.6-17.6,9-23.8c-4.7-1.5-45.6,0.7-54,1.3
	c0.2,18.2,9.4,8.4,9.8,27.6c-48.4,0-26.8-1.9-48.8-9.8c-2.7-1-18.5,0.5-11.8-25.3c2.4-9.5,3.9,0.5,4.1-12.8
	C69.4,29.5,13,36.6,0,36.8z"/>
<path class="st3" d="M165.3,43.8c-7.7-2.7-0.9,2-7.5-6.7c-13.3,6.7-15.5,7.6-27.5-1.2c-10.9,2-15.6,4.3-25.1-2.2
	c-4.1-15.6,3.4-17.5,17.7-17.2l9.6,8.3c8.4-6,4.4-5.5,16.4-6.6l5.8,14.3l11.1,2L165.3,43.8z M171.7,47.9c4.6-13.8,0.9-13.8-8.6-21.2
	c-9.1-7.2-4.1-7.7-17.6-15.6l-13.1,5.5c-25.1-19.1-48.3,11.1-28.9,23.8C110.3,44.9,164.6,50.2,171.7,47.9z"/>
<path class="st3" d="M34.7,70.4c7.3,2.3,7,2.3,11,9.2l-11.9,0.5L34.7,70.4z M26.5,80l-3.6-26.6l39.1-2.9l0.9,28.4
	c-20,4-9.3-18.3-31.1-12.8L26.5,80z M18.5,47.9c-3.1,10.7-0.4,24.2,0.6,35.7c12.3,3.9,35.8,5.7,47.3-0.9c4.5-8.5,4.1-27,0.3-36
	C57.8,42.6,29.8,46.8,18.5,47.9L18.5,47.9z"/>
<path class="st3" d="M41.7,146.2c32.9-14.1,57,35.1,22.7,46.8c-15.7,5.4-33.8,4.1-39.3-13.1C18.6,159.8,25.6,153.1,41.7,146.2z
	 M18.3,176.4c8.4,42.3,77.1,26.7,67.5-13.9C77.1,125.4,9.4,131.4,18.3,176.4z"/>
<path class="st3" d="M53.1,172.6l-6.9-0.8C47.5,171.1,47.4,162.2,53.1,172.6z M37.9,171.2c8,11.7,18.1,11.1,22.5-1.5
	c-4.9-8.3-5.3-7.2-14.5-7.5L37.9,171.2z"/>
<path class="st3" d="M160.7,192.3c0,2.4,4.6,4.1,3.4-0.2S160.7,187.6,160.7,192.3z"/>
<path class="st4" d="M45.9,162.2c9.2,0.3,9.6-0.7,14.5,7.5c-4.3,12.7-14.5,13.2-22.4,1.5L45.9,162.2z M41.7,146.2
	c-16.1,6.9-23.1,13.6-16.6,33.7c5.5,17.2,23.6,18.5,39.3,13.1C98.7,181.3,74.6,132.1,41.7,146.2L41.7,146.2z"/>
<path class="st5" d="M105.2,33.7c9.5,6.6,14.2,4.3,25.1,2.2c12,8.8,14.3,7.9,27.5,1.2c6.6,8.6-0.2,4,7.5,6.7l0.5-9.3l-11.1-2
	l-5.8-14.3c-12,1.1-8,0.6-16.4,6.6l-9.6-8.3C108.6,16.2,101.1,18.1,105.2,33.7z"/>
<path class="st6" d="M31.7,66.1c21.8-5.5,11.1,16.7,31.1,12.8l-0.9-28.4l-39.1,2.9L26.5,80L31.7,66.1z"/>
<path class="st7" d="M145.1,71.1c16.8,0.2,26.8,4.8,30.7-11.3L137.9,60L145.1,71.1z"/>
</svg>
