<?xml version="1.0" encoding="utf-8"?>
<!-- Generator: Adobe Illustrator 24.1.2, SVG Export Plug-In . SVG Version: 6.00 Build 0)  -->
<svg version="1.1" id="Слой_1" xmlns="http://www.w3.org/2000/svg" xmlns:xlink="http://www.w3.org/1999/xlink" x="0px" y="0px"
	 viewBox="0 0 229.7 229.7" style="enable-background:new 0 0 229.7 229.7;" xml:space="preserve">
<style type="text/css">
	.st0{fill-rule:evenodd;clip-rule:evenodd;fill:#BBBBBB;}
	.st1{fill-rule:evenodd;clip-rule:evenodd;}
	.st2{fill-rule:evenodd;clip-rule:evenodd;fill:#EE4823;}
</style>
<path class="st0" d="M173.7,71.8c-12.7,6-22.6-6.7-21.5-21.3c0.6-8.9,7-19.2,14.3-21c12.4-3.2,8.9,2.1,9,2.2
	c-3,1.9-30.2,17.2-13.1,32.4C168.1,69.2,166.9,63.8,173.7,71.8z M205.2,69.1c3.5-24-11.9-34.5-23.8-45.5
	c-14.1-1.3-23.1,3.8-30.5-1.6c-14-10.3-10.2-9.1-32.1-9.8c5.3,14.3,12.7,16,18.3,26.5c6.7,12.2-3.7,13.6,10.6,29.3
	C171.3,93.6,179.1,85.5,205.2,69.1z"/>
<path class="st0" d="M104,132.7c8.4-4.3,18.3-16.1,26.8-23.5c9.2-8,16.4-17.6,23-26.7c-4.5-5.2-9.5-9.9-15-14
	c-10.5,6.8-19,20.5-29.7,29.7C95.3,110.1,85.7,115.9,104,132.7z"/>
<path class="st0" d="M190,106.1c13,7.1,33.2-5.6,31.5-23.7c-11.5,1.1-11.2,2.8-18.8,7.9C193.8,96.4,190.6,94.4,190,106.1z"/>
<path class="st0" d="M210.9,42.7c-2-11.5-6.5-21.7-20.1-22.4c3.2,11.2,0.8,5.3,7.9,12.8C205.3,39.8,200.8,38.9,210.9,42.7z"/>
<path class="st0" d="M190.5,89.3c8.9-2.5,11.6-3.8,15-12.1C198.7,80.1,192,82.2,190.5,89.3z"/>
<path class="st1" d="M72.6,122.5c9.3-5.1,7.9-6.9,16.3,1.5c0.3,0.3,10.4,13.2,10.8,13.9c5.1,11.6-8.6,23.6-14.2,30.2
	c-21.7,25.6-55.3,77.5-77,28.2c-6.3-14.4,2.9-19.7,12.2-28.9S60.2,129.3,72.6,122.5z M190,106.1c0.6-11.8,3.8-9.7,12.7-15.8
	c7.6-5.2,7.3-6.8,18.8-7.9C223.1,100.6,203,113.2,190,106.1z M104,132.7c-18.3-16.7-8.7-22.6,5-34.5c10.7-9.2,19.2-22.8,29.7-29.7
	c5.5,4.1,10.5,8.7,15,13.9c-6.6,9.2-13.7,18.7-23,26.7C122.3,116.6,112.4,128.3,104,132.7z M190.5,89.3c1.5-7.1,8.2-9.2,15-12.1
	C202.1,85.5,199.4,86.8,190.5,89.3L190.5,89.3z M210.9,42.7c-10.1-3.7-5.6-2.9-12.1-9.6c-7.2-7.5-4.7-1.5-7.9-12.8
	C204.4,20.9,208.9,31.2,210.9,42.7L210.9,42.7z M205.2,69.1c-26.1,16.3-33.9,24.5-57.4-1.2c-14.3-15.6-3.9-17-10.6-29.3
	c-5.7-10.5-13-12.1-18.3-26.5c21.9,0.8,18.1-0.4,32.1,9.9c7.4,5.4,16.3,0.3,30.5,1.6C193.4,34.6,208.7,45.1,205.2,69.1z M112,7.6
	c0.7,29.1,21.4,16.7,21.4,50.8c0,10.1-43.1,50-45.1,51.1c-9,4.9-13.6,1.9-24.9,9.9c-16.8,11.9-19.5,21.4-34.3,32.6
	C1,173.3-9.5,186.9,9.9,211.3c25.9,32.7,48.8-3.3,58.7-14.5c5.8-6.6,9.8-9.1,15.6-16.5c6.1-7.7,9.5-11.6,15.3-19.4
	c13.7-18.3,6.6-24.2,27-39.8c22.4-17.1,22.7-25.9,33.6-33.2c12.3,2.9,7.3,5.3,24.1,5.3c-1.2,15-2.8,15.1,10.7,24.1
	c23.9-5.6,45.8-27.1,28.9-39.7c-5.6-4.1-5.8-2.1-12.9-0.4c5.4-23.1,1-13.3,1.4-22.2l0.5-3.6c0.1-0.5,0.5-1.2,0.6-1.6
	c2.9-7.9,5.8-4.1,3.3-13.2C214,26.6,206.2,13,194.9,13c-10,0-1.2,2.1-9.1,3.6c-8.2,1.6-0.2-0.9-12.3-0.9c-19.9,0-7.4,7.9-23.6-2.9
	C139.7,6,125.7,2.3,112,7.6z"/>
<path class="st1" d="M173.7,71.8c-6.8-8-5.6-2.6-11.4-7.7c-17.1-15.2,10.2-30.6,13.1-32.4c-0.1-0.1,3.4-5.4-9-2.2
	c-7.3,1.9-13.6,12.1-14.3,21C151.1,65.1,161,77.8,173.7,71.8z"/>
<path class="st2" d="M72.6,122.5c-12.3,6.8-42.8,35.8-52,45S2.1,182,8.4,196.4c21.7,49.3,55.3-2.6,77-28.2
	c5.6-6.6,19.3-18.6,14.2-30.2c-0.3-0.7-10.5-13.6-10.8-13.9C80.4,115.6,81.9,117.3,72.6,122.5z"/>
</svg>
