<?xml version="1.0" encoding="utf-8"?>
<!-- Generator: Adobe Illustrator 24.1.2, SVG Export Plug-In . SVG Version: 6.00 Build 0)  -->
<svg version="1.1" id="Слой_1" xmlns="http://www.w3.org/2000/svg" xmlns:xlink="http://www.w3.org/1999/xlink" x="0px" y="0px"
	 viewBox="0 0 206 206" style="enable-background:new 0 0 206 206;" xml:space="preserve">
<style type="text/css">
	.st0{fill-rule:evenodd;clip-rule:evenodd;fill:#D5E4E4;}
	.st1{fill-rule:evenodd;clip-rule:evenodd;fill:#127173;}
	.st2{fill-rule:evenodd;clip-rule:evenodd;}
</style>
<path class="st0" d="M4.7,151.1l1.1,9.2c0.3,13.4-2,23.9,8.7,32.1l14.7,6.7c1.8-2.2,24.1,3.2,50.7,1.4c16.6-1.2,46.3-0.9,63.6-3.2
	c34.1-4.6,52-12.7,50.7-16.3l7.9-20.4l-1.7-18.8l-109.7,0.3L37.5,145c-15.4-2.7-24.6,1.8-32.5,0.1L4.7,151.1z"/>
<path class="st1" d="M7.9,142.1c32-2.2,62.2-4,94.4-3.3c33.7,0.8,63.4-1.4,95.8-1.8c4.4-81.2-33.1-52.7-55.4-54.4
	c-38.9-3.1-29.5-44.4-49.6-65C69.3-6.7,35.4,12.4,21.5,37.2C4.4,67.8,8.4,107.1,7.9,142.1z"/>
<path class="st1" d="M196.3,144.1l-3.1,0.1L196.3,144.1z"/>
<path class="st1" d="M8.3,161.1l-0.4-11.7L8.3,161.1z"/>
<path class="st2" d="M27.4,168.3v-15.5l0.4-5.6l5.4,0.1l2.8,17.3l1.8,4l0.5,5.4l2.3,2.3l2.5,18.3l-13.4,1.2L27.4,168.3z M128.8,177
	c0.1-10.5-1.7-23.3,2.7-32.3c7.6,1,9.8,1.5,10.3,8.5l0.6,15.6l2.6,10.3l-0.2,15.5l-12.7,1l-0.9-13.3L128.8,177z M195.3,176.4
	l-2.4,2.2c-2.8,4.1-0.1,3.5-3,0.7l0.2-14.3l2.3-2.7l0.7-18.2l3.1-0.1C200.8,152.6,198.4,166.5,195.3,176.4L195.3,176.4z
	 M146.8,146.4c5.8-5,5.9-3.4,11,0.6l1.1,18.2l4.2,0.6c2.4,11.4,2.8,11.7,3.3,24.8l-3.1,1.7l-12.2,0.4L146.8,146.4z M7.9,149.3
	c-0.7-4.1-1.3-2.9,3-2.2c8,1.7,5.5,10.6,6.2,20.7l2.1,3.1c2,8.2,3.1,15.1,0.1,21.4l-2.1-2.4c-10.7-8.2-8.6-15.5-8.9-28.8L7.9,149.3z
	 M56.8,158.8l2.5,7.5l3.3,25.6v6l-12.9-0.6l-0.9-7.8l-2.1-5.6l0.5-13c0.3-5.9,4.5,0.3,3.8-4.5c-1.6-11.9-4.3-16.6,3-21.2L56.8,158.8
	z M85.4,144.2l8.6,0.4l0.5,7.7c1.1,2.7,2.2,17,2.3,19.6l5.4,1.4l3.2,24.1c-14.5,1.4-17.3,9.5-19.3-45.5L85.4,144.2z M182.2,172.1
	c-1.1,7.5,1.1,7.6,0.7,15.1l-8.6,2.8c-5.6-17.3-0.1-29.5-4.5-44.8l12.4-0.3L182.2,172.1z M124.2,180.6l2.3,6l-0.4,8.8l-3.2,2
	l-10.5,0.4l-2.7-4.2l0.6-49c3.7,1.7,5.7-0.8,6.8,5.3c0.6,3.2,0,11.1,1.2,18.2c0.9,5,3.3-1.6,4.5,1.3
	C123.8,171.9,123.5,176.6,124.2,180.6z M69.2,144.3l8.8,0.4l0.4,5.1l2,6l0.6,13l2.1,5.8l0.7,23l-11,0.5c-0.4-0.6-1-2.2-1.2-1.8
	c-0.2,0.7-4.4-8.1-3-21c1.2-11.2,4.5,2.4,3.1-9.7L69.2,144.3z M7.9,142.1c0.5-35-3.5-74.3,13.7-104.9C35.4,12.4,69.3-6.7,93,17.5
	c20.1,20.6,10.7,61.9,49.6,65c22.3,1.7,59.9-26.8,55.4,54.4c-32.4,0.4-62,2.6-95.8,1.8C70,138.1,39.8,139.9,7.9,142.1z M4.1,186.6
	c21.2,22.2,31.6,15.6,58.2,16.6c26.8,1.1,1.7,5.4,45.5,0.3c21.7-2.6,32.5,1.4,71.5-8.7c35.6-9.2,24.3-47.3,24.5-74.4
	c0.6-65.1-36.3-45.6-53.4-45.2C108.9,76,120.2,44,103.9,19.9C85.3-7.4,56.7-3.7,32.7,13.4C9.3,30,4.4,62,3.4,88.5
	c-0.6,16.3-2.8,13.7-2.8,48C0.7,156.7,1.7,167.5,4.1,186.6z"/>
</svg>
