<?xml version="1.0" encoding="utf-8"?>
<!-- Generator: Adobe Illustrator 24.1.2, SVG Export Plug-In . SVG Version: 6.00 Build 0)  -->
<svg version="1.1" id="Слой_1" xmlns="http://www.w3.org/2000/svg" xmlns:xlink="http://www.w3.org/1999/xlink" x="0px" y="0px"
	 viewBox="0 0 195.1 195.1" style="enable-background:new 0 0 195.1 195.1;" xml:space="preserve">
<style type="text/css">
	.st0{fill-rule:evenodd;clip-rule:evenodd;fill:#010101;}
	.st1{fill-rule:evenodd;clip-rule:evenodd;fill:#BBBBBB;}
	.st2{fill-rule:evenodd;clip-rule:evenodd;fill:#020202;}
</style>
<path class="st0" d="M11.4,154.5c-3.7-37.6-4.7-50.6-2.8-90.4l16.7,1.6c-1.1,35.3-1.9,51.9,3.4,87.1L11.4,154.5z M0,109.8
	c0,22,7.2,28.8,2.7,48.1c16.6,3.9,15.5,3.9,32.1,0c0-38.2-9-19.9-2.8-83.5c1.2-12.1-2.7-18-13.2-18c-14.6,0-15.3,4.2-16.3,18.4
	C1.5,88,0,93.9,0,109.8z"/>
<path class="st0" d="M168.4,88.5v5.3c4.4,0,12.3,0.6,16.2,0.3c10.1-0.8,8.2,0.4,10.5-8.3C184.6,85.8,175.7,85.6,168.4,88.5z"/>
<path class="st0" d="M163,51.1c3.6,1.6-2.6,4.7,7.5-2.8c4-3,5.8-4.2,8.5-7.9c-2-0.9-7-7.5-15.6,6C160.1,51.6,161.3,47.2,163,51.1z"
	/>
<path class="st0" d="M171,133.9c8.2,0.7,12.8,2.5,18.7,5.3v-8c-10.4-0.8-7-2.4-18.7-2.7V133.9z"/>
<path class="st1" d="M130.6,178.7c-17.5-18.3-17.8-46.4-17.5-79.6c0.2-14.6,1.5-29.1,3.7-43.6c2.5-14.5,8.1-27,9-40
	C99.6,18.7,92.5,46.4,70,57l-22.2,7.4c-9.5,16-0.4,63.4,1.8,84c25.2,6.6,19.4-3.2,43.2,13C104.1,169,113.6,176.4,130.6,178.7z"/>
<path class="st1" d="M120.3,72.4c19,15.1,26.2,28.9-0.2,48.1c-1,22.2,1.5,46.4,16.2,53.9c26.8,2.3,15.6-124.3-2.3-157.7
	c-0.4,0.5-0.7,1.1-0.9,1.7L120.3,72.4z"/>
<path class="st1" d="M11.4,154.5l17.4-1.7c-5.3-35.2-4.6-51.8-3.4-87.1L8.7,64.1C6.8,103.9,7.7,116.9,11.4,154.5z"/>
<path class="st1" d="M118.7,112.7c7.5-2.6,12.3-4.8,12.3-16.1c0-10.6-3.8-13.4-11.4-16.2L118.7,112.7z"/>
<path class="st2" d="M119.6,80.4c7.6,2.8,11.4,5.6,11.4,16.2c-0.1,11.3-4.8,13.5-12.3,16.1L119.6,80.4z M120.3,72.4l12.8-54
	c0.3-0.6,0.6-1.2,0.9-1.7c17.9,33.4,29.1,160,2.3,157.7c-14.8-7.5-17.3-31.7-16.2-53.9C146.5,101.3,139.2,87.5,120.3,72.4z
	 M130.6,178.7c-17-2.3-26.4-9.7-37.8-17.4c-23.8-16.2-18-6.4-43.2-12.9c-2.2-20.6-11.3-68-1.8-84L70,57
	c22.5-10.6,29.6-38.3,55.8-41.4c-0.9,13-6.5,25.5-9,40c-2.3,14.4-3.5,29-3.7,43.6C112.7,132.3,113.1,160.4,130.6,178.7L130.6,178.7z
	 M37.4,75.1l2.4,42.9c8.6,71.1,1.9,13.2,53.7,50.6c12.8,9.3,19.3,16.1,40.1,16.1c37.7,0,24.2-119.3,12.4-154.1
	c-2.8-8.4-5.3-12-7.1-19.6c-27.4,0-21.7-6.7-54.1,26C56.7,65.5,55.3,47.9,43.5,59.8C40.7,62.5,37.4,70.8,37.4,75.1z"/>
</svg>
