<?xml version="1.0" encoding="utf-8"?>
<!-- Generator: Adobe Illustrator 24.1.2, SVG Export Plug-In . SVG Version: 6.00 Build 0)  -->
<svg version="1.1" id="Слой_1" xmlns="http://www.w3.org/2000/svg" xmlns:xlink="http://www.w3.org/1999/xlink" x="0px" y="0px"
	 viewBox="0 0 242.5 242.5" style="enable-background:new 0 0 242.5 242.5;" xml:space="preserve">
<style type="text/css">
	.st0{fill-rule:evenodd;clip-rule:evenodd;fill:#FBBD10;}
	.st1{fill-rule:evenodd;clip-rule:evenodd;fill:#14B5B8;}
	.st2{fill-rule:evenodd;clip-rule:evenodd;fill:#010202;}
	.st3{fill-rule:evenodd;clip-rule:evenodd;fill:#D5E4E4;}
</style>
<path class="st0" d="M147.1,18.6c29,17.1,20.3-10.6,22.1,81.3l13,0.7l-2.3-88.8C168.1,8.7,152,6.6,147.1,18.6z"/>
<path class="st0" d="M117.5,202.2l29.1,1.4l6.5,12.3c-4,8.1-9.8,11.2-15.1,15.3c20.4-0.9,30.8-9.8,30.4-30.4
	c-7.2-2.9-17.2-4.6-24.1-3.1C135.6,199.7,123,200.6,117.5,202.2z"/>
<path class="st0" d="M132.3,234.9c-10-6.2-53.1-1.5-32.5-30.6c-20.8-0.3-10.5,19.1-4.7,23.2C105.2,234.7,120.8,232.7,132.3,234.9z"
	/>
<path class="st1" d="M50.4,118.6c12.6-6.9,113.1-5.8,129.9,0.7c46,17.7,17.1,78.2-21.4,57.3c-12.2-6.6-28.1-27-38.8-30.6
	c-16.6-5.6-29.3,13.3-41.2,22C36.3,199.2,15.6,137.5,50.4,118.6z M111.4,154.6c23.3,5.2,20.5,31.6,44.6,37.6
	c23.4,5.8,51,0.9,61.4-21.7c9.5-20.7,7.1-47-12.4-60.5c-6.5-4.5-149.6-4.6-156.6-3.2c-45.9,9-43.5,88,17,86.8
	C97.3,192.9,87.7,164,111.4,154.6L111.4,154.6z"/>
<path class="st1" d="M144.3,209.2c-6.4-0.9-62.1-5.2-40.8,12.1C111.1,227.4,150.3,232.7,144.3,209.2z"/>
<path class="st1" d="M230.9,153.6c8.2-8.7,6.2-16.6-1.8-24.4C226.9,133.8,228.3,149,230.9,153.6z"/>
<path class="st1" d="M10.7,156.9l1.6-21.6C5.3,139.6,8.1,150.8,10.7,156.9z"/>
<path class="st2" d="M103.6,221.3c-21.4-17.3,34.4-13,40.8-12.1C150.3,232.7,111.1,227.4,103.6,221.3z M132.3,234.9
	c-11.5-2.2-27.1-0.3-37.2-7.4c-5.8-4.1-16.1-23.5,4.7-23.2C79.2,233.4,122.2,228.7,132.3,234.9z M117.5,202.2
	c5.5-1.6,18.1-2.5,26.9-4.5c6.8-1.5,16.9,0.2,24.1,3.1c0.4,20.6-10.1,29.5-30.4,30.4c5.3-4.1,11.1-7.1,15.1-15.3l-6.5-12.3
	L117.5,202.2z M111.5,154.6c-23.7,9.4-14.1,38.3-46,38.9c-60.5,1.2-62.9-77.8-17-86.8c7-1.4,150.1-1.3,156.6,3.2
	c19.5,13.5,21.9,39.9,12.4,60.5c-10.4,22.6-38.1,27.5-61.4,21.7C132,186.3,134.7,159.8,111.5,154.6L111.5,154.6z M229.1,129.2
	c8,7.8,10,15.7,1.8,24.4C228.3,149,226.9,133.8,229.1,129.2L229.1,129.2z M10.7,156.9c-2.6-6-5.4-17.3,1.6-21.6L10.7,156.9z
	 M182.2,100.7l-13-0.7c-1.8-91.9,6.9-64.3-22.1-81.4c4.9-12,21-9.9,32.8-6.8L182.2,100.7z M139.6,18.8c8.3,11,13,6.3,22.7,13.3
	l0.7,68.6c-33.4,0-66.8,0.2-100.1,0c-40.1-0.2-33.3,14.7-50.5,26.5c-28.8,19.7,1.3,40.5,6.5,48.4c16.6,25.3,52.7,31.5,69.2,16.9
	c9.4-8.3,11.8-23,20.9-30.5c15.5,1.9,21.6,20.4,33.6,31c-12.9,0-24.2,2.1-38.6,2.4c-35.9,0.9-32.3,50.6,30.8,43.6
	c24-2.7,39.1-12.4,41.7-37.9c31.2-3.2,38.7-10.5,49-33.1c8-17.7,4.4-0.9,14-14.3c4.6-6.4,3.8-13.5,1.3-20.3
	c-4.1-11.3-7.4-8.3-15.7-12.6c-15-7.9-4.7-20.3-36.2-20.2c0-15.3,0.3-31,0.1-46.3c-0.2-10.9-2.3-11.8-2.8-20.5
	c-0.7-12,3.1-11.4,2-22.4C174.8-1.8,145.4-0.6,139.6,18.8z"/>
<path class="st2" d="M106.3,141c-16.7,5.9-21.9,17.7-36.1,26.1c-18.6,11-31.9,0.4-31.5-20.3c0.6-25.2,16.7-25.3,36.9-25.7
	c29.2-0.4,95.7-5.5,113.6,9.6c12.7,10.6,11,30.8-2.1,40.4C157.3,192.8,138.3,129.7,106.3,141z M50.3,118.6
	c-34.8,18.9-14,80.6,28.5,49.4c11.9-8.8,24.6-27.7,41.2-22c10.6,3.6,26.5,23.9,38.7,30.6c38.6,20.9,67.4-39.6,21.4-57.3
	C163.5,112.8,62.9,111.7,50.3,118.6L50.3,118.6z"/>
<path class="st3" d="M106.3,141c32-11.3,50.9,51.8,80.8,30.1c13.2-9.6,14.8-29.8,2.1-40.4c-18-15-84.5-10-113.6-9.6
	c-20.2,0.3-36.3,0.5-36.9,25.7c-0.5,20.7,12.9,31.2,31.5,20.3C84.4,158.7,89.7,146.9,106.3,141z"/>
</svg>
