<?xml version="1.0" encoding="utf-8"?>
<!-- Generator: Adobe Illustrator 24.1.2, SVG Export Plug-In . SVG Version: 6.00 Build 0)  -->
<svg version="1.1" id="Слой_1" xmlns="http://www.w3.org/2000/svg" xmlns:xlink="http://www.w3.org/1999/xlink" x="0px" y="0px"
	 viewBox="0 0 234.2 234.2" style="enable-background:new 0 0 234.2 234.2;" xml:space="preserve">
<style type="text/css">
	.st0{fill-rule:evenodd;clip-rule:evenodd;fill:#126F71;}
	.st1{fill-rule:evenodd;clip-rule:evenodd;fill:#EE4823;}
	.st2{fill-rule:evenodd;clip-rule:evenodd;fill:#010101;}
	.st3{fill-rule:evenodd;clip-rule:evenodd;fill:#BBBBBB;}
</style>
<path class="st0" d="M188.6,203.8c23.4-15.6,18.6-86.8,9.9-105.5c-8.6,3.9-5.3,0.9-3.7,13.1c4.3,33,12.4,82.4-26.8,89.8l-12.5,4.3
	C163.2,215.8,184.4,206.6,188.6,203.8z"/>
<path class="st0" d="M195.8,74.8c-10.9,21.3-15.5-3.9-15.1,20.4c13.1,0.8,12.7-2.2,20.3-9l-0.7-25.5l-15.9-2.2
	C189,66,193.5,59.6,195.8,74.8z"/>
<path class="st0" d="M106,100.2c-10.5,0.7-13,3.9-16,11.4c10.5-0.6,25.3,0.7,33.5-3.4C120,102.5,117.1,99.5,106,100.2z"/>
<path class="st0" d="M195,53.6c3.5-3.7,4.8-6.5,3-14.3c-1.6-7.3-3-7-6.9-10.5L195,53.6z"/>
<path class="st0" d="M118.9,96.1c8.3-3.1,3.7,0.3,9-7.8C120.9,91.5,122.2,89.8,118.9,96.1z"/>
<path class="st1" d="M148,213.9c4.2-15.2,18.8-84.7,14.2-98c-6.5-2.6-72.5,1.6-99.2,1c-17.4-0.4-6-1.7-10.9,3.1
	c-4.7,7.4,7.8,79.8,10.1,93.5C92.2,210.6,118,213.1,148,213.9z"/>
<path class="st1" d="M34.6,17.1l142.7-2.4c-13.4-12.3-50.1-6.7-71.4-7C85.5,7.3,45.6,3.5,34.6,17.1z"/>
<path class="st1" d="M159.4,225.9c-9.8-10.2-38.6-7.3-56.1-7.8c-18.7-0.6-41-2.6-52.8,8.2L159.4,225.9z"/>
<path class="st2" d="M50.5,226.3c11.8-10.7,34.1-8.8,52.8-8.2c17.5,0.5,46.3-2.4,56.1,7.8L50.5,226.3z M148,213.9
	c-30-0.8-55.8-3.3-85.7-0.4c-2.3-13.6-14.8-86.1-10.1-93.5c4.9-4.8-6.5-3.5,10.9-3.1c26.7,0.6,92.6-3.7,99.2-1
	C166.8,129.2,152.2,198.8,148,213.9z M180.5,100.5c3.1,2.4-2.9,1.7,7.7,2.6c0,22.2,10.2,66-5.7,84.4c-6,6.9-10.3,8.3-22.6,8.3
	c0-24.4,10.3-47.1,10.3-72c0-15-5.3-2.1-0.4-13.5c0.1-0.3,4.4-5.5,4.4-5.5C178.2,101,174.8,102.5,180.5,100.5z M198.5,98.2
	c8.7,18.8,13.5,89.9-9.9,105.5c-4.2,2.8-25.4,12.1-33.2,1.8l12.5-4.3c39.2-7.4,31.2-56.9,26.8-89.8
	C193.2,99.1,189.9,102.1,198.5,98.2z M123.4,108.2c-8.1,4.1-23,2.9-33.5,3.4c3.1-7.4,5.6-10.7,16-11.4
	C117.1,99.5,120,102.5,123.4,108.2L123.4,108.2z M118.9,96.1c3.3-6.3,2-4.6,9-7.8C122.7,96.4,127.2,93,118.9,96.1L118.9,96.1z
	 M183.1,74.8c2.7-2.8,9.8,4.1,2.9,1.3C185.9,76.1,178.8,79.1,183.1,74.8L183.1,74.8z M195.8,74.8c-2.3-15.1-6.8-8.7-11.4-16.1
	l15.9,2.2l0.7,25.5c-7.6,6.7-7.2,9.8-20.3,9C180.3,70.8,184.8,96.1,195.8,74.8L195.8,74.8z M198,39.4c1.7,7.8,0.4,10.6-3,14.3
	l-3.9-24.7C195.1,32.3,196.4,32.1,198,39.4L198,39.4z M29.3,23.9c11.6-1.3,147.7-3.3,150.2-2.1c10.6,5.4-2.2,44.8-4.2,60.6
	c-5.3,41.8-44.8,24.5-45.8,23.2c-5.9-12.9,17.2-23.5,20.9-41.8c-11.8,3.2-25.5,18.4-34.8,25.7c-16.1,12.7-12.9-5.1-32.7,19.2
	c-4.7,5.7-42.7,10-47.5-22.4C32.5,66.3,27.5,44,29.3,23.9z M34.6,17.1c11-13.6,50.9-9.8,71.3-9.5c21.3,0.3,58-5.2,71.4,7L34.6,17.1z
	 M46.7,113.3c-7.7,16,7.7,78.1,7.7,102.9c-8.9,2.4-7.9,1.4-10.3,10.3c9.8,13.4,37.6,5,59.2,5.1c22,0.1,49,1.6,66.9-2.6
	c-2.1-7.9-4.9-8.1-10.3-12.9c19.2,0,30.3-3.6,39.3-14.7c18.9-23.1,12.4-69.8,7.6-96.7c-4.1-23,2-17.8,2-30.1c0-7.7-2.6-9.5-4-16.5
	c-1.7-8.1-0.2-14.1-1.6-21.5c-1.5-7.9-3.7-8.7-9.3-13.9c-0.6-0.5-2.2-1.9-2.7-2.4l-2.4-2.7C180.9,8.1,176,0.2,149.9,1.2
	c-36,1.5-57-5-102.3,2.4c-17.1,2.8-24.6,9.4-25.4,27.9c-0.6,13.9,4.5,33.2,6,46.2C30.3,95.9,31.2,109.2,46.7,113.3z"/>
<path class="st2" d="M53.4,51.6c3.1,3.8-0.1,5,14,8c-1.7-5.2,0.7-4.7-5.3-8.2C53.6,46.4,53.5,51.5,53.4,51.6z"/>
<path class="st2" d="M152.7,72.2c0.1,0.1-2.9,4.9,8.8,1.8c8.1-2.1,4.4-3.1,5.6-4.4C160.9,66.3,158.2,68.1,152.7,72.2z"/>
<path class="st2" d="M138.8,55.5c7.9-2.8,9.4-3.7,12.7-11C140.3,45.7,141.5,46.6,138.8,55.5z"/>
<path class="st2" d="M44.6,74.8c2.1,1.6-4.3,2.4,7.2,3.2c8,0.6,3.4-0.1,6.7-2.5C52.5,71.7,52,70.1,44.6,74.8z"/>
<path class="st2" d="M41.8,97.9c2.5,1.6-4.1,2.6,7.2,2.3c10.8-0.2,0.6,0.5,5.4-2.3c-4.5-3.5,7.1-3.4-7.4-3
	C36.8,95.3,45,95.5,41.8,97.9z"/>
<path class="st2" d="M73.6,37.4c1.3,7.8-3.5,1.3,2.4,7.8c2.5,2.8,2.2,1.8,6.3,3.5C81.1,40.7,80.1,39.3,73.6,37.4z"/>
<path class="st2" d="M119.4,41.6c2.8-1.4,5.6-2.5,7-10.3c-2.6,1-5,0.1-7.8,4.8C112.8,45.3,118.2,39.7,119.4,41.6z"/>
<path class="st2" d="M159.2,96.8c6.9-1.6,3.8-2.5,5.5-4.7c-8.7-2.7-7.8-1.9-12.1,3.6C155.2,96.6,155.2,97.8,159.2,96.8z"/>
<path class="st2" d="M98.2,38.9c5.8-4.4,5-3.5,2.6-10.4C93.3,32.3,94.7,32,98.2,38.9z"/>
<path class="st3" d="M41.8,97.9c3.2-2.4-5-2.6,5.2-3c14.5-0.4,2.9-0.6,7.4,3c-4.8,2.9,5.4,2.2-5.4,2.3
	C37.7,100.5,44.4,99.5,41.8,97.9z M164.7,92.1c-1.7,2.2,1.4,3.1-5.5,4.7c-4,1-4-0.3-6.6-1.1C156.9,90.3,156,89.5,164.7,92.1z
	 M44.6,74.8c7.4-4.6,7.9-3.1,14,0.7c-3.4,2.4,1.2,3.1-6.8,2.5C40.3,77.2,46.7,76.4,44.6,74.8z M152.7,72.2c5.5-4.1,8.3-5.8,14.4-2.6
	c-1.2,1.4,2.5,2.3-5.6,4.4C149.8,77.1,152.8,72.3,152.7,72.2z M53.4,51.6c0.1-0.1,0.2-5.2,8.7-0.3c6,3.5,3.6,3.1,5.3,8.2
	C53.2,56.7,56.5,55.4,53.4,51.6z M138.8,55.5c2.7-8.9,1.5-9.8,12.7-11C148.2,51.8,146.8,52.7,138.8,55.5z M73.6,37.4
	c6.4,1.9,7.5,3.3,8.8,11.3c-4.1-1.7-3.8-0.7-6.3-3.5C70.2,38.7,75,45.1,73.6,37.4z M119.4,41.6c-1.2-1.9-6.6,3.7-0.8-5.5
	c2.9-4.7,5.2-3.8,7.8-4.8C125,39.1,122.1,40.2,119.4,41.6z M100.7,28.4c2.4,7,3.2,6.1-2.6,10.4C94.7,32,93.3,32.3,100.7,28.4z
	 M29.3,23.9c-1.8,20.1,3.2,42.4,6.1,62.5c4.7,32.4,42.8,28.2,47.5,22.5c19.9-24.3,16.6-6.5,32.7-19.2c9.3-7.3,23-22.6,34.8-25.7
	c-3.8,18.3-26.8,28.8-20.9,41.8c1,1.3,40.5,18.6,45.8-23.2c2-15.8,14.8-55.3,4.2-60.6C177,20.5,40.9,22.5,29.3,23.9z"/>
</svg>
