<?xml version="1.0" encoding="utf-8"?>
<!-- Generator: Adobe Illustrator 24.1.2, SVG Export Plug-In . SVG Version: 6.00 Build 0)  -->
<svg version="1.1" id="Слой_1" xmlns="http://www.w3.org/2000/svg" xmlns:xlink="http://www.w3.org/1999/xlink" x="0px" y="0px"
	 viewBox="0 0 217.6 217.6" style="enable-background:new 0 0 217.6 217.6;" xml:space="preserve">
<style type="text/css">
	.st0{fill-rule:evenodd;clip-rule:evenodd;fill:#BBBBBB;}
	.st1{fill-rule:evenodd;clip-rule:evenodd;}
	.st2{fill-rule:evenodd;clip-rule:evenodd;fill:#FCBE10;}
	.st3{fill-rule:evenodd;clip-rule:evenodd;fill:#127274;}
</style>
<path class="st0" d="M128.5,121.5l5.6,11.6c3.9,6.1,2.6,4.4,7.1,8.8c6.4,6.4,8.8,10.4,18.3,12.8
	C168.3,128.2,155.3,116.5,128.5,121.5z"/>
<path class="st0" d="M23.6,45.5c5-8,6.4-19-5.9-21.7c-2.4,4.3-3.8,6.2-2.8,13.7C16.6,48,14.9,43.9,23.6,45.5z"/>
<path class="st0" d="M153.7,55.2l-1-2.6L142.2,52C155.3,50.9,147.8,51.4,153.7,55.2z"/>
<path class="st0" d="M158.7,46.4l-0.2,0.2L158.7,46.4z"/>
<path class="st0" d="M190.8,47.3l-0.4-0.6L190.8,47.3z"/>
<path class="st0" d="M193.7,64.8l-0.8,0.9L193.7,64.8z"/>
<path class="st0" d="M206.6,99.8l-0.1,0.2L206.6,99.8z"/>
<path class="st0" d="M161.3,172.1l-0.7,0.9L161.3,172.1z"/>
<path class="st1" d="M128.5,121.5c26.8-5,39.7,6.6,31,33.2c-9.5-2.3-11.9-6.4-18.3-12.7c-4.5-4.5-3.2-2.7-7.1-8.8L128.5,121.5z
	 M50.9,13.7l14.1,1c3.6,13.7,3.1,87.7,0.3,102.2L49.8,99.2L50.9,13.7z M43.5,52.9c-6.8-7.5-6.1-23.4-1-30.1
	C46.7,30.9,45.3,43.7,43.5,52.9z M15,37.5c-1.1-7.5,0.4-9.4,2.8-13.7c12.3,2.7,10.9,13.6,5.9,21.7C14.9,43.9,16.6,48,15,37.5z
	 M6.2,35.4c-4.8-4.9,2-1.7,2.1-1.8C11.9,31.2,9.1,38.4,6.2,35.4z M190.8,47.4l-0.4-0.6l2.5,18.9l0.8-0.9l12.8,35.3l0.1-0.2
	c4.4,36.2,4.3,66.4,2.1,103c-14.4,3.9-34,5.4-48.6,0.4c-0.9-16.1,6.1-10.1,1.2-31.1l-0.7,0.9l-0.8-8.8
	c13.2-18.2,14.4-44.2-10.9-48.7c-25.4-4.6-51.5,6.7-76.2,0.7l0.3-101.3c23.4,0,115.9-6.6,130.3-0.1C208,28.1,197.4,33.5,190.8,47.4
	L190.8,47.4z M47.4,7.9c-6.4,7.5-10.1,7.9-14.3,15.6L10.8,19c-2.3,1-24.9,16.3,3.3,30.5c8.3,4.2,13.3,2.8,19.2-0.7l11.5,12.8
	c-3,25.7-9.5,35,11.3,55.4c12.1,11.7,11.5,6.5,26,5.8c12-0.6,25.4,0.2,37.7-0.1c12.1,14.4,12,20,29,35.3c4.6,4.1,4.8,7.7,7.4,19.3
	c3.6,16.3-5.3,11.1-3.9,28.1c14.5,9.6,48.7,9.6,63.1-0.2c9.4-119.8-13.8-125.4-17.9-147.1c-3.2-16.7,10.8-21.7,15.9-39.1
	c-8.1-17.2-14-13.9-32.2-13.8C165.7,5.4,152,4.4,137.4,7C118.7,10.4,69,8.2,47.4,7.9z"/>
<path class="st1" d="M99.7,76.6c12.2-9.4,15.4-4.7,31.1-4.6c31.4,0.2,19.7-5.6,23.2,3.2L99.7,76.6z M142.2,52l10.5,0.5l1,2.6
	c-15,1.5-43,7.1-54.8-1.5L142.2,52z M158.7,46.4l-0.2,0.2l-64,2.1c-4.2,14.7-2.8,12.4,9.6,17l-9.9,4.7l2,13l64.5-3.3l-2.3-15.7
	l-36.1,1.2l37.8-7.2L158.7,46.4z"/>
<path class="st1" d="M93.6,36.6c12.8-6.2,46.4-8,60.7-3.6C147.2,40.1,104.8,38.8,93.6,36.6z M87.7,34.7c4.4,15.2,19.8,8.2,34.8,8
	c13.6-0.2,26.2,2.2,37.2-3.6l-0.5-13.9c-13.7-0.9-26.1-1.2-39.9,0.5C87.4,29.5,92.6,25.7,87.7,34.7z"/>
<path class="st2" d="M158.5,46.6l0.2-0.2l1.3,11.9l-37.8,7.2l36.2-1.1l2.3,15.6l-64.5,3.3l-2-13l9.9-4.7c-12.4-4.5-13.7-2.3-9.6-17
	L158.5,46.6z M87.7,34.7c4.9-9-0.2-5.2,31.5-9c13.8-1.6,26.2-1.4,39.9-0.5l0.5,13.9c-11,5.8-23.6,3.4-37.2,3.6
	C107.5,42.9,92,49.9,87.7,34.7z M160.6,173.1l0.7-0.9c4.9,21-2.1,15-1.2,31.1c14.6,5,34.2,3.4,48.6-0.4c2.2-36.6,2.4-66.8-2.1-103
	l-0.1,0.2l-12.8-35.3l-0.8,0.9l-2.5-18.9l0.4,0.6c6.5-13.8,17.1-19.2,12.6-32.5c-14.4-6.5-106.9,0-130.3,0.1l-0.3,101.3
	c24.7,6,50.7-5.3,76.2-0.7c25.3,4.6,24.1,30.6,10.9,48.7L160.6,173.1z"/>
<path class="st2" d="M93.6,36.6c11.3,2.2,53.6,3.5,60.7-3.6C140,28.6,106.4,30.4,93.6,36.6z"/>
<path class="st2" d="M153.7,55.2c-5.9-3.8,1.6-4.3-11.5-3.1l-43.3,1.6C110.7,62.3,138.7,56.7,153.7,55.2z"/>
<path class="st2" d="M99.7,76.6l54.3-1.3c-3.5-8.8,8.2-3-23.2-3.2C115.1,71.9,111.9,67.2,99.7,76.6z"/>
<path class="st2" d="M43.5,52.9c1.8-9.2,3.2-22-1-30.1C37.5,29.5,36.7,45.4,43.5,52.9z"/>
<path class="st2" d="M6.2,35.4c3,3,5.8-4.1,2.1-1.8C8.2,33.6,1.4,30.5,6.2,35.4z"/>
<path class="st3" d="M49.8,99.2l15.5,17.7c2.8-14.5,3.3-88.6-0.3-102.2l-14.1-1L49.8,99.2z"/>
</svg>
