<?xml version="1.0" encoding="utf-8"?>
<!-- Generator: Adobe Illustrator 24.1.2, SVG Export Plug-In . SVG Version: 6.00 Build 0)  -->
<svg version="1.1" id="Слой_1" xmlns="http://www.w3.org/2000/svg" xmlns:xlink="http://www.w3.org/1999/xlink" x="0px" y="0px"
	 viewBox="0 0 247.5 247.5" style="enable-background:new 0 0 247.5 247.5;" xml:space="preserve">
<style type="text/css">
	.st0{fill-rule:evenodd;clip-rule:evenodd;}
	.st1{fill-rule:evenodd;clip-rule:evenodd;fill:#BBBBBB;}
	.st2{fill-rule:evenodd;clip-rule:evenodd;fill:#FCBE10;}
	.st3{fill-rule:evenodd;clip-rule:evenodd;fill:#C46528;}
</style>
<path class="st0" d="M50.5,203.2l-4.6-12.9c6.9-10.2,20.3-27.5,30.8-31.8l5.5,7.7C74.3,181,59.5,182,57.6,200.7
	c10.3-4.3,18.6-20.7,30.2-27.1c11.7,7.4,25.1,15.6,31.5,27.1c-7.1,24.9-84.4,47.8-102.2,35.9c-10.3-6.9-11.1-51.4-8.2-63.9
	c3.6-15.1,16.3-38.8,30.6-44c10.4,4,20.5,17.4,28.8,25.9C63.1,163.2,19.6,198.6,50.5,203.2z M79.6,152.5
	c8.5-12.5,88.9-91.3,98.6-95.6c8.3,8.6-5.5,18.1-14.4,27.6c-24.3,25.8-49.6,53.8-76.2,77.3L79.6,152.5z M186.7,53.7
	c-12-3.8-20.6-1.3-21.5-18.7c-0.6-11,6.6-19.6,13.6-26.2c20.9-2.8,53.3,18.1,61.2,36.8C230.1,68.7,194.7,82.5,186.7,53.7z
	 M167.4,55.6L95,125.3c-8.4,8.4-14.6,17.7-22.5,24.3c-9.3-9.2-21.8-28.1-35.7-26.3c-23.5,6.4-32.7,40.8-36.5,62.6
	c-1.7,10,2.7,30.2,4.5,41.5c6.7,40.2,87.6,6.4,106.3-5.7c34.6-22.3-0.7-38.9-18.5-52.8c2.6-9.5,11.7-15.7,22.3-26.3
	c9.6-9.6,15.1-14.1,25.4-22.7c15.5-13,32.2-40,45.9-50.3c19.3,5.2,37.5,17.5,61.2-22.1c-7.6-17.1-5.8-16.7-22-27.4
	c-30.8-20.4-47.7-29.6-63.1-1C154.7,33.5,158.3,42.6,167.4,55.6z"/>
<path class="st0" d="M184.5,30l36,19.2c-2.6,2.3,3.8,0-3.8,3.1C202.2,58,183,46.8,184.5,30z M186.7,53.7c20,5.3,28.7,12.8,46.1-5.3
	c-10-8.4-13.6-9.2-26.9-11.3l-4.1-9.1c-14.3,0.9-11.6-4.3-15.5-8.6c-3.6-4.1-0.3-1.4-4.9-3C171.3,37.1,178.6,37.7,186.7,53.7
	L186.7,53.7z"/>
<path class="st1" d="M50.5,203.2c-30.9-4.6,12.6-40.1,17.7-48.6c-8.2-8.4-18.3-21.9-28.7-25.8c-14.3,5.2-27.1,28.9-30.6,44
	c-2.9,12.5-2.1,57,8.2,63.9c17.8,11.9,95.1-11,102.2-35.9c-6.4-11.5-19.8-19.7-31.5-27.1c-11.5,6.4-19.9,22.9-30.2,27.1
	c1.8-18.7,16.7-19.7,24.6-34.5l-5.5-7.7c-10.5,4.3-24,21.6-30.8,31.8L50.5,203.2z"/>
<path class="st2" d="M186.7,53.7c-8.1-15.9-15.4-16.5-5.3-37.4c4.6,1.6,1.3-1.1,4.9,3c3.9,4.4,1.2,9.5,15.5,8.6l4.1,9.1
	c13.3,2.1,16.9,2.9,26.9,11.3C215.4,66.5,206.7,59,186.7,53.7z M186.7,53.7c8,28.8,43.5,15,53.3-8.1C232,26.8,199.7,5.9,178.8,8.8
	c-7.1,6.5-14.2,15.2-13.6,26.2C166.1,52.3,174.6,49.9,186.7,53.7z"/>
<path class="st3" d="M79.6,152.5l8,9.2c26.6-23.6,51.9-51.5,76.2-77.3c8.9-9.5,22.7-19,14.4-27.6C168.5,61.2,88.1,139.9,79.6,152.5z
	"/>
</svg>
