<?xml version="1.0" encoding="utf-8"?>
<!-- Generator: Adobe Illustrator 24.1.2, SVG Export Plug-In . SVG Version: 6.00 Build 0)  -->
<svg version="1.1" id="Слой_1" xmlns="http://www.w3.org/2000/svg" xmlns:xlink="http://www.w3.org/1999/xlink" x="0px" y="0px"
	 viewBox="0 0 230.4 230.4" style="enable-background:new 0 0 230.4 230.4;" xml:space="preserve">
<style type="text/css">
	.st0{fill-rule:evenodd;clip-rule:evenodd;fill:#126F71;}
	.st1{fill-rule:evenodd;clip-rule:evenodd;fill:#127072;}
	.st2{fill-rule:evenodd;clip-rule:evenodd;fill:#010101;}
	.st3{fill-rule:evenodd;clip-rule:evenodd;fill:#127173;}
	.st4{fill-rule:evenodd;clip-rule:evenodd;fill:#010202;}
	.st5{fill-rule:evenodd;clip-rule:evenodd;fill:#14B3B5;}
	.st6{fill-rule:evenodd;clip-rule:evenodd;fill:#D3E2E2;}
	.st7{fill-rule:evenodd;clip-rule:evenodd;fill:#084E50;}
	.st8{fill-rule:evenodd;clip-rule:evenodd;fill:#109799;}
</style>
<path class="st0" d="M135,27c9.2,9.5,42.3,4.3,51.9-3.1c-2.3-14.4-9.7-10-23-7.4C153.9,18.4,141.3,18.6,135,27z"/>
<path class="st0" d="M175.3,147.2c5.5,13.3,38.2,8.5,48.6,2.2l-2.4-12C211.2,138.8,180.6,142.2,175.3,147.2z"/>
<path class="st1" d="M20.6,24.8l4.8,9.5c13.5,3.4,44.9,5.8,54-4.6c-2.9-6.9,0.2-6.6-11.8-8C53.3,20,26.5,16.6,20.6,24.8z"/>
<path class="st1" d="M110.5,43c5.5-18.1,2.2-3.4,8.4-16.4c-12.3-3.1-14.9-6.2-24.9,3c5.1,12.9,7.8,2.1,12.7,21.3L110.5,43z"/>
<path class="st2" d="M185.2,208.3l-3-5.6l5.8,3.3c9.9-2,7.9-1.6,15.3-8.7l0.8-15.4C234.7,208.9,194.5,227.4,185.2,208.3z
	 M187.8,198.8c1.6-9.6,1.8-10.6,10.3-13.9C197.8,195.9,198.2,196.3,187.8,198.8L187.8,198.8z M204,181.9l-5.3-7.4L204,181.9z
	 M222.5,198c-2.1-7.7-15.3-28.6-24.3-32.3c-5.4,5-8.2,13.9-13.6,21.1C154.9,226.5,221.6,237.5,222.5,198L222.5,198z"/>
<path class="st2" d="M135,27c6.3-8.4,18.9-8.6,28.9-10.5c13.3-2.6,20.7-7,23,7.4C177.2,31.3,144.1,36.5,135,27z M129,21.6l1.9,13.5
	c14.2,6,45.7,0.5,59.6-2.8c5-20.8,3.4-30-32.1-21.3C144.4,14.4,139.2,12.6,129,21.6L129,21.6z"/>
<path class="st3" d="M133.3,72l7.2,41.7c58.5,4.1,30,13.3,47.2,22.9l25.6-3.3c1.7-11.8-3-52-12-58.6C189.7,66.1,149.2,71.4,133.3,72
	z"/>
<path class="st3" d="M9.5,81.2C5.7,93,3.7,110.5,13,119c15.3,5.1,56.6-0.2,74.4-2.6l-4.8-37.3C66.2,80.8,19.1,76.5,9.5,81.2z"/>
<path class="st3" d="M90.6,76.8c-2.3,11.1,0.4,31.4,6.1,41c11.6,6.9,24.3,4.8,34.4-2.8c3-17.3,1.1-29.9-7.1-45.2
	C109.3,76.3,105.6,73.5,90.6,76.8z"/>
<path class="st4" d="M175.3,147.2c5.4-5,35.9-8.4,46.3-9.8l2.4,12C213.5,155.8,180.8,160.5,175.3,147.2z M9.5,81.2
	c9.7-4.7,56.7-0.4,73.2-2.1l4.8,37.3c-17.9,2.4-59.2,7.6-74.4,2.6C3.7,110.5,5.7,93,9.5,81.2L9.5,81.2z M90.6,76.8
	c15-3.3,18.7-0.5,33.4-6.9c8.2,15.2,10.1,27.8,7.1,45.1c-10,7.6-22.8,9.7-34.4,2.8C91,108.2,88.3,87.9,90.6,76.8L90.6,76.8z
	 M133.2,72c15.9-0.6,56.5-5.9,68.1,2.7c9,6.7,13.7,46.8,12,58.6l-25.6,3.3c-17.3-9.6,11.3-18.8-47.2-22.9L133.2,72z M110.2,59.1
	c-11.6,1-14.8,7.1-21.4,13.4c-19.9,0-27.1,3.6-46,0.5C24.2,70,15,71,0.6,80.4c0,18.1-5.3,40.8,14.8,46.7c9.7,2.8,47.7-0.8,58.4-2.8
	c25.7-4.8,26.5,12,54,0.6c15-6.2,39.7-8,49.2,6.4c-2.5,9.2-2.4,5.4-8.3,13.1l2.1,13.7c14.9,6.4,46.1,3.3,59.5-2.8v-18.7l-10.7-8
	c0-77-23.9-64.4-72.2-64.2C129.7,64.4,125.3,69.5,110.2,59.1L110.2,59.1z"/>
<path class="st4" d="M106.8,50.9c-4.9-19.1-7.6-8.4-12.8-21.3c10-9.2,12.6-6.2,24.9-3c-6.2,12.9-2.9-1.7-8.4,16.4L106.8,50.9z
	 M79.3,29.7c-9.1,10.4-40.5,8-54,4.6l-4.7-9.5c5.9-8.1,32.7-4.7,46.9-3.1C79.6,23.1,76.5,22.8,79.3,29.7z M110.2,59.1l8.1-2.5
	c-0.1-17.5-1.8-10.5,8.9-28.9c-11.2-15.1-28-12.4-39.1-1.4c-0.3-0.4-0.8-1.6-0.9-1.2s-0.8-1-1-1.3C74.4,10.9,32.7,9.5,14,19
	c0,39.1,64,23.2,74.8,16c9.7,14.8,5.8-0.5,12.5,19.6L110.2,59.1z"/>
<path class="st5" d="M187.9,206l-2.7,2.3c9.3,19.1,49.5,0.6,18.7-26.4l-0.8,15.4C195.8,204.4,197.9,204,187.9,206z"/>
<path class="st6" d="M187.8,198.8c10.4-2.5,10-2.9,10.3-13.9C189.7,188.2,189.4,189.2,187.8,198.8z"/>
<polygon class="st7" points="185.2,208.3 187.9,206 182.2,202.7 "/>
<path class="st8" d="M204,181.9l-5.3-7.4L204,181.9z"/>
</svg>
