<?xml version="1.0" encoding="utf-8"?>
<!-- Generator: Adobe Illustrator 24.1.2, SVG Export Plug-In . SVG Version: 6.00 Build 0)  -->
<svg version="1.1" id="Слой_1" xmlns="http://www.w3.org/2000/svg" xmlns:xlink="http://www.w3.org/1999/xlink" x="0px" y="0px"
	 viewBox="0 0 245.4 245.4" style="enable-background:new 0 0 245.4 245.4;" xml:space="preserve">
<style type="text/css">
	.st0{fill-rule:evenodd;clip-rule:evenodd;fill:#B7B7B7;}
	.st1{fill-rule:evenodd;clip-rule:evenodd;fill:#030303;}
	.st2{fill-rule:evenodd;clip-rule:evenodd;fill:#D5E4E4;}
</style>
<path class="st0" d="M99.1,72c-18-46.4,48.1-62.6,76.8-31.6C212.3,79.7,134.8,96.3,99.1,72z M85.2,23.6C84,35.6,81.6,38.3,74,45.4
	l13.6,16.2l-9.3,8.6c31.2,19.2,51.9,20,87.5,24.2c3.5-2.5,6.4-5.3,9.2-7.4c8.2-6.1,5.9-2.2,10.7-5.3c11.5-7.4-6.9-0.4,17-14.6
	c1.1-18.9,0.4-10.3,7.8-24.3l-20.1-9l-5.2-16.1l-20,1.3L154.5,8c-32.3,7.1-16.6,0.9-42.4,0.2C97.1,20.5,108.2,23.8,85.2,23.6z"/>
<path class="st0" d="M128.8,31.3C113.6,34.1,95.1,49,103.1,65c5.2,10.4,40.7,13.7,51.7,12.5C201.1,72.3,170.3,23.6,128.8,31.3z"/>
<path class="st0" d="M35.4,114.1c19.7,5.9,55.1,5.8,76.7,6c17.1,0.2,61.3,4.1,69.3-13.2C168.8,92.1,56.4,88.2,35.4,114.1z"/>
<path class="st0" d="M179.2,120.3c-102.5,9.9-82.7-0.5-146.1,1c14.5,16.4,127.2,15.1,140.3,6.8C183.4,121.8,177.3,125.3,179.2,120.3
	z"/>
<path class="st0" d="M159.3,228.3c-26.1-1-97.2,13.8-115.8-8.1C44.5,255.1,139.2,233.5,159.3,228.3z"/>
<path class="st1" d="M43.6,220.2c18.6,21.9,89.6,7.1,115.8,8.1C139.2,233.5,44.5,255.1,43.6,220.2z M40,133.6
	c37.3,4.4,104.2,13.6,138.5-1.6c2.7,13.3,7.9,69.5,3.1,78.5c-16.8,20.3-109.7,19.6-132.4,7.5L40,133.6z M179.2,120.3
	c-2,4.9,4.2,1.4-5.8,7.8c-13.1,8.3-125.8,9.6-140.3-6.8C96.6,119.8,76.8,130.2,179.2,120.3z M35.4,114.1c21-26,133.4-22,146-7.2
	c-8,17.2-52.2,13.3-69.3,13.2C90.5,119.9,55.1,120,35.4,114.1z M85.2,23.6c22.9,0.2,11.8-3.1,26.9-15.4c25.8,0.6,10.2,6.8,42.4-0.2
	l10.7,11l20-1.3l5.2,16.1l20.1,9c-7.3,14-6.7,5.4-7.8,24.3c-23.8,14.2-5.4,7.1-17,14.6c-4.8,3.1-2.5-0.8-10.7,5.3
	c-2.9,2.2-5.8,4.9-9.2,7.4c-35.6-4.2-56.3-5-87.5-24.2l9.3-8.6L74,45.4C81.6,38.3,84,35.6,85.2,23.6z M77.4,16l-0.2,18l-12.8,6
	c1.4,7.1,7.5,14.3,12.5,19.6c-6,8.6-5.4,2.6-4.2,14.4l25.9,12.9c-27.1,2.9-56.5,4.5-72.1,28c-2.2,7.5,5.3,10.7,8.1,34.6
	c1.4,12.2,2.8,26,4.7,38.1c4.2,26.2-17.7,46.7,19.8,55c33.4,7.4,116.8,0.6,135.8-28.9c-3.4-12.6-5.3-3.4-5.5-21.2
	c-0.3-31.4-9-60.1,3.3-80.3l-14.6-17c-0.2-0.2-0.8-0.7-1.2-1c6.9-7.1,7.3-4.8,16.2-7.8c8-21.9,5.2-3.2,15.1-17
	c9.1-15.9-11.1,2.5,10.9-26.5c-7-10.6-11.6-9.7-23.8-14.1l-4.7-16c-12.3-4.1-12.6,0.9-24.4-0.2c-5.4-7.5-3.2-2-3.4-12.7
	c-17.1,0-12.7,3.9-24.2,5.3c-12.2,1.5-17-4.6-23.9-4.4c-7.2,0.2-11,7-16.1,12.4C91.9,20.5,90,16.1,77.4,16z"/>
<path class="st1" d="M128.8,31.3c41.5-7.7,72.3,41.1,26.1,46.3c-11,1.2-46.5-2.1-51.7-12.5C95.1,49,113.6,34.1,128.8,31.3z M99.1,72
	c35.6,24.2,113.2,7.6,76.8-31.6C147.2,9.4,81.1,25.6,99.1,72z"/>
<path class="st2" d="M49.2,218c22.7,12.1,115.6,12.8,132.4-7.5c4.8-8.9-0.4-65.1-3.1-78.5C144.2,147.2,77.3,138,40,133.6L49.2,218z"
	/>
</svg>
