<?xml version="1.0" encoding="utf-8"?>
<!-- Generator: Adobe Illustrator 24.1.2, SVG Export Plug-In . SVG Version: 6.00 Build 0)  -->
<svg version="1.1" id="Слой_1" xmlns="http://www.w3.org/2000/svg" xmlns:xlink="http://www.w3.org/1999/xlink" x="0px" y="0px"
	 viewBox="0 0 246.4 246.4" style="enable-background:new 0 0 246.4 246.4;" xml:space="preserve">
<style type="text/css">
	.st0{fill-rule:evenodd;clip-rule:evenodd;fill:#D5E2E2;}
	.st1{fill-rule:evenodd;clip-rule:evenodd;fill:#EE4823;}
	.st2{fill-rule:evenodd;clip-rule:evenodd;fill:#010000;}
</style>
<path class="st0" d="M129.2,185.6c-1-10.5-4.5-48.9,1.7-58.2c9,5.1,4.8,5.5,5.8,17.9c26-0.7,24.5,25.9,16.2,38.8
	C147.9,186.4,135.6,186.2,129.2,185.6z M98.8,186c-4.8-11.7-8.1-31.3,0.1-39.3c8.6,10.5,1.8,22.3,7.8,31.9
	c14.1-7.1,0.3-18.3,8.3-32.7l5.8,0.3c4.3,10.4,4.2,30.4,0.3,41.3L98.8,186z M164.1,146.7c11.9-5.4,16.2-4.2,25.2,4.7l-0.1,17.2
	l-17.6,0.9l0.4,10.6c15.6-1.1,2-6.7,16.5-5.4c-1,15.4-25.7,17.1-27.5-1.4C160.1,164.8,161.9,154.9,164.1,146.7L164.1,146.7z
	 M57.8,131.3c4-2.3,0.9-1.7,6.4-2.9l39.7,0.1l-0.1,8.5l-17.2,2.1c-0.2,37.1,9.7,49.1-8.7,48.9L76.3,140
	C62.1,135.4,61.7,143.3,57.8,131.3z M203.4,181.1c24.5-93.4-58.3-73.5-117.9-73.2c-19.3,0.1-36.2,3.7-43.1,22.5
	c-3.8,10.4-4.1,51.2,0.7,60.6c8.2,15.8,36.7,13.9,53.1,13.2C150.8,201.7,193.7,218.1,203.4,181.1L203.4,181.1z"/>
<path class="st0" d="M123.1,68.3l4.8-0.1c5.2,7.5,6.7,19.9-4.4,23.6C118.7,85.7,118,74.8,123.1,68.3z M112.7,97.5
	c15.9,6.2,19.6,3.8,29.5-7.7l4.9,9.9l22.8-0.1c1.6-8.7,1.4-15.9,1.2-24.5c-0.4-11.7,1.7-16.1-9.9-16.8c-3.7,28,6.1,26.5-6.4,32.5
	L149,59.4c-10.1,5.5-6.4,3.7-8.1,15.8C125.9,38.4,101.3,62.5,112.7,97.5z"/>
<path class="st0" d="M88.9,99.6l12.3,0.9l0.3-33.1c8-9.3,19.5-18.3,23.3-29.8L112.2,34L95.1,54.5C85.3,42.4,86,36,69.8,35.2
	C69.5,50.4,76.3,50,83.8,61.6C91.1,72.7,87.4,87,88.9,99.6z"/>
<path class="st0" d="M144.3,176c4.2-6.8,4.3-15.4,0.2-22.3c-8,1.1-8.2-1.9-8.3,9.6C136.3,173,137,173.2,144.3,176z"/>
<path class="st0" d="M171.6,158.2c7.8,5.8,4.4,3.9,10,0.1C177,150.9,175.9,149,171.6,158.2z"/>
<path class="st1" d="M203.4,181.1c-9.7,37.1-52.6,20.6-107.2,23.1c-16.4,0.7-44.9,2.6-53.1-13.2c-4.8-9.4-4.5-50.2-0.7-60.6
	c6.9-18.8,23.8-22.4,43.1-22.5C145.1,107.6,227.9,87.6,203.4,181.1z M112.7,97.5c-11.4-34.9,13.2-59.1,28.2-22.2
	c1.7-12.1-2-10.3,8.1-15.8l5.8,31.3c12.5-6,2.7-4.4,6.4-32.5c11.6,0.7,9.5,5.1,9.9,16.8c0.3,8.5,0.5,15.8-1.2,24.5l-22.8,0.1
	l-4.9-9.9C132.3,101.3,128.6,103.7,112.7,97.5z M88.9,99.6c-1.4-12.7,2.2-27-5.1-38C76.3,50,69.5,50.4,69.8,35.2
	c16.2,0.8,15.6,7.3,25.3,19.4L112.2,34l12.7,3.7c-3.8,11.5-15.3,20.5-23.3,29.8l-0.3,33.1L88.9,99.6z M100.7,18.4
	C24.8,32.5-1,72.2,6.1,145.4c12.8,131.8,258.8,108.3,232.2-42.7C226.3,34.6,172.2,5.1,100.7,18.4z"/>
<path class="st1" d="M136.3,163.3c0-11.5,0.3-8.5,8.3-9.6c4.1,6.9,4,15.5-0.2,22.3C137,173.2,136.3,173,136.3,163.3z M129.2,185.5
	c6.4,0.6,18.7,0.8,23.7-1.4c8.3-12.9,9.8-39.5-16.2-38.8c-1.1-12.4,3.2-12.8-5.8-17.9C124.7,136.6,128.2,175,129.2,185.5
	L129.2,185.5z"/>
<path class="st1" d="M57.8,131.3c3.8,12,4.3,4.1,18.5,8.7l1.6,48.1c18.4,0.1,8.6-11.8,8.7-48.9l17.2-2.1l0.1-8.5l-39.7-0.1
	C58.7,129.6,61.8,128.9,57.8,131.3z"/>
<path class="st1" d="M181.6,158.3c-5.6,3.8-2.2,5.7-10-0.1C175.9,149,177,150.9,181.6,158.3z M164.1,146.7c-2.2,8.2-3.9,18-3.1,26.6
	c1.8,18.5,26.4,16.9,27.5,1.4c-14.5-1.3-0.9,4.3-16.5,5.4l-0.4-10.6l17.6-0.9l0.1-17.2C180.3,142.5,176,141.3,164.1,146.7z"/>
<path class="st1" d="M98.8,186l22.3,1.5c3.8-10.9,4-30.9-0.3-41.3l-5.8-0.3c-8,14.5,5.7,25.6-8.3,32.7c-5.9-9.6,0.8-21.4-7.8-31.9
	C90.7,154.7,94,174.3,98.8,186z"/>
<path class="st1" d="M123.1,68.3c-5.2,6.5-4.4,17.4,0.4,23.5c11.2-3.7,9.7-16.1,4.4-23.6L123.1,68.3z"/>
<path class="st2" d="M100.7,18.4c71.5-13.3,125.6,16.2,137.6,84.3C264.9,253.7,18.9,277.1,6.1,145.4C-1,72.2,24.8,32.5,100.7,18.4z
	 M109.6,12.2c-6.8,1.5-13.1-2.5-47.8,10.4C1.7,44.8,0.2,89.7,0,138.2c-0.3,80,77.5,107.1,137.4,96.9
	c74.8-12.8,114.2-50.9,108.5-127.2c-1.9-25.1-18.2-60.1-39.6-76.1c-16.9-12.7-45.3-22-67.2-22.3C115.7,9.2,125.1,8.6,109.6,12.2z"/>
</svg>
