<?xml version="1.0" encoding="utf-8"?>
<!-- Generator: Adobe Illustrator 24.1.2, SVG Export Plug-In . SVG Version: 6.00 Build 0)  -->
<svg version="1.1" id="Слой_1" xmlns="http://www.w3.org/2000/svg" xmlns:xlink="http://www.w3.org/1999/xlink" x="0px" y="0px"
	 viewBox="0 0 234.4 234.4" style="enable-background:new 0 0 234.4 234.4;" xml:space="preserve">
<style type="text/css">
	.st0{fill-rule:evenodd;clip-rule:evenodd;fill:#F5841F;}
	.st1{fill-rule:evenodd;clip-rule:evenodd;fill:#010000;}
	.st2{fill-rule:evenodd;clip-rule:evenodd;fill:#127173;}
	.st3{fill-rule:evenodd;clip-rule:evenodd;fill:#EA4622;}
	.st4{fill-rule:evenodd;clip-rule:evenodd;fill:#060401;}
	.st5{fill-rule:evenodd;clip-rule:evenodd;fill:#D5E3E3;}
</style>
<path class="st0" d="M108.1,80.2c-8-28.2,31.5-42.4,39.2-14.2C154.6,92.6,116.5,109.8,108.1,80.2z M135.3,160.4l14.1,19.1l17.9-10.8
	c-5.5-23.5-23.1-22.7-10.3-54c8.6-21.2,21.1-32.9,10.6-58.3c-37.1-89.7-176.1-40-136,61.1C55.9,178.8,119,159.6,135.3,160.4z"/>
<path class="st1" d="M154.9,187.6c4.2-6.9,20.9-18.5,28.6-21.2c10.9,3.4,21.8,14.4,23.1,26.2c-7.9-5-11.6-18.8-21.4-19.5
	c0.8,11.6,37.9,40.2,15.6,52.6C184.9,234.6,157.4,199.8,154.9,187.6z M99.2,0h21.1c17.1,1.8,33.6,8.1,46.8,19.4
	c24.4,20.8,30.3,52.7,15.9,81.3c-7.1,14.1-15.9,28.8-11.8,45.6c4.3,17.7,17.3,10.1,31.2,24.9c25.6,27.4,11.3,76.8-19.5,59.6
	c-27.5-15.4-33-44.5-50.9-64.1c-34.2,3-57.7,9.6-86.5-17.7c-23.1-21.9-31-54.3-24.5-84.8C29.1,26.6,63.2,3.8,99.2,0z M160.9,141.9
	c-9.1-30.1,24.1-41.8,14.7-80.1c-8.2-33.5-25.8-35.1-45.9-52.4c26.1,1.4,49.8,27.4,53.7,52.5c2.8,17.8-1.4,28-9.5,43
	C166,119.8,164.9,133.7,160.9,141.9z M135.3,160.4c-16.3-0.8-79.4,18.4-103.7-42.9c-40.1-101.1,98.8-150.8,136-61.1
	c10.5,25.4-2,37.1-10.6,58.3c-12.8,31.3,4.8,30.5,10.3,54l-17.9,10.8L135.3,160.4z"/>
<path class="st2" d="M154.9,187.6c2.5,12.2,30,46.9,45.9,38.1c22.3-12.4-14.9-41-15.6-52.6c9.9,0.7,13.6,14.5,21.4,19.5
	c-1.3-11.8-12.2-22.8-23.1-26.2C175.8,169.1,159.1,180.7,154.9,187.6z"/>
<path class="st3" d="M160.9,141.9c4-8.1,5.1-22.1,13-36.9c8.1-15.1,12.3-25.2,9.5-43c-3.9-25.2-27.6-51.2-53.7-52.6
	c20,17.3,37.6,18.9,45.9,52.4C185,100.1,151.8,111.7,160.9,141.9z"/>
<path class="st4" d="M125.1,90.2c-21.6-11.4-10-35.3,4.8-33.4C144.3,58.8,149.5,83.6,125.1,90.2z M108.1,80.2
	c8.4,29.6,46.5,12.4,39.2-14.2C139.6,37.8,100.1,52,108.1,80.2L108.1,80.2z"/>
<path class="st5" d="M125.1,90.2c24.5-6.6,19.2-31.5,4.8-33.4C115.1,54.9,103.4,78.9,125.1,90.2z"/>
</svg>
