<?xml version="1.0" encoding="utf-8"?>
<!-- Generator: Adobe Illustrator 24.1.2, SVG Export Plug-In . SVG Version: 6.00 Build 0)  -->
<svg version="1.1" id="Слой_1" xmlns="http://www.w3.org/2000/svg" xmlns:xlink="http://www.w3.org/1999/xlink" x="0px" y="0px"
	 viewBox="0 0 239.8 239.8" style="enable-background:new 0 0 239.8 239.8;" xml:space="preserve">
<style type="text/css">
	.st0{fill-rule:evenodd;clip-rule:evenodd;fill:#B8B8B8;}
	.st1{fill-rule:evenodd;clip-rule:evenodd;fill:#040404;}
	.st2{fill-rule:evenodd;clip-rule:evenodd;fill:#EC4722;}
	.st3{fill-rule:evenodd;clip-rule:evenodd;fill:#D5E3E3;}
</style>
<path class="st0" d="M106,34.8c4.9,6.4-3.1,1.9,6.8,7.2l28.2,11.8c7.7,3.9,27.6,15.6,34.6,13.4c6-10.3,1.8-40-3.1-52.8
	C163.1,14.3,111.9,29.1,106,34.8z"/>
<path class="st0" d="M72.3,50.3l27.3,2c0.1-15,4.8-43.2-16.4-41C63.9,13.3,70.2,36.2,72.3,50.3z"/>
<path class="st0" d="M64.6,68.3c16.7-7.7,29.5-6.5,46.3,0.4c-1.1-15-33.5-13.1-47.3-11.7L64.6,68.3z"/>
<path class="st0" d="M50.9,37.5c8.3,4.2,6.4,3.8,13.5,0.2l-0.8-8.2C54.6,30.1,53.1,29.3,50.9,37.5z"/>
<path class="st1" d="M25.5,226.9c13.1-6.7,98.5-0.2,122.6-1.3c-1.7,10.5-36.3,6.9-57.5,6.9S32.1,235.9,25.5,226.9z M139.2,219.8
	l-105.9-3.4c-4.1-30.2-7-66.2,0.2-94.5c5.8-22.7,23.7-50.3,49.1-52.7C150.7,63,139.2,176.7,139.2,219.8z M64.6,68.3L63.7,57
	c13.8-1.4,46.1-3.3,47.3,11.7C94.2,61.8,81.3,60.5,64.6,68.3z M106,34.8c5.8-5.6,57.1-20.4,66.5-20.4c4.9,12.8,9.1,42.5,3.1,52.8
	c-6.9,2.1-26.9-9.5-34.6-13.4l-28.2-11.8C103,36.6,110.9,41.1,106,34.8z M72.3,50.3c-2.1-14.1-8.4-37,10.8-39
	c21.2-2.2,16.5,26,16.4,41L72.3,50.3z M64.4,37.7c-7.1,3.6-5.2,4-13.5-0.2c2.1-8.1,3.6-7.4,12.7-8L64.4,37.7z M42.5,37.4
	c7.5,11.4,7.3,7.5,20.9,8.5c-1.8,11.2-2.8,2.8-6.3,11.4c-1.9,4.7-1.2,10.8-1.9,16.8C36.6,93,30.4,103.4,25.3,129.8
	c-4.5,23.1,1.2,81.3,1.2,81.3c-3.7,9.8-0.7,1.3-8.3,10.5c0.6,13,6.5,17.9,19.2,18.2l37.1-1.9c78.5,0,76.5,8.2,83.1-16.3
	c-13.7-10.6-7,3.8-10.9-7.8c-5.2-31.1,7.1-125.1-28.9-139.4c-1.6-32-4.1-7.8-11.1-26.3c23,2,55.1,31.9,75.7,25
	c5.4-16.2,3.4-51.3-6.9-64.4c-16.8-1.9-49.8,14.9-71.5,15.4c-0.5-26.1-27-24.7-39.2-7.2C56.3,29.1,47.5,19.2,42.5,37.4z"/>
<path class="st1" d="M51.7,131.6c0.7-0.4,1.5-0.8,2.2-1.1c8.5-2.6,50.7-1.8,59.1,2.6l4.9,51.4l-59.8,5.1L51.7,131.6z M117.2,191.8
	c7.5-1.3,0.5,1.1,7.1-3l-5.6-59.4c-11.3-8.7-57.2-7.3-72.7-5.7c-0.9,10.5,3.8,60,7.1,68.4c10.3,6.1,23.1,2.3,35.2,1L117.2,191.8z"/>
<path class="st1" d="M78.1,173c-7.6-11.5-5.4-17.5,4.7-24.8c6,8.7,13.1,16.9,7.3,25.5c-7.6-5.4-1.7-2.1-8.8-11.7L78.1,173z
	 M97.4,175.5c2.5-12.4-6.2-29.6-12.1-39.3C49.2,163.5,77,193.8,97.4,175.5L97.4,175.5z"/>
<path class="st1" d="M221.6,74.8c-2.2-8.2-15.7-13.7-24.1-16C198.8,70.6,209.5,74.6,221.6,74.8z"/>
<path class="st1" d="M197.5,10.7c11.4,5.1,2.5,2.6,12.1-1c6.9-2.7,9.7-1.3,12-9.6C211.1,0.3,203.4,1.7,197.5,10.7z"/>
<path class="st1" d="M189.5,32.1l32.1,5.4C216.3,23,202.8,30.9,189.5,32.1z"/>
<path class="st2" d="M45.9,123.7c15.5-1.7,61.4-3,72.7,5.7l5.6,59.4c-6.5,4.2,0.4,1.7-7.1,3l-29,1.3c-12,1.4-24.9,5.2-35.2-1
	C49.7,183.7,45,134.2,45.9,123.7z M139.2,219.8c0-43.1,11.4-156.8-56.6-150.5C57.2,71.6,39.3,99.2,33.5,122
	c-7.2,28.3-4.3,64.3-0.2,94.5L139.2,219.8z"/>
<path class="st2" d="M25.5,226.9c6.7,9,43.9,5.6,65.2,5.6s55.8,3.6,57.5-6.9C123.9,226.7,38.5,220.2,25.5,226.9z"/>
<path class="st2" d="M78.1,173l3.3-11c7,9.6,1.1,6.3,8.8,11.7c5.8-8.6-1.3-16.8-7.3-25.5C72.7,155.6,70.5,161.6,78.1,173z"/>
<path class="st3" d="M97.4,175.5c-20.5,18.3-48.2-12-12.1-39.3C91.2,145.9,99.9,163.1,97.4,175.5z M51.7,131.6l6.5,58.1l59.8-5.1
	l-4.9-51.4c-8.5-4.4-50.6-5.2-59.1-2.6C53.1,130.8,52.4,131.2,51.7,131.6z"/>
</svg>
