<?xml version="1.0" encoding="utf-8"?>
<!-- Generator: Adobe Illustrator 24.1.2, SVG Export Plug-In . SVG Version: 6.00 Build 0)  -->
<svg version="1.1" id="Слой_1" xmlns="http://www.w3.org/2000/svg" xmlns:xlink="http://www.w3.org/1999/xlink" x="0px" y="0px"
	 viewBox="0 0 223.3 223.3" style="enable-background:new 0 0 223.3 223.3;" xml:space="preserve">
<style type="text/css">
	.st0{fill-rule:evenodd;clip-rule:evenodd;fill:#13ABAF;}
	.st1{fill-rule:evenodd;clip-rule:evenodd;fill:#030303;}
	.st2{fill-rule:evenodd;clip-rule:evenodd;fill:#BBBBBB;}
</style>
<path class="st0" d="M149.1,205.6c23.8-3.6,50.7-26,60.6-47.5c13.1-28.5,0.1-68.6-0.6-100.2l-14.7-6.8
	C212.6,117.1,215.1,171.6,149.1,205.6z"/>
<path class="st0" d="M70.7,150.6c-8.7-19.2-21.5-18.5-23.5-51c-2.4-39.5,16.4-47.2,7-63.5C31.6,61.5,32.2,140.2,70.7,150.6z"/>
<path class="st0" d="M200.4,48.8c2.2-2.4,11,4.5-2.4-17.7c-5.6-9.2-4.9-10.5-14.8-14.6C185.5,21.2,199.5,47.7,200.4,48.8z"/>
<path class="st0" d="M70.7,150.6l4.5,2.1L70.7,150.6z"/>
<path class="st1" d="M70.7,150.6l4.5,2.1L70.7,150.6z M149.1,205.6c66-34,63.6-88.5,45.3-154.5l14.7,6.8
	c0.7,31.5,13.7,71.6,0.6,100.2C199.8,179.6,172.9,202,149.1,205.6L149.1,205.6z M70.7,150.6C32.2,140.2,31.6,61.5,54.2,36
	c9.4,16.3-9.5,24.1-7,63.5C49.2,132.1,61.9,131.4,70.7,150.6z M166.8,11.7c7.2,4.2,15.1,12.6,19.5,20.4c7,12.3,0.6,14.2,3.8,28.2
	c6,26,11.6,40.1,9.1,68.6c-3.6,41.2-35.4,70.5-75.1,77.3c-40.5,6.9-86.7-6.9-107.5-41.8c-27.9-46.9,8.7-99.2-4.7-126.3l13.9-24.3
	l25.3,14.5C17.2,78.5,26.7,164.6,103,163.7c32.7-0.4,55.9-16.4,64.5-47.8c10.7-39.2-13.9-70.7-19.4-86.4L166.8,11.7z M200.4,48.8
	c-0.9-1.1-14.9-27.6-17.2-32.3c9.9,4.1,9.2,5.4,14.8,14.6C211.4,53.3,202.6,46.4,200.4,48.8z M3.9,40.8c9.3,12.4,3.2,18.3,0.8,32.6
	c-10.5,61.9-8.9,115.1,65.2,136.7c30,8.7,41.2,14.6,74.2,5.4c42.2-11.7,82.4-48.5,79-91.6c-0.4-5.5-2-11.1-2.7-18.9
	c-2.9-32.5-7.7-105-53.4-99c-9.2,2.5-21.3,15.8-26.7,24c12.8,25.6,29.1,51.1,21.4,80.3c-9.1,34.2-27.6,44.1-61.8,48.3
	c-27.1-20.5-38.6-13.4-45.9-55.7C49,73,64.8,49.8,64.6,43.3C64.4,40,60.5,32,59.7,22.4c-11.6-2.1-26.8-12.5-37-19.2L3.9,40.8z"/>
<path class="st1" d="M138,176.9c2.3,2.4-3.8,2.6,5.7,4.1c8.8,1.4,9-6.6,8.6-10.7C143.3,169.1,143.5,169.5,138,176.9z"/>
<path class="st1" d="M182.6,88.3c8.4-8.3,5.7-13.2-5.3-15.7C175.3,81.4,174.4,82.7,182.6,88.3z"/>
<path class="st1" d="M98.6,187.7c-5.7-7.6-3.2-5.9-14.2-5.8c0.4,4.4-2.2,8,6.1,10C99.4,194.1,98.5,187.9,98.6,187.7z"/>
<path class="st1" d="M174.4,129.5c-3.1,10.3,2.6,8.6,7.4,10.3c3.7-8,4.3-5.5,0.9-12.7C172.1,125.9,179,126.4,174.4,129.5z"/>
<path class="st1" d="M38.1,157c-2.9,10.1-0.1,10.1,9.8,12.2C46.8,160.9,47.7,157.1,38.1,157z"/>
<path class="st1" d="M162.6,30c2.1,9.5,2.3,8.9,11.6,7.3C173.6,28.3,171.5,24.5,162.6,30z"/>
<path class="st1" d="M20.1,81.1c8.5-3.6,10-5.5,5.3-13.8C17.3,71.1,16,73.2,20.1,81.1z"/>
<path class="st1" d="M25.4,131.9c3.8-6.9,3.9-3,0.8-12C14.8,119.2,15.3,127.5,25.4,131.9z"/>
<path class="st1" d="M23.8,37.1c9.3,1,8.3,2.4,11.9-7C27.5,26.7,25.8,27.4,23.8,37.1z"/>
<path class="st2" d="M84.5,181.9c11-0.1,8.5-1.9,14.2,5.8c-0.1,0.2,0.8,6.4-8,4.2C82.3,189.9,84.8,186.4,84.5,181.9z M138,176.9
	c5.6-7.4,5.4-7.8,14.3-6.5c0.4,4.1,0.2,12.1-8.6,10.7C134.2,179.5,140.3,179.3,138,176.9L138,176.9z M47.9,169.2
	c-9.9-2.1-12.7-2.1-9.8-12.2C47.7,157.1,46.8,160.9,47.9,169.2z M181.7,139.8c-4.8-1.6-10.5,0.1-7.4-10.3c4.6-3.1-2.2-3.6,8.3-2.5
	C186,134.3,185.4,131.8,181.7,139.8L181.7,139.8z M26.2,119.9c3.1,9,3,5.1-0.8,12C15.3,127.5,14.8,119.2,26.2,119.9z M177.3,72.6
	c11,2.5,13.7,7.4,5.3,15.7C174.4,82.7,175.3,81.4,177.3,72.6z M20.1,81.1c-4.1-7.9-2.8-10.1,5.3-13.8C30.1,75.7,28.6,77.5,20.1,81.1
	z M174.2,37.3c-9.3,1.5-9.5,2.2-11.6-7.3C171.5,24.5,173.6,28.3,174.2,37.3z M23.8,37.1c2-9.7,3.8-10.3,11.9-7
	C32.1,39.5,33.1,38.1,23.8,37.1z M148.1,29.6c5.5,15.6,30.2,47.2,19.4,86.3c-8.6,31.3-31.8,47.3-64.5,47.8
	c-76.3,1-85.8-85.2-51.8-135.4L25.8,13.8L11.9,38.1c13.4,27.1-23.2,79.4,4.7,126.3c20.8,34.9,67,48.7,107.5,41.8
	c39.7-6.8,71.5-36.1,75.1-77.3c2.5-28.5-3.1-42.6-9.1-68.6c-3.2-14,3.3-16-3.8-28.2c-4.4-7.8-12.3-16.3-19.5-20.4L148.1,29.6z"/>
</svg>
