<?xml version="1.0" encoding="utf-8"?>
<!-- Generator: Adobe Illustrator 24.1.2, SVG Export Plug-In . SVG Version: 6.00 Build 0)  -->
<svg version="1.1" id="Слой_1" xmlns="http://www.w3.org/2000/svg" xmlns:xlink="http://www.w3.org/1999/xlink" x="0px" y="0px"
	 viewBox="0 0 201.3 201.3" style="enable-background:new 0 0 201.3 201.3;" xml:space="preserve">
<style type="text/css">
	.st0{fill-rule:evenodd;clip-rule:evenodd;fill:#74CACE;}
	.st1{fill-rule:evenodd;clip-rule:evenodd;fill:#000101;}
	.st2{fill-rule:evenodd;clip-rule:evenodd;fill:#D4E4E4;}
	.st3{fill-rule:evenodd;clip-rule:evenodd;fill:#050707;}
	.st4{fill-rule:evenodd;clip-rule:evenodd;fill:#050505;}
</style>
<path class="st0" d="M42.3,111.2l12.3-4.7l8.2,9.6l9.9-9.1c9.8,4.7,10.3,6.2,14.7,15.7l9.2-15.8c12.8-0.4,10.1-1.8,18.6,7
	c5.4-18.1,12.1-24.5,30.8-15.7l-12.7-39.4l-78.7,1.1L42.3,111.2z"/>
<path class="st0" d="M137.6,189.4l29.3-12.1c2-17.4-14.9-84.8-37.1-76c-13.6,12-6.5,26.3-2.8,43.3
	C129.9,158.2,133.5,176.6,137.6,189.4z"/>
<path class="st0" d="M94,193.7l35.9-1c-0.6-18.7-10.7-72-27-80.3C85.9,124.3,93.7,173.2,94,193.7z"/>
<path class="st0" d="M56.7,187.2c9.6,5.1,18.9,5.4,30.9,5.9c-0.7-17.9,0.3-68.8-14-78.5C61.4,121.7,57.4,171.5,56.7,187.2z"/>
<path class="st0" d="M52,43c2.3,16,19.5,10.8,34.9,10.9c13.3,0.1,32.4,1.3,44.5-3.3l-0.6-10.5C126.6,37.9,62.6,37.2,52,43z"/>
<path class="st0" d="M33.9,171.4l12,13.1c4-3.6,3.4,4.6,6.4-15.8c1-6.4,2.2-12.1,3.2-18.7c1.8-12.4,4.3-26.6-3.3-36.8
	C39.6,121.6,34.7,156.5,33.9,171.4z"/>
<path class="st1" d="M56.7,187.2c0.7-15.8,4.7-65.5,16.9-72.6c14.3,9.6,13.2,60.6,14,78.5C75.5,192.6,66.3,192.3,56.7,187.2z
	 M94,193.7c-0.3-20.5-8.1-69.4,8.9-81.2c16.3,8.3,26.4,61.5,27,80.2L94,193.7z M33.9,171.4c0.8-14.9,5.6-49.9,18.2-58.1
	c7.7,10.2,5.1,24.4,3.3,36.8c-0.9,6.6-2.2,12.3-3.2,18.7c-3,20.4-2.4,12.1-6.4,15.8L33.9,171.4z M137.5,189.4
	c-4-12.8-7.7-31.2-10.7-44.8c-3.8-17-10.8-31.3,2.8-43.3c22.3-8.8,39.1,58.7,37.1,76L137.5,189.4z M54.5,60l78.7-1.1l12.7,39.5
	c-18.7-8.8-25.4-2.4-30.8,15.7c-8.5-8.8-5.8-7.4-18.6-7l-9.2,15.8c-4.3-9.6-4.8-11-14.7-15.7l-9.9,9.1l-8.2-9.6l-12.3,4.7L54.5,60z
	 M130.8,40.1l0.6,10.5c-12.1,4.7-31.2,3.4-44.5,3.3C71.5,53.8,54.3,59,52,43C62.6,37.2,126.6,37.9,130.8,40.1z M59.6,33.6
	c2-21.2,11-23,30.5-28l5.4,8.4l9.8-5.5c11.7,7.2,17.1,8.2,16.4,24.5L59.6,33.6z M43.9,42.8c2.2,18.4,5.3,17-0.3,37.2l-16.7,74.2
	c-3.2,13.5,1.6,22.6,11.2,31.3c31.8,28.5,130.3,14.8,137.3-11.2c-2.2-18.1-13.3-51.3-19.3-69.4c-3.6-10.7-6.7-21.6-10.7-32.1
	c-14.4-38.6,1.9-13.4-7.5-32.4C127.2,18.8,117.5-0.6,89.6,0C57.5,0.8,59.3,22.5,43.9,42.8z"/>
<path class="st2" d="M97,24.3c6.1-8.3,1.4-6.2,10.2-2.9C102.1,28.7,105.4,28.8,97,24.3z M76.6,16.3C81.9,8.2,78.5,9,86,14
	C82.7,21.9,83.1,21.6,76.6,16.3L76.6,16.3z M59.6,33.6l62.2-0.6c0.6-16.4-4.8-17.3-16.4-24.5l-9.8,5.5l-5.4-8.4
	C70.5,10.7,61.6,12.4,59.6,33.6z"/>
<path class="st3" d="M76.6,16.3c6.4,5.4,6.1,5.6,9.4-2.3C78.5,9,81.9,8.2,76.6,16.3z"/>
<path class="st4" d="M107.1,21.4c-8.8-3.3-4.1-5.4-10.2,2.9C105.4,28.8,102.1,28.7,107.1,21.4z"/>
</svg>
