<?xml version="1.0" encoding="utf-8"?>
<!-- Generator: Adobe Illustrator 24.1.2, SVG Export Plug-In . SVG Version: 6.00 Build 0)  -->
<svg version="1.1" id="Слой_1" xmlns="http://www.w3.org/2000/svg" xmlns:xlink="http://www.w3.org/1999/xlink" x="0px" y="0px"
	 viewBox="0 0 233 233" style="enable-background:new 0 0 233 233;" xml:space="preserve">
<style type="text/css">
	.st0{fill-rule:evenodd;clip-rule:evenodd;fill:#D4E4E4;}
	.st1{fill-rule:evenodd;clip-rule:evenodd;fill:#020100;}
	.st2{fill-rule:evenodd;clip-rule:evenodd;fill:#ED4822;}
</style>
<path class="st0" d="M75,146.8c-0.3,20.6,15,33.1,34.8,33.5c32.4-18,18.7-60.3-13.3-59.4L75,146.8z"/>
<path class="st0" d="M63.3,172.3c-58.4,40.6,28,80.3,36.5,27.6c-8-2.9-19-3.1-24.6-7.3C67.5,186.9,68.8,180.1,63.3,172.3z"/>
<path class="st0" d="M122.3,182.5c-17.4,5-23.8,8.4-39.4-5.8c-5.1-4.7-10.4-9.9-12.6-16.9c-3.6-11.5,1.7-14.9-0.6-21.6
	c-11.6,6.4-0.9-0.4-8.1,9.2c-3,4-4.1,3.8-7.4,7.7c6,11.4,8,6.8,14.5,14.5c4.7,5.6,4.4,11.6,9.9,19.2c7.3,1.6,11.8,0.6,18.4,3.5
	C99.7,193.5,114.9,208.7,122.3,182.5z"/>
<path class="st0" d="M91.1,113.6l-3.7-24.3L71.7,86C74.6,97,82.3,107.3,91.1,113.6z"/>
<path class="st0" d="M133.1,139.9c6,8.1,21.6,8.3,32.2,7.3l-5.1-10.2L133.1,139.9z"/>
<path class="st0" d="M129.2,132.8l23.3-0.3c-3.2-8.5-1.6-6-9.3-10.7L129.2,132.8z"/>
<path class="st0" d="M75,108c-2.5-6.8-3.2-6.7-6.6-12.8c-5.5-10-0.9-8.9-10.8-8.1C56.9,95.4,67.4,103.1,75,108z"/>
<path class="st0" d="M168.5,47.7c8.3-11,3.1-12.9-7.9-12.3C160.4,45,159.7,44.7,168.5,47.7z"/>
<path class="st0" d="M137.4,73.9c7.8,0.3,8.8,0.3,11.2-8.3C138.5,58,132.6,65.1,137.4,73.9z"/>
<path class="st0" d="M97.5,64.4c6.9,9.6,13.4,7.1,13.9-4.4C104.3,58.9,102.4,57.1,97.5,64.4z"/>
<path class="st0" d="M155.3,99.5l4.5,7.7c9.4-3.1,9.9-3.5,6.2-10.7C161.8,94.4,161,92.3,155.3,99.5z"/>
<path class="st0" d="M156.8,11.6c11.7,2.6,12.6,5.5,18.1-3.3C167.9,5.1,162.2,3.8,156.8,11.6z"/>
<path class="st0" d="M64.8,57.2l8.2,9.2c6.6-6.7,5.5-1.7,2.9-10.6C70.4,53.8,71.4,50.7,64.8,57.2z"/>
<path class="st0" d="M122.8,126.4l16.6-7.2l-6.3-6.2C126,118.7,125.8,117.9,122.8,126.4z"/>
<path class="st0" d="M165.3,155.5l-19.6-2.8C154.6,160.6,160.7,167.6,165.3,155.5z"/>
<polygon class="st0" points="115.5,39.1 129.6,40 133.8,28.2 "/>
<path class="st0" d="M98.3,112.2c2.5-8.8,5.1-10.1,0.9-17.8c-3.7,1.5-4.7-5.8-4.4,6C94.9,104,97,109.3,98.3,112.2z"/>
<path class="st0" d="M130.2,103.8c-0.3-11.7-3.7-11.7-14.1-9L130.2,103.8z"/>
<path class="st0" d="M114.3,118c10.1-3.1,15.6-6.2,5.8-13L114.3,118z"/>
<path class="st0" d="M188,85.5l-0.9-15.4c-3,1.3-4.9,4.3-4.6,7.6C183.2,87.8,187.9,85.4,188,85.5z"/>
<path class="st0" d="M187.2,141.3l3.4-14.2C180,131.5,180.4,135.4,187.2,141.3z"/>
<path class="st0" d="M107,114.6c5.2-6.1,6.6-8,2.7-14.9C106.2,104.6,104,108.8,107,114.6z"/>
<path class="st0" d="M146.2,162.2l-11.7-7.9C138.6,161.9,136.5,160,146.2,162.2z"/>
<path class="st0" d="M77.7,119.9l-10.3-7.9c1.6,3.9-1.2,2.2,3.1,5.2C75.2,120.3,74.7,119,77.7,119.9z"/>
<path class="st1" d="M63.3,172.3c5.5,7.8,4.2,14.6,11.9,20.4c5.6,4.2,16.5,4.3,24.6,7.3C91.3,252.6,5,212.9,63.3,172.3z
	 M146.2,162.2c-9.8-2.2-7.6-0.3-11.7-7.9L146.2,162.2z M96.4,120.9c32-0.9,45.8,41.4,13.4,59.4c-19.8-0.4-35-12.9-34.8-33.5
	L96.4,120.9z M165.3,155.5c-4.6,12.1-10.7,5.1-19.6-2.8L165.3,155.5z M160.3,137.1l5.1,10.2c-10.6,0.9-26.2,0.8-32.2-7.3
	L160.3,137.1z M122.3,182.5c-7.4,26.2-22.6,11-25.4,9.8c-6.6-2.8-11.1-1.8-18.4-3.5c-5.5-7.6-5.2-13.6-9.9-19.2
	c-6.5-7.7-8.5-3.1-14.5-14.5c3.3-3.9,4.4-3.7,7.4-7.7c7.2-9.6-3.5-2.8,8.1-9.2c2.3,6.7-3,10.1,0.6,21.6c2.2,7,7.5,12.2,12.6,16.9
	C98.5,190.9,104.9,187.6,122.3,182.5z M187.2,141.3c-6.8-5.9-7.2-9.9,3.4-14.2L187.2,141.3z M143.2,121.7c7.7,4.7,6.1,2.3,9.3,10.7
	l-23.3,0.3L143.2,121.7z M122.8,126.4c3-8.5,3.2-7.7,10.3-13.4l6.3,6.2L122.8,126.4z M77.8,119.9c-3-0.8-2.5,0.4-7.2-2.8
	c-4.3-3-1.5-1.3-3.1-5.2L77.8,119.9z M120,105c9.8,6.7,4.3,9.9-5.8,13L120,105z M107,114.6c-3.1-5.8-0.8-9.9,2.7-14.9
	C113.6,106.5,112.2,108.5,107,114.6z M98.2,112.2c-1.2-2.9-3.3-8.2-3.4-11.8c-0.4-11.8,0.7-4.5,4.4-6
	C103.3,102.1,100.8,103.4,98.2,112.2L98.2,112.2z M116.1,94.8c10.4-2.7,13.8-2.8,14.1,9L116.1,94.8z M68.3,95.2
	c3.4,6.2,4.1,6.1,6.6,12.8c-7.5-4.9-18.1-12.6-17.4-20.9C67.4,86.3,62.8,85.2,68.3,95.2z M91.1,113.6C82.3,107.3,74.6,97,71.7,86
	l15.8,3.2L91.1,113.6z M182.6,77.7c-0.3-3.3,1.5-6.3,4.6-7.6l0.9,15.4C187.9,85.4,183.2,87.8,182.6,77.7L182.6,77.7z M72.9,66.4
	l-8.2-9.2c6.6-6.5,5.7-3.5,11.1-1.5C78.4,64.7,79.6,59.7,72.9,66.4z M133.8,28.2L129.6,40l-14.1-1L133.8,28.2z M107.2,40.8
	c8,3.8,14,10,23.6,4.9c9.4-5,8.8-14.2,6.5-22.9l12.5-9.6c20.6,12.2,17.6,5.6,33.7,1.5c7.7,17.6,4.6,26.3,3.9,44.6
	c-7.7,8.4-16.5,15-7.7,28.6c9.9,15.3,11.7-0.9,12.9,30.2c-15.6,9.6-25,9-7.2,32.5l-13.6,11.6c2.8-28.8-14.2-37.8-34.4-53.2
	c-2.4-29.7-12.6-22.1-30.5-17.5c-19.1-9.2-35.7-15.1-56.3-8c0.8-10.6,0.6-14.2,8.5-20.9c10.5,8.9,8.4,13.5,22.8,6.1
	c1.8-7.7,0.1-12.8-1-19.3L107.2,40.8z M174.9,8.3c-5.6,8.8-6.4,5.9-18.1,3.3C162.2,3.8,167.9,5.1,174.9,8.3z M77,133.7
	c-8.7-4.2-12.5-3.7-17.6,3.3c-9.7,13.5-18.5,18.4-2.9,31.4c-8.9,13.1-17.4,13.4-21.5,32.3c0,6.4,27.9,62,69.3,10.6
	c6.7-8.4,8-4.9,15.5-11.2c17.2-14.4,0.7-19,11.9-33.5c17.6-0.4,66.2,27,66.2-54.1c0-13.6-2.4-18.1-2.8-29.3
	c-0.4-11,0.1-23.6,0.1-34.8c0.1-25.2,1.6-32.6-18.4-48.4c-29.1,1.3-30,6.9-51.8,23.6c-26.4,20.2-91,20.3-80.7,66
	C51.7,122.1,75.1,121.9,77,133.7z"/>
<path class="st1" d="M160.6,35.4c11.1-0.7,16.3,1.2,7.9,12.3C159.7,44.7,160.4,45,160.6,35.4z M173.1,52.9
	c12.2-16.5-0.1-30.2-14.8-23.1C149.7,33.9,150.3,55.3,173.1,52.9z"/>
<path class="st1" d="M111.4,60c-0.6,11.5-7,14-13.9,4.4C102.4,57.1,104.3,58.9,111.4,60z M91.2,64.5l5.7,9.7
	c16,3.5,27.6-5.8,18.8-18.5C108.9,45.6,94.7,56,91.2,64.5z"/>
<path class="st1" d="M137.4,73.9c-4.7-8.8,1.1-15.9,11.2-8.3C146.2,74.2,145.2,74.2,137.4,73.9z M129.7,74
	c14.1,14.5,31.8,0.9,20.9-15.9C135.9,53.3,127.7,58.6,129.7,74z"/>
<path class="st1" d="M166,96.5c3.7,7.2,3.2,7.6-6.2,10.7l-4.5-7.7C161,92.3,161.8,94.4,166,96.5z M150.3,93.7
	c-1.1,16.2,5.6,21.7,21.1,16.4l1.7-19.6C162.5,87.4,157.6,88,150.3,93.7L150.3,93.7z"/>
<path class="st2" d="M150.3,93.7c7.3-5.7,12.2-6.2,22.8-3.2l-1.7,19.6C155.9,115.4,149.2,109.8,150.3,93.7z M129.7,74
	c-1.9-15.4,6.2-20.7,20.9-15.9C161.4,75,143.8,88.5,129.7,74z M91.2,64.5c3.4-8.5,17.7-18.8,24.6-8.8c8.7,12.7-2.8,22-18.8,18.5
	L91.2,64.5z M173.1,52.9c-22.8,2.4-23.4-19-14.8-23.1C172.9,22.7,185.3,36.4,173.1,52.9z M137.3,22.8c2.3,8.7,2.9,17.8-6.5,22.9
	c-9.6,5.2-15.6-1.1-23.6-4.9l-26.4,8.7c1.1,6.5,2.8,11.6,1,19.3c-14.4,7.5-12.3,2.9-22.8-6.1c-7.8,6.8-7.6,10.3-8.4,20.9
	c20.7-7.1,37.2-1.3,56.3,8c17.9-4.6,28.1-12.2,30.5,17.5c20.2,15.4,37.2,24.3,34.4,53.1l13.6-11.6c-17.8-23.5-8.4-22.9,7.2-32.5
	c-1.2-31.2-3-15-12.9-30.2c-8.8-13.6,0-20.2,7.7-28.6c0.7-18.3,3.8-27-3.9-44.6c-16.1,4.2-13.1,10.7-33.7-1.5L137.3,22.8z"/>
</svg>
