<?xml version="1.0" encoding="utf-8"?>
<!-- Generator: Adobe Illustrator 24.1.2, SVG Export Plug-In . SVG Version: 6.00 Build 0)  -->
<svg version="1.1" id="Слой_1" xmlns="http://www.w3.org/2000/svg" xmlns:xlink="http://www.w3.org/1999/xlink" x="0px" y="0px"
	 viewBox="0 0 232.6 232.6" style="enable-background:new 0 0 232.6 232.6;" xml:space="preserve">
<style type="text/css">
	.st0{fill-rule:evenodd;clip-rule:evenodd;fill:#010404;}
	.st1{fill-rule:evenodd;clip-rule:evenodd;fill:#14B6B9;}
	.st2{fill-rule:evenodd;clip-rule:evenodd;fill:#73CBCE;}
</style>
<path class="st0" d="M89.5,50.4c10.9-2,60.7-0.5,69.8,3.9c18,8.6,22.3,36.8,23.4,55.3c2.7,47.1,3.8,86-42.6,108.2
	c-47.6,22.8-84.6-5.8-90.4-54.2c-2.6-22.1,0.4-47.3,4.7-68.9C60.7,63.3,50.1,57.7,89.5,50.4z M106.8,42.8c-17,0-47.6,2.6-54.5,20.3
	c-7.1,17.9-9.7,74.2-9.7,97.3c0,34.6,28.1,72.2,64.2,72.2c42.4,0,82.8-33.8,82.8-77.5c0-26.5,6-102.3-34.8-109.6
	c-23.6-4.2-35.7,2.1-40.4-7.7l-7.9-19.3c6.3-8.4,10.2-11,5.6-18.5c-6.1,2.7-3.6,0.7-6.7,6.8C95.5,26.1,105.6,29.1,106.8,42.8z"/>
<path class="st0" d="M106.7,94.3c6.8-6.1,6.3-5,17.8-2.9l-0.8,21.1c-7.2,2.6-4.5,2.8-11.9-1.4l9.6-4.4c-8.9-5.4-3.5-1.6-12.5-5.7
	l15.2-4.6C115.3,91.9,117.5,93.3,106.7,94.3z M120.1,82.9c0.1-6.7,1.5,0,1.6,0C123.2,83.4,120,88.6,120.1,82.9z M122.3,124.9
	c23-18.9-3.8-58.5-4.4-65.7c39.1-2.3,49.8,7.1,54.5,46c3.7,30.3-1.9,57-34,65.4c-26.2,6.9-61.3,14.1-73.8-16.2
	c-8-19.6-6.2-73.9,9-88.6l38-5.8c-0.9,14.1-13.9,12.8-10.2,38.8C103.2,111.7,108.2,125.3,122.3,124.9z M176.6,141.6
	c7.4-27.2,1.8-82.2-32.6-88.1c-18.4-3.2-41.2,1.3-59.5,3.9C62.8,60.5,58.7,73,56,91.9c-4.4,29.9-5.9,85.7,34.7,89.8
	C123,185,167,176.7,176.6,141.6z"/>
<path class="st1" d="M176.6,141.6c-9.6,35.1-53.6,43.3-85.9,40.1c-40.6-4.1-39.1-59.9-34.7-89.8c2.8-18.9,6.9-31.4,28.6-34.5
	c18.3-2.6,41.1-7.1,59.5-3.9C178.4,59.5,184,114.5,176.6,141.6z M89.5,50.4c-39.4,7.3-28.8,12.9-35.1,44.3
	c-4.3,21.6-7.3,46.8-4.7,68.9c5.8,48.3,42.8,77,90.4,54.2c46.4-22.2,45.3-61.1,42.6-108.2c-1.1-18.5-5.4-46.7-23.4-55.3
	C150.2,49.9,100.4,48.4,89.5,50.4z"/>
<path class="st1" d="M106.7,94.3c10.8-1,8.5-2.3,17.4,2.2l-15.2,4.5c9,4.1,3.6,0.3,12.5,5.7l-9.6,4.4c7.4,4.2,4.7,3.9,11.9,1.4
	l0.8-21.1C113,89.2,113.5,88.2,106.7,94.3z"/>
<path class="st1" d="M120.1,82.9c-0.1,5.7,3,0.6,1.6,0C121.7,82.9,120.3,76.2,120.1,82.9z"/>
<path class="st2" d="M122.3,124.9c-14.1,0.4-19.1-13.3-20.9-26.1c-3.7-26,9.3-24.7,10.2-38.8l-38,5.7c-15.2,14.7-17,69.1-9,88.6
	c12.4,30.4,47.6,23.1,73.7,16.3c32.2-8.4,37.7-35,34-65.4c-4.7-38.9-15.4-48.3-54.5-46C118.4,66.4,145.3,106,122.3,124.9z"/>
</svg>
