<?xml version="1.0" encoding="utf-8"?>
<!-- Generator: Adobe Illustrator 24.1.2, SVG Export Plug-In . SVG Version: 6.00 Build 0)  -->
<svg version="1.1" id="Слой_1" xmlns="http://www.w3.org/2000/svg" xmlns:xlink="http://www.w3.org/1999/xlink" x="0px" y="0px"
	 viewBox="0 0 240.7 240.7" style="enable-background:new 0 0 240.7 240.7;" xml:space="preserve">
<style type="text/css">
	.st0{fill-rule:evenodd;clip-rule:evenodd;fill:#FBBC10;}
	.st1{fill-rule:evenodd;clip-rule:evenodd;fill:#BBBBBB;}
	.st2{fill-rule:evenodd;clip-rule:evenodd;fill:#020200;}
</style>
<path class="st0" d="M170.3,192.4c2.6,8.3,4.6,9,9.6,14.6c8,9.1,9.7,13.8,4.2,18.2c-9,2.9-6.6,1.1-13.8-5.9
	c-14.7-14.3-11.1-15.1-25.2-28.3c-7.7-7.2-8.4-7.7-6.8-20.1l14.8-1.2c-3.3-10.1-1.3-8.9,6.2-12.6l3-0.1c1.1-0.9,9.4,1.4,4.4-8.1
	c4.9-7.7,10.1-11.8,22.6,0.4c5.9,5.8,10.3,13,16.3,18.6c-6.2-17.3-17-34.8-35-31.4c-29.6,5.5,3-13-42,19.4
	c10.4,25.3-5.7,16.7,8.5,34.8c15.2,19.4,34.4,51.6,60,39.1c8.1-3.9,20.5-18.2,20-31c-2.1,3.4-0.7,1.9-6,5.5
	c-6.7-4.2-5.3-5.1-11.9-9.6c4.6,13.7,9.3,16.8-3.8,23.8c-8.6-5-5.2-4.6-11.7-12.9L170.3,192.4z"/>
<path class="st0" d="M156.5,117.1c-4.6-1-47.6,17.3-43.8,42.2c9.7-4.6,17.7-12,25.3-18l18.7-16.2
	C163.6,113.4,157.4,118.6,156.5,117.1z"/>
<path class="st0" d="M212.6,195.6c-2.2-12.9-26.1-44.9-38.6-47.6c-2.5,14,7.6,17.4,15.5,25.1C196.9,180.3,202.5,190.4,212.6,195.6z"
	/>
<path class="st0" d="M197.8,211.3c-2.9-15.4-9.1-16.7-15.5-28.2c-6.1-11-6.3-22.9-24.3-19.1l32,40.8
	C194.8,210.3,193.6,208.6,197.8,211.3z"/>
<path class="st0" d="M174.1,212.2c-6-10.5-18.3-32.8-29.7-37.5c-0.8,14.3,9,14.4,18.7,27.4C170.5,211.8,165.1,207.3,174.1,212.2z"/>
<path class="st0" d="M170.3,192.4l-4.9-8.7c0.6,5.2-1.8,1.8,0.7,4.8C169,192.1,168.2,190.9,170.3,192.4z"/>
<path class="st1" d="M119.5,130.3l9.1-6.7c-4.2-7,0.1-0.7-5.3-7L82.2,66.8c-3.7-4.3-24.1-25.4-24.6-26.2c-5.9-11,2.1-7.9-6.5-20.3
	c-1.9-2.8-7.5-9.7-10.8-13.8C33,11.6,26.2,16.4,20.9,24c1.8,3.6,6.4,11.8,9.1,14.8c16.3,17.9,3.7-12.7,41.1,36.3
	C80.1,86.9,110.4,124.2,119.5,130.3z"/>
<path class="st1" d="M166.7,149c5,9.6-3.3,7.2-4.4,8.1l-3,0.1l6.6-1.3L166.7,149z"/>
<path class="st2" d="M212.6,195.6c-10.1-5.3-15.7-15.4-23-22.5c-7.9-7.6-18.1-11-15.5-25.1C186.5,150.7,210.4,182.7,212.6,195.6z
	 M197.8,211.3c-4.2-2.8-3-1-7.8-6.5l-32-40.8c18-3.7,18.3,8.1,24.3,19.1C188.6,194.7,194.9,195.9,197.8,211.3L197.8,211.3z
	 M170.3,192.4c-2.1-1.5-1.3-0.3-4.2-3.9c-2.5-3.1-0.1,0.4-0.7-4.8L170.3,192.4z M174.1,212.2c-9.1-4.9-3.6-0.4-11-10.1
	c-9.7-13-19.5-13.1-18.7-27.4C155.8,179.3,168.1,201.7,174.1,212.2z M170.3,192.4l13.4,13.3c6.5,8.3,3.1,7.9,11.7,12.9
	c13.1-7,8.4-10.1,3.8-23.8c6.6,4.5,5.2,5.4,11.9,9.6c5.2-3.6,3.8-2.1,6-5.5c0.5,12.8-11.9,27.1-20,31c-25.7,12.5-44.8-19.8-60-39.1
	c-14.2-18.1,1.8-9.5-8.5-34.8c45-32.5,12.4-14,42-19.4c18-3.4,28.8,14.1,35,31.4c-6-5.6-10.4-12.7-16.3-18.6
	c-12.4-12.2-17.6-8.1-22.6-0.4l-0.8,6.8l-6.6,1.3c-7.5,3.7-9.5,2.5-6.2,12.6l-14.9,1.2c-1.6,12.4-0.9,12.8,6.8,20.1
	c14,13.3,10.5,14,25.2,28.3c7.2,7,4.9,8.8,13.8,5.9c5.5-4.4,3.8-9.1-4.2-18.2C174.9,201.4,172.9,200.8,170.3,192.4z M156.5,117.1
	c0.9,1.5,7.1-3.7,0.2,7.9L138,141.3c-7.6,6-15.6,13.4-25.3,18C108.9,134.3,151.9,116.1,156.5,117.1z M119.5,130.3
	c-9.2-6.1-39.5-43.4-48.4-55.2C33.7,26.2,46.3,56.8,30,38.8c-2.7-3-7.3-11.2-9.1-14.8C26.2,16.4,33,11.6,40.3,6.5
	c3.3,4,8.9,11,10.8,13.8c8.6,12.4,0.6,9.3,6.5,20.3c0.5,0.8,20.9,21.9,24.6,26.2l41.1,49.8c5.4,6.3,1.2,0,5.3,7L119.5,130.3z
	 M114.2,133.6c-24.4,46.2,5.2,25.8,10.7,31.7c7.6,8-16.2-0.4,14.9,39c14.6,18.6,46,62,77.2,16.1c8.3-12.2,11.2-22.1,5.3-37.1
	c-4.2-10.7-12.1-23.4-18.3-32.6c-16.4-24.7-21-24.6-41.7-19.8c0,0,12.3-21.4-5.4-21.4c-12.6,0-10.7,5.2-21.4,8
	c-10.8-7.2-17.4-17-25.9-27.6C101,79.3,93.5,69.3,84.1,59.4c-5.8-6.1-7-9.6-12.2-14.6c-10.3-9.9-8.8,0.5-10.4-14
	c-0.1-0.7,1.8-1.6-1.1-9.1c-0.8-2-13-21.7-21-21.7c-6.1,0-24.1,19.1-24.1,21.4c0,8.6,2.7,11.4,6.8,17.3
	c14.4,21.1,13.7,3.5,30.2,23.3l35.9,44.3C97.5,116.3,103.4,126.4,114.2,133.6z"/>
</svg>
