<?xml version="1.0" encoding="utf-8"?>
<!-- Generator: Adobe Illustrator 24.1.2, SVG Export Plug-In . SVG Version: 6.00 Build 0)  -->
<svg version="1.1" id="Слой_1" xmlns="http://www.w3.org/2000/svg" xmlns:xlink="http://www.w3.org/1999/xlink" x="0px" y="0px"
	 viewBox="0 0 239.2 239.2" style="enable-background:new 0 0 239.2 239.2;" xml:space="preserve">
<style type="text/css">
	.st0{fill-rule:evenodd;clip-rule:evenodd;fill:#D4E3E3;}
	.st1{fill-rule:evenodd;clip-rule:evenodd;fill:#020202;}
	.st2{fill-rule:evenodd;clip-rule:evenodd;fill:#74CBCE;}
	.st3{fill-rule:evenodd;clip-rule:evenodd;fill:#EC4723;}
</style>
<path class="st0" d="M149.3,119.3c5,8.3,3.4,4.8-0.1,10.8C145,123.7,144.8,126.8,149.3,119.3z M177.3,118c7.4,8.2,4.2,3.3,1.1,9.3
	C174.7,123,172.2,126.9,177.3,118L177.3,118z M167.6,119c5.4,9.5,3.8,2,0.3,9.6C160.5,119.1,164.1,124.6,167.6,119L167.6,119z
	 M157.6,119c3.4,4.3,8,0.3,0.4,9.7C151.4,121,154.8,123.9,157.6,119L157.6,119z M138.4,121.7c5.8,2.7,2.5-0.3,5.1,5.3
	c-4.3,2.4-13.8,2.8-14.8-7.3C130.7,119.9,136.6,120.8,138.4,121.7L138.4,121.7z M198.1,117c6.2,4,5.9,1.8,1.6,9.6
	C193.8,121,194.8,122.4,198.1,117z M186.8,116.7c6,5.6,5.4,3.9,2.2,10.2C182.7,121.2,183.5,123.9,186.8,116.7L186.8,116.7z
	 M112,104.9c4.2,7,6.5-0.4-0.1,9.4C105.9,106.3,108.8,111,112,104.9z M96.4,106.4c4.5,1.3,7.5-1,4.6,7.6
	C94.1,110.9,97.1,116.6,96.4,106.4L96.4,106.4z M87.7,112.7c-4.1-7.9-3.2-1.5,0-8.6C90.6,111.4,91.6,105,87.7,112.7L87.7,112.7z
	 M64,103.5c9.2,7.3,23.5,11.3,32.3,20.3c12.8,13,13.1,17.7,33.7,22.5c26.3,6,70.7-1.8,92.1-17.3c-6.4-3.8-8-4.2-15.8-2.8l-1.4-7.3
	c11.5-5,3.8,4.6,9.7-3.8c-32.1-6.7-59.4,5.6-97.2-2.1l10.7-9.6c6.4,5.4,3.3,4.8,10.3-0.1l3.6,7.2l3.6-7.5l6.7,7.1l3.4-8l6.1,7.9
	c6-12.7-1.6-2.7,10.7-8.9c-19.6-0.8-38.7-0.5-58.3-0.8C99.5,100,74.4,91.4,64,103.5L64,103.5z"/>
<path class="st0" d="M146.9,75.1c27.1,5.6,10.8,9.2,23.7,19.2c6.5-8.3,10.4-23.9,12.2-35.6l-28.1,1.8L146.9,75.1z"/>
<path class="st0" d="M96.7,85.5c5,3.5,4,2.3,8.4,3.2c7.5,1.4,2.6,1.8,7.3,0.9c15.8-3,10.5-4.2,15,4.3l2.7-7.8l7,8l3.3-7.5l5.1,7.7
	l3.4-6.9c8.1,7.6,7,7.7,8.6-3.3C149.1,81,101,79.6,96.7,85.5z"/>
<path class="st1" d="M48.9,189.7c73.9,5.3,58.3,8.7,135.2-3.7c13-2.1,30.6-7,42.1-8c-4.7,18.9-17,14.3-35.1,17.6
	C168.1,199.8,57.1,218,48.9,189.7z M10.5,111.8c99-20.6,68.4,59.5,166.1,40c21.8-4.3,36.8-13.5,55.4-17.6l-1.9,35.4
	c-65.2,20.8-124,20.3-187.4,13.2C36.3,171.2,11.1,121.4,10.5,111.8z M64.1,103.5c10.3-12.1,35.4-3.4,50.3-3.2
	c19.6,0.3,38.7,0,58.3,0.8c-12.3,6.2-4.7-3.8-10.7,8.9l-6.1-7.9l-3.4,8l-6.7-7.1l-3.6,7.5l-3.6-7.2c-6.9,4.9-3.9,5.5-10.3,0.1
	l-10.7,9.6c37.8,7.7,65.1-4.5,97.2,2.1c-5.9,8.4,1.8-1.2-9.7,3.8l1.4,7.3c7.8-1.4,9.4-1,15.8,2.8c-21.4,15.4-65.8,23.3-92.1,17.3
	c-20.6-4.7-20.9-9.5-33.7-22.5C87.6,114.8,73.2,110.8,64.1,103.5z M105.1,88.7c-4.3-0.8-3.3,0.3-8.4-3.2c4.3-5.9,52.4-4.5,60.8-1.4
	c-1.6,11-0.5,10.9-8.6,3.3l-3.4,6.9l-5.1-7.7l-3.4,7.5l-7-8l-2.7,7.8c-4.4-8.6,0.8-7.3-15-4.3C107.6,90.5,112.5,90.1,105.1,88.7
	L105.1,88.7z M154.7,60.5l28.1-1.8c-1.8,11.6-5.7,27.3-12.2,35.6c-12.9-10,3.4-13.6-23.7-19.2L154.7,60.5z M158.1,52.2
	c4.9-8.3,17.5-6.1,25.9-3.5C176.9,55,163.1,54.2,158.1,52.2L158.1,52.2z M138.5,76.3l-42.1,0.1L84.3,91.6L71.6,89
	c-6.4,5.2-12.8,11.8-18.6,14c-20.8,0-36.7-4.1-53,9l46.3,91.1c40.4,14.6,88.9,8.4,129.9,1.8c28.6-4.5,46.3-3.2,54.2-18
	c9-16.8,11.6-43.5,5.2-60.7l-6.3-0.5c-7.3-15.6-4.2-16.3-21.4-17.3c-13-0.8-20.5-1.9-29-11.6c2.5-5.6,6.6-20.8,8.6-27.5
	c3.6-11.8,5.8-17.5-1.7-27l-28.7-0.7l-15.7,29.8C138.8,76.7,140.3,73.8,138.5,76.3z"/>
<path class="st1" d="M58.3,43.2c-21.9-1.8-25.3,0.7-5.9,4.8l9.1,3c0.9-7.9,5.8-12.5,9.4-20.5C73,26.9,71.9,21.6,58.3,43.2z"/>
<path class="st1" d="M48.5,139.1c2.8-8.6,3-12.7-7.6-13C37.9,135.1,37.9,139.3,48.5,139.1z"/>
<path class="st1" d="M143.6,127.1c-2.6-5.6,0.6-2.7-5.1-5.3c-1.9-0.9-7.7-1.8-9.7-2C129.8,129.9,139.2,129.5,143.6,127.1z"/>
<path class="st1" d="M158,128.8c7.5-9.4,2.9-5.4-0.4-9.7C154.8,123.9,151.4,121,158,128.8z"/>
<path class="st1" d="M188.9,126.9c3.3-6.3,3.9-4.7-2.2-10.2C183.5,123.9,182.7,121.2,188.9,126.9z"/>
<path class="st1" d="M199.7,126.5c4.3-7.8,4.6-5.6-1.6-9.6C194.8,122.4,193.8,121,199.7,126.5z"/>
<path class="st1" d="M149.3,130c3.5-5.9,5.1-2.5,0.1-10.8C144.8,126.8,145,123.7,149.3,130z"/>
<path class="st1" d="M178.4,127.3c3.1-6,6.4-1-1.1-9.3C172.2,126.9,174.7,123,178.4,127.3z"/>
<path class="st1" d="M101.1,114c2.9-8.7-0.1-6.3-4.6-7.6C97.1,116.6,94.1,110.9,101.1,114z"/>
<path class="st1" d="M167.9,128.6c3.4-7.6,5.1-0.1-0.3-9.6C164.1,124.6,160.5,119.1,167.9,128.6z"/>
<path class="st1" d="M112,114.3c6.5-9.8,4.3-2.4,0.1-9.4C108.8,111,105.9,106.3,112,114.3z"/>
<path class="st1" d="M87.8,112.7c3.8-7.7,2.9-1.2,0-8.6C84.5,111.1,83.7,104.7,87.8,112.7z"/>
<path class="st2" d="M40.9,126.1c10.6,0.3,10.4,4.4,7.6,13C37.9,139.3,37.9,135.1,40.9,126.1z M176.7,151.8
	c-97.7,19.4-67.1-60.7-166.1-40.1c0.5,9.7,25.7,59.5,32.3,71.1c63.4,7.1,122.2,7.6,187.4-13.2l1.9-35.4
	C213.4,138.3,198.4,147.5,176.7,151.8z"/>
<path class="st2" d="M158,52.2c5.1,1.9,18.9,2.7,25.9-3.5C175.5,46.2,162.9,43.9,158,52.2z"/>
<path class="st3" d="M48.9,189.7c8.2,28.3,119.2,10.1,142.2,5.8c18.1-3.3,30.4,1.3,35.1-17.6c-11.5,1-29.1,5.9-42.1,8
	C107.2,198.4,122.8,195,48.9,189.7z"/>
</svg>
