<?xml version="1.0" encoding="utf-8"?>
<!-- Generator: Adobe Illustrator 24.1.2, SVG Export Plug-In . SVG Version: 6.00 Build 0)  -->
<svg version="1.1" id="Слой_1" xmlns="http://www.w3.org/2000/svg" xmlns:xlink="http://www.w3.org/1999/xlink" x="0px" y="0px"
	 viewBox="0 0 230.6 230.6" style="enable-background:new 0 0 230.6 230.6;" xml:space="preserve">
<style type="text/css">
	.st0{fill-rule:evenodd;clip-rule:evenodd;fill:#C16327;}
	.st1{fill-rule:evenodd;clip-rule:evenodd;fill:#FDBE10;}
	.st2{fill-rule:evenodd;clip-rule:evenodd;fill:#74CBCE;}
	.st3{fill-rule:evenodd;clip-rule:evenodd;}
	.st4{fill-rule:evenodd;clip-rule:evenodd;fill:#C46528;}
	.st5{fill-rule:evenodd;clip-rule:evenodd;fill:#020303;}
	.st6{fill-rule:evenodd;clip-rule:evenodd;fill:#120904;}
	.st7{fill-rule:evenodd;clip-rule:evenodd;fill:#BA6026;}
</style>
<path class="st0" d="M123.7,222.8c12.6-3.7,7.7-37.1,0-44.3c-3.3,4.8-2,0-3.3,6.6C120.1,186.7,120.4,216.2,123.7,222.8z"/>
<path class="st0" d="M18.1,87.7c25.6,5.7,21.3-1.4,22.4-4c-3.4-3.1,0.3-5.6-12.7-2.8C23.1,81.9,19.6,83.8,18.1,87.7z"/>
<path class="st0" d="M195.1,81c4.7,8.4,9.9,6.6,20.6,3.8c-1.3-3.7,0.3-4.1-7.1-6C197,75.7,199.6,78,195.1,81z"/>
<path class="st1" d="M51.5,33.3c7.2,17.2,38.5,16.7,56.2,18c56.4,4,63.8-32.2,33.6-33l1.7,11.3c-52.6,8.5-25.6,5.2-62.1,0.1
	l-1.1-12.6C64.3,21.2,57.8,18.2,51.5,33.3z"/>
<path class="st1" d="M86.6,22c17.8,11,30.2,5.8,49.8,2C128.7,0.8,95.3,3.2,86.6,22z"/>
<path class="st2" d="M115.3,109.8c9-3.9,10.7-2.8,15.8,5.9c-2.8,10.8-6.2,12.8-16.3,8.8C110.6,115,110.7,117,115.3,109.8z
	 M113.1,99.5c-6.2-12.5,5.8-20.4,15.2-10.1C127.7,99.4,122.7,104.6,113.1,99.5z M48.9,78.2c-4.4,8.5-3.1,14.7-1.8,24l14.9,4.7
	c1.9,34.3-11.9,59.3,27.2,64.3c19,2.4,68.6,2.3,85.3-4.5c6.7-19.9,2.4-33.2,1.9-53.7l10.9-5.1l0.8-31.8c-31.8-10-44.1-4.7-64.8-0.9
	C101.6,79.1,68.2,67.2,48.9,78.2z"/>
<path class="st3" d="M123.7,222.8c-3.3-6.5-3.6-36.1-3.3-37.6c1.2-6.6-0.1-1.8,3.3-6.6C131.4,185.6,136.3,219.1,123.7,222.8z
	 M48.9,78.2c19.3-11,52.6,0.9,74.5-3.1c20.7-3.8,33-9.1,64.8,0.9l-0.8,31.8l-10.9,5.1c0.5,20.5,4.8,33.8-1.9,53.7
	c-16.7,6.8-66.3,7-85.3,4.5c-39.1-5-25.3-30-27.2-64.3l-14.9-4.7C45.8,92.9,44.5,86.7,48.9,78.2z M40.5,83.6
	c-1.1,2.6,3.3,9.7-22.4,4c1.4-3.8,5-5.8,9.7-6.8C40.8,78.1,37.1,80.5,40.5,83.6z M215.8,84.8c-10.7,2.8-15.9,4.6-20.6-3.8
	c4.4-2.9,1.8-5.2,13.5-2.2C216,80.7,214.4,81.1,215.8,84.8L215.8,84.8z M136.1,57.2c-5.4,17.4-37.9,17.8-44.2-0.7L136.1,57.2z
	 M86.6,22c8.7-18.9,42.1-21.3,49.8,2C116.8,27.9,104.4,33,86.6,22z M51.5,33.3c6.3-15.1,12.8-12.1,28.2-16.3l1.1,12.6
	c36.5,5,9.5,8.4,62.1-0.1l-1.7-11.3c30.2,0.9,22.8,37-33.6,33C90,50,58.7,50.5,51.5,33.3z M46.2,30.2c0,21.1,19.3,23.2,37,24.5
	l5.4,13.1c-33.9-0.9-16.8-1-43.4,4.2c-15.2,3-25.7-0.4-36.6,14.1c8.7,13.2,15,7.4,31.8,8.7l1.4,13.9l15,2c0,11.5,0,16.3-1.7,27.6
	c-5.4,37,26.1,41.6,57.9,41.6c0,12.2,2.7,14.6,2.8,26.6c0.1,14.9-3.7,16.7,7.9,24.1c22.7-6.1,10.7-36.4,10.7-53.4
	c49.2,0,55.3,2.6,47.9-59c12.2-9.4,13.6-6.1,13.6-26.5c9.6,2.3,17.4,2.9,26-3.4c2.1-21-20.2-15.1-30.6-17.2
	c-23.1-4.5,2.9-6.2-48.8-6.2c0.4-18,4.7-6.9,16.9-20.5c8.9-10,6.8-14.9,2.8-25.8c-11.9-5.9-20.3-6.3-28.8-11.3
	c-27.5-16.4-29.6-0.7-61.9,5.2C59.7,14.6,49.4,18.3,46.2,30.2z"/>
<path class="st4" d="M136.1,57.2l-44.2-0.7C98.2,75,130.8,74.6,136.1,57.2z"/>
<path class="st5" d="M120.9,113.3c6.1,8.5,4.4,1.6-0.1,8C114.6,114.8,117.5,118.4,120.9,113.3z M115.3,109.8
	c-4.6,7.2-4.8,5.2-0.5,14.7c10.1,4,13.5,2,16.3-8.8C126,107,124.3,105.9,115.3,109.8z"/>
<path class="st6" d="M113.1,99.5c9.6,5.2,14.7-0.1,15.2-10.1C118.8,79.1,106.9,87,113.1,99.5z"/>
<path class="st7" d="M120.9,121.3c4.5-6.5,6.1,0.5,0.1-8C117.5,118.4,114.6,114.8,120.9,121.3z"/>
</svg>
