<?xml version="1.0" encoding="utf-8"?>
<!-- Generator: Adobe Illustrator 24.1.2, SVG Export Plug-In . SVG Version: 6.00 Build 0)  -->
<svg version="1.1" id="Слой_1" xmlns="http://www.w3.org/2000/svg" xmlns:xlink="http://www.w3.org/1999/xlink" x="0px" y="0px"
	 viewBox="0 0 232.7 232.7" style="enable-background:new 0 0 232.7 232.7;" xml:space="preserve">
<style type="text/css">
	.st0{fill-rule:evenodd;clip-rule:evenodd;fill:#BE6126;}
	.st1{fill-rule:evenodd;clip-rule:evenodd;fill:#D5E6E6;}
	.st2{fill-rule:evenodd;clip-rule:evenodd;fill:#020202;}
	.st3{fill-rule:evenodd;clip-rule:evenodd;fill:#BBBBBB;}
	.st4{fill-rule:evenodd;clip-rule:evenodd;fill:#FDBE10;}
	.st5{fill-rule:evenodd;clip-rule:evenodd;fill:#ED4723;}
</style>
<path class="st0" d="M213,193.7c-3.9-1.6-173.1-5.1-193.3-5.2c3.2,11.9,4.1,8.3,19.9,7.9l74.9-0.6
	C126.8,195.9,203.6,200.6,213,193.7z"/>
<path class="st0" d="M141.1,178.1c-19.1,1.3-13.2,2.3-15.6,4.9c5.3,3.2,0.7,2.1,10.2,2.8c32.6,2.7,24.7,1.5,26.8-6.8
	C155.6,176.6,150,177.5,141.1,178.1z"/>
<path class="st0" d="M98.5,185c8,0.5,9-4.5,10-9.7c-5.5-2.2-5.4-1.7-13.5,1.3l-13.4,7.7L98.5,185z"/>
<path class="st0" d="M113.2,184.2c10.9-0.3,2.6,1.9,7.7-5.6c2.8-4.1,3.7-4.9,6.4-8.3l-12.4-0.2L113.2,184.2z"/>
<path class="st1" d="M183.7,54.6c0.3,22.8,2.6,44.6,2.7,66.8c0.1,21.7-2.3,42.4-2.2,64.8l29.2-0.5c-0.1-24.6,1.2-114.8-3.6-132.5
	L183.7,54.6z"/>
<polygon class="st1" points="20.1,183.1 45.9,181.8 45.1,57.3 21,57.4 "/>
<path class="st1" d="M8.5,38.7c4.9,18.3,25,12.9,44.9,12.2c36-1.3,127.6-0.5,154.7-3.8c12.9-1.6,16.8-2,18.3-13.5L8.5,38.7z"/>
<path class="st2" d="M19.7,188.4c20.2,0.1,189.4,3.6,193.3,5.2c-9.4,7-86.2,2.2-98.5,2.1l-74.9,0.6
	C23.8,196.7,22.8,200.3,19.7,188.4z M125.4,183c2.5-2.5-3.5-3.5,15.6-4.9c9-0.6,14.5-1.5,21.5,0.9c-2.1,8.3,5.8,9.5-26.8,6.8
	C126.1,185,130.7,186.2,125.4,183z M21,57.4l24-0.1l0.8,124.5L20,183.1L21,57.4z M98.5,185l-16.8-0.8l13.3-7.7c8-2.9,8-3.4,13.5-1.3
	C107.5,180.5,106.4,185.5,98.5,185z M113.2,184.2l1.7-14.1l12.4,0.2c-2.7,3.4-3.6,4.2-6.4,8.3C115.8,186.1,124.1,184,113.2,184.2z
	 M113.1,160.2c-7-5.5-7.5-9.9-2.9-16c11.5,15.2,22.1,6.8,26.5,22.7C127.7,165,119,164.7,113.1,160.2z M183.7,54.6l26.1-1.4
	c4.8,17.7,3.5,107.9,3.6,132.5l-29.2,0.5c-0.1-22.4,2.4-43.1,2.2-64.8C186.3,99.3,184,77.4,183.7,54.6z M103.8,125.4
	c14.7-11.4,20.9-23.5,13.8-46.3c30.6,14.3,7.5,49.5,5.7,60.5c13,3,17.3-3.4,21.3,0.4c4.6,4.4,2.2,17,1.1,23.8
	c-9.3-5.5-4.3-7.3-19.2-14.4c-11.5-5.5-8.9-7.9-14.7-16.9c-15.4,9.8-13.5,21.7-1.1,33.3c-13.9,1.7-25.6-5.8-26.8-20.2
	c-1.7-20.4,12.1-21,18.6-30.7c0,0.9-0.2,5-0.2,5.4C102.8,124.1,102.9,123.6,103.8,125.4z M111,108.1c-4.3,0.1,4.7,4.5-1.7-2.9
	c-3.7-4.2,1.2-2.2-4.7-4.2c-4.5,7.6-52.8,44.4-11.3,68.2c-0.5,0.4-1.4,0.3-1.7,1.2l-17.3,7.3c-7.5,2.7-11.7,5.2-21.6,5.3L51.1,57.9
	c18.8-2.3,110.1-5,126.4-2c1.7,45.4,1.2,85.8,1.2,130.8c-13-1.3-9.8-4.6-13.3-14.3l-15.8-1.5c6-17.9,5.4-31.3-5.6-44
	c-5.9,2.8-4.2,5.7-13.5,8c1.1-4.3,29.2-51.7-20.8-66.3C108.6,85.9,119.8,87.5,111,108.1z M226.4,33.6c-1.5,11.5-5.5,11.9-18.3,13.5
	C181,50.4,89.3,49.6,53.3,50.9c-19.9,0.7-40,6.1-44.9-12.2L226.4,33.6z M15.6,57.4c-0.7,8.4-2.7,9.5-2.7,18.7
	c0,30.3-3.2,100.2,2.7,125.6c34.8,0,69.5,0,104.2,0c32.4,0,69.6,6.8,98.9,0V52c21-11.1,14.4-24,5.3-24L7.5,33.5
	C-10.9,37.1,9.6,53.3,15.6,57.4z"/>
<path class="st3" d="M111,108.1c8.8-20.6-2.4-22.3-1.4-39.5c50,14.6,22,61.9,20.8,66.3c9.3-2.4,7.6-5.2,13.5-8
	c11,12.7,11.7,26.2,5.6,44l15.8,1.5c3.6,9.7,0.3,12.9,13.3,14.3c0-45,0.6-85.5-1.2-130.8c-16.3-3-107.6-0.3-126.4,2L52.8,183
	c9.8-0.1,14-2.6,21.6-5.3l17.3-7.3c0.3-0.9,1.2-0.8,1.7-1.2c-41.5-23.8,6.8-60.6,11.3-68.1c5.9,2,1,0,4.7,4.3
	C115.7,112.7,106.7,108.2,111,108.1z"/>
<path class="st4" d="M103.8,125.4c-0.9-1.7-1-1.3-1.4-5.1c-0.1-0.3,0.2-4.5,0.2-5.4c-6.5,9.7-20.3,10.3-18.6,30.7
	c1.2,14.5,12.8,21.9,26.8,20.2c-12.4-11.6-14.3-23.5,1.1-33.3c5.7,9,3.2,11.4,14.7,16.9c14.9,7.1,9.9,8.8,19.2,14.4
	c1.1-6.8,3.5-19.4-1.1-23.8c-3.9-3.8-8.3,2.6-21.3-0.4c1.8-11,24.9-46.2-5.7-60.5C124.7,101.8,118.5,114,103.8,125.4z"/>
<path class="st5" d="M136.8,166.9c-4.4-15.9-15.1-7.5-26.5-22.7c-4.6,6.1-4.1,10.5,2.9,16C119,164.7,127.7,165,136.8,166.9z"/>
</svg>
