<?xml version="1.0" encoding="utf-8"?>
<!-- Generator: Adobe Illustrator 24.1.2, SVG Export Plug-In . SVG Version: 6.00 Build 0)  -->
<svg version="1.1" id="Слой_1" xmlns="http://www.w3.org/2000/svg" xmlns:xlink="http://www.w3.org/1999/xlink" x="0px" y="0px"
	 viewBox="0 0 233.1 233.1" style="enable-background:new 0 0 233.1 233.1;" xml:space="preserve">
<style type="text/css">
	.st0{fill-rule:evenodd;clip-rule:evenodd;fill:#72C9CC;}
	.st1{fill-rule:evenodd;clip-rule:evenodd;fill:#010100;}
	.st2{fill-rule:evenodd;clip-rule:evenodd;fill:#FCBD10;}
	.st3{fill-rule:evenodd;clip-rule:evenodd;fill:#F5841F;}
</style>
<path class="st0" d="M36.3,136.1l11.7,1.1c0.9-10.9,3.1-5.6-3.8-11.8C34.9,125.9,35.4,127.3,36.3,136.1z"/>
<path class="st0" d="M119.2,136.1l11.7,1.2c0.9-11,3.1-5.6-3.8-11.8C117.9,125.9,118.3,127.3,119.2,136.1z"/>
<path class="st0" d="M63.1,135.8c8.9,3,4.1,3.7,12.6-1.3C74,119.4,62,123.1,63.1,135.8z"/>
<path class="st0" d="M92,136.6l11.5,0.2C105.4,121.9,90.6,119.9,92,136.6z"/>
<path class="st0" d="M215.5,218.4c7.2-6.8,5.6-10.8,1.6-18.5C213.5,207.9,213,209.9,215.5,218.4z"/>
<path class="st0" d="M221.1,181.3c5.9-6.5,7.1-9.1,2.2-16.2C218.8,171.4,218.5,173.3,221.1,181.3z"/>
<path class="st0" d="M217.3,191.3c5.7,2,1.6,2.8,6.7-1.1C217,186.9,220.2,189.4,217.3,191.3z"/>
<path class="st0" d="M126.8,26.8c5.3-8.4,4.9-3.8,2.2-9.6L126.8,26.8z"/>
<path class="st0" d="M182.3,75.7c1.4,5.1,2.6,2.4,2.8,0.8S181.6,73,182.3,75.7z"/>
<path class="st1" d="M215.5,218.4c-2.6-8.6-2.1-10.6,1.6-18.5C221.2,207.7,222.8,211.6,215.5,218.4z M224,190.2
	c-5.2,3.9-1.1,3-6.7,1.1C220.2,189.4,217,186.9,224,190.2z M221,181.3c-2.6-8.1-2.3-10,2.2-16.2C228.1,172.3,227,174.8,221,181.3
	L221,181.3z M213.5,166.8c1.6,14.2,3.2,9.8-4.9,13.4C206.9,175,208.9,173.2,213.5,166.8L213.5,166.8z M206,164.3
	c-4.1,13.5-22.2,35.6-33.4,43.3c-30.9,21.4-154.5,20.3-163.9-43c17.1,1,27.9,4.3,47.9,4.1C94.8,168.3,177.1,172.7,206,164.3z
	 M6.3,156.2C2,104.9,41.9,88.9,86,88.8c22.4,0,124.7,0.9,137.1,8.1c5.9,21.9-2.4,40.1-11.9,59C182.9,165.4,29.8,167.5,6.3,156.2z
	 M120.8,83.4c0.1-23.8,20.6-21.6,40.1-22c20-0.4,36.6,1.3,37,24.9L120.8,83.4z M152.2,14.8c1,11.6,2,32.5-5,41.4
	c-6.4-8.8-0.2-11.4-4.7-21.2c-5.5-12-7.4,2.7-5.6-20.8L152.2,14.8z M129,17.3c2.7,5.8,3.2,1.1-2.2,9.6L129,17.3z M122.5,33.8
	l13.8,2.2c1.3,39.1-6.8,6-21.6,38.9c-5.8,13,1.4,5.1-7.3,8.7c0,0-67.4-10.3-92.6,22.3c-21.6,27.9-18.4,67.8,2.3,89.3
	c24.7,25.6,54.6,30.1,90.3,30c18.6,0,37.9,1.9,54.3-4.4c28.4-11.1,18.6-25.2,46.8-24.8l1.1,27.5c21.7,6.1,17.2-16.3,17.2-21.1
	c0-10.6,0.9,0.1,2.8-9.9c1.6-8.8-0.9-4.6-0.2-9.6c0.9-6.3,3.2-4,3.7-11.5c0.7-10.6-5.6-15.3-15.4-10.7c1.8-15.7,26.5-48.8,6.7-73.9
	L204,86.2c-2.4-30.5-19.5-30.3-45.4-32.3l-0.5-44.5C139.1,5.9,112.4,3.7,122.5,33.8z"/>
<path class="st1" d="M63.1,135.8c-1.1-12.7,10.9-16.4,12.6-1.3C67.2,139.5,72,138.8,63.1,135.8z M36.3,136.1
	c-0.9-8.8-1.4-10.2,7.9-10.7c6.9,6.2,4.7,0.8,3.8,11.8L36.3,136.1z M31.1,138.6c10.9,10,16,6,24.3-4.8c9.3,15.7,20.1,13.2,28.8-1.7
	c-10.9-21.8-23-14-27.8-3l-11-11.4l-15.5,7L31.1,138.6z"/>
<path class="st1" d="M92,136.6c-1.4-16.7,13.4-14.7,11.5,0.2L92,136.6z M85.7,138.3c11.7,10.9,25.6,6.9,24.3-11.9
	C97.1,112.1,83.8,118.4,85.7,138.3z"/>
<path class="st1" d="M119.2,136.1c-0.9-8.8-1.3-10.2,7.9-10.7c6.9,6.2,4.7,0.9,3.8,11.8L119.2,136.1z M121,144.1
	c10.5-0.6,13.2-2.5,17.3-12.3c-4.7-16.9-14.3-16.4-26.3-5.4l0.6,11.3L121,144.1z"/>
<path class="st1" d="M182.3,75.7c-0.7-2.7,2.9-0.7,2.8,0.8S183.7,80.8,182.3,75.7z M174.7,70.8l0.9,10.7c8.9,4.5,5.7,4.5,14.9,0.1
	l2.5-8.4C186.2,66.8,183.2,65.9,174.7,70.8L174.7,70.8z"/>
<path class="st2" d="M85.7,138.3c-1.9-19.9,11.4-26.3,24.3-11.9C111.3,145.3,97.4,149.3,85.7,138.3z M121,144.1l-8.4-6.5l-0.6-11.3
	c12-10.9,21.5-11.4,26.3,5.4C134.1,141.5,131.4,143.5,121,144.1z M31.2,138.6L30,124.7l15.5-7l11,11.4c4.7-11,16.9-18.8,27.8,3
	c-8.7,14.9-19.5,17.4-28.8,1.7C47.1,144.6,42,148.6,31.2,138.6L31.2,138.6z M6.3,156.2c23.5,11.3,176.5,9.2,204.8-0.2
	c9.5-19,17.8-37.1,11.9-59c-12.4-7.2-114.7-8.1-137-8.1C41.9,88.9,2,104.9,6.3,156.2z"/>
<path class="st2" d="M190.5,81.6c-9.2,4.4-6,4.5-14.9-0.1l-0.9-10.7c8.4-4.9,11.5-4,18.3,2.4L190.5,81.6z M120.8,83.4l77,2.8
	c-0.4-23.6-17-25.3-37-24.9C141.3,61.8,120.8,59.7,120.8,83.4z"/>
<path class="st2" d="M147.2,56.2c7-8.9,6-29.8,5-41.4L137,14.2c-1.8,23.5,0.1,8.9,5.6,20.8C147.1,44.8,140.8,47.4,147.2,56.2z"/>
<path class="st3" d="M206,164.3c-28.9,8.4-111.2,4-149.4,4.4c-20,0.2-30.8-3.1-47.9-4.1c9.4,63.3,132.9,64.4,163.9,43
	C183.8,199.9,201.9,177.8,206,164.3z"/>
</svg>
