<?xml version="1.0" encoding="utf-8"?>
<!-- Generator: Adobe Illustrator 24.1.2, SVG Export Plug-In . SVG Version: 6.00 Build 0)  -->
<svg version="1.1" id="Слой_1" xmlns="http://www.w3.org/2000/svg" xmlns:xlink="http://www.w3.org/1999/xlink" x="0px" y="0px"
	 viewBox="0 0 230.7 230.7" style="enable-background:new 0 0 230.7 230.7;" xml:space="preserve">
<style type="text/css">
	.st0{fill-rule:evenodd;clip-rule:evenodd;fill:#FCBD10;}
	.st1{fill-rule:evenodd;clip-rule:evenodd;fill:#050302;}
	.st2{fill-rule:evenodd;clip-rule:evenodd;fill:#C26427;}
</style>
<path class="st0" d="M193.5,216.1c-7.5-3.4-6.9-3.7-14.4,0.2C184.1,222.6,188.8,234.1,193.5,216.1z"/>
<path class="st0" d="M55.4,216.2c-8.6-3.6-5-4-13.8,0.1C44.3,219,45.6,232.3,55.4,216.2z"/>
<path class="st0" d="M141.3,103.7c-1.4-5,3-4.5-6.1-6.1C135.3,105.4,131,102.8,141.3,103.7z"/>
<path class="st0" d="M92.7,103.3c-1.7-4.9,2.2-3.4-6-5.7C86.6,104.6,80.7,103.5,92.7,103.3z"/>
<path class="st1" d="M179.1,216.4c7.5-3.9,7-3.6,14.4-0.2C188.8,234.1,184.1,222.6,179.1,216.4z M41.7,216.3c8.8-4,5.1-3.7,13.8-0.1
	C45.6,232.3,44.3,219,41.7,216.3L41.7,216.3z M23.8,10l180.4-2.7l3,198.7l-180.3,1.5L23.8,10z M17.8,3.6
	c-2.6,65.3,3.3,140.4,0.9,207.8c9.8,5.4,7.2-0.9,13.7,5c0,0,9.2,24.1,25.3,9.7c11.7-10.6-5.4-6,9.3-12.2h98.9
	c11.7,4.4,7.9,21.7,25.8,15.6c12.2-4.1,0.5-4.6,14.7-15.2c0.5-0.3,1.2-0.7,1.6-1c6.4-4.7,2.7,4.3,5.6-5L211.3,0L17.8,3.6z"/>
<path class="st1" d="M122.2,19.8l67.8,0.2c0,56.1-2.3,113.8,4.1,169.7l-70.2-3.3L122.2,19.8z M118.2,194.7
	c15.4-0.8,23.4-2.4,39.8-1.3c60.4,4.1,37.4,7.3,37.4-86.6c0-30.1,1.4-63.5-0.4-93.2l-76.5,0.2C111.5,57.1,117.1,147.4,118.2,194.7
	L118.2,194.7z"/>
<path class="st1" d="M36.8,21.3l67.8,0.1c0,56.9-1.8,112.9,4.2,169.7l-69.5-2.9L36.8,21.3z M35.4,195.5c0.2,0.1,74.7,0.9,78.1,0.3
	c2.2-11.5-3.4-68-3.4-86.2c0-31.4,0.4-63.1-0.1-94.4l-77.8,0.4c-0.8,30-2.1,61.6-1,91.4C31.8,123.7,30,186.6,35.4,195.5z"/>
<path class="st1" d="M86.8,97.6c8.2,2.3,4.3,0.8,6,5.7C80.7,103.5,86.6,104.6,86.8,97.6z M82,108.1c9.2,2.6,6.7,3.1,15-0.8
	C105.6,85.5,68.8,85.6,82,108.1z"/>
<path class="st1" d="M135.2,97.7c9.1,1.6,4.7,1.1,6.1,6.1C131,102.8,135.3,105.4,135.2,97.7z M129.5,106.1c7.9,5.4,6.9,4.7,16.3,2.1
	l2.1-12C135.9,87.5,124.9,90.5,129.5,106.1z"/>
<path class="st2" d="M129.5,106.1c-4.6-15.7,6.4-18.7,18.4-9.9l-2.1,12C136.4,110.8,137.4,111.5,129.5,106.1z M123.9,186.5l70.2,3.3
	c-6.5-55.9-4.1-113.6-4.1-169.7l-67.8-0.2L123.9,186.5z"/>
<path class="st2" d="M82,108.1c-13.2-22.6,23.6-22.6,15-0.8C88.6,111.2,91.2,110.8,82,108.1z M39.2,188.1l69.5,2.9
	c-6-56.8-4.2-112.8-4.2-169.7l-67.8-0.1L39.2,188.1z"/>
<path class="st2" d="M35.4,195.5c-5.5-9-3.6-71.9-4.2-88.6c-1-29.8,0.2-61.3,1-91.4l77.8-0.4c0.5,31.4,0,63,0.1,94.4
	c0,18.2,5.6,74.7,3.4,86.2C110.1,196.4,35.6,195.6,35.4,195.5z M118.2,194.7c-1.1-47.3-6.7-137.6,0.3-180.8l76.5-0.2
	c1.8,29.7,0.4,63.1,0.4,93.2c0.1,93.8,23,90.7-37.4,86.6C141.6,192.4,133.5,193.9,118.2,194.7L118.2,194.7z M26.9,207.6l180.3-1.5
	l-3-198.7L23.8,10L26.9,207.6z"/>
</svg>
