<?xml version="1.0" encoding="utf-8"?>
<!-- Generator: Adobe Illustrator 24.1.2, SVG Export Plug-In . SVG Version: 6.00 Build 0)  -->
<svg version="1.1" id="Слой_1" xmlns="http://www.w3.org/2000/svg" xmlns:xlink="http://www.w3.org/1999/xlink" x="0px" y="0px"
	 viewBox="0 0 241.9 241.9" style="enable-background:new 0 0 241.9 241.9;" xml:space="preserve">
<style type="text/css">
	.st0{fill-rule:evenodd;clip-rule:evenodd;fill:#C26327;}
	.st1{fill-rule:evenodd;clip-rule:evenodd;fill:#010100;}
	.st2{fill-rule:evenodd;clip-rule:evenodd;fill:#D5E4E4;}
	.st3{fill-rule:evenodd;clip-rule:evenodd;fill:#74CBCE;}
</style>
<path class="st0" d="M19.8,172.8c-8.5-26,2.8-69.6-4.3-88.6c-8.7,8.2-4.7,34.8-5.8,47.7c-5.5,61.6-17.1,53.6,112.5,50.9
	c24.8-0.5,95.2,7.8,111-9.3c4.2-15.4-0.4-26-1.3-41.5c-0.7-12.5,1.9-26.9-10.4-31.6c-8.9,22.6,9,45.1,4.9,74.3
	C196.5,177.7,39.4,180.4,19.8,172.8z"/>
<path class="st0" d="M213.2,218.8c3.9-7.5,3.9-22.9,0-30.2c-6.8,3.6-4.6,3-3.7,13.2C210.2,209.9,209.4,215.1,213.2,218.8z"/>
<path class="st0" d="M28.8,190c-3.4,6.5-1.9,23.2,2.7,29.9C36.5,212.5,35.2,197.6,28.8,190z"/>
<path class="st1" d="M28.8,190c6.4,7.5,7.7,22.5,2.7,29.9C26.9,213.2,25.4,196.5,28.8,190z M213.2,188.7c3.9,7.3,3.9,22.7,0,30.2
	c-3.8-3.7-3-8.9-3.7-16.9C208.6,191.7,206.5,192.3,213.2,188.7L213.2,188.7z M22.3,144.7c37.3-0.6,73.8-2.2,110.7-2.2
	c74.8,0,92.5-8.4,88,26.7c-29.3,1.5-177.1,4.7-195.5-1.7L22.3,144.7z M49.1,136.4l-25.8,1.9l0.2-40.1c36.2-10,36.5,20.2,52.1,37.9
	c-23.2,5.1-31.3-19.7-49-19.7C30,123.9,41.8,131.7,49.1,136.4L49.1,136.4z M19.8,172.8c19.6,7.6,176.7,4.9,206.6,2
	c4.1-29.2-13.8-51.7-4.9-74.3c12.3,4.7,9.8,19.1,10.4,31.6c0.9,15.5,5.5,26.1,1.3,41.5c-15.8,17.1-86.1,8.8-110.9,9.3
	C-7.3,185.6,4.2,193.6,9.7,132c1.2-13-2.9-39.6,5.8-47.7C22.6,103.2,11.4,146.8,19.8,172.8z M20.8,190.9c0,21.4-5.6,34.7,18.7,34.7
	v-34.7c55.6,0,107.3-2.7,163-2.7c0,16.4-2,42,18.7,37.4v-34.7c21.5-19,23.5-13,18.2-47.6c-3.7-24.4,5.8-48.6-23.6-48.6
	c-5.1,21.3-1.7,23.4,0,42.8c-17.6-4.3-11.4,0.3-25.9-0.8c-33.4-2.5-99.6,0.8-99.7,0.8c-5.5-0.7-11.7-7-15.2-11.5
	c-5.4-6.9-4.3-11.1-8.3-18.4c-7.2-13-23-18.2-38-18.2c-16.2-6.1,3.6-10.7-21.4-10.7c-1.4,5.7-9.2,86.9-7,95.2
	C4.2,188.2,10,185.9,20.8,190.9L20.8,190.9z"/>
<path class="st1" d="M149.1,25.2c5.4,2.1,23.2-2.7,34.8-2.7c-5.2,10.3-19.6,22.5-16.9,33c8.1,2.7,16,1.9,25.1,1.9
	c13.5,0.1,18.1,3.4,21.3-8.2c-16,0-25.7,2.7-40.1,2.7c6.7-10.2,21-22.8,17-35.7C190.1,16.2,154.3,12.8,149.1,25.2z"/>
<path class="st1" d="M111.6,62.6l21.4-2.8l-11.6,18.1c10,3,30.6,7.3,35.7-4.7c-6.3-2.4-15.7,0-24.1,0c5.6-8.5,9.5-9.4,6.3-19.6
	c-6.3-1.9-8.8-0.7-14.8,0.3C113.2,55.6,114.5,52.1,111.6,62.6z"/>
<path class="st1" d="M82.7,90c5.2,7.2,2.8,4,12.7,5.4c-2.6,5.5-2.9,5,0.3,10h18.7c-4.6-10.8,2.2-1.4-10.2-7.1l6-11.1
	C99.2,86.6,89.8,84.5,82.7,90z"/>
<path class="st2" d="M25.5,167.5c18.3,6.4,166.2,3.2,195.5,1.7c4.5-35.1-13.1-26.7-88-26.7c-37,0-73.4,1.6-110.7,2.2L25.5,167.5z"/>
<path class="st3" d="M49.1,136.4c-7.3-4.8-19.2-12.5-22.5-20c17.7,0,25.8,24.8,49,19.7c-15.5-17.7-15.9-48-52.1-37.9l-0.2,40.1
	L49.1,136.4z"/>
</svg>
