<?xml version="1.0" encoding="utf-8"?>
<!-- Generator: Adobe Illustrator 24.1.2, SVG Export Plug-In . SVG Version: 6.00 Build 0)  -->
<svg version="1.1" id="Слой_1" xmlns="http://www.w3.org/2000/svg" xmlns:xlink="http://www.w3.org/1999/xlink" x="0px" y="0px"
	 viewBox="0 0 241.9 241.9" style="enable-background:new 0 0 241.9 241.9;" xml:space="preserve">
<style type="text/css">
	.st0{fill-rule:evenodd;clip-rule:evenodd;fill:#BBBBBB;}
	.st1{fill-rule:evenodd;clip-rule:evenodd;fill:#C46528;}
	.st2{fill-rule:evenodd;clip-rule:evenodd;}
</style>
<path class="st0" d="M142.3,144.3l-60.8,36c6,13.4,53.3,54.6,73.9,53.2l18.5-66.5C165.6,159.6,152,151.1,142.3,144.3z"/>
<path class="st0" d="M165.4,106.7c-7.9,7.3-17.6,15.6-20.9,28.2c5.5,9.2,27.4,24.3,37.9,27.4c8.1-5.3,19.8-19,22.9-31.3
	C190.6,123.7,186.4,115.1,165.4,106.7z"/>
<path class="st1" d="M27.2,38.7c12.4,15.5,20.6,7,57.4,41.7c20.1,19,30.5,29.2,55,45.3c4.4-3.3,13.6-15.1,16.2-20.2
	c-6.7-9.6-22.8-21-33.5-30.7c-13.6-12.3-20.6-17.9-32.1-32.2c-6.6-8.2-23.1-33-29.4-34.9C49.9,4.5,30.6,30.6,27.2,38.7z"/>
<path class="st1" d="M211.8,140.5c-7,4.8-17.9,17.6-19.8,24.9c8.8,1.4,8.6-2.4,14.6-8.9C211.2,151.7,217.9,146.6,211.8,140.5z"/>
<path class="st2" d="M27.2,38.7c3.4-8.1,22.7-34.2,33.6-31c6.3,1.9,22.8,26.7,29.4,34.9c11.5,14.3,18.5,19.9,32.2,32.2
	c10.7,9.7,26.8,21.1,33.5,30.7c-2.6,5-11.8,16.9-16.2,20.2c-24.5-16.1-34.9-26.3-55-45.3C47.8,45.7,39.6,54.2,27.2,38.7z
	 M142.3,144.3c9.7,6.8,23.3,15.3,31.6,22.6l-18.5,66.5c-20.6,1.4-67.9-39.8-73.9-53.2L142.3,144.3z M165.4,106.7
	c20.9,8.4,25.1,17,39.9,24.3c-3.1,12.3-14.8,26-22.9,31.3c-10.5-3.1-32.4-18.2-37.9-27.4C147.8,122.3,157.5,114.1,165.4,106.7z
	 M192,165.4c1.8-7.3,12.8-20.1,19.8-24.9c6.1,6.1-0.7,11.3-5.1,16C200.7,162.9,200.9,166.7,192,165.4L192,165.4z M19.4,41.4
	c5.3,5.6,7.6,7.1,15.1,11.6c6.7,4,10.6,6.6,16.9,9.8c28.3,14.4,45.7,43.5,72.7,60.9c8.5,5.5,10.1,3.7,12.8,13.9
	c-6.2,9.3-17.2,14-28.5,19.6c-10.2,5-22.6,12.7-33,15.1c0,23.6,16.1,31.5,30.2,42c64.5,48,51.5,25.1,61.9-6.1
	c4.2-12.4,11-25,12.2-38.6c18.1,1.5,13.7,9.5,31.5-8.6c7.1-7.2,8.7-7.1,11.3-18.1c-5.4-5.7-6-5.4-11.8-12.3
	c-4.6-5.5-7.4-7.3-12.6-11.4c-10.1-8-17.7-14.3-30.9-19.1c-16.4-5.9-21-12-38.9-28.7c-20.5-19.2-11.2-5.4-37.1-37.8
	C70.8,8.1,64.8-14.2,40,11.2C32.5,18.8,21.9,30.4,19.4,41.4z"/>
</svg>
