<?xml version="1.0" encoding="utf-8"?>
<!-- Generator: Adobe Illustrator 24.1.2, SVG Export Plug-In . SVG Version: 6.00 Build 0)  -->
<svg version="1.1" id="Layer_1" xmlns="http://www.w3.org/2000/svg" xmlns:xlink="http://www.w3.org/1999/xlink" x="0px" y="0px"
	 viewBox="0 0 342 342" style="enable-background:new 0 0 342 342;" xml:space="preserve">
<style type="text/css">
	.st0{fill:#FFFFFF;stroke:#DDDDDD;stroke-miterlimit:10;}
</style>
<path class="st0" d="M338.5,162.7l-106.7-96c-4.4-3.9-11.1-3.6-15.1,0.8c-3.9,4.4-3.6,11.1,0.8,15.1l86,77.4H11.3
	c-5.9,0-10.7,4.8-10.7,10.7s4.8,10.7,10.7,10.7h292.2l-86,77.4c-4.4,3.9-4.7,10.7-0.8,15.1c2.1,2.3,5,3.5,7.9,3.5
	c2.5,0,5.1-0.9,7.1-2.7l106.7-96c2.2-2,3.5-4.9,3.5-7.9C342,167.6,340.7,164.8,338.5,162.7z"/>
</svg>
