<?xml version="1.0" encoding="utf-8"?>
<!-- Generator: Adobe Illustrator 24.1.2, SVG Export Plug-In . SVG Version: 6.00 Build 0)  -->
<svg version="1.1" id="Layer_1" xmlns="http://www.w3.org/2000/svg" xmlns:xlink="http://www.w3.org/1999/xlink" x="0px" y="0px"
	 viewBox="0 0 341.3 341.3" style="enable-background:new 0 0 341.3 341.3;" xml:space="preserve">
<style type="text/css">
	.st0{fill:#FFFFFF;stroke:#DDDDDD;stroke-miterlimit:10;}
</style>
<g>
	<g>
		<g>
			<path class="st0" d="M337.8,98.7l-106.7-96c-4.4-3.9-11.1-3.6-15.1,0.8c-3.9,4.4-3.6,11.1,0.8,15.1l86,77.4H10.7
				C4.8,96,0,100.8,0,106.7s4.8,10.7,10.7,10.7h292.2l-86,77.4c-4.4,3.9-4.7,10.7-0.8,15.1c2.1,2.3,5,3.5,7.9,3.5
				c2.5,0,5.1-0.9,7.1-2.7l106.7-96c2.2-2,3.5-4.9,3.5-7.9C341.3,103.6,340,100.8,337.8,98.7z"/>
			<path class="st0" d="M330.7,224H38.5l86-77.4c4.4-3.9,4.7-10.7,0.8-15.1c-4-4.4-10.7-4.7-15.1-0.8l-106.7,96
				c-2.2,2-3.5,4.9-3.5,7.9s1.3,5.9,3.5,7.9l106.7,96c2,1.8,4.6,2.7,7.1,2.7c2.9,0,5.8-1.2,7.9-3.5c3.9-4.4,3.6-11.1-0.8-15.1
				l-86-77.4h292.2c5.9,0,10.7-4.8,10.7-10.7S336.6,224,330.7,224z"/>
		</g>
	</g>
</g>
</svg>
