<?xml version="1.0" encoding="utf-8"?>
<!-- Generator: Adobe Illustrator 24.1.2, SVG Export Plug-In . SVG Version: 6.00 Build 0)  -->
<svg version="1.1" id="Layer_1" xmlns="http://www.w3.org/2000/svg" xmlns:xlink="http://www.w3.org/1999/xlink" x="0px" y="0px"
	 viewBox="0 0 386.2 386.2" style="enable-background:new 0 0 386.2 386.2;" xml:space="preserve">
<style type="text/css">
	.st0{fill:#3C3C3C;}
</style>
<g>
	<path class="st0" d="M55,259.4H17c2.9-10.8,11.4-19.4,22.6-22.3l31.5-7.9c2.9-0.7,5.1-3,5.8-5.8l3.7-15c0.7-2.8-0.2-5.8-2.3-7.8
		c-7-6.6-11.6-16.2-12.4-25.7c-0.3-4.2-4.7-7.1-8.9-7.1l-1.5-14.9c2.3,0,4.5-1,6-2.7s2.2-4,1.9-6.3c-0.7-5.4-1.8-15-1.8-18.1
		c0-9.1,0-18.5,26.5-18.8c1.6,0,3.2-0.5,4.6-1.5c4.5-3.2,9.6-5.1,16.1-5.7c4.4-0.5,7.6-4.4,7.1-8.8c-0.4-4.4-4.4-7.6-8.8-7.1
		c-8.3,0.9-15.3,3.2-21.6,7.2c-35.7,1.2-39.9,20.3-39.9,34.7c0,3,0.5,8.7,1.1,13.3c-1.4,0.8-2.7,1.9-3.8,3.1
		c-3,3.4-4.4,7.9-3.8,12.3l1.9,15.3c0.7,5.6,4.3,10.2,9.6,12.4c1.9,9.7,6.6,19.2,13.2,26.6l-1.5,6l-26.9,6.7
		C14.7,226.9,0,245.7,0,267.4c0,4.4,3.6,8,8,8h47c4.4,0,8-3.6,8-8S59.5,259.4,55,259.4z"/>
	<path class="st0" d="M348.3,221.6l-26.9-6.7l-1.3-5.3c7-7.6,12-17.4,13.9-27.6c4.6-2.2,8-6.7,8.7-12.1l1.9-15.3
		c0.6-4.4-0.8-8.9-3.7-12.2c-1-1.2-2.2-2.1-3.4-2.9l0.5-10.1l1.8-1.8c4.4-4.7,10.3-14.6,0.9-29c-4.5-6.9-13.8-15.1-32.5-15.1
		c-7.6,0-14.3,1-20.4,3.2c-4.2,1.4-6.4,6-5,10.2s6,6.4,10.2,5c4.5-1.5,9.4-2.3,15.2-2.3c9.4,0,15.6,2.6,19.1,7.9
		c3.9,6,2.2,7.9,1,9.1l-3.8,3.8c-1.4,1.4-2.2,3.3-2.3,5.3l-0.9,19.2c-0.1,2.2,0.5,4.1,2,5.7c1.5,1.6,3.4,2.3,5.6,2.3l-2,15
		c-4.2,0-7.6,3.2-8,7.4c-0.8,9.7-5.7,19.7-13,26.2c-2.2,2-3.1,5-2.4,7.9l3.6,14.4c0.7,2.9,3,5.1,5.8,5.8l31.5,7.9
		c11.2,2.8,19.7,11.5,22.6,22.3h-38v16h47c4.4,0,8-3.6,8-8C384,245.7,369.3,226.9,348.3,221.6z"/>
	<path class="st0" d="M273.5,255.8l-38.4-9.6l-2.6-10.5c10.1-10.5,17.1-24.4,19.6-38.8c6.1-2.4,10.7-8,11.6-14.9l2.6-20.9
		c0.7-5.2-0.9-10.4-4.4-14.4c-1.6-1.8-3.4-3.2-5.5-4.3l0.8-16.7l3.2-3.2c5.4-5.7,12.6-18,0.9-36c-8.4-12.8-22.4-19.3-41.8-19.3
		c-7.4,0-24.4,0-40.4,10.5c-46.4,1.2-52.4,24.3-52.4,44.5c0,4.4,0.9,13.3,1.7,19.8c-2.3,1.1-4.4,2.6-6.1,4.5
		c-3.5,4-5.1,9.2-4.5,14.5l2.6,20.9c0.9,7.3,6.1,13.2,12.9,15.3c2.5,13.7,9.1,27.2,18.6,37.4L149,246l-38.4,9.6
		c-27.5,7-46.6,31.5-46.6,59.8c0,2.1,0.8,4.2,2.3,5.7s3.5,2.3,5.7,2.3h240c4.4,0,8-3.6,8-8C320,287.1,300.9,262.6,273.5,255.8z
		 M80.7,307.4c3.1-17.4,16.1-31.7,33.7-36.1l43-10.8c2.9-0.7,5.1-3,5.8-5.8l5.1-20.5c0.7-2.8-0.2-5.8-2.3-7.8
		c-10-9.4-16.7-23.2-17.8-37c-0.3-4.2-3.8-7.4-8-7.4h-1.7c-1.2,0-2.3-0.9-2.4-2.1l-2.6-20.9c-0.1-0.9,0.3-1.6,0.6-1.9
		c0.3-0.3,0.9-0.8,2.9-0.8c2.3,0,4.5-1,6-2.7s2.2-4,1.9-6.3c-0.7-5.3-2.4-20.1-2.4-25.1c0-12.5,0-28.1,39-28.5
		c1.6,0,3.2-0.5,4.6-1.5c12.5-8.9,26.5-8.9,33.2-8.9c13.9,0,23.2,3.9,28.5,12c6.6,10.1,2.9,14.1,1,16l-5.2,5.2
		c-1.4,1.4-2.2,3.3-2.3,5.3l-1.3,26.1c-0.1,2.2,0.7,4.3,2.2,5.9s3.6,2.5,5.7,2.5c1,0,1.6,0.5,1.8,0.8c0.3,0.4,0.7,1,0.6,1.9
		l-2.6,20.9c-0.2,1.2-1.2,2.1-2.9,2.1c-4.2,0-7.6,3.2-8,7.4c-1.1,13.9-8.3,28.4-18.6,37.7c-2.2,2-3.1,5-2.4,7.9l4.9,19.6
		c0.7,2.8,3,5.1,5.8,5.8l43,10.8c17.6,4.4,30.6,18.7,33.7,36.1L80.7,307.4z"/>
</g>
</svg>
